%TF.GenerationSoftware,Altium Limited,Altium Designer,24.5.2 (23)*%
G04 Layer_Color=8388736*
%FSLAX45Y45*%
%MOMM*%
%TF.SameCoordinates,57FA01A1-E815-4C6C-BC38-3E05548C2649*%
%TF.FilePolarity,Negative*%
%TF.FileFunction,Soldermask,Top*%
%TF.Part,Single*%
G01*
G75*
%TA.AperFunction,SMDPad,CuDef*%
%ADD39R,0.75000X0.65000*%
%ADD40R,0.84000X1.57000*%
%ADD41R,0.72000X0.80000*%
%ADD42R,0.80000X0.72000*%
%ADD43R,0.72000X0.69000*%
%ADD44R,0.69000X0.72000*%
%ADD45R,0.65000X0.75000*%
%ADD46R,1.15000X0.85000*%
%ADD47R,1.10000X0.70000*%
%ADD48R,1.80000X1.60000*%
%ADD49R,0.49000X2.24000*%
%ADD50R,0.49000X0.51500*%
%ADD51R,1.64000X1.24000*%
%TA.AperFunction,ConnectorPad*%
%ADD52R,0.80000X0.72000*%
%TA.AperFunction,SMDPad,CuDef*%
%ADD53O,0.35000X0.90000*%
%ADD54O,0.90000X0.35000*%
%ADD55R,3.80000X3.80000*%
%TA.AperFunction,ComponentPad*%
%ADD56C,0.90000*%
D39*
X286526Y460055D02*
D03*
X371526D02*
D03*
X414700Y546100D02*
D03*
X499700D02*
D03*
X94320Y453977D02*
D03*
X179320D02*
D03*
D40*
X2357259Y1310876D02*
D03*
X2140259D02*
D03*
D41*
X734573Y1074119D02*
D03*
Y982118D02*
D03*
X953956Y501353D02*
D03*
Y409353D02*
D03*
X848207Y410411D02*
D03*
Y502411D02*
D03*
X1471201Y811753D02*
D03*
Y719753D02*
D03*
X758116Y1301741D02*
D03*
Y1393741D02*
D03*
X1169590Y1255872D02*
D03*
Y1347872D02*
D03*
X861478Y1394722D02*
D03*
Y1302722D02*
D03*
X971200Y1392398D02*
D03*
Y1300398D02*
D03*
X1317281Y1311717D02*
D03*
Y1403717D02*
D03*
X1625603Y1307984D02*
D03*
Y1399984D02*
D03*
X566510Y987181D02*
D03*
Y1079181D02*
D03*
X571500Y754100D02*
D03*
Y846100D02*
D03*
X2077090Y148782D02*
D03*
Y240782D02*
D03*
X1473200Y131800D02*
D03*
Y223800D02*
D03*
X104881Y247426D02*
D03*
Y339427D02*
D03*
D42*
X1460124Y923569D02*
D03*
X1552124D02*
D03*
X1497355Y1025632D02*
D03*
X1589355D02*
D03*
X1498225Y1130034D02*
D03*
X1590225D02*
D03*
X545871Y83795D02*
D03*
X453871D02*
D03*
D43*
X1071398Y1253799D02*
D03*
Y1344799D02*
D03*
D44*
X1421198Y1310876D02*
D03*
X1512198D02*
D03*
D45*
X627533Y1307957D02*
D03*
Y1392957D02*
D03*
X644081Y499926D02*
D03*
Y584926D02*
D03*
X732981Y499926D02*
D03*
Y584926D02*
D03*
X241300Y1303700D02*
D03*
Y1388700D02*
D03*
X376600Y1260600D02*
D03*
Y1345600D02*
D03*
X535438Y1295547D02*
D03*
Y1380547D02*
D03*
X1168400Y487000D02*
D03*
Y402000D02*
D03*
D46*
X194630Y1138269D02*
D03*
Y1058269D02*
D03*
X434630Y1138269D02*
D03*
X194630Y978269D02*
D03*
Y898269D02*
D03*
Y818269D02*
D03*
Y738269D02*
D03*
Y658268D02*
D03*
X434630Y1058269D02*
D03*
Y978269D02*
D03*
Y898269D02*
D03*
Y818269D02*
D03*
Y738269D02*
D03*
Y658268D02*
D03*
D47*
X1637861Y145471D02*
D03*
Y335471D02*
D03*
X1912861D02*
D03*
Y240471D02*
D03*
Y145471D02*
D03*
D48*
X1891348Y524222D02*
D03*
Y694222D02*
D03*
X1671348Y524222D02*
D03*
Y694222D02*
D03*
D49*
X485323Y266320D02*
D03*
X229323D02*
D03*
D50*
X302323Y360320D02*
D03*
X412323D02*
D03*
X357323D02*
D03*
X412323Y172320D02*
D03*
X302323D02*
D03*
X357323D02*
D03*
D51*
Y266320D02*
D03*
D52*
X186080Y549176D02*
D03*
X94080D02*
D03*
D53*
X1264196Y1108287D02*
D03*
X1214196D02*
D03*
X1164196D02*
D03*
X1114196D02*
D03*
X1064196D02*
D03*
X1014196D02*
D03*
X964196D02*
D03*
X914196D02*
D03*
Y623287D02*
D03*
X964196D02*
D03*
X1014196D02*
D03*
X1064196D02*
D03*
X1114196D02*
D03*
X1164196D02*
D03*
X1214196D02*
D03*
X1264196D02*
D03*
D54*
X846696Y1040787D02*
D03*
Y990787D02*
D03*
Y940787D02*
D03*
Y890787D02*
D03*
Y840787D02*
D03*
Y790787D02*
D03*
Y740787D02*
D03*
Y690787D02*
D03*
X1331696D02*
D03*
Y740787D02*
D03*
Y790787D02*
D03*
Y840787D02*
D03*
Y890787D02*
D03*
Y940787D02*
D03*
Y990787D02*
D03*
Y1040787D02*
D03*
D55*
X1089196Y865787D02*
D03*
D56*
X1309237Y166877D02*
D03*
X1182237D02*
D03*
X1055237D02*
D03*
X928237D02*
D03*
%TF.MD5,892c28c9306c1e3dad29e2ef7007bb41*%
M02*
