%TF.GenerationSoftware,Altium Limited,Altium Designer,24.5.2 (23)*%
G04 Layer_Physical_Order=2*
G04 Layer_Color=36540*
%FSLAX45Y45*%
%MOMM*%
%TF.SameCoordinates,57FA01A1-E815-4C6C-BC38-3E05548C2649*%
%TF.FilePolarity,Positive*%
%TF.FileFunction,Copper,L2,Inr,Signal*%
%TF.Part,Single*%
G01*
G75*
%TA.AperFunction,ComponentPad*%
%ADD30C,0.80000*%
%TA.AperFunction,ViaPad*%
%ADD31C,0.60000*%
%ADD32C,0.50000*%
G36*
X750048Y1485983D02*
X759972Y1479352D01*
X778349Y1471741D01*
X790054Y1469412D01*
X800000D01*
X1700010Y1469412D01*
X1700011Y1469412D01*
X1700013Y1469412D01*
X1701800Y1469412D01*
X1714500Y1458594D01*
Y863600D01*
X2469413D01*
X2469414Y250001D01*
X2469413Y228390D01*
X2460981Y186000D01*
X2444441Y146068D01*
X2420429Y110132D01*
X2389867Y79570D01*
X2353931Y55558D01*
X2314001Y39019D01*
X2271610Y30587D01*
X2250000Y30587D01*
X1950001Y30587D01*
X1938296Y28258D01*
X1928373Y21628D01*
X1921742Y11704D01*
X1919414Y0D01*
X1763988D01*
X1749961Y14026D01*
X1740038Y20657D01*
X1721661Y28269D01*
X1709955Y30597D01*
X1700010D01*
X800000Y30598D01*
X799997Y30597D01*
X790050Y30596D01*
X778345Y28267D01*
X759966Y20652D01*
X750044Y14020D01*
X736026Y0D01*
X580586D01*
X578258Y11704D01*
X571628Y21628D01*
X561704Y28258D01*
X549999Y30587D01*
X422435D01*
X417573Y43287D01*
X423739Y58173D01*
Y76075D01*
X416888Y92614D01*
X404230Y105273D01*
X387690Y112123D01*
X369788D01*
X353249Y105273D01*
X340590Y92614D01*
X333739Y76075D01*
Y58173D01*
X339905Y43287D01*
X335043Y30586D01*
X250000D01*
X228389Y30587D01*
X186000Y39018D01*
X146068Y55559D01*
X110132Y79571D01*
X79570Y110132D01*
X55558Y146069D01*
X39018Y186000D01*
X30587Y228389D01*
Y250000D01*
Y590721D01*
X43287Y594640D01*
X53174Y584753D01*
X69713Y577903D01*
X87615D01*
X104154Y584753D01*
X116813Y597412D01*
X123664Y613952D01*
Y631853D01*
X116813Y648393D01*
X104154Y661052D01*
X87615Y667902D01*
X69713D01*
X53174Y661052D01*
X43287Y651165D01*
X30587Y655084D01*
X30586Y1250000D01*
X30586Y1271610D01*
X39018Y1314001D01*
X55558Y1353930D01*
X79570Y1389868D01*
X110132Y1420429D01*
X146069Y1444442D01*
X185999Y1460982D01*
X228389Y1469413D01*
X317947D01*
X320473Y1456713D01*
X312758Y1453518D01*
X300099Y1440859D01*
X293249Y1424320D01*
Y1406418D01*
X300099Y1389878D01*
X312758Y1377220D01*
X329298Y1370369D01*
X347199D01*
X363739Y1377220D01*
X376398Y1389878D01*
X383248Y1406418D01*
Y1424320D01*
X376398Y1440859D01*
X363739Y1453518D01*
X356024Y1456713D01*
X358550Y1469413D01*
X422613D01*
X427874Y1456713D01*
X419051Y1447890D01*
X412200Y1431351D01*
Y1413449D01*
X419051Y1396910D01*
X431710Y1384251D01*
X448249Y1377400D01*
X466151D01*
X482690Y1384251D01*
X495349Y1396910D01*
X502200Y1413449D01*
Y1431351D01*
X495349Y1447890D01*
X486526Y1456713D01*
X491787Y1469413D01*
X527652D01*
X534708Y1458854D01*
X533616Y1456217D01*
Y1438315D01*
X540467Y1421775D01*
X553125Y1409117D01*
X569665Y1402266D01*
X587567D01*
X604106Y1409117D01*
X616765Y1421775D01*
X623616Y1438315D01*
Y1456217D01*
X616765Y1472756D01*
X604106Y1485415D01*
X599556Y1487300D01*
X602082Y1500000D01*
X736032D01*
X750048Y1485983D01*
D02*
G37*
%LPC*%
G36*
X186751Y1429300D02*
X168849D01*
X152310Y1422449D01*
X139651Y1409790D01*
X132800Y1393251D01*
Y1375349D01*
X139651Y1358810D01*
X152310Y1346151D01*
X168849Y1339300D01*
X186751D01*
X203290Y1346151D01*
X215949Y1358810D01*
X222800Y1375349D01*
Y1393251D01*
X215949Y1409790D01*
X203290Y1422449D01*
X186751Y1429300D01*
D02*
G37*
G36*
X310233Y1348016D02*
X292331D01*
X275791Y1341165D01*
X263133Y1328507D01*
X256282Y1311967D01*
Y1294065D01*
X263133Y1277526D01*
X275791Y1264867D01*
X292331Y1258017D01*
X310233D01*
X326772Y1264867D01*
X339431Y1277526D01*
X346282Y1294065D01*
Y1311967D01*
X339431Y1328507D01*
X326772Y1341165D01*
X310233Y1348016D01*
D02*
G37*
G36*
X721431Y1306344D02*
X703529D01*
X686989Y1299493D01*
X674331Y1286835D01*
X667480Y1270295D01*
Y1252393D01*
X674331Y1235854D01*
X686989Y1223195D01*
X703529Y1216345D01*
X721431D01*
X737970Y1223195D01*
X750629Y1235854D01*
X757480Y1252393D01*
Y1270295D01*
X750629Y1286835D01*
X737970Y1299493D01*
X721431Y1306344D01*
D02*
G37*
G36*
X466151Y1276900D02*
X448249D01*
X431710Y1270049D01*
X419051Y1257390D01*
X412200Y1240851D01*
Y1222949D01*
X419051Y1206410D01*
X431710Y1193751D01*
X448249Y1186900D01*
X466151D01*
X482690Y1193751D01*
X495349Y1206410D01*
X502200Y1222949D01*
Y1240851D01*
X495349Y1257390D01*
X482690Y1270049D01*
X466151Y1276900D01*
D02*
G37*
G36*
X1482151Y1238800D02*
X1464249D01*
X1447710Y1231949D01*
X1435051Y1219290D01*
X1428200Y1202751D01*
Y1184849D01*
X1435051Y1168310D01*
X1447710Y1155651D01*
X1464249Y1148800D01*
X1482151D01*
X1498690Y1155651D01*
X1511349Y1168310D01*
X1518200Y1184849D01*
Y1202751D01*
X1511349Y1219290D01*
X1498690Y1231949D01*
X1482151Y1238800D01*
D02*
G37*
G36*
X847151Y1149900D02*
X829249D01*
X812710Y1143049D01*
X800051Y1130390D01*
X793200Y1113851D01*
Y1095949D01*
X800051Y1079410D01*
X812710Y1066751D01*
X829249Y1059900D01*
X847151D01*
X863690Y1066751D01*
X876349Y1079410D01*
X883200Y1095949D01*
Y1113851D01*
X876349Y1130390D01*
X863690Y1143049D01*
X847151Y1149900D01*
D02*
G37*
G36*
X326451Y1099100D02*
X308549D01*
X292010Y1092249D01*
X279351Y1079590D01*
X272500Y1063051D01*
Y1045149D01*
X279351Y1028610D01*
X292010Y1015951D01*
X308549Y1009100D01*
X326451D01*
X342990Y1015951D01*
X355649Y1028610D01*
X362500Y1045149D01*
Y1063051D01*
X355649Y1079590D01*
X342990Y1092249D01*
X326451Y1099100D01*
D02*
G37*
G36*
X656651Y1061000D02*
X638749D01*
X622210Y1054149D01*
X609551Y1041490D01*
X602700Y1024951D01*
Y1007049D01*
X609551Y990510D01*
X618103Y981957D01*
X621326Y975017D01*
X618415Y965676D01*
X610706Y957967D01*
X603856Y941428D01*
Y923526D01*
X610706Y906987D01*
X623365Y894328D01*
X639904Y887477D01*
X657806D01*
X674346Y894328D01*
X687004Y906987D01*
X693855Y923526D01*
Y941428D01*
X687004Y957967D01*
X678452Y966520D01*
X675229Y973460D01*
X678140Y982801D01*
X685849Y990510D01*
X692700Y1007049D01*
Y1024951D01*
X685849Y1041490D01*
X673190Y1054149D01*
X656651Y1061000D01*
D02*
G37*
G36*
X762806Y932658D02*
X744905D01*
X728365Y925807D01*
X715706Y913148D01*
X708856Y896609D01*
Y878707D01*
X715706Y862167D01*
X720486Y857388D01*
X718480Y842810D01*
X705821Y830152D01*
X698970Y813612D01*
Y795710D01*
X705821Y779171D01*
X718480Y766512D01*
X735019Y759661D01*
X752921D01*
X769461Y766512D01*
X782119Y779171D01*
X788970Y795710D01*
Y813612D01*
X782119Y830152D01*
X777340Y834931D01*
X779346Y849509D01*
X792005Y862167D01*
X798855Y878707D01*
Y896609D01*
X792005Y913148D01*
X779346Y925807D01*
X762806Y932658D01*
D02*
G37*
G36*
X643951Y794300D02*
X626049D01*
X609510Y787449D01*
X596851Y774790D01*
X590000Y758251D01*
Y740349D01*
X596851Y723810D01*
X609510Y711151D01*
X626049Y704300D01*
X643951D01*
X660490Y711151D01*
X673149Y723810D01*
X680000Y740349D01*
Y758251D01*
X673149Y774790D01*
X660490Y787449D01*
X643951Y794300D01*
D02*
G37*
G36*
X569281Y665056D02*
X551379D01*
X534839Y658205D01*
X522181Y645547D01*
X515330Y629007D01*
Y611105D01*
X522181Y594566D01*
X534839Y581907D01*
X551379Y575056D01*
X569281D01*
X585820Y581907D01*
X598479Y594566D01*
X605330Y611105D01*
Y629007D01*
X598479Y645547D01*
X585820Y658205D01*
X569281Y665056D01*
D02*
G37*
G36*
X352157Y629382D02*
X334255D01*
X317716Y622531D01*
X305057Y609873D01*
X298206Y593333D01*
Y575431D01*
X305057Y558892D01*
X317716Y546233D01*
X334255Y539382D01*
X352157D01*
X368696Y546233D01*
X381355Y558892D01*
X388206Y575431D01*
Y593333D01*
X381355Y609873D01*
X368696Y622531D01*
X352157Y629382D01*
D02*
G37*
G36*
X834451Y629200D02*
X816549D01*
X800010Y622349D01*
X787351Y609690D01*
X780500Y593151D01*
Y575249D01*
X787351Y558710D01*
X800010Y546051D01*
X816549Y539200D01*
X834451D01*
X850990Y546051D01*
X863649Y558710D01*
X870500Y575249D01*
Y593151D01*
X863649Y609690D01*
X850990Y622349D01*
X834451Y629200D01*
D02*
G37*
G36*
X745021Y480260D02*
X727119D01*
X710580Y473409D01*
X697921Y460750D01*
X695397Y454657D01*
X681651D01*
X680118Y458358D01*
X667459Y471017D01*
X650919Y477868D01*
X633018D01*
X616478Y471017D01*
X603819Y458358D01*
X596969Y441819D01*
Y423917D01*
X603819Y407377D01*
X616478Y394719D01*
X633018Y387868D01*
X650919D01*
X667459Y394719D01*
X680118Y407377D01*
X682642Y413471D01*
X696388D01*
X697921Y409770D01*
X710580Y397111D01*
X727119Y390260D01*
X745021D01*
X761561Y397111D01*
X774219Y409770D01*
X781070Y426309D01*
Y444211D01*
X774219Y460750D01*
X761561Y473409D01*
X745021Y480260D01*
D02*
G37*
G36*
X1050018Y541437D02*
X1032116D01*
X1015577Y534586D01*
X1002918Y521927D01*
X996067Y505388D01*
Y487486D01*
X1002918Y470946D01*
X1015577Y458288D01*
X1032116Y451437D01*
X1050018D01*
X1066557Y458288D01*
X1079216Y470946D01*
X1086067Y487486D01*
Y505388D01*
X1079216Y521927D01*
X1066557Y534586D01*
X1050018Y541437D01*
D02*
G37*
G36*
X2155251Y476800D02*
X2137349D01*
X2120810Y469949D01*
X2108151Y457290D01*
X2101300Y440751D01*
Y422849D01*
X2108151Y406310D01*
X2120810Y393651D01*
X2137349Y386800D01*
X2155251D01*
X2171790Y393651D01*
X2184449Y406310D01*
X2191300Y422849D01*
Y440751D01*
X2184449Y457290D01*
X2171790Y469949D01*
X2155251Y476800D01*
D02*
G37*
G36*
X1096376Y444919D02*
X1078474D01*
X1061934Y438068D01*
X1049276Y425409D01*
X1042425Y408870D01*
Y390968D01*
X1049276Y374429D01*
X1061934Y361770D01*
X1078474Y354919D01*
X1096376D01*
X1112915Y361770D01*
X1125574Y374429D01*
X1132424Y390968D01*
Y408870D01*
X1125574Y425409D01*
X1112915Y438068D01*
X1096376Y444919D01*
D02*
G37*
G36*
X97851Y438700D02*
X79949D01*
X63410Y431849D01*
X50751Y419190D01*
X43900Y402651D01*
Y384749D01*
X50751Y368210D01*
X63410Y355551D01*
X79949Y348700D01*
X97851D01*
X114390Y355551D01*
X127049Y368210D01*
X133900Y384749D01*
Y402651D01*
X127049Y419190D01*
X114390Y431849D01*
X97851Y438700D01*
D02*
G37*
G36*
X1491650Y426902D02*
X1473748D01*
X1457208Y420051D01*
X1444550Y407393D01*
X1437699Y390853D01*
Y372951D01*
X1444550Y356412D01*
X1440595Y343749D01*
X1424056Y336898D01*
X1411397Y324240D01*
X1404546Y307700D01*
Y289798D01*
X1411397Y273259D01*
X1424056Y260600D01*
X1440595Y253749D01*
X1458497D01*
X1475037Y260600D01*
X1487695Y273259D01*
X1494546Y289798D01*
Y307700D01*
X1487695Y324239D01*
X1491650Y336902D01*
X1508189Y343753D01*
X1520848Y356412D01*
X1527699Y372951D01*
Y390853D01*
X1520848Y407393D01*
X1508189Y420051D01*
X1491650Y426902D01*
D02*
G37*
G36*
X1324238Y225607D02*
Y181878D01*
X1367967D01*
X1360103Y200864D01*
X1343225Y217743D01*
X1324238Y225607D01*
D02*
G37*
G36*
X1294238Y225608D02*
X1275250Y217743D01*
X1258372Y200864D01*
X1249238Y178812D01*
X1237237Y177818D01*
X1228864Y198032D01*
X1213392Y213504D01*
X1193177Y221877D01*
X1171297D01*
X1151083Y213504D01*
X1135611Y198032D01*
X1127238Y177817D01*
Y155937D01*
X1135611Y135722D01*
X1151083Y120251D01*
X1171297Y111877D01*
X1193177D01*
X1213392Y120251D01*
X1228864Y135722D01*
X1237237Y155937D01*
X1249238Y154942D01*
X1258372Y132890D01*
X1275250Y116012D01*
X1294238Y108147D01*
Y166878D01*
Y225608D01*
D02*
G37*
G36*
X809770Y266522D02*
X791868D01*
X775328Y259671D01*
X762670Y247012D01*
X755819Y230473D01*
Y212571D01*
X762670Y196032D01*
X775328Y183373D01*
X791868Y176522D01*
X809770D01*
X826309Y183373D01*
X838968Y196032D01*
X845818Y212571D01*
Y230473D01*
X838968Y247012D01*
X826309Y259671D01*
X809770Y266522D01*
D02*
G37*
G36*
X1066177Y221877D02*
X1044297D01*
X1024083Y213504D01*
X1008611Y198032D01*
X1000238Y177817D01*
Y155937D01*
X1008611Y135722D01*
X1024083Y120251D01*
X1044297Y111877D01*
X1066177D01*
X1086392Y120251D01*
X1101864Y135722D01*
X1110237Y155937D01*
Y177817D01*
X1101864Y198032D01*
X1086392Y213504D01*
X1066177Y221877D01*
D02*
G37*
G36*
X939177D02*
X917297D01*
X897083Y213504D01*
X881611Y198032D01*
X873238Y177817D01*
Y155937D01*
X881611Y135722D01*
X897083Y120251D01*
X917297Y111877D01*
X939177D01*
X959392Y120251D01*
X974864Y135722D01*
X983237Y155937D01*
Y177817D01*
X974864Y198032D01*
X959392Y213504D01*
X939177Y221877D01*
D02*
G37*
G36*
X1367968Y151878D02*
X1324238D01*
Y108147D01*
X1343225Y116012D01*
X1360103Y132890D01*
X1367968Y151878D01*
D02*
G37*
G36*
X2155251Y197400D02*
X2137349D01*
X2120810Y190549D01*
X2108151Y177890D01*
X2101300Y161351D01*
Y143449D01*
X2108151Y126910D01*
X2120810Y114251D01*
X2137349Y107400D01*
X2155251D01*
X2171790Y114251D01*
X2184449Y126910D01*
X2191300Y143449D01*
Y161351D01*
X2184449Y177890D01*
X2171790Y190549D01*
X2155251Y197400D01*
D02*
G37*
%LPD*%
D30*
X1309237Y166877D02*
D03*
X1182237D02*
D03*
X1055237D02*
D03*
X928237D02*
D03*
D31*
X743970Y804661D02*
D03*
X648574Y845171D02*
D03*
X753855Y887658D02*
D03*
X648855Y932477D02*
D03*
X578616Y1447266D02*
D03*
X457200Y1422400D02*
D03*
X1482699Y381902D02*
D03*
X2146300Y431800D02*
D03*
Y152400D02*
D03*
X1808832Y244309D02*
D03*
X1397000Y88900D02*
D03*
X1257300Y495300D02*
D03*
X987774Y328012D02*
D03*
X876300Y330200D02*
D03*
X647700Y50800D02*
D03*
X622300Y1104900D02*
D03*
X1612900Y787400D02*
D03*
X1735000Y830735D02*
D03*
X1799496Y405945D02*
D03*
X1473200Y622300D02*
D03*
X2026512Y566623D02*
D03*
X457200Y1231900D02*
D03*
X736070Y435260D02*
D03*
X641968Y432868D02*
D03*
X378739Y67124D02*
D03*
X800819Y221522D02*
D03*
X1449546Y298749D02*
D03*
X1087425Y399919D02*
D03*
X560330Y620056D02*
D03*
X266700Y76200D02*
D03*
X88900Y393700D02*
D03*
X78664Y622902D02*
D03*
X127000Y152400D02*
D03*
X463183Y446678D02*
D03*
X915433Y1423025D02*
D03*
X813833D02*
D03*
X1067833Y1435725D02*
D03*
X1169433D02*
D03*
X1417281Y1403761D02*
D03*
X1835000Y830779D02*
D03*
X1678221Y935056D02*
D03*
X1678177Y1035056D02*
D03*
X1678133Y1135056D02*
D03*
X1676401Y1224291D02*
D03*
X1678000Y1435056D02*
D03*
X1935000Y830823D02*
D03*
X2035000Y830868D02*
D03*
X2135000Y830912D02*
D03*
X2235000Y830956D02*
D03*
X2335000Y831000D02*
D03*
X2435000Y831044D02*
D03*
X317500Y1054100D02*
D03*
X343206Y584382D02*
D03*
X63500Y901700D02*
D03*
X330200Y952500D02*
D03*
X558800Y1168400D02*
D03*
X635000Y749300D02*
D03*
X647700Y1016000D02*
D03*
X825500Y584200D02*
D03*
X177800Y1384300D02*
D03*
X338248Y1415369D02*
D03*
X301282Y1303016D02*
D03*
X712480Y1261344D02*
D03*
X1041067Y496437D02*
D03*
X1473200Y1193800D02*
D03*
X838200Y1104900D02*
D03*
D32*
X395423Y266320D02*
D03*
X319223D02*
D03*
X1199196Y975787D02*
D03*
Y865787D02*
D03*
Y755787D02*
D03*
X1089196Y975787D02*
D03*
Y865787D02*
D03*
Y755787D02*
D03*
X979196Y975787D02*
D03*
Y865787D02*
D03*
Y755787D02*
D03*
%TF.MD5,c194447a600f5155d2b1fabb46494759*%
M02*
