%TF.GenerationSoftware,Altium Limited,Altium Designer,24.5.2 (23)*%
G04 Layer_Physical_Order=3*
G04 Layer_Color=16440176*
%FSLAX45Y45*%
%MOMM*%
%TF.SameCoordinates,57FA01A1-E815-4C6C-BC38-3E05548C2649*%
%TF.FilePolarity,Positive*%
%TF.FileFunction,Copper,L3,Inr,Signal*%
%TF.Part,Single*%
G01*
G75*
%TA.AperFunction,ComponentPad*%
%ADD30C,0.80000*%
%TA.AperFunction,ViaPad*%
%ADD31C,0.60000*%
%ADD32C,0.50000*%
G36*
X750048Y1485983D02*
X759972Y1479352D01*
X778349Y1471741D01*
X781621Y1471090D01*
X784697Y1457529D01*
X775684Y1448515D01*
X768833Y1431976D01*
Y1414074D01*
X775684Y1397534D01*
X788342Y1384876D01*
X804882Y1378025D01*
X822784D01*
X839323Y1384876D01*
X851982Y1397534D01*
X858283Y1412746D01*
X864633Y1413440D01*
X870983Y1412746D01*
X877284Y1397534D01*
X889942Y1384876D01*
X906482Y1378025D01*
X924384D01*
X940923Y1384876D01*
X953582Y1397534D01*
X960433Y1414074D01*
Y1431976D01*
X953582Y1448515D01*
X945385Y1456712D01*
X950645Y1469412D01*
X1021287D01*
X1027818Y1456712D01*
X1022833Y1444676D01*
Y1426774D01*
X1029684Y1410234D01*
X1042342Y1397576D01*
X1058882Y1390725D01*
X1076784D01*
X1093323Y1397576D01*
X1105982Y1410234D01*
X1112283Y1425446D01*
X1118633Y1426140D01*
X1124983Y1425446D01*
X1131284Y1410234D01*
X1143942Y1397576D01*
X1160482Y1390725D01*
X1178384D01*
X1194923Y1397576D01*
X1207582Y1410234D01*
X1214433Y1426774D01*
Y1444676D01*
X1209447Y1456712D01*
X1215978Y1469412D01*
X1632123Y1469412D01*
X1638263Y1456712D01*
X1633000Y1444007D01*
Y1426105D01*
X1639851Y1409565D01*
X1652510Y1396907D01*
X1669049Y1390056D01*
X1686951D01*
X1701800Y1396207D01*
X1714500Y1391323D01*
Y1266425D01*
X1702767Y1261565D01*
X1701891Y1262440D01*
X1685352Y1269291D01*
X1667450D01*
X1650910Y1262440D01*
X1638252Y1249782D01*
X1631401Y1233242D01*
Y1215340D01*
X1638252Y1198801D01*
X1650910Y1186142D01*
X1652063Y1185665D01*
X1651563Y1172125D01*
X1639984Y1160546D01*
X1633133Y1144007D01*
Y1126105D01*
X1639984Y1109565D01*
X1652642Y1096907D01*
X1664997Y1091789D01*
X1665042Y1078322D01*
X1652686Y1073205D01*
X1640028Y1060546D01*
X1633177Y1044007D01*
Y1026105D01*
X1640028Y1009565D01*
X1652686Y996907D01*
X1665042Y991789D01*
X1665086Y978322D01*
X1652731Y973205D01*
X1640072Y960546D01*
X1633221Y944006D01*
Y926105D01*
X1640072Y909565D01*
X1652731Y896907D01*
X1669270Y890056D01*
X1687172D01*
X1701800Y896115D01*
X1714500Y891102D01*
Y870951D01*
X1709509Y868884D01*
X1696851Y856225D01*
X1690000Y839686D01*
Y821784D01*
X1696851Y805245D01*
X1709509Y792586D01*
X1726049Y785735D01*
X1743951D01*
X1760490Y792586D01*
X1773149Y805245D01*
X1778266Y817600D01*
X1791733Y817644D01*
X1796851Y805289D01*
X1809509Y792630D01*
X1826049Y785779D01*
X1843951D01*
X1860490Y792630D01*
X1873149Y805289D01*
X1878266Y817644D01*
X1891733Y817688D01*
X1896851Y805333D01*
X1909509Y792674D01*
X1926049Y785823D01*
X1943951D01*
X1960490Y792674D01*
X1973149Y805333D01*
X1978267Y817688D01*
X1991733Y817732D01*
X1996851Y805377D01*
X2009509Y792719D01*
X2026049Y785868D01*
X2043951D01*
X2060490Y792719D01*
X2073149Y805377D01*
X2078267Y817732D01*
X2091733Y817777D01*
X2096851Y805421D01*
X2109509Y792763D01*
X2126049Y785912D01*
X2143951D01*
X2160490Y792763D01*
X2173149Y805421D01*
X2178267Y817777D01*
X2191733Y817821D01*
X2196851Y805465D01*
X2209509Y792807D01*
X2226049Y785956D01*
X2243951D01*
X2260490Y792807D01*
X2273149Y805465D01*
X2278267Y817821D01*
X2291733Y817865D01*
X2296851Y805510D01*
X2309509Y792851D01*
X2326049Y786000D01*
X2343951D01*
X2360490Y792851D01*
X2373149Y805510D01*
X2378267Y817865D01*
X2391733Y817909D01*
X2396851Y805554D01*
X2409510Y792895D01*
X2426049Y786044D01*
X2443951D01*
X2456713Y791331D01*
X2469413Y785225D01*
X2469414Y498836D01*
X1993900D01*
X1982419Y494081D01*
X1977664Y482600D01*
Y266236D01*
X1853832D01*
X1849245Y264336D01*
X1846981Y269800D01*
X1834323Y282458D01*
X1817783Y289309D01*
X1799881D01*
X1783342Y282458D01*
X1770683Y269800D01*
X1768420Y264336D01*
X1763832Y266236D01*
X810460D01*
X809770Y266522D01*
X791868D01*
X791177Y266236D01*
X435423D01*
Y274277D01*
X429333Y288978D01*
X418081Y300230D01*
X403379Y306320D01*
X387466D01*
X384536Y305106D01*
X371836Y313592D01*
Y549373D01*
X381355Y558892D01*
X388206Y575431D01*
Y593333D01*
X381355Y609873D01*
X371836Y619392D01*
Y902884D01*
X371200Y904420D01*
X371524Y906051D01*
X368893Y909989D01*
X367081Y914364D01*
X368073Y926734D01*
X368349Y927010D01*
X375200Y943549D01*
Y948964D01*
X617939D01*
X629420Y953719D01*
X632562Y956862D01*
X643134Y961241D01*
X654577D01*
X666887Y956142D01*
X672770D01*
X678654Y955886D01*
X684652Y958069D01*
X685703Y959032D01*
X687117Y959208D01*
X693819Y963015D01*
X695201Y964791D01*
X697281Y965652D01*
X698882Y969518D01*
X701453Y972820D01*
X701175Y975053D01*
X702036Y977132D01*
Y1219200D01*
X697281Y1230681D01*
X685800Y1235436D01*
X586935D01*
X582628Y1233652D01*
X578046Y1232787D01*
X577064Y1231347D01*
X575455Y1230681D01*
X573670Y1226374D01*
X571043Y1222522D01*
X569308Y1214222D01*
X567751Y1213400D01*
X549849D01*
X548292Y1214222D01*
X546557Y1222522D01*
X543930Y1226374D01*
X542145Y1230681D01*
X540536Y1231347D01*
X539554Y1232787D01*
X534972Y1233652D01*
X530665Y1235436D01*
X502200D01*
Y1240851D01*
X495349Y1257390D01*
X482690Y1270049D01*
X466151Y1276900D01*
X448249D01*
X431710Y1270049D01*
X419051Y1257390D01*
X412200Y1240851D01*
Y1235436D01*
X30586D01*
X30586Y1271610D01*
X39018Y1314001D01*
X55558Y1353930D01*
X79570Y1389868D01*
X110132Y1420429D01*
X146069Y1444442D01*
X185999Y1460982D01*
X228389Y1469413D01*
X549999D01*
X561704Y1471742D01*
X571628Y1478372D01*
X578258Y1488296D01*
X580586Y1500000D01*
X736032D01*
X750048Y1485983D01*
D02*
G37*
G36*
X685800Y977132D02*
X679098Y973326D01*
X673100Y971142D01*
X657806Y977477D01*
X639904D01*
X623365Y970626D01*
X617939Y965200D01*
X373647D01*
X368349Y977990D01*
X355690Y990649D01*
X339151Y997500D01*
X331633D01*
X329106Y1010200D01*
X342990Y1015951D01*
X355649Y1028610D01*
X362500Y1045149D01*
Y1063051D01*
X355649Y1079590D01*
X342990Y1092249D01*
X326451Y1099100D01*
X308549D01*
X292010Y1092249D01*
X279351Y1079590D01*
X272500Y1063051D01*
Y1045149D01*
X279351Y1028610D01*
X292010Y1015951D01*
X308549Y1009100D01*
X316067D01*
X318594Y996400D01*
X304710Y990649D01*
X292051Y977990D01*
X285200Y961451D01*
Y943549D01*
X292051Y927010D01*
X304710Y914351D01*
X321249Y907500D01*
X339151D01*
X345040Y909940D01*
X355600Y902884D01*
Y304472D01*
X342900Y299211D01*
X341881Y300230D01*
X327179Y306320D01*
X311266D01*
X296565Y300230D01*
X285312Y288978D01*
X279223Y274277D01*
Y258363D01*
X285312Y243662D01*
X296565Y232410D01*
X302729Y229856D01*
X301264Y226320D01*
Y121869D01*
X288564Y115851D01*
X275651Y121200D01*
X257749D01*
X241210Y114349D01*
X228551Y101690D01*
X221700Y85151D01*
Y67249D01*
X228551Y50710D01*
X235974Y43287D01*
X230713Y30587D01*
X228389D01*
X186000Y39018D01*
X146068Y55559D01*
X110132Y79571D01*
X79570Y110132D01*
X55558Y146069D01*
X39018Y186000D01*
X30587Y228389D01*
Y250000D01*
X30586Y854381D01*
X43287Y861365D01*
X54549Y856700D01*
X72451D01*
X88990Y863551D01*
X101649Y876210D01*
X108500Y892749D01*
Y910651D01*
X101649Y927190D01*
X88990Y939849D01*
X72451Y946700D01*
X54549D01*
X43287Y942035D01*
X30586Y949019D01*
Y1219200D01*
X413753D01*
X419051Y1206410D01*
X431710Y1193751D01*
X448249Y1186900D01*
X466151D01*
X482690Y1193751D01*
X495349Y1206410D01*
X500647Y1219200D01*
X530665D01*
X533259Y1206791D01*
X533261Y1206500D01*
X520651Y1193890D01*
X513800Y1177351D01*
Y1159449D01*
X520651Y1142910D01*
X533310Y1130251D01*
X549849Y1123400D01*
X567751D01*
X568722Y1123802D01*
X577702Y1114822D01*
X577300Y1113851D01*
Y1095949D01*
X584151Y1079410D01*
X596810Y1066751D01*
X613349Y1059900D01*
X631251D01*
X647790Y1066751D01*
X660449Y1079410D01*
X667300Y1095949D01*
Y1113851D01*
X660449Y1130390D01*
X647790Y1143049D01*
X631251Y1149900D01*
X613349D01*
X612378Y1149498D01*
X603398Y1158478D01*
X603800Y1159449D01*
Y1177351D01*
X596949Y1193890D01*
X584339Y1206500D01*
X584341Y1206791D01*
X586935Y1219200D01*
X685800D01*
Y977132D01*
D02*
G37*
G36*
X2469414Y250001D02*
X2469413Y228390D01*
X2460981Y186000D01*
X2444441Y146068D01*
X2420429Y110132D01*
X2389867Y79570D01*
X2353931Y55558D01*
X2314001Y39019D01*
X2271610Y30587D01*
X2250000Y30587D01*
X1950001Y30587D01*
X1938296Y28258D01*
X1928373Y21628D01*
X1921742Y11704D01*
X1919414Y0D01*
X1763988D01*
X1749961Y14026D01*
X1740038Y20657D01*
X1721661Y28269D01*
X1709955Y30597D01*
X1700010D01*
X800000Y30598D01*
X799997Y30597D01*
X790050Y30596D01*
X778345Y28267D01*
X759966Y20652D01*
X750044Y14020D01*
X736026Y0D01*
X675835D01*
X673241Y12409D01*
X673239Y12700D01*
X685849Y25310D01*
X692700Y41849D01*
Y59751D01*
X685849Y76290D01*
X673190Y88949D01*
X656651Y95800D01*
X638749D01*
X622210Y88949D01*
X609551Y76290D01*
X602700Y59751D01*
Y41849D01*
X609551Y25310D01*
X622161Y12700D01*
X622159Y12409D01*
X619565Y0D01*
X580586D01*
X578258Y11704D01*
X571628Y21628D01*
X561704Y28258D01*
X549999Y30587D01*
X317500Y30586D01*
Y226320D01*
X327179D01*
X341881Y232410D01*
X349338Y239867D01*
X357323Y242356D01*
X365307Y239867D01*
X372765Y232410D01*
X387466Y226320D01*
X403379D01*
X418081Y232410D01*
X429333Y243662D01*
X431958Y250000D01*
X1763832D01*
Y235358D01*
X1770683Y218819D01*
X1783342Y206160D01*
X1799881Y199309D01*
X1817783D01*
X1834323Y206160D01*
X1846981Y218819D01*
X1853832Y235358D01*
Y250000D01*
X1993900D01*
Y482600D01*
X2469414D01*
Y250001D01*
D02*
G37*
%LPC*%
G36*
X1426232Y1448761D02*
X1408330D01*
X1391790Y1441910D01*
X1379132Y1429251D01*
X1372281Y1412712D01*
Y1394810D01*
X1379132Y1378271D01*
X1391790Y1365612D01*
X1408330Y1358761D01*
X1426232D01*
X1442771Y1365612D01*
X1455430Y1378271D01*
X1462281Y1394810D01*
Y1412712D01*
X1455430Y1429251D01*
X1442771Y1441910D01*
X1426232Y1448761D01*
D02*
G37*
G36*
X310233Y1348016D02*
X292331D01*
X275791Y1341165D01*
X263133Y1328507D01*
X256282Y1311967D01*
Y1294065D01*
X263133Y1277526D01*
X275791Y1264867D01*
X292331Y1258017D01*
X310233D01*
X326772Y1264867D01*
X339431Y1277526D01*
X346282Y1294065D01*
Y1311967D01*
X339431Y1328507D01*
X326772Y1341165D01*
X310233Y1348016D01*
D02*
G37*
G36*
X847151Y1149900D02*
X829249D01*
X812710Y1143049D01*
X800051Y1130390D01*
X793200Y1113851D01*
Y1095949D01*
X800051Y1079410D01*
X812710Y1066751D01*
X829249Y1059900D01*
X847151D01*
X863690Y1066751D01*
X876349Y1079410D01*
X883200Y1095949D01*
Y1113851D01*
X876349Y1130390D01*
X863690Y1143049D01*
X847151Y1149900D01*
D02*
G37*
G36*
X1207153Y1015787D02*
X1191240D01*
X1176538Y1009697D01*
X1165286Y998445D01*
X1159196Y983744D01*
Y967830D01*
X1165286Y953129D01*
X1176538Y941877D01*
X1191240Y935787D01*
X1207153D01*
X1221854Y941877D01*
X1233106Y953129D01*
X1239196Y967830D01*
Y983744D01*
X1233106Y998445D01*
X1221854Y1009697D01*
X1207153Y1015787D01*
D02*
G37*
G36*
X1097153D02*
X1081240D01*
X1066538Y1009697D01*
X1055286Y998445D01*
X1049197Y983744D01*
Y967830D01*
X1055286Y953129D01*
X1066538Y941877D01*
X1081240Y935787D01*
X1097153D01*
X1111855Y941877D01*
X1123107Y953129D01*
X1129196Y967830D01*
Y983744D01*
X1123107Y998445D01*
X1111855Y1009697D01*
X1097153Y1015787D01*
D02*
G37*
G36*
X987153D02*
X971240D01*
X956538Y1009697D01*
X945286Y998445D01*
X939196Y983744D01*
Y967830D01*
X945286Y953129D01*
X956538Y941877D01*
X971240Y935787D01*
X987153D01*
X1001854Y941877D01*
X1013107Y953129D01*
X1019196Y967830D01*
Y983744D01*
X1013107Y998445D01*
X1001854Y1009697D01*
X987153Y1015787D01*
D02*
G37*
G36*
X1207153Y905787D02*
X1191240D01*
X1176538Y899697D01*
X1165286Y888445D01*
X1159196Y873744D01*
Y857831D01*
X1165286Y843129D01*
X1176538Y831877D01*
X1191240Y825787D01*
X1207153D01*
X1221854Y831877D01*
X1233106Y843129D01*
X1239196Y857831D01*
Y873744D01*
X1233106Y888445D01*
X1221854Y899697D01*
X1207153Y905787D01*
D02*
G37*
G36*
X1097153D02*
X1081240D01*
X1066538Y899697D01*
X1055286Y888445D01*
X1049197Y873744D01*
Y857831D01*
X1055286Y843129D01*
X1066538Y831877D01*
X1081240Y825787D01*
X1097153D01*
X1111855Y831877D01*
X1123107Y843129D01*
X1129196Y857831D01*
Y873744D01*
X1123107Y888445D01*
X1111855Y899697D01*
X1097153Y905787D01*
D02*
G37*
G36*
X987153D02*
X971240D01*
X956538Y899697D01*
X945286Y888445D01*
X939196Y873744D01*
Y857831D01*
X945286Y843129D01*
X956538Y831877D01*
X971240Y825787D01*
X987153D01*
X1001854Y831877D01*
X1013107Y843129D01*
X1019196Y857831D01*
Y873744D01*
X1013107Y888445D01*
X1001854Y899697D01*
X987153Y905787D01*
D02*
G37*
G36*
X657525Y890171D02*
X639623D01*
X623084Y883320D01*
X610425Y870661D01*
X603574Y854122D01*
Y836220D01*
X610425Y819680D01*
X623084Y807022D01*
X639623Y800171D01*
X657525D01*
X674064Y807022D01*
X686723Y819680D01*
X693574Y836220D01*
Y854122D01*
X686723Y870661D01*
X674064Y883320D01*
X657525Y890171D01*
D02*
G37*
G36*
X762806Y932658D02*
X744905D01*
X728365Y925807D01*
X715706Y913148D01*
X708856Y896609D01*
Y878707D01*
X715706Y862167D01*
X720486Y857388D01*
X718480Y842810D01*
X705821Y830152D01*
X698970Y813612D01*
Y795710D01*
X705821Y779171D01*
X718480Y766512D01*
X735019Y759661D01*
X752921D01*
X769461Y766512D01*
X782119Y779171D01*
X788970Y795710D01*
Y813612D01*
X782119Y830152D01*
X777340Y834931D01*
X779346Y849509D01*
X792005Y862167D01*
X798855Y878707D01*
Y896609D01*
X792005Y913148D01*
X779346Y925807D01*
X762806Y932658D01*
D02*
G37*
G36*
X1621851Y832400D02*
X1603949D01*
X1587410Y825549D01*
X1574751Y812890D01*
X1567900Y796351D01*
Y778449D01*
X1574751Y761910D01*
X1587410Y749251D01*
X1603949Y742400D01*
X1621851D01*
X1638390Y749251D01*
X1651049Y761910D01*
X1657900Y778449D01*
Y796351D01*
X1651049Y812890D01*
X1638390Y825549D01*
X1621851Y832400D01*
D02*
G37*
G36*
X1207153Y795787D02*
X1191240D01*
X1176538Y789697D01*
X1165286Y778445D01*
X1159196Y763744D01*
Y747831D01*
X1165286Y733129D01*
X1176538Y721877D01*
X1191240Y715787D01*
X1207153D01*
X1221854Y721877D01*
X1233106Y733129D01*
X1239196Y747831D01*
Y763744D01*
X1233106Y778445D01*
X1221854Y789697D01*
X1207153Y795787D01*
D02*
G37*
G36*
X1097153D02*
X1081240D01*
X1066538Y789697D01*
X1055286Y778445D01*
X1049197Y763744D01*
Y747831D01*
X1055286Y733129D01*
X1066538Y721877D01*
X1081240Y715787D01*
X1097153D01*
X1111855Y721877D01*
X1123107Y733129D01*
X1129196Y747831D01*
Y763744D01*
X1123107Y778445D01*
X1111855Y789697D01*
X1097153Y795787D01*
D02*
G37*
G36*
X987153D02*
X971240D01*
X956538Y789697D01*
X945286Y778445D01*
X939196Y763744D01*
Y747831D01*
X945286Y733129D01*
X956538Y721877D01*
X971240Y715787D01*
X987153D01*
X1001854Y721877D01*
X1013107Y733129D01*
X1019196Y747831D01*
Y763744D01*
X1013107Y778445D01*
X1001854Y789697D01*
X987153Y795787D01*
D02*
G37*
G36*
X1482151Y667300D02*
X1464249D01*
X1447710Y660449D01*
X1435051Y647790D01*
X1428200Y631251D01*
Y613349D01*
X1435051Y596810D01*
X1447710Y584151D01*
X1464249Y577300D01*
X1482151D01*
X1498690Y584151D01*
X1511349Y596810D01*
X1518200Y613349D01*
Y631251D01*
X1511349Y647790D01*
X1498690Y660449D01*
X1482151Y667300D01*
D02*
G37*
G36*
X569281Y665056D02*
X551379D01*
X534839Y658205D01*
X522181Y645547D01*
X515330Y629007D01*
Y611105D01*
X522181Y594566D01*
X534839Y581907D01*
X551379Y575056D01*
X569281D01*
X585820Y581907D01*
X598479Y594566D01*
X605330Y611105D01*
Y629007D01*
X598479Y645547D01*
X585820Y658205D01*
X569281Y665056D01*
D02*
G37*
G36*
X2035463Y611623D02*
X2017561D01*
X2001022Y604772D01*
X1988363Y592113D01*
X1981512Y575574D01*
Y557672D01*
X1988363Y541132D01*
X2001022Y528474D01*
X2017561Y521623D01*
X2035463D01*
X2052003Y528474D01*
X2064661Y541132D01*
X2071512Y557672D01*
Y575574D01*
X2064661Y592113D01*
X2052003Y604772D01*
X2035463Y611623D01*
D02*
G37*
G36*
X1266251Y540300D02*
X1248349D01*
X1231810Y533449D01*
X1219151Y520790D01*
X1212300Y504251D01*
Y486349D01*
X1219151Y469810D01*
X1231810Y457151D01*
X1248349Y450300D01*
X1266251D01*
X1282790Y457151D01*
X1295449Y469810D01*
X1302300Y486349D01*
Y504251D01*
X1295449Y520790D01*
X1282790Y533449D01*
X1266251Y540300D01*
D02*
G37*
G36*
X472134Y491678D02*
X454232D01*
X437693Y484827D01*
X425034Y472168D01*
X418183Y455629D01*
Y437727D01*
X425034Y421187D01*
X437693Y408529D01*
X454232Y401678D01*
X472134D01*
X488673Y408529D01*
X501332Y421187D01*
X508183Y437727D01*
Y455629D01*
X501332Y472168D01*
X488673Y484827D01*
X472134Y491678D01*
D02*
G37*
G36*
X1808447Y450945D02*
X1790545D01*
X1774006Y444094D01*
X1761347Y431435D01*
X1754496Y414896D01*
Y396994D01*
X1761347Y380454D01*
X1774006Y367796D01*
X1790545Y360945D01*
X1808447D01*
X1824987Y367796D01*
X1837645Y380454D01*
X1844496Y396994D01*
Y414896D01*
X1837645Y431435D01*
X1824987Y444094D01*
X1808447Y450945D01*
D02*
G37*
G36*
X1096376Y444919D02*
X1078474D01*
X1061934Y438068D01*
X1049276Y425409D01*
X1042425Y408870D01*
Y390968D01*
X1049276Y374429D01*
X1061934Y361770D01*
X1078474Y354919D01*
X1096376D01*
X1112915Y361770D01*
X1125574Y374429D01*
X1132424Y390968D01*
Y408870D01*
X1125574Y425409D01*
X1112915Y438068D01*
X1096376Y444919D01*
D02*
G37*
G36*
X885251Y375200D02*
X867349D01*
X850810Y368349D01*
X838151Y355690D01*
X831300Y339151D01*
Y321249D01*
X838151Y304710D01*
X850810Y292051D01*
X867349Y285200D01*
X885251D01*
X901790Y292051D01*
X914449Y304710D01*
X921300Y321249D01*
Y339151D01*
X914449Y355690D01*
X901790Y368349D01*
X885251Y375200D01*
D02*
G37*
G36*
X996725Y373011D02*
X978823D01*
X962283Y366161D01*
X949625Y353502D01*
X942774Y336962D01*
Y319061D01*
X949625Y302521D01*
X962283Y289863D01*
X978823Y283012D01*
X996725D01*
X1013264Y289863D01*
X1025923Y302521D01*
X1032774Y319061D01*
Y336962D01*
X1025923Y353502D01*
X1013264Y366161D01*
X996725Y373011D01*
D02*
G37*
G36*
X135951Y197400D02*
X118049D01*
X101510Y190549D01*
X88851Y177890D01*
X82000Y161351D01*
Y143449D01*
X88851Y126910D01*
X101510Y114251D01*
X118049Y107400D01*
X135951D01*
X152490Y114251D01*
X165149Y126910D01*
X172000Y143449D01*
Y161351D01*
X165149Y177890D01*
X152490Y190549D01*
X135951Y197400D01*
D02*
G37*
G36*
X913238Y225608D02*
X894250Y217743D01*
X877372Y200864D01*
X869507Y181878D01*
X913238D01*
Y225608D01*
D02*
G37*
G36*
X1320177Y221877D02*
X1298297D01*
X1278083Y213504D01*
X1262611Y198032D01*
X1254238Y177817D01*
Y155937D01*
X1262611Y135722D01*
X1278083Y120251D01*
X1298297Y111877D01*
X1320177D01*
X1340392Y120251D01*
X1355864Y135722D01*
X1364237Y155937D01*
Y177817D01*
X1355864Y198032D01*
X1340392Y213504D01*
X1320177Y221877D01*
D02*
G37*
G36*
X1193177D02*
X1171297D01*
X1151083Y213504D01*
X1135611Y198032D01*
X1127238Y177817D01*
Y155937D01*
X1135611Y135722D01*
X1151083Y120251D01*
X1171297Y111877D01*
X1193177D01*
X1213392Y120251D01*
X1228864Y135722D01*
X1237237Y155937D01*
Y177817D01*
X1228864Y198032D01*
X1213392Y213504D01*
X1193177Y221877D01*
D02*
G37*
G36*
X943238Y225607D02*
Y166878D01*
Y108147D01*
X962225Y116012D01*
X979103Y132890D01*
X988237Y154942D01*
X1000238Y155937D01*
X1008611Y135722D01*
X1024083Y120251D01*
X1044297Y111877D01*
X1066177D01*
X1086392Y120251D01*
X1101864Y135722D01*
X1110237Y155937D01*
Y177817D01*
X1101864Y198032D01*
X1086392Y213504D01*
X1066177Y221877D01*
X1044297D01*
X1024083Y213504D01*
X1008611Y198032D01*
X1000238Y177818D01*
X988237Y178812D01*
X979103Y200864D01*
X962225Y217743D01*
X943238Y225607D01*
D02*
G37*
G36*
X913238Y151878D02*
X869507D01*
X877372Y132890D01*
X894250Y116012D01*
X913238Y108147D01*
Y151878D01*
D02*
G37*
G36*
X1405951Y133900D02*
X1388049D01*
X1371510Y127049D01*
X1358851Y114390D01*
X1352000Y97851D01*
Y79949D01*
X1358851Y63410D01*
X1371510Y50751D01*
X1388049Y43900D01*
X1405951D01*
X1422490Y50751D01*
X1435149Y63410D01*
X1442000Y79949D01*
Y97851D01*
X1435149Y114390D01*
X1422490Y127049D01*
X1405951Y133900D01*
D02*
G37*
%LPD*%
D30*
X1309237Y166877D02*
D03*
X1182237D02*
D03*
X1055237D02*
D03*
X928237D02*
D03*
D31*
X743970Y804661D02*
D03*
X648574Y845171D02*
D03*
X753855Y887658D02*
D03*
X648855Y932477D02*
D03*
X578616Y1447266D02*
D03*
X457200Y1422400D02*
D03*
X1482699Y381902D02*
D03*
X2146300Y431800D02*
D03*
Y152400D02*
D03*
X1808832Y244309D02*
D03*
X1397000Y88900D02*
D03*
X1257300Y495300D02*
D03*
X987774Y328012D02*
D03*
X876300Y330200D02*
D03*
X647700Y50800D02*
D03*
X622300Y1104900D02*
D03*
X1612900Y787400D02*
D03*
X1735000Y830735D02*
D03*
X1799496Y405945D02*
D03*
X1473200Y622300D02*
D03*
X2026512Y566623D02*
D03*
X457200Y1231900D02*
D03*
X736070Y435260D02*
D03*
X641968Y432868D02*
D03*
X378739Y67124D02*
D03*
X800819Y221522D02*
D03*
X1449546Y298749D02*
D03*
X1087425Y399919D02*
D03*
X560330Y620056D02*
D03*
X266700Y76200D02*
D03*
X88900Y393700D02*
D03*
X78664Y622902D02*
D03*
X127000Y152400D02*
D03*
X463183Y446678D02*
D03*
X915433Y1423025D02*
D03*
X813833D02*
D03*
X1067833Y1435725D02*
D03*
X1169433D02*
D03*
X1417281Y1403761D02*
D03*
X1835000Y830779D02*
D03*
X1678221Y935056D02*
D03*
X1678177Y1035056D02*
D03*
X1678133Y1135056D02*
D03*
X1676401Y1224291D02*
D03*
X1678000Y1435056D02*
D03*
X1935000Y830823D02*
D03*
X2035000Y830868D02*
D03*
X2135000Y830912D02*
D03*
X2235000Y830956D02*
D03*
X2335000Y831000D02*
D03*
X2435000Y831044D02*
D03*
X317500Y1054100D02*
D03*
X343206Y584382D02*
D03*
X63500Y901700D02*
D03*
X330200Y952500D02*
D03*
X558800Y1168400D02*
D03*
X635000Y749300D02*
D03*
X647700Y1016000D02*
D03*
X825500Y584200D02*
D03*
X177800Y1384300D02*
D03*
X338248Y1415369D02*
D03*
X301282Y1303016D02*
D03*
X712480Y1261344D02*
D03*
X1041067Y496437D02*
D03*
X1473200Y1193800D02*
D03*
X838200Y1104900D02*
D03*
D32*
X395423Y266320D02*
D03*
X319223D02*
D03*
X1199196Y975787D02*
D03*
Y865787D02*
D03*
Y755787D02*
D03*
X1089196Y975787D02*
D03*
Y865787D02*
D03*
Y755787D02*
D03*
X979196Y975787D02*
D03*
Y865787D02*
D03*
Y755787D02*
D03*
%TF.MD5,7e739bfe21201a99de9e7a37261a65d6*%
M02*
