%TF.GenerationSoftware,Altium Limited,Altium Designer,24.5.2 (23)*%
G04 Layer_Physical_Order=4*
G04 Layer_Color=16711680*
%FSLAX45Y45*%
%MOMM*%
%TF.SameCoordinates,57FA01A1-E815-4C6C-BC38-3E05548C2649*%
%TF.FilePolarity,Positive*%
%TF.FileFunction,Copper,L4,Bot,Signal*%
%TF.Part,Single*%
G01*
G75*
%TA.AperFunction,Conductor*%
%ADD10C,0.35000*%
%TA.AperFunction,SMDPad,CuDef*%
%ADD13R,0.62000X0.70000*%
%ADD14R,0.70000X0.62000*%
%ADD19R,1.00000X0.60000*%
%TA.AperFunction,Conductor*%
%ADD28C,0.15000*%
%ADD29C,0.50000*%
%TA.AperFunction,ComponentPad*%
%ADD30C,0.80000*%
%TA.AperFunction,ViaPad*%
%ADD31C,0.60000*%
%ADD32C,0.50000*%
%TA.AperFunction,SMDPad,CuDef*%
%ADD33R,1.00000X0.55000*%
%ADD34R,1.30000X1.26000*%
G36*
X750048Y1485983D02*
X759972Y1479352D01*
X778349Y1471741D01*
X790054Y1469412D01*
X800000D01*
X1700010Y1469412D01*
X1700011Y1469412D01*
X1700013Y1469412D01*
X1701800Y1469412D01*
X1714500Y1458594D01*
Y863600D01*
X2469413D01*
X2469414Y250001D01*
X2469413Y228390D01*
X2460981Y186000D01*
X2444441Y146068D01*
X2420429Y110132D01*
X2389867Y79570D01*
X2374515Y69312D01*
X2363315Y75299D01*
Y111477D01*
X2278315D01*
Y126477D01*
X2263315D01*
Y209477D01*
X2193315D01*
Y186985D01*
X2180615Y181725D01*
X2171790Y190549D01*
X2155251Y197400D01*
X2137349D01*
X2120810Y190549D01*
X2108151Y177890D01*
X2101300Y161351D01*
Y143449D01*
X2108151Y126910D01*
X2120810Y114251D01*
X2137349Y107400D01*
X2155251D01*
X2171790Y114251D01*
X2180615Y123075D01*
X2193315Y117815D01*
Y43477D01*
X2254369D01*
X2259999Y30777D01*
X2259826Y30587D01*
X2250000D01*
X1950001Y30587D01*
X1938296Y28258D01*
X1928373Y21628D01*
X1921742Y11704D01*
X1919414Y0D01*
X1763988D01*
X1749961Y14026D01*
X1740038Y20657D01*
X1721661Y28269D01*
X1709955Y30597D01*
X1700010D01*
X800000Y30598D01*
X799997Y30597D01*
X790050Y30596D01*
X778345Y28267D01*
X759966Y20652D01*
X750044Y14020D01*
X736026Y0D01*
X580586D01*
X578258Y11704D01*
X571628Y21628D01*
X561704Y28258D01*
X549999Y30587D01*
X422435D01*
X417573Y43287D01*
X423739Y58173D01*
Y76075D01*
X416888Y92614D01*
X404230Y105273D01*
X387690Y112123D01*
X369788D01*
X353249Y105273D01*
X340590Y92614D01*
X333739Y76075D01*
Y58173D01*
X339905Y43287D01*
X335043Y30586D01*
X250000D01*
X228389Y30587D01*
X186000Y39018D01*
X146068Y55559D01*
X110132Y79571D01*
X79570Y110132D01*
X55558Y146069D01*
X39018Y186000D01*
X30587Y228389D01*
Y326664D01*
X111308D01*
X112458Y327140D01*
X113664Y326836D01*
X118059Y329460D01*
X122789Y331419D01*
X123265Y332569D01*
X124333Y333207D01*
X203478Y439550D01*
X219814Y441969D01*
X225064Y438014D01*
Y412251D01*
X206741D01*
Y322251D01*
X336741D01*
Y412251D01*
X333736D01*
Y444207D01*
X347714D01*
Y495207D01*
X362714D01*
Y510207D01*
X417714D01*
Y546207D01*
X386631D01*
X381355Y558892D01*
X388206Y575431D01*
Y593333D01*
X381355Y609873D01*
X368696Y622531D01*
X352157Y629382D01*
X334255D01*
X317716Y622531D01*
X305057Y609873D01*
X298206Y593333D01*
Y575431D01*
X303548Y562536D01*
X298795Y552524D01*
X296152Y549836D01*
X238331D01*
X115635Y672532D01*
X104154Y677287D01*
X30587D01*
X30586Y1250000D01*
X30586Y1271610D01*
X39018Y1314001D01*
X55558Y1353930D01*
X79570Y1389868D01*
X110132Y1420429D01*
X146069Y1444442D01*
X185999Y1460982D01*
X228389Y1469413D01*
X317947D01*
X320473Y1456713D01*
X312758Y1453518D01*
X300099Y1440859D01*
X293249Y1424320D01*
Y1406418D01*
X300099Y1389878D01*
X312758Y1377220D01*
X329298Y1370369D01*
X347199D01*
X363739Y1377220D01*
X376398Y1389878D01*
X383248Y1406418D01*
Y1424320D01*
X376398Y1440859D01*
X363739Y1453518D01*
X356024Y1456713D01*
X358550Y1469413D01*
X422613D01*
X427874Y1456713D01*
X419051Y1447890D01*
X412200Y1431351D01*
Y1413449D01*
X419051Y1396910D01*
X431710Y1384251D01*
X448249Y1377400D01*
X466151D01*
X482690Y1384251D01*
X495349Y1396910D01*
X502200Y1413449D01*
Y1431351D01*
X495349Y1447890D01*
X486526Y1456713D01*
X491787Y1469413D01*
X527652D01*
X534708Y1458854D01*
X533616Y1456217D01*
Y1438315D01*
X540467Y1421775D01*
X553125Y1409117D01*
X569665Y1402266D01*
X587567D01*
X604106Y1409117D01*
X616765Y1421775D01*
X623616Y1438315D01*
Y1456217D01*
X616765Y1472756D01*
X604106Y1485415D01*
X599556Y1487300D01*
X602082Y1500000D01*
X736032D01*
X750048Y1485983D01*
D02*
G37*
G36*
X231606Y533600D02*
X312714D01*
Y449207D01*
X317500D01*
Y412251D01*
Y342900D01*
X241300D01*
Y469341D01*
X205798Y469862D01*
X111308Y342900D01*
X30586D01*
X30586Y661052D01*
X104154D01*
X231606Y533600D01*
D02*
G37*
%LPC*%
G36*
X186751Y1429300D02*
X168849D01*
X152310Y1422449D01*
X139651Y1409790D01*
X132800Y1393251D01*
Y1375349D01*
X139651Y1358810D01*
X152310Y1346151D01*
X168849Y1339300D01*
X186751D01*
X203290Y1346151D01*
X215949Y1358810D01*
X222800Y1375349D01*
Y1393251D01*
X215949Y1409790D01*
X203290Y1422449D01*
X186751Y1429300D01*
D02*
G37*
G36*
X310233Y1348016D02*
X292331D01*
X275791Y1341165D01*
X263133Y1328507D01*
X256282Y1311967D01*
Y1294065D01*
X263133Y1277526D01*
X275791Y1264867D01*
X292331Y1258017D01*
X310233D01*
X326772Y1264867D01*
X333371Y1271466D01*
X415166D01*
X420426Y1258766D01*
X419051Y1257390D01*
X412200Y1240851D01*
Y1222949D01*
X419051Y1206410D01*
X431710Y1193751D01*
X448249Y1186900D01*
X466151D01*
X482690Y1193751D01*
X489289Y1200349D01*
X570608D01*
X678415Y1092542D01*
Y1065518D01*
X665715Y1057246D01*
X656651Y1061000D01*
X638749D01*
X622210Y1054149D01*
X609551Y1041490D01*
X602700Y1024951D01*
Y1007049D01*
X609551Y990510D01*
X618103Y981957D01*
X621326Y975017D01*
X618415Y965676D01*
X610706Y957967D01*
X603856Y941428D01*
Y923526D01*
X610706Y906987D01*
X623365Y894328D01*
X639904Y887477D01*
X657806D01*
X665715Y890753D01*
X678415Y882267D01*
Y847276D01*
X680161Y838497D01*
X685134Y831055D01*
X700027Y816162D01*
X698970Y813612D01*
Y795710D01*
X705821Y779171D01*
X718480Y766512D01*
X735019Y759661D01*
X752921D01*
X769461Y766512D01*
X782119Y779171D01*
X788970Y795710D01*
Y813612D01*
X782119Y830152D01*
X777340Y834931D01*
X779346Y849509D01*
X792005Y862167D01*
X798855Y878707D01*
Y896609D01*
X792005Y913148D01*
X784107Y921046D01*
Y1084716D01*
X796807Y1087242D01*
X800051Y1079410D01*
X812710Y1066751D01*
X829249Y1059900D01*
X846472D01*
X908756Y997616D01*
Y498353D01*
X910502Y489574D01*
X915475Y482131D01*
X1024838Y372768D01*
X1032281Y367795D01*
X1041060Y366049D01*
X1057655D01*
X1061934Y361770D01*
X1078474Y354919D01*
X1096376D01*
X1112915Y361770D01*
X1125574Y374429D01*
X1132424Y390968D01*
Y408870D01*
X1125574Y425409D01*
X1112915Y438068D01*
X1096376Y444919D01*
X1078474D01*
X1061934Y438068D01*
X1049276Y425410D01*
X1039106Y423387D01*
X1019629Y442863D01*
X1026823Y453629D01*
X1032116Y451437D01*
X1050018D01*
X1066557Y458288D01*
X1079216Y470946D01*
X1086067Y487486D01*
Y505388D01*
X1079216Y521927D01*
X1066557Y534586D01*
X1050018Y541437D01*
X1032116D01*
X1015577Y534586D01*
X1002918Y521927D01*
X996067Y505388D01*
Y487486D01*
X998259Y482193D01*
X987493Y474999D01*
X954637Y507855D01*
Y1007119D01*
X952891Y1015898D01*
X947918Y1023340D01*
X880889Y1090369D01*
X883200Y1095949D01*
Y1113851D01*
X876349Y1130390D01*
X863690Y1143049D01*
X847151Y1149900D01*
X829249D01*
X812710Y1143049D01*
X800051Y1130390D01*
X794621Y1117282D01*
X788397Y1115877D01*
X782079Y1115853D01*
X781381Y1115978D01*
X777388Y1121956D01*
X777387Y1121956D01*
X691948Y1207395D01*
X699142Y1218161D01*
X703529Y1216345D01*
X721431D01*
X737970Y1223195D01*
X750629Y1235854D01*
X757480Y1252393D01*
Y1270295D01*
X750629Y1286835D01*
X737970Y1299493D01*
X721431Y1306344D01*
X703529D01*
X686989Y1299493D01*
X674331Y1286835D01*
X667480Y1270295D01*
Y1252393D01*
X669297Y1248007D01*
X658530Y1240813D01*
X588715Y1310628D01*
X581273Y1315601D01*
X572494Y1317347D01*
X344053D01*
X339431Y1328507D01*
X326772Y1341165D01*
X310233Y1348016D01*
D02*
G37*
G36*
X1482151Y1238800D02*
X1464249D01*
X1447710Y1231949D01*
X1435051Y1219290D01*
X1428200Y1202751D01*
Y1184849D01*
X1435051Y1168310D01*
X1447710Y1155651D01*
X1464249Y1148800D01*
X1482151D01*
X1498690Y1155651D01*
X1511349Y1168310D01*
X1518200Y1184849D01*
Y1202751D01*
X1511349Y1219290D01*
X1498690Y1231949D01*
X1482151Y1238800D01*
D02*
G37*
G36*
X2363315Y784477D02*
X2293315D01*
Y716477D01*
X2363315D01*
Y784477D01*
D02*
G37*
G36*
X2263315D02*
X2193315D01*
Y716477D01*
X2263315D01*
Y784477D01*
D02*
G37*
G36*
X643951Y794300D02*
X626049D01*
X609510Y787449D01*
X596851Y774790D01*
X590000Y758251D01*
Y740349D01*
X596851Y723810D01*
X609510Y711151D01*
X626049Y704300D01*
X643951D01*
X660490Y711151D01*
X673149Y723810D01*
X680000Y740349D01*
Y758251D01*
X673149Y774790D01*
X660490Y787449D01*
X643951Y794300D01*
D02*
G37*
G36*
X2363315Y686477D02*
X2293315D01*
Y618477D01*
X2363315D01*
Y686477D01*
D02*
G37*
G36*
X2263315D02*
X2193315D01*
Y618477D01*
X2263315D01*
Y686477D01*
D02*
G37*
G36*
X326451Y1099100D02*
X308549D01*
X292010Y1092249D01*
X279351Y1079590D01*
X272500Y1063051D01*
Y1045149D01*
X279351Y1028610D01*
X292010Y1015951D01*
X308549Y1009100D01*
X326451D01*
X329001Y1010156D01*
X383459Y955698D01*
Y773986D01*
X385206Y765207D01*
X390179Y757765D01*
X516386Y631557D01*
X515330Y629007D01*
Y611105D01*
X522181Y594566D01*
X534839Y581907D01*
X551379Y575056D01*
X569281D01*
X585820Y581907D01*
X598479Y594566D01*
X605330Y611105D01*
Y629007D01*
X598479Y645547D01*
X585820Y658205D01*
X569281Y665056D01*
X551379D01*
X548829Y664000D01*
X429341Y783488D01*
Y965199D01*
X429341Y965200D01*
X427594Y973979D01*
X422621Y981421D01*
X361444Y1042599D01*
X362500Y1045149D01*
Y1063051D01*
X355649Y1079590D01*
X342990Y1092249D01*
X326451Y1099100D01*
D02*
G37*
G36*
X834451Y629200D02*
X816549D01*
X800010Y622349D01*
X787351Y609690D01*
X780500Y593151D01*
Y575249D01*
X787351Y558710D01*
X800010Y546051D01*
X816549Y539200D01*
X834451D01*
X850990Y546051D01*
X863649Y558710D01*
X870500Y575249D01*
Y593151D01*
X863649Y609690D01*
X850990Y622349D01*
X834451Y629200D01*
D02*
G37*
G36*
X745021Y480260D02*
X727119D01*
X710580Y473409D01*
X697921Y460750D01*
X695397Y454657D01*
X681651D01*
X680118Y458358D01*
X667459Y471017D01*
X650919Y477868D01*
X633018D01*
X616478Y471017D01*
X603819Y458358D01*
X596969Y441819D01*
Y423917D01*
X597427Y422811D01*
X590371Y412251D01*
X481741D01*
Y322251D01*
X476741Y322251D01*
Y287251D01*
X546741D01*
Y257251D01*
X476741D01*
Y222251D01*
X481741D01*
Y132251D01*
X611741D01*
Y155285D01*
X618379Y156606D01*
X625821Y161579D01*
X635767Y171524D01*
X647500Y166664D01*
Y140300D01*
X683500D01*
Y195300D01*
X713500D01*
Y140300D01*
X749500D01*
Y194639D01*
X762200Y197165D01*
X762670Y196032D01*
X775328Y183373D01*
X791868Y176522D01*
X809770D01*
X826309Y183373D01*
X838968Y196032D01*
X845818Y212571D01*
Y230473D01*
X838968Y247012D01*
X832359Y253622D01*
Y266798D01*
X829836Y279478D01*
X822653Y290229D01*
X802150Y310731D01*
X791400Y317914D01*
X778719Y320437D01*
X744500D01*
Y337300D01*
X699362D01*
X658480Y378182D01*
X660750Y391940D01*
X667459Y394719D01*
X680118Y407377D01*
X682642Y413471D01*
X696388D01*
X697921Y409770D01*
X710580Y397111D01*
X727119Y390260D01*
X745021D01*
X761561Y397111D01*
X774219Y409770D01*
X781070Y426309D01*
Y444211D01*
X774219Y460750D01*
X761561Y473409D01*
X745021Y480260D01*
D02*
G37*
G36*
X417714Y480207D02*
X377714D01*
Y444207D01*
X417714D01*
Y480207D01*
D02*
G37*
G36*
X2044314Y506477D02*
X1914315D01*
Y424177D01*
X1914314Y422106D01*
X1909314Y411477D01*
X1909315Y410848D01*
Y378977D01*
X1979315D01*
X2049314D01*
Y410493D01*
X2049315Y411477D01*
X2051688Y423194D01*
X2095498D01*
X2105159Y413533D01*
X2108151Y406310D01*
X2120810Y393651D01*
X2137349Y386800D01*
X2155251D01*
X2171790Y393651D01*
X2184449Y406310D01*
X2191300Y422849D01*
Y440751D01*
X2184449Y457290D01*
X2171790Y469949D01*
X2158655Y475390D01*
X2141230Y492816D01*
X2127999Y501656D01*
X2112391Y504761D01*
X2112390Y504761D01*
X2044314D01*
Y506477D01*
D02*
G37*
G36*
X2049314Y348977D02*
X1994315D01*
Y316477D01*
X2049314D01*
Y348977D01*
D02*
G37*
G36*
X1964315D02*
X1909315D01*
Y316477D01*
X1964315D01*
Y348977D01*
D02*
G37*
G36*
X1491650Y426902D02*
X1473748D01*
X1457208Y420051D01*
X1444550Y407393D01*
X1437699Y390853D01*
Y372951D01*
X1444550Y356412D01*
X1440595Y343749D01*
X1424056Y336898D01*
X1411397Y324240D01*
X1404546Y307700D01*
Y289798D01*
X1411397Y273259D01*
X1424056Y260600D01*
X1440595Y253749D01*
X1458497D01*
X1475037Y260600D01*
X1487695Y273259D01*
X1494546Y289798D01*
Y307700D01*
X1487695Y324239D01*
X1491650Y336902D01*
X1508189Y343753D01*
X1520848Y356412D01*
X1527699Y372951D01*
Y390853D01*
X1520848Y407393D01*
X1508189Y420051D01*
X1491650Y426902D01*
D02*
G37*
G36*
X1324238Y225607D02*
Y181878D01*
X1367967D01*
X1360103Y200864D01*
X1343225Y217743D01*
X1324238Y225607D01*
D02*
G37*
G36*
X1294238Y225608D02*
X1275250Y217743D01*
X1258372Y200864D01*
X1249238Y178812D01*
X1237237Y177818D01*
X1228864Y198032D01*
X1213392Y213504D01*
X1193177Y221877D01*
X1171297D01*
X1151083Y213504D01*
X1135611Y198032D01*
X1127238Y177817D01*
Y155937D01*
X1135611Y135722D01*
X1151083Y120251D01*
X1171297Y111877D01*
X1193177D01*
X1213392Y120251D01*
X1228864Y135722D01*
X1237237Y155937D01*
X1249238Y154942D01*
X1258372Y132890D01*
X1275250Y116012D01*
X1294238Y108147D01*
Y166878D01*
Y225608D01*
D02*
G37*
G36*
X2363315Y209477D02*
X2293315D01*
Y141477D01*
X2363315D01*
Y209477D01*
D02*
G37*
G36*
X336741Y222251D02*
X206741D01*
Y132251D01*
X336741D01*
Y222251D01*
D02*
G37*
G36*
X1066177Y221877D02*
X1044297D01*
X1024083Y213504D01*
X1008611Y198032D01*
X1000238Y177817D01*
Y155937D01*
X1008611Y135722D01*
X1024083Y120251D01*
X1044297Y111877D01*
X1066177D01*
X1086392Y120251D01*
X1101864Y135722D01*
X1110237Y155937D01*
Y177817D01*
X1101864Y198032D01*
X1086392Y213504D01*
X1066177Y221877D01*
D02*
G37*
G36*
X939177D02*
X917297D01*
X897083Y213504D01*
X881611Y198032D01*
X873238Y177817D01*
Y155937D01*
X881611Y135722D01*
X897083Y120251D01*
X917297Y111877D01*
X939177D01*
X959392Y120251D01*
X974864Y135722D01*
X983237Y155937D01*
Y177817D01*
X974864Y198032D01*
X959392Y213504D01*
X939177Y221877D01*
D02*
G37*
G36*
X1367968Y151878D02*
X1324238D01*
Y108147D01*
X1343225Y116012D01*
X1360103Y132890D01*
X1367968Y151878D01*
D02*
G37*
%LPD*%
D10*
X778719Y287300D02*
X799222Y266798D01*
Y223119D02*
X800819Y221522D01*
X799222Y223119D02*
Y266798D01*
X698500Y287300D02*
X778719D01*
X698500D02*
Y291300D01*
X546741Y367251D02*
X559241Y354751D01*
X635049D01*
X698500Y291300D01*
D13*
Y287300D02*
D03*
Y195300D02*
D03*
D14*
X270714Y495207D02*
D03*
X362714D02*
D03*
D19*
X271741Y367251D02*
D03*
Y177251D02*
D03*
X546741D02*
D03*
Y272251D02*
D03*
Y367251D02*
D03*
D28*
X701355Y847276D02*
Y1102045D01*
Y847276D02*
X743970Y804661D01*
X753855Y887658D02*
X761166Y894968D01*
Y1105734D01*
X580110Y1223290D02*
X701355Y1102045D01*
X465810Y1223290D02*
X580110D01*
X457200Y1231900D02*
X465810Y1223290D01*
X572494Y1294406D02*
X761166Y1105734D01*
X635049Y203249D02*
Y354751D01*
X609600Y177800D02*
X635049Y203249D01*
X547290Y177800D02*
X609600D01*
X546741Y177251D02*
X547290Y177800D01*
X1066637Y391309D02*
X1091750D01*
X1094069Y388989D01*
X1041060D02*
X1064318D01*
X931696Y498353D02*
X1041060Y388989D01*
X1064318D02*
X1066637Y391309D01*
X406400Y773986D02*
X560330Y620056D01*
X317500Y1054100D02*
X406400Y965200D01*
Y773986D02*
Y965200D01*
X309892Y1294406D02*
X572494D01*
X301282Y1303016D02*
X309892Y1294406D01*
X931696Y498353D02*
Y1007119D01*
X846304Y1092511D02*
X931696Y1007119D01*
D29*
X2112391Y463977D02*
X2144568Y431800D01*
X2146300D01*
X2012090Y463977D02*
X2112391D01*
D30*
X1309237Y166877D02*
D03*
X1182237D02*
D03*
X1055237D02*
D03*
X928237D02*
D03*
D31*
X743970Y804661D02*
D03*
X648574Y845171D02*
D03*
X753855Y887658D02*
D03*
X648855Y932477D02*
D03*
X578616Y1447266D02*
D03*
X457200Y1422400D02*
D03*
X1482699Y381902D02*
D03*
X2146300Y431800D02*
D03*
Y152400D02*
D03*
X1808832Y244309D02*
D03*
X1397000Y88900D02*
D03*
X1257300Y495300D02*
D03*
X987774Y328012D02*
D03*
X876300Y330200D02*
D03*
X647700Y50800D02*
D03*
X622300Y1104900D02*
D03*
X1612900Y787400D02*
D03*
X1735000Y830735D02*
D03*
X1799496Y405945D02*
D03*
X1473200Y622300D02*
D03*
X2026512Y566623D02*
D03*
X457200Y1231900D02*
D03*
X736070Y435260D02*
D03*
X641968Y432868D02*
D03*
X378739Y67124D02*
D03*
X800819Y221522D02*
D03*
X1449546Y298749D02*
D03*
X1087425Y399919D02*
D03*
X560330Y620056D02*
D03*
X266700Y76200D02*
D03*
X88900Y393700D02*
D03*
X78664Y622902D02*
D03*
X127000Y152400D02*
D03*
X463183Y446678D02*
D03*
X915433Y1423025D02*
D03*
X813833D02*
D03*
X1067833Y1435725D02*
D03*
X1169433D02*
D03*
X1417281Y1403761D02*
D03*
X1835000Y830779D02*
D03*
X1678221Y935056D02*
D03*
X1678177Y1035056D02*
D03*
X1678133Y1135056D02*
D03*
X1676401Y1224291D02*
D03*
X1678000Y1435056D02*
D03*
X1935000Y830823D02*
D03*
X2035000Y830868D02*
D03*
X2135000Y830912D02*
D03*
X2235000Y830956D02*
D03*
X2335000Y831000D02*
D03*
X2435000Y831044D02*
D03*
X317500Y1054100D02*
D03*
X343206Y584382D02*
D03*
X63500Y901700D02*
D03*
X330200Y952500D02*
D03*
X558800Y1168400D02*
D03*
X635000Y749300D02*
D03*
X647700Y1016000D02*
D03*
X825500Y584200D02*
D03*
X177800Y1384300D02*
D03*
X338248Y1415369D02*
D03*
X301282Y1303016D02*
D03*
X712480Y1261344D02*
D03*
X1041067Y496437D02*
D03*
X1473200Y1193800D02*
D03*
X838200Y1104900D02*
D03*
D32*
X395423Y266320D02*
D03*
X319223D02*
D03*
X1199196Y975787D02*
D03*
Y865787D02*
D03*
Y755787D02*
D03*
X1089196Y975787D02*
D03*
Y865787D02*
D03*
Y755787D02*
D03*
X979196Y975787D02*
D03*
Y865787D02*
D03*
Y755787D02*
D03*
D33*
X1979315Y463977D02*
D03*
Y363977D02*
D03*
D34*
X2278315Y701477D02*
D03*
Y126477D02*
D03*
%TF.MD5,31dd1e16b8ab96b4325a7c6e9e8238d2*%
M02*
