%TF.GenerationSoftware,Altium Limited,Altium Designer,24.5.2 (23)*%
G04 Layer_Color=65535*
%FSLAX45Y45*%
%MOMM*%
%TF.SameCoordinates,57FA01A1-E815-4C6C-BC38-3E05548C2649*%
%TF.FilePolarity,Positive*%
%TF.FileFunction,Legend,Top*%
%TF.Part,Single*%
G01*
G75*
%TA.AperFunction,NonConductor*%
%ADD35C,0.25400*%
%ADD36C,0.25000*%
%ADD37C,0.20000*%
%ADD38C,0.05000*%
D35*
X110408Y1138269D02*
G03*
X110408Y1138269I-4678J0D01*
G01*
X1556348Y494222D02*
G03*
X1556348Y494222I-5000J0D01*
G01*
D36*
X1925361Y60471D02*
G03*
X1925361Y60471I-12500J0D01*
G01*
X1354196Y1198287D02*
G03*
X1354196Y1198287I-12500J0D01*
G01*
D37*
X476883Y431420D02*
G03*
X476883Y431420I-17961J0D01*
G01*
X2213759Y1247376D02*
X2283759D01*
X2213759Y1374376D02*
X2283759D01*
X1725361Y85471D02*
Y395471D01*
X1825361Y85471D02*
Y395471D01*
X1725361D02*
X1825361D01*
X1725361Y85471D02*
X1825361D01*
X1316696Y1133287D02*
X1356696D01*
Y1093287D02*
Y1133287D01*
Y598287D02*
Y638287D01*
X1316696Y598287D02*
X1356696D01*
X821696D02*
X861696D01*
X821696D02*
Y638287D01*
Y1133287D02*
X861696D01*
X821696Y1093287D02*
Y1133287D01*
D38*
X240126Y421955D02*
X417928D01*
X240126Y498156D02*
X417928D01*
Y421955D02*
Y498156D01*
X240126Y421955D02*
Y498156D01*
X688748Y933029D02*
X779439D01*
X688748Y1123556D02*
X779439D01*
X688748Y933029D02*
Y1123556D01*
X779439Y933029D02*
Y1123556D01*
X908132Y360263D02*
X998823D01*
X908132Y550791D02*
X998823D01*
X908132Y360263D02*
Y550791D01*
X998823Y360263D02*
Y550791D01*
X803341Y551501D02*
X894032D01*
X803341Y360974D02*
X894032D01*
Y551501D01*
X803341Y360974D02*
Y551501D01*
X1601214Y877745D02*
Y968436D01*
X1410687Y877745D02*
Y968436D01*
Y877745D02*
X1601214D01*
X1410687Y968436D02*
X1601214D01*
X1425377Y670664D02*
X1516068D01*
X1425377Y861191D02*
X1516068D01*
X1425377Y670664D02*
Y861191D01*
X1516068Y670664D02*
Y861191D01*
X713249Y1442831D02*
X803940D01*
X713249Y1252303D02*
X803940D01*
Y1442831D01*
X713249Y1252303D02*
Y1442831D01*
X1214457Y1206782D02*
Y1397310D01*
X1123765Y1206782D02*
Y1397310D01*
X1214457D01*
X1123765Y1206782D02*
X1214457D01*
X816612Y1253284D02*
Y1443811D01*
X907303Y1253284D02*
Y1443811D01*
X816612Y1253284D02*
X907303D01*
X816612Y1443811D02*
X907303D01*
X1638445Y979807D02*
Y1070498D01*
X1447918Y979807D02*
Y1070498D01*
Y979807D02*
X1638445D01*
X1447918Y1070498D02*
X1638445D01*
X925375Y1251309D02*
X1016066D01*
X925375Y1441836D02*
X1016066D01*
X925375Y1251309D02*
Y1441836D01*
X1016066Y1251309D02*
Y1441836D01*
X1639315Y1084209D02*
Y1174900D01*
X1448787Y1084209D02*
Y1174900D01*
Y1084209D02*
X1639315D01*
X1448787Y1174900D02*
X1639315D01*
X1272414Y1452806D02*
X1363105D01*
X1272414Y1262279D02*
X1363105D01*
Y1452806D01*
X1272414Y1262279D02*
Y1452806D01*
X1580737Y1449074D02*
X1671428D01*
X1580737Y1258546D02*
X1671428D01*
Y1449074D01*
X1580737Y1258546D02*
Y1449074D01*
X521644Y1128271D02*
X612335D01*
X521644Y937743D02*
X612335D01*
Y1128271D01*
X521644Y937743D02*
Y1128271D01*
X526633Y895189D02*
X617325D01*
X526633Y704662D02*
X617325D01*
Y895189D01*
X526633Y704662D02*
Y895189D01*
X2032223Y289871D02*
X2122914D01*
X2032223Y99344D02*
X2122914D01*
Y289871D01*
X2032223Y99344D02*
Y289871D01*
X1518067Y82711D02*
Y273238D01*
X1427375Y82711D02*
Y273238D01*
X1518067D01*
X1427375Y82711D02*
X1518067D01*
X861757Y271498D02*
X1371758D01*
X861757Y61497D02*
X1371758D01*
X861757D02*
Y271498D01*
X1371758Y61497D02*
Y271498D01*
X1025296Y1388674D02*
X1116363D01*
X1025296Y1209268D02*
X1116363D01*
Y1388674D01*
X1025296Y1209268D02*
Y1388674D01*
X1556074Y1265911D02*
Y1356978D01*
X1376667Y1265911D02*
Y1356978D01*
Y1265911D02*
X1556074D01*
X1376667Y1356978D02*
X1556074D01*
X589433Y1439357D02*
X665633D01*
X589433Y1261556D02*
X665633D01*
Y1439357D01*
X589433Y1261556D02*
Y1439357D01*
X682181Y453526D02*
Y631328D01*
X605981Y453526D02*
Y631328D01*
X682181D01*
X605981Y453526D02*
X682181D01*
X771081D02*
Y631328D01*
X694881Y453526D02*
Y631328D01*
X771081D01*
X694881Y453526D02*
X771081D01*
X203200Y1435100D02*
X279401D01*
X203200Y1257298D02*
X279401D01*
Y1435100D01*
X203200Y1257298D02*
Y1435100D01*
X338500Y1392000D02*
X414701D01*
X338500Y1214198D02*
X414701D01*
Y1392000D01*
X338500Y1214198D02*
Y1392000D01*
X497338Y1426947D02*
X573539D01*
X497338Y1249146D02*
X573539D01*
Y1426947D01*
X497338Y1249146D02*
Y1426947D01*
X546100Y507999D02*
Y584200D01*
X368298Y507999D02*
Y584200D01*
Y507999D02*
X546100D01*
X368298Y584200D02*
X546100D01*
X135564Y614931D02*
X495189D01*
X135564Y1193915D02*
X495189D01*
Y614931D02*
Y1193915D01*
X135564Y614931D02*
Y1193915D01*
X1576348Y439222D02*
Y779222D01*
X1986348Y439222D02*
Y779222D01*
X1576348D02*
X1986348D01*
X1576348Y439222D02*
X1986348D01*
X192218Y393320D02*
X522423D01*
X192218Y139318D02*
X522423D01*
X192218D02*
Y393320D01*
X522423Y139318D02*
Y393320D01*
X44642Y594043D02*
X235170D01*
X44642Y503352D02*
X235170D01*
X44642D02*
Y594043D01*
X235170Y503352D02*
Y594043D01*
X149747Y198337D02*
Y388864D01*
X59056Y198337D02*
Y388864D01*
X149747D01*
X59056Y198337D02*
X149747D01*
X404433Y128662D02*
X594961D01*
X404433Y37970D02*
X594961D01*
X404433D02*
Y128662D01*
X594961Y37970D02*
Y128662D01*
X47920Y415877D02*
X225721D01*
X47920Y492078D02*
X225721D01*
Y415877D02*
Y492078D01*
X47920Y415877D02*
Y492078D01*
X1130299Y355600D02*
X1206500D01*
X1130299Y533402D02*
X1206500D01*
X1130299Y355600D02*
Y533402D01*
X1206500Y355600D02*
Y533402D01*
%TF.MD5,10c3cc80df28b06fe32f8153e9d25f9c*%
M02*
