%TF.GenerationSoftware,Altium Limited,Altium Designer,24.5.2 (23)*%
G04 Layer_Color=8421504*
%FSLAX45Y45*%
%MOMM*%
%TF.SameCoordinates,384E1868-2758-46BA-9D19-E3ED856206BE*%
%TF.FilePolarity,Positive*%
%TF.FileFunction,Paste,Top*%
%TF.Part,Single*%
G01*
G75*
%TA.AperFunction,SMDPad,CuDef*%
%ADD11R,0.62000X0.70000*%
%ADD12R,0.50000X0.30000*%
%ADD13R,0.65000X0.55000*%
%ADD14R,0.74000X1.47000*%
%ADD15R,0.70000X0.62000*%
%ADD16R,0.62000X0.59000*%
%ADD17R,0.59000X0.62000*%
%ADD18R,0.55000X0.65000*%
%ADD19R,1.00000X0.60000*%
%ADD20R,1.40000X1.20000*%
%ADD21O,0.25000X0.80000*%
%ADD22O,0.80000X0.25000*%
%ADD23R,3.70000X3.70000*%
D11*
X907350Y204091D02*
D03*
Y112091D02*
D03*
X734573Y1074119D02*
D03*
Y982118D02*
D03*
X953956Y501353D02*
D03*
Y409353D02*
D03*
X848207Y410411D02*
D03*
Y502411D02*
D03*
X1471201Y811753D02*
D03*
Y719753D02*
D03*
X758116Y1301741D02*
D03*
Y1393741D02*
D03*
X1169590Y1255872D02*
D03*
Y1347872D02*
D03*
X861478Y1394722D02*
D03*
Y1302722D02*
D03*
X971200Y1392398D02*
D03*
Y1300398D02*
D03*
X1317281Y1311717D02*
D03*
Y1403717D02*
D03*
X1625603Y1307984D02*
D03*
Y1399984D02*
D03*
X2173108Y148917D02*
D03*
Y240917D02*
D03*
X1569218Y131935D02*
D03*
Y223935D02*
D03*
D12*
X811041Y111824D02*
D03*
Y191771D02*
D03*
X671044Y111832D02*
D03*
Y191779D02*
D03*
D13*
X595698Y427398D02*
D03*
X680698D02*
D03*
X679124Y311085D02*
D03*
X764124D02*
D03*
D14*
X2357259Y1310876D02*
D03*
X2140259D02*
D03*
D15*
X1460124Y923569D02*
D03*
X1552124D02*
D03*
X1497355Y1025632D02*
D03*
X1589355D02*
D03*
X1498225Y1130034D02*
D03*
X1590225D02*
D03*
D16*
X1071398Y1253799D02*
D03*
Y1344799D02*
D03*
D17*
X1421198Y1310876D02*
D03*
X1512198D02*
D03*
D18*
X623159Y1249970D02*
D03*
Y1334970D02*
D03*
X680143Y831106D02*
D03*
Y746106D02*
D03*
X585435Y764027D02*
D03*
Y679027D02*
D03*
X622300Y1147400D02*
D03*
Y1062400D02*
D03*
X1168400Y487000D02*
D03*
Y402000D02*
D03*
D19*
X1733880Y145606D02*
D03*
Y335606D02*
D03*
X2008880D02*
D03*
Y240606D02*
D03*
Y145606D02*
D03*
D20*
X1891348Y524222D02*
D03*
Y694222D02*
D03*
X1671348Y524222D02*
D03*
Y694222D02*
D03*
D21*
X1264196Y1108287D02*
D03*
X1214196D02*
D03*
X1164196D02*
D03*
X1114196D02*
D03*
X1064196D02*
D03*
X1014196D02*
D03*
X964196D02*
D03*
X914196D02*
D03*
Y623287D02*
D03*
X964196D02*
D03*
X1014196D02*
D03*
X1064196D02*
D03*
X1114196D02*
D03*
X1164196D02*
D03*
X1214196D02*
D03*
X1264196D02*
D03*
D22*
X846696Y1040787D02*
D03*
Y990787D02*
D03*
Y940787D02*
D03*
Y890787D02*
D03*
Y840787D02*
D03*
Y790787D02*
D03*
Y740787D02*
D03*
Y690787D02*
D03*
X1331696D02*
D03*
Y740787D02*
D03*
Y790787D02*
D03*
Y840787D02*
D03*
Y890787D02*
D03*
Y940787D02*
D03*
Y990787D02*
D03*
Y1040787D02*
D03*
D23*
X1089196Y865787D02*
D03*
%TF.MD5,60817363e21600248f0f9574fae964d6*%
M02*
