%TF.GenerationSoftware,Altium Limited,Altium Designer,24.5.2 (23)*%
G04 Layer_Color=8388736*
%FSLAX45Y45*%
%MOMM*%
%TF.SameCoordinates,384E1868-2758-46BA-9D19-E3ED856206BE*%
%TF.FilePolarity,Negative*%
%TF.FileFunction,Soldermask,Top*%
%TF.Part,Single*%
G01*
G75*
%TA.AperFunction,SMDPad,CuDef*%
%ADD35R,0.72000X0.80000*%
%ADD36R,0.60000X0.40000*%
%ADD37R,0.75000X0.65000*%
%ADD38R,0.84000X1.57000*%
%ADD39R,0.80000X0.72000*%
%ADD40R,0.72000X0.69000*%
%ADD41R,0.69000X0.72000*%
%ADD42R,0.65000X0.75000*%
%ADD43R,1.10000X0.70000*%
%ADD44R,1.80000X1.60000*%
%ADD45O,0.35000X0.90000*%
%ADD46O,0.90000X0.35000*%
%ADD47R,3.80000X3.80000*%
%TA.AperFunction,ComponentPad*%
%ADD48C,0.90000*%
D35*
X907350Y204091D02*
D03*
Y112091D02*
D03*
X734573Y1074119D02*
D03*
Y982118D02*
D03*
X953956Y501353D02*
D03*
Y409353D02*
D03*
X848207Y410411D02*
D03*
Y502411D02*
D03*
X1471201Y811753D02*
D03*
Y719753D02*
D03*
X758116Y1301741D02*
D03*
Y1393741D02*
D03*
X1169590Y1255872D02*
D03*
Y1347872D02*
D03*
X861478Y1394722D02*
D03*
Y1302722D02*
D03*
X971200Y1392398D02*
D03*
Y1300398D02*
D03*
X1317281Y1311717D02*
D03*
Y1403717D02*
D03*
X1625603Y1307984D02*
D03*
Y1399984D02*
D03*
X2173108Y148917D02*
D03*
Y240917D02*
D03*
X1569218Y131935D02*
D03*
Y223935D02*
D03*
D36*
X811041Y111824D02*
D03*
Y191771D02*
D03*
X671044Y111832D02*
D03*
Y191779D02*
D03*
D37*
X595698Y427398D02*
D03*
X680698D02*
D03*
X679124Y311085D02*
D03*
X764124D02*
D03*
D38*
X2357259Y1310876D02*
D03*
X2140259D02*
D03*
D39*
X1460124Y923569D02*
D03*
X1552124D02*
D03*
X1497355Y1025632D02*
D03*
X1589355D02*
D03*
X1498225Y1130034D02*
D03*
X1590225D02*
D03*
D40*
X1071398Y1253799D02*
D03*
Y1344799D02*
D03*
D41*
X1421198Y1310876D02*
D03*
X1512198D02*
D03*
D42*
X623159Y1249970D02*
D03*
Y1334970D02*
D03*
X680143Y831106D02*
D03*
Y746106D02*
D03*
X585435Y764027D02*
D03*
Y679027D02*
D03*
X622300Y1147400D02*
D03*
Y1062400D02*
D03*
X1168400Y487000D02*
D03*
Y402000D02*
D03*
D43*
X1733880Y145606D02*
D03*
Y335606D02*
D03*
X2008880D02*
D03*
Y240606D02*
D03*
Y145606D02*
D03*
D44*
X1891348Y524222D02*
D03*
Y694222D02*
D03*
X1671348Y524222D02*
D03*
Y694222D02*
D03*
D45*
X1264196Y1108287D02*
D03*
X1214196D02*
D03*
X1164196D02*
D03*
X1114196D02*
D03*
X1064196D02*
D03*
X1014196D02*
D03*
X964196D02*
D03*
X914196D02*
D03*
Y623287D02*
D03*
X964196D02*
D03*
X1014196D02*
D03*
X1064196D02*
D03*
X1114196D02*
D03*
X1164196D02*
D03*
X1214196D02*
D03*
X1264196D02*
D03*
D46*
X846696Y1040787D02*
D03*
Y990787D02*
D03*
Y940787D02*
D03*
Y890787D02*
D03*
Y840787D02*
D03*
Y790787D02*
D03*
Y740787D02*
D03*
Y690787D02*
D03*
X1331696D02*
D03*
Y740787D02*
D03*
Y790787D02*
D03*
Y840787D02*
D03*
Y890787D02*
D03*
Y940787D02*
D03*
Y990787D02*
D03*
Y1040787D02*
D03*
D47*
X1089196Y865787D02*
D03*
D48*
X1417734Y155806D02*
D03*
X1290734D02*
D03*
X1163734D02*
D03*
X1036734D02*
D03*
%TF.MD5,099c4cb06d3ca50fc54af63d8fa383d7*%
M02*
