%TF.GenerationSoftware,Altium Limited,Altium Designer,24.5.2 (23)*%
G04 Layer_Color=65535*
%FSLAX45Y45*%
%MOMM*%
%TF.SameCoordinates,384E1868-2758-46BA-9D19-E3ED856206BE*%
%TF.FilePolarity,Positive*%
%TF.FileFunction,Legend,Top*%
%TF.Part,Single*%
G01*
G75*
%TA.AperFunction,NonConductor*%
%ADD31C,0.25400*%
%ADD32C,0.25000*%
%ADD33C,0.05000*%
%ADD34C,0.20000*%
D31*
X672044Y242579D02*
G03*
X672044Y242579I-1000J0D01*
G01*
X1556348Y494222D02*
G03*
X1556348Y494222I-5000J0D01*
G01*
D32*
X2021380Y60606D02*
G03*
X2021380Y60606I-12500J0D01*
G01*
X1354196Y1198287D02*
G03*
X1354196Y1198287I-12500J0D01*
G01*
D33*
X861526Y63002D02*
X952217D01*
X861526Y253529D02*
X952217D01*
X861526Y63002D02*
Y253529D01*
X952217Y63002D02*
Y253529D01*
X727098Y389298D02*
Y465498D01*
X549296Y389298D02*
Y465498D01*
Y389298D02*
X727098D01*
X549296Y465498D02*
X727098D01*
X810524Y272984D02*
Y349185D01*
X632722Y272984D02*
Y349185D01*
Y272984D02*
X810524D01*
X632722Y349185D02*
X810524D01*
X688748Y933029D02*
X779439D01*
X688748Y1123556D02*
X779439D01*
X688748Y933029D02*
Y1123556D01*
X779439Y933029D02*
Y1123556D01*
X908132Y360263D02*
X998823D01*
X908132Y550791D02*
X998823D01*
X908132Y360263D02*
Y550791D01*
X998823Y360263D02*
Y550791D01*
X803341Y551501D02*
X894032D01*
X803341Y360974D02*
X894032D01*
Y551501D01*
X803341Y360974D02*
Y551501D01*
X1601214Y877745D02*
Y968436D01*
X1410687Y877745D02*
Y968436D01*
Y877745D02*
X1601214D01*
X1410687Y968436D02*
X1601214D01*
X1425377Y670664D02*
X1516068D01*
X1425377Y861191D02*
X1516068D01*
X1425377Y670664D02*
Y861191D01*
X1516068Y670664D02*
Y861191D01*
X713249Y1442831D02*
X803940D01*
X713249Y1252303D02*
X803940D01*
Y1442831D01*
X713249Y1252303D02*
Y1442831D01*
X1214457Y1206782D02*
Y1397310D01*
X1123765Y1206782D02*
Y1397310D01*
X1214457D01*
X1123765Y1206782D02*
X1214457D01*
X816612Y1253284D02*
Y1443811D01*
X907303Y1253284D02*
Y1443811D01*
X816612Y1253284D02*
X907303D01*
X816612Y1443811D02*
X907303D01*
X1638445Y979807D02*
Y1070498D01*
X1447918Y979807D02*
Y1070498D01*
Y979807D02*
X1638445D01*
X1447918Y1070498D02*
X1638445D01*
X925375Y1251309D02*
X1016066D01*
X925375Y1441836D02*
X1016066D01*
X925375Y1251309D02*
Y1441836D01*
X1016066Y1251309D02*
Y1441836D01*
X1639315Y1084209D02*
Y1174900D01*
X1448787Y1084209D02*
Y1174900D01*
Y1084209D02*
X1639315D01*
X1448787Y1174900D02*
X1639315D01*
X1272414Y1452806D02*
X1363105D01*
X1272414Y1262279D02*
X1363105D01*
Y1452806D01*
X1272414Y1262279D02*
Y1452806D01*
X1580737Y1449074D02*
X1671428D01*
X1580737Y1258546D02*
X1671428D01*
Y1449074D01*
X1580737Y1258546D02*
Y1449074D01*
X2128241Y290006D02*
X2218933D01*
X2128241Y99479D02*
X2218933D01*
Y290006D01*
X2128241Y99479D02*
Y290006D01*
X1614085Y82846D02*
Y273373D01*
X1523394Y82846D02*
Y273373D01*
X1614085D01*
X1523394Y82846D02*
X1614085D01*
X970254Y260426D02*
X1480255D01*
X970254Y50425D02*
X1480255D01*
X970254D02*
Y260426D01*
X1480255Y50425D02*
Y260426D01*
X1025296Y1388674D02*
X1116363D01*
X1025296Y1209268D02*
X1116363D01*
Y1388674D01*
X1025296Y1209268D02*
Y1388674D01*
X1556074Y1265911D02*
Y1356978D01*
X1376667Y1265911D02*
Y1356978D01*
Y1265911D02*
X1556074D01*
X1376667Y1356978D02*
X1556074D01*
X585059Y1381370D02*
X661259D01*
X585059Y1203568D02*
X661259D01*
Y1381370D01*
X585059Y1203568D02*
Y1381370D01*
X642043Y699704D02*
Y877506D01*
X718244Y699704D02*
Y877506D01*
X642043Y699704D02*
X718244D01*
X642043Y877506D02*
X718244D01*
X547335Y632626D02*
Y810427D01*
X623535Y632626D02*
Y810427D01*
X547335Y632626D02*
X623535D01*
X547335Y810427D02*
X623535D01*
X584199Y1016000D02*
X660400D01*
X584199Y1193802D02*
X660400D01*
X584199Y1016000D02*
Y1193802D01*
X660400Y1016000D02*
Y1193802D01*
X1576348Y439222D02*
Y779222D01*
X1986348Y439222D02*
Y779222D01*
X1576348D02*
X1986348D01*
X1576348Y439222D02*
X1986348D01*
X1130299Y355600D02*
X1206500D01*
X1130299Y533402D02*
X1206500D01*
X1130299Y355600D02*
Y533402D01*
X1206500Y355600D02*
Y533402D01*
D34*
X2213759Y1247376D02*
X2283759D01*
X2213759Y1374376D02*
X2283759D01*
X1821380Y85606D02*
Y395606D01*
X1921380Y85606D02*
Y395606D01*
X1821380D02*
X1921380D01*
X1821380Y85606D02*
X1921380D01*
X1316696Y1133287D02*
X1356696D01*
Y1093287D02*
Y1133287D01*
Y598287D02*
Y638287D01*
X1316696Y598287D02*
X1356696D01*
X821696D02*
X861696D01*
X821696D02*
Y638287D01*
Y1133287D02*
X861696D01*
X821696Y1093287D02*
Y1133287D01*
%TF.MD5,ef1ae01406f72d8dd205aebd185a66dd*%
M02*
