%TF.GenerationSoftware,Altium Limited,Altium Designer,24.5.2 (23)*%
G04 Layer_Color=8421504*
%FSLAX45Y45*%
%MOMM*%
%TF.SameCoordinates,D9EDD973-4EFE-478D-9CC6-8A1B8994CF0D*%
%TF.FilePolarity,Positive*%
%TF.FileFunction,Paste,Top*%
%TF.Part,Single*%
G01*
G75*
%TA.AperFunction,SMDPad,CuDef*%
%ADD11R,2.60000X2.60000*%
%ADD12O,0.20000X0.80000*%
%ADD13O,0.80000X0.20000*%
%ADD14R,0.62000X0.59000*%
%ADD15R,0.70000X0.62000*%
%ADD16R,0.62000X0.70000*%
%ADD17R,0.65000X0.55000*%
%ADD18R,0.59000X0.62000*%
%ADD19R,0.38000X0.32000*%
%ADD20R,0.32000X0.39000*%
%ADD21R,0.39000X0.32000*%
%ADD22R,0.74000X1.47000*%
G04:AMPARAMS|DCode=23|XSize=0.62mm|YSize=0.7mm|CornerRadius=0mm|HoleSize=0mm|Usage=FLASHONLY|Rotation=225.000|XOffset=0mm|YOffset=0mm|HoleType=Round|Shape=Rectangle|*
%AMROTATEDRECTD23*
4,1,4,-0.02829,0.46669,0.46669,-0.02829,0.02829,-0.46669,-0.46669,0.02829,-0.02829,0.46669,0.0*
%
%ADD23ROTATEDRECTD23*%

%ADD24R,0.55000X0.65000*%
%ADD25R,1.00000X0.60000*%
%ADD26R,1.40000X1.20000*%
%ADD27O,0.25000X0.80000*%
%ADD28O,0.80000X0.25000*%
%ADD29R,3.70000X3.70000*%
D11*
X210412Y631400D02*
D03*
D12*
X70412Y826400D02*
D03*
X150412Y826400D02*
D03*
X190413D02*
D03*
X230412D02*
D03*
X270412D02*
D03*
X310412D02*
D03*
X350412D02*
D03*
Y436400D02*
D03*
X310412D02*
D03*
X270412D02*
D03*
X230412Y436400D02*
D03*
X190413Y436400D02*
D03*
X150412Y436400D02*
D03*
X110413Y436400D02*
D03*
X70412Y436400D02*
D03*
X110413Y826400D02*
D03*
D13*
X405412Y771400D02*
D03*
X405413Y731400D02*
D03*
X405412Y691400D02*
D03*
X405413Y651400D02*
D03*
Y611400D02*
D03*
X405412Y571400D02*
D03*
X405413Y531400D02*
D03*
X405412Y491400D02*
D03*
X15412D02*
D03*
X15412Y531400D02*
D03*
Y571400D02*
D03*
Y611400D02*
D03*
Y651400D02*
D03*
X15412Y691400D02*
D03*
X15412Y731400D02*
D03*
X15412Y771400D02*
D03*
D14*
X1071262Y1361173D02*
D03*
Y1270173D02*
D03*
D15*
X327900Y977899D02*
D03*
X419900Y977899D02*
D03*
X-242273Y256448D02*
D03*
X-334273Y256448D02*
D03*
X-240481Y1084272D02*
D03*
X-332481D02*
D03*
X-4800Y927100D02*
D03*
X-96800D02*
D03*
X211373Y260612D02*
D03*
X303373Y260613D02*
D03*
X210482Y161976D02*
D03*
X302482Y161976D02*
D03*
X50481Y98414D02*
D03*
X-41519D02*
D03*
X504350Y205387D02*
D03*
X596350Y205387D02*
D03*
X-58700Y1104900D02*
D03*
X33300D02*
D03*
X1460124Y923569D02*
D03*
X1552124D02*
D03*
X1497355Y1025632D02*
D03*
X1589355D02*
D03*
X1498225Y1130034D02*
D03*
X1590225D02*
D03*
D16*
X632081Y834622D02*
D03*
Y742622D02*
D03*
X533400Y833400D02*
D03*
Y741400D02*
D03*
X-101730Y519589D02*
D03*
X-101731Y427590D02*
D03*
X16254Y301464D02*
D03*
X16254Y209464D02*
D03*
X740872Y106113D02*
D03*
Y198113D02*
D03*
X-85292Y301166D02*
D03*
X-85293Y209166D02*
D03*
X-244494Y1251883D02*
D03*
Y1343884D02*
D03*
X-355668Y1251529D02*
D03*
Y1343529D02*
D03*
X1019113Y481206D02*
D03*
Y389206D02*
D03*
X913363Y390265D02*
D03*
Y482265D02*
D03*
X1471201Y811753D02*
D03*
Y719753D02*
D03*
X758116Y1301741D02*
D03*
Y1393741D02*
D03*
X1168895Y1264667D02*
D03*
Y1356667D02*
D03*
X861478Y1394722D02*
D03*
Y1302722D02*
D03*
X971200Y1392398D02*
D03*
Y1300398D02*
D03*
X1317281Y1311717D02*
D03*
Y1403717D02*
D03*
X1625603Y1307984D02*
D03*
Y1399984D02*
D03*
X2077090Y148782D02*
D03*
Y240782D02*
D03*
X1473200Y131800D02*
D03*
Y223800D02*
D03*
D17*
X-326520Y985106D02*
D03*
X-241519D02*
D03*
X-325086Y356167D02*
D03*
X-240086Y356167D02*
D03*
X521535Y315683D02*
D03*
X436535D02*
D03*
X262300Y1320800D02*
D03*
X347300D02*
D03*
X262300Y1409700D02*
D03*
X347300D02*
D03*
X262300Y1231900D02*
D03*
X347300D02*
D03*
D18*
X589586Y101844D02*
D03*
X498585D02*
D03*
X1421198Y1310876D02*
D03*
X1512198D02*
D03*
D19*
X-85536Y1244269D02*
D03*
X64464Y1394269D02*
D03*
Y1244269D02*
D03*
X-85536Y1394269D02*
D03*
D20*
X14465Y1244269D02*
D03*
X-35535D02*
D03*
X14465Y1394269D02*
D03*
X-35535D02*
D03*
D21*
X64464Y1344269D02*
D03*
Y1294269D02*
D03*
X-85536D02*
D03*
Y1344269D02*
D03*
D22*
X2357259Y1310876D02*
D03*
X2140259D02*
D03*
D23*
X617536Y1062378D02*
D03*
X682590Y997324D02*
D03*
D24*
X627533Y1307957D02*
D03*
Y1392957D02*
D03*
X654242Y395334D02*
D03*
Y480334D02*
D03*
X743142Y395334D02*
D03*
Y480334D02*
D03*
X535438Y1295547D02*
D03*
Y1380547D02*
D03*
X1201696Y500116D02*
D03*
Y415116D02*
D03*
D25*
X1637861Y145471D02*
D03*
Y335471D02*
D03*
X1912861D02*
D03*
Y240471D02*
D03*
Y145471D02*
D03*
D26*
X1891348Y524222D02*
D03*
Y694222D02*
D03*
X1671348Y524222D02*
D03*
Y694222D02*
D03*
D27*
X1264196Y1108287D02*
D03*
X1214196D02*
D03*
X1164196D02*
D03*
X1114196D02*
D03*
X1064196D02*
D03*
X1014196D02*
D03*
X964196D02*
D03*
X914196D02*
D03*
Y623287D02*
D03*
X964196D02*
D03*
X1014196D02*
D03*
X1064196D02*
D03*
X1114196D02*
D03*
X1164196D02*
D03*
X1214196D02*
D03*
X1264196D02*
D03*
D28*
X846696Y1040787D02*
D03*
Y990787D02*
D03*
Y940787D02*
D03*
Y890787D02*
D03*
Y840787D02*
D03*
Y790787D02*
D03*
Y740787D02*
D03*
Y690787D02*
D03*
X1331696D02*
D03*
Y740787D02*
D03*
Y790787D02*
D03*
Y840787D02*
D03*
Y890787D02*
D03*
Y940787D02*
D03*
Y990787D02*
D03*
Y1040787D02*
D03*
D29*
X1089196Y865787D02*
D03*
%TF.MD5,e317db9b348fdfd70377aa5b0870450b*%
M02*
