%TF.GenerationSoftware,Altium Limited,Altium Designer,24.5.2 (23)*%
G04 Layer_Color=65535*
%FSLAX45Y45*%
%MOMM*%
%TF.SameCoordinates,D9EDD973-4EFE-478D-9CC6-8A1B8994CF0D*%
%TF.FilePolarity,Positive*%
%TF.FileFunction,Legend,Top*%
%TF.Part,Single*%
G01*
G75*
%TA.AperFunction,NonConductor*%
%ADD39C,0.25000*%
%ADD40C,0.25400*%
%ADD41C,0.20000*%
%ADD42C,0.05000*%
%ADD43C,0.10000*%
D39*
X-62087Y836400D02*
G03*
X-62087Y836400I-12500J0D01*
G01*
X1925361Y60471D02*
G03*
X1925361Y60471I-12500J0D01*
G01*
X1354196Y1198287D02*
G03*
X1354196Y1198287I-12500J0D01*
G01*
D40*
X128075Y1238482D02*
G03*
X128075Y1238482I-5000J0D01*
G01*
X1556348Y494222D02*
G03*
X1556348Y494222I-5000J0D01*
G01*
D41*
X-9587Y411400D02*
X20412D01*
X-9588Y441400D02*
X-9587Y411400D01*
X400412D02*
X430412Y411400D01*
X430413Y441400D01*
X430412Y821400D02*
Y851400D01*
X400412D02*
X430412D01*
X-9587Y851400D02*
X20412Y851400D01*
X-9587Y821400D02*
Y851400D01*
X2213759Y1247376D02*
X2283759D01*
X2213759Y1374376D02*
X2283759D01*
X1725361Y85471D02*
Y395471D01*
X1825361Y85471D02*
Y395471D01*
X1725361D02*
X1825361D01*
X1725361Y85471D02*
X1825361D01*
X1316696Y1133287D02*
X1356696D01*
Y1093287D02*
Y1133287D01*
Y598287D02*
Y638287D01*
X1316696Y598287D02*
X1356696D01*
X821696D02*
X861696D01*
X821696D02*
Y638287D01*
Y1133287D02*
X861696D01*
X821696Y1093287D02*
Y1133287D01*
D42*
X1025159Y1225642D02*
Y1405049D01*
X1116226Y1225642D02*
Y1405049D01*
X1025159Y1225642D02*
X1116226D01*
X1025159Y1405049D02*
X1116226D01*
X468990Y932075D02*
Y1022766D01*
X278462Y932075D02*
Y1022766D01*
Y932075D02*
X468990Y932075D01*
X278462Y1022766D02*
X468990Y1022766D01*
X586256Y693532D02*
X676947D01*
X586256Y884060D02*
X676947D01*
X586256D02*
X586256Y693532D01*
X676947D02*
X676947Y884060D01*
X487575Y692310D02*
X578266D01*
X487575Y882838D02*
X578267D01*
X487575D02*
X487575Y692310D01*
X578266D02*
X578267Y882838D01*
X-147555Y378500D02*
X-56864Y378500D01*
X-147555Y569027D02*
X-56864D01*
X-147555Y378500D02*
Y569027D01*
X-56864Y378500D02*
Y569027D01*
X-383363Y211581D02*
Y302273D01*
X-192835Y211581D02*
Y302273D01*
X-383363D02*
X-192835D01*
X-383363Y211581D02*
X-192835D01*
X-195120Y947006D02*
X-195119Y1023206D01*
X-372921Y947006D02*
X-372921Y1023206D01*
X-372921Y947006D02*
X-195120D01*
X-372921Y1023206D02*
X-195119D01*
X-193686Y394268D02*
X-193686Y318067D01*
X-371488Y394268D02*
X-371487Y318067D01*
X-193686D01*
X-371488Y394268D02*
X-193686D01*
X-381570Y1039405D02*
Y1130097D01*
X-191043Y1039405D02*
Y1130097D01*
X-381570D02*
X-191043D01*
X-381570Y1039405D02*
X-191043D01*
X-145889Y882234D02*
Y972925D01*
X44637Y882234D02*
Y972925D01*
X-145889D02*
X44637D01*
X-145889Y882234D02*
X44637D01*
X352462Y305479D02*
X352463Y214788D01*
X161935Y305479D02*
X161935Y214788D01*
X352463D01*
X161935Y305479D02*
X352462Y305479D01*
X351571Y116151D02*
Y206843D01*
X161044Y116151D02*
Y206843D01*
Y116151D02*
X351571Y116151D01*
X161044Y206843D02*
X351571Y206843D01*
X390135Y277583D02*
Y353783D01*
X567937Y277583D02*
Y353783D01*
X390135D02*
X567937D01*
X390135Y277583D02*
X567937D01*
X454710Y146809D02*
X454711Y55743D01*
X634117Y55742D02*
Y146809D01*
X454710D02*
X634117D01*
X454711Y55743D02*
X634117Y55742D01*
X-29570Y160375D02*
X61121D01*
X-29570Y350903D02*
X61121D01*
X-29570D02*
X-29570Y160375D01*
X61121D02*
X61121Y350903D01*
X-90608Y144238D02*
X-90608Y53547D01*
X99920Y53547D02*
Y144238D01*
X-90608D02*
X99920D01*
X-90608Y53547D02*
X99920Y53547D01*
X696006Y247202D02*
X786697Y247203D01*
X696005Y56675D02*
X786697D01*
X786697Y247203D02*
X786697Y56675D01*
X696005D02*
X696006Y247202D01*
X-131117Y160077D02*
X-40426Y160076D01*
X-131117Y350604D02*
X-40426D01*
X-131117Y160077D02*
X-131117Y350604D01*
X-40426Y160076D02*
X-40426Y350604D01*
X645439Y250253D02*
X645439Y159562D01*
X454911Y250253D02*
X454912Y159562D01*
X645439D01*
X454911Y250253D02*
X645439D01*
X-289361Y1392973D02*
X-198669D01*
X-289361Y1202446D02*
X-198669D01*
Y1392973D01*
X-289361Y1202446D02*
Y1392973D01*
X99464Y1209267D02*
Y1429269D01*
X-120537Y1209267D02*
Y1429269D01*
Y1209267D02*
X99464D01*
X-120537Y1429269D02*
X99464D01*
X393700Y1282699D02*
Y1358900D01*
X215898Y1282699D02*
Y1358900D01*
Y1282699D02*
X393700D01*
X215898Y1358900D02*
X393700D01*
X-400535Y1392619D02*
X-309844D01*
X-400535Y1202092D02*
X-309844D01*
Y1392619D01*
X-400535Y1202092D02*
Y1392619D01*
X82389Y1059075D02*
Y1149767D01*
X-108138Y1059075D02*
Y1149767D01*
Y1059075D02*
X82389D01*
X-108138Y1149767D02*
X82389D01*
X684899Y930210D02*
X749027Y994338D01*
X550175Y1064933D02*
X614304Y1129061D01*
X550175Y1064933D02*
X684899Y930210D01*
X614304Y1129061D02*
X749027Y994338D01*
X973288Y340116D02*
X1063979D01*
X973288Y530644D02*
X1063979D01*
X973288Y340116D02*
Y530644D01*
X1063979Y340116D02*
Y530644D01*
X868497Y531354D02*
X959188D01*
X868497Y340827D02*
X959188D01*
Y531354D01*
X868497Y340827D02*
Y531354D01*
X1601214Y877745D02*
Y968436D01*
X1410687Y877745D02*
Y968436D01*
Y877745D02*
X1601214D01*
X1410687Y968436D02*
X1601214D01*
X1425377Y670664D02*
X1516068D01*
X1425377Y861191D02*
X1516068D01*
X1425377Y670664D02*
Y861191D01*
X1516068Y670664D02*
Y861191D01*
X713249Y1442831D02*
X803940D01*
X713249Y1252303D02*
X803940D01*
Y1442831D01*
X713249Y1252303D02*
Y1442831D01*
X1213761Y1215577D02*
Y1406104D01*
X1123070Y1215577D02*
Y1406104D01*
X1213761D01*
X1123070Y1215577D02*
X1213761D01*
X816612Y1253284D02*
Y1443811D01*
X907303Y1253284D02*
Y1443811D01*
X816612Y1253284D02*
X907303D01*
X816612Y1443811D02*
X907303D01*
X1638445Y979807D02*
Y1070498D01*
X1447918Y979807D02*
Y1070498D01*
Y979807D02*
X1638445D01*
X1447918Y1070498D02*
X1638445D01*
X925375Y1251309D02*
X1016066D01*
X925375Y1441836D02*
X1016066D01*
X925375Y1251309D02*
Y1441836D01*
X1016066Y1251309D02*
Y1441836D01*
X1639315Y1084209D02*
Y1174900D01*
X1448787Y1084209D02*
Y1174900D01*
Y1084209D02*
X1639315D01*
X1448787Y1174900D02*
X1639315D01*
X1272414Y1452806D02*
X1363105D01*
X1272414Y1262279D02*
X1363105D01*
Y1452806D01*
X1272414Y1262279D02*
Y1452806D01*
X1580737Y1449074D02*
X1671428D01*
X1580737Y1258546D02*
X1671428D01*
Y1449074D01*
X1580737Y1258546D02*
Y1449074D01*
X2032223Y289871D02*
X2122914D01*
X2032223Y99344D02*
X2122914D01*
Y289871D01*
X2032223Y99344D02*
Y289871D01*
X1518067Y82711D02*
Y273238D01*
X1427375Y82711D02*
Y273238D01*
X1518067D01*
X1427375Y82711D02*
X1518067D01*
X861757Y271498D02*
X1371758D01*
X861757Y61497D02*
X1371758D01*
X861757D02*
Y271498D01*
X1371758Y61497D02*
Y271498D01*
X1556074Y1265911D02*
Y1356978D01*
X1376667Y1265911D02*
Y1356978D01*
Y1265911D02*
X1556074D01*
X1376667Y1356978D02*
X1556074D01*
X589433Y1439357D02*
X665633D01*
X589433Y1261556D02*
X665633D01*
Y1439357D01*
X589433Y1261556D02*
Y1439357D01*
X692342Y348934D02*
Y526735D01*
X616142Y348934D02*
Y526735D01*
X692342D01*
X616142Y348934D02*
X692342D01*
X781242D02*
Y526735D01*
X705042Y348934D02*
Y526735D01*
X781242D01*
X705042Y348934D02*
X781242D01*
X393700Y1371599D02*
Y1447800D01*
X215898Y1371599D02*
Y1447800D01*
Y1371599D02*
X393700D01*
X215898Y1447800D02*
X393700D01*
Y1193799D02*
Y1270000D01*
X215898Y1193799D02*
Y1270000D01*
Y1193799D02*
X393700D01*
X215898Y1270000D02*
X393700D01*
X497338Y1426947D02*
X573539D01*
X497338Y1249146D02*
X573539D01*
Y1426947D01*
X497338Y1249146D02*
Y1426947D01*
X1576348Y439222D02*
Y779222D01*
X1986348Y439222D02*
Y779222D01*
X1576348D02*
X1986348D01*
X1576348Y439222D02*
X1986348D01*
X1163596Y368716D02*
X1239796D01*
X1163596Y546518D02*
X1239796D01*
X1163596Y368716D02*
Y546518D01*
X1239796Y368716D02*
Y546518D01*
D43*
X-432086Y673142D02*
X-228886D01*
%TF.MD5,216078160e753df3c734bec28de678c5*%
M02*
