%TF.GenerationSoftware,Altium Limited,Altium Designer,24.5.2 (23)*%
G04 Layer_Physical_Order=1*
G04 Layer_Color=255*
%FSLAX45Y45*%
%MOMM*%
%TF.SameCoordinates,D9EDD973-4EFE-478D-9CC6-8A1B8994CF0D*%
%TF.FilePolarity,Positive*%
%TF.FileFunction,Copper,L1,Top,Signal*%
%TF.Part,Single*%
G01*
G75*
%TA.AperFunction,Conductor*%
%ADD10C,0.35000*%
%TA.AperFunction,SMDPad,CuDef*%
%ADD11R,2.60000X2.60000*%
%ADD12O,0.20000X0.80000*%
%ADD13O,0.80000X0.20000*%
%ADD14R,0.62000X0.59000*%
%ADD15R,0.70000X0.62000*%
%ADD16R,0.62000X0.70000*%
%ADD17R,0.65000X0.55000*%
%ADD18R,0.59000X0.62000*%
%ADD19R,0.38000X0.32000*%
%ADD20R,0.32000X0.39000*%
%ADD21R,0.39000X0.32000*%
%ADD22R,0.74000X1.47000*%
G04:AMPARAMS|DCode=23|XSize=0.62mm|YSize=0.7mm|CornerRadius=0mm|HoleSize=0mm|Usage=FLASHONLY|Rotation=225.000|XOffset=0mm|YOffset=0mm|HoleType=Round|Shape=Rectangle|*
%AMROTATEDRECTD23*
4,1,4,-0.02829,0.46669,0.46669,-0.02829,0.02829,-0.46669,-0.46669,0.02829,-0.02829,0.46669,0.0*
%
%ADD23ROTATEDRECTD23*%

%ADD24R,0.55000X0.65000*%
%ADD25R,1.00000X0.60000*%
%ADD26R,1.40000X1.20000*%
%ADD27O,0.25000X0.80000*%
%ADD28O,0.80000X0.25000*%
%ADD29R,3.70000X3.70000*%
%TA.AperFunction,Conductor*%
%ADD30C,0.15000*%
%ADD31C,0.20000*%
%ADD32C,0.50000*%
%TA.AperFunction,ComponentPad*%
%ADD33C,1.77800*%
%ADD34C,0.80000*%
%TA.AperFunction,ViaPad*%
%ADD35C,0.60000*%
%ADD36C,0.50000*%
G36*
X1700007Y1469401D02*
X1701800Y1469401D01*
X1714500Y1458586D01*
Y1344012D01*
X1688901D01*
X1676603Y1344984D01*
Y1384984D01*
X1574603D01*
Y1356588D01*
X1561903Y1350327D01*
X1556698Y1354324D01*
Y1356876D01*
X1467699D01*
Y1356876D01*
X1465698D01*
Y1356876D01*
X1377602D01*
X1376699Y1356876D01*
X1368281Y1366089D01*
Y1388717D01*
X1266281D01*
Y1348717D01*
X1271281D01*
Y1331211D01*
X1256242Y1319671D01*
X1242523Y1301794D01*
X1233899Y1280974D01*
X1230958Y1258632D01*
X1231060D01*
Y1245353D01*
X1218360Y1238564D01*
X1216960Y1239500D01*
Y1301667D01*
X1219894D01*
Y1341666D01*
X1168895D01*
Y1356666D01*
X1153895D01*
Y1411666D01*
X1122422D01*
X1118633Y1413236D01*
X1022200D01*
Y1447398D01*
X986200D01*
Y1392398D01*
X956200D01*
Y1447398D01*
X920201D01*
X920200Y1447398D01*
X912478Y1449722D01*
Y1449722D01*
X908462Y1449722D01*
X876478D01*
Y1394722D01*
X846478D01*
Y1449722D01*
X810478D01*
Y1449722D01*
X809115Y1448741D01*
X773116D01*
Y1393741D01*
X743116D01*
Y1448741D01*
X717536D01*
X712969Y1458294D01*
X720144Y1469401D01*
X1261415Y1469401D01*
X1266281Y1458716D01*
Y1418717D01*
X1368281D01*
Y1456701D01*
X1373147Y1469401D01*
X1700000D01*
X1700004Y1469402D01*
X1700007Y1469401D01*
D02*
G37*
G36*
X250048Y1485972D02*
X259972Y1479341D01*
X278349Y1471729D01*
X290054Y1469401D01*
X422601D01*
X427861Y1456701D01*
X419051Y1447890D01*
X416420Y1441540D01*
X394800D01*
Y1452200D01*
X214800D01*
X205255Y1459818D01*
X201682Y1463392D01*
X185142Y1470243D01*
X167240D01*
X150701Y1463392D01*
X138042Y1450733D01*
X136986Y1448183D01*
X95438D01*
X86659Y1446437D01*
X79217Y1441464D01*
X68565Y1430812D01*
X55865Y1436073D01*
Y1439169D01*
X27165D01*
Y1394269D01*
X1765D01*
Y1439169D01*
X-22835D01*
Y1394269D01*
X-48235D01*
Y1439169D01*
X-72835D01*
Y1394269D01*
X-85535D01*
Y1381569D01*
X-130435D01*
Y1356969D01*
X-85535D01*
Y1331569D01*
X-130435D01*
Y1319759D01*
X-147683D01*
X-157438Y1317819D01*
X-165707Y1312293D01*
X-174210Y1303790D01*
X-193494D01*
Y1328884D01*
X-244494D01*
Y1343884D01*
X-259494D01*
Y1398883D01*
X-292115D01*
X-295493Y1398884D01*
Y1398884D01*
X-304669Y1398530D01*
Y1398529D01*
X-340668D01*
Y1343529D01*
X-370668D01*
Y1398529D01*
X-393807D01*
X-399068Y1411229D01*
X-389868Y1420429D01*
X-353931Y1444442D01*
X-314000Y1460981D01*
X-271610Y1469413D01*
X-250000D01*
X49999Y1469414D01*
X61704Y1471742D01*
X71628Y1478373D01*
X78258Y1488296D01*
X79551Y1494797D01*
X241223D01*
X250048Y1485972D01*
D02*
G37*
G36*
X1118633Y1320800D02*
X1041400Y1320800D01*
X1035273Y1314673D01*
X1025262D01*
Y1304662D01*
X980514Y1259914D01*
X802623D01*
Y1231291D01*
X694161D01*
X682681Y1242771D01*
Y1346825D01*
X712116D01*
Y1343741D01*
X803184D01*
X804115Y1343741D01*
Y1343741D01*
X815479Y1344721D01*
Y1344722D01*
X907478D01*
Y1346825D01*
X925200D01*
Y1342398D01*
X1017200D01*
Y1397000D01*
X1118633D01*
Y1320800D01*
D02*
G37*
G36*
X-120035Y1263269D02*
X-119535D01*
Y1213269D01*
X-101797D01*
X-100085Y1204660D01*
X-94559Y1196390D01*
X-84062Y1185893D01*
Y1150900D01*
X-108700D01*
Y1058900D01*
X-59190D01*
Y1054965D01*
X-57249Y1045211D01*
X-54262Y1040740D01*
X-57802Y1032194D01*
Y1014292D01*
X-50951Y997753D01*
X-38998Y985800D01*
X-39272Y982317D01*
X-42523Y973100D01*
X-146800D01*
Y881100D01*
X-122732D01*
Y788389D01*
X-120986Y779610D01*
X-116013Y772167D01*
X-70876Y727031D01*
X-75736Y715297D01*
X-98751D01*
X-162342Y778888D01*
Y928869D01*
X-164088Y937648D01*
X-169061Y945091D01*
X-194019Y970049D01*
Y1027606D01*
X-194019Y1027606D01*
X-190480Y1038272D01*
X-190480D01*
X-190481Y1038841D01*
Y1130272D01*
X-277482D01*
Y1135272D01*
X-317481D01*
Y1084271D01*
X-332481D01*
Y1069271D01*
X-387481D01*
Y1033272D01*
X-384373D01*
X-374020Y1027606D01*
Y942607D01*
X-355976D01*
Y900878D01*
X-370590Y896962D01*
X-394282Y883283D01*
X-413627Y863938D01*
X-427305Y840246D01*
X-434386Y813821D01*
Y786464D01*
X-427305Y760038D01*
X-413627Y736346D01*
X-394282Y717001D01*
X-370590Y703323D01*
X-344165Y696242D01*
X-316807D01*
X-290382Y703323D01*
X-266690Y717001D01*
X-247345Y736346D01*
X-233667Y760038D01*
X-226586Y786464D01*
Y813821D01*
X-233667Y840246D01*
X-247345Y863938D01*
X-266690Y883283D01*
X-290382Y896962D01*
X-304996Y900878D01*
Y942607D01*
X-231463D01*
X-208223Y919367D01*
Y769386D01*
X-206477Y760607D01*
X-201504Y753165D01*
X-127790Y679451D01*
X-126603Y675376D01*
X-126512Y667873D01*
X-127708Y663022D01*
X-204913Y585817D01*
X-209886Y578375D01*
X-211632Y569596D01*
Y412064D01*
X-225029Y398667D01*
X-277586D01*
Y398667D01*
X-307545D01*
Y444724D01*
X-290382Y449323D01*
X-266690Y463002D01*
X-247345Y482346D01*
X-233666Y506039D01*
X-226586Y532464D01*
Y559821D01*
X-233666Y586246D01*
X-247345Y609939D01*
X-266690Y629283D01*
X-290382Y642962D01*
X-316807Y650042D01*
X-344164D01*
X-370590Y642962D01*
X-394282Y629283D01*
X-413627Y609939D01*
X-427305Y586246D01*
X-434386Y559821D01*
Y532464D01*
X-427305Y506039D01*
X-413627Y482346D01*
X-394282Y463002D01*
X-370590Y449323D01*
X-353426Y444724D01*
Y398667D01*
X-372586D01*
Y313668D01*
X-382710Y307448D01*
X-389273D01*
Y271448D01*
X-334273D01*
Y256448D01*
X-319273D01*
Y205448D01*
X-279274D01*
Y210448D01*
X-192273D01*
Y246293D01*
X-179573Y253135D01*
X-173126Y250464D01*
X-136293D01*
Y224166D01*
X-85292D01*
Y194166D01*
X-136293D01*
Y154166D01*
X-107250D01*
X-96518Y149413D01*
Y113414D01*
X-41519D01*
Y98414D01*
X-26519D01*
Y47414D01*
X13481D01*
Y52414D01*
X100481D01*
Y111971D01*
X148749Y160238D01*
X160482Y155378D01*
Y115976D01*
X161564D01*
Y101600D01*
X166319Y90119D01*
X224633Y31806D01*
X236113Y27051D01*
X246678D01*
X250530Y14351D01*
X250048Y14029D01*
X235983Y-37D01*
X232531Y-5202D01*
X80586D01*
Y-1D01*
X78258Y11704D01*
X71627Y21628D01*
X61704Y28258D01*
X49999Y30587D01*
X-250000Y30586D01*
X-271611Y30587D01*
X-314000Y39018D01*
X-353932Y55559D01*
X-389868Y79571D01*
X-420430Y110132D01*
X-444442Y146069D01*
X-460982Y186000D01*
X-469413Y228389D01*
Y250000D01*
X-469414Y1151110D01*
X-456713Y1156371D01*
X-451180Y1150837D01*
X-434640Y1143986D01*
X-416739D01*
X-400199Y1150837D01*
X-387540Y1163496D01*
X-380690Y1180035D01*
Y1189921D01*
X-369081Y1201529D01*
X-309668D01*
Y1225260D01*
X-290494D01*
Y1201884D01*
X-198494D01*
Y1252810D01*
X-163652D01*
X-153898Y1254751D01*
X-145628Y1260276D01*
X-137125Y1268780D01*
X-120035D01*
Y1263269D01*
D02*
G37*
G36*
X1200724Y1222375D02*
X1226137Y1196962D01*
Y1104900D01*
X1151602D01*
X1152456Y1160886D01*
Y1162657D01*
X1159024Y1178514D01*
Y1196416D01*
X1152456Y1212273D01*
Y1244600D01*
X1041400D01*
Y1300975D01*
X1046754Y1303192D01*
X1047934Y1304373D01*
X1200724D01*
Y1222375D01*
D02*
G37*
G36*
X1376699Y1264876D02*
X1465698D01*
Y1264875D01*
X1467699D01*
Y1264876D01*
X1556698D01*
Y1277739D01*
X1579603D01*
Y1257984D01*
X1671603D01*
Y1277739D01*
X1714500D01*
Y863600D01*
X2469413D01*
X2469414Y250001D01*
X2469413Y228390D01*
X2460981Y186000D01*
X2444441Y146068D01*
X2420429Y110132D01*
X2389867Y79570D01*
X2353931Y55558D01*
X2314001Y39019D01*
X2271610Y30587D01*
X2250000Y30587D01*
X1950001Y30587D01*
X1938296Y28258D01*
X1928373Y21628D01*
X1921742Y11704D01*
X1919414Y-1D01*
Y-5202D01*
X1767463D01*
X1764027Y-57D01*
X1749962Y14015D01*
X1740040Y20648D01*
X1721660Y28266D01*
X1709955Y30597D01*
X1700008Y30599D01*
X1700005Y30599D01*
X1700001Y30600D01*
X564760D01*
X556268Y43287D01*
Y55844D01*
X634085D01*
Y80623D01*
X694872D01*
Y56113D01*
X786871D01*
X786872Y56113D01*
Y56113D01*
X799572Y58993D01*
X805664Y56470D01*
X823566D01*
X840106Y63320D01*
X852764Y75979D01*
X859615Y92518D01*
Y110420D01*
X852764Y126960D01*
X840106Y139618D01*
X823566Y146469D01*
X805664D01*
X804572Y146017D01*
X791872Y154503D01*
Y183113D01*
X689872D01*
Y143114D01*
X689872D01*
X687000Y131603D01*
X634085D01*
Y147844D01*
X644075Y154387D01*
X651349D01*
Y190387D01*
X596350D01*
Y205387D01*
X581350D01*
Y256387D01*
X541350D01*
Y256387D01*
X528649Y252322D01*
X478458Y252829D01*
X478355Y252788D01*
X478253Y252830D01*
X474794Y251387D01*
X454350D01*
Y230589D01*
X453100Y227550D01*
X453143Y227448D01*
X453102Y227344D01*
X454307Y148069D01*
X454085Y147844D01*
X454086D01*
Y130536D01*
X357482D01*
Y146976D01*
X302482D01*
Y176976D01*
X357482D01*
Y209613D01*
X358373D01*
Y245613D01*
X303373D01*
Y275613D01*
X358373D01*
Y307879D01*
X388056D01*
X389035Y306900D01*
Y273183D01*
X569035D01*
Y273183D01*
X581735Y277613D01*
X592069Y273333D01*
X609971D01*
X626511Y280184D01*
X639169Y292842D01*
X642112Y299947D01*
X646201Y300761D01*
X658901Y298579D01*
X665752Y282040D01*
X678411Y269381D01*
X688449Y265223D01*
X689872Y253113D01*
X689872Y253113D01*
X689872Y253113D01*
Y213113D01*
X725872D01*
Y253113D01*
X723303D01*
X720777Y265813D01*
X729392Y269381D01*
X742050Y282040D01*
X748901Y298580D01*
Y316481D01*
X743341Y329904D01*
X747496Y340036D01*
X749899Y343133D01*
X756932Y344101D01*
X771042Y329991D01*
Y325843D01*
X777893Y309303D01*
X790551Y296645D01*
X807091Y289794D01*
X824993D01*
X841532Y296645D01*
X854191Y309303D01*
X860076Y323512D01*
X861042Y325843D01*
X861043Y325851D01*
X862364Y335265D01*
X869155Y335265D01*
X898363D01*
Y390265D01*
X928363D01*
Y335265D01*
X964363D01*
Y335264D01*
X968113Y334205D01*
X968113Y334206D01*
X976625Y334206D01*
X1004113D01*
Y389205D01*
X1019113D01*
Y404205D01*
X1070113D01*
Y431612D01*
X1080672Y438667D01*
X1083249Y437600D01*
X1101151D01*
X1117690Y444451D01*
X1130349Y457110D01*
X1137200Y473649D01*
Y491551D01*
X1130349Y508090D01*
X1117690Y520749D01*
X1101151Y527600D01*
X1083249D01*
X1077813Y525348D01*
X1065112Y531206D01*
Y531206D01*
X1009161D01*
X989686Y550681D01*
Y563816D01*
X1002386Y570604D01*
X1003466Y569883D01*
X1014196Y567748D01*
X1024926Y569883D01*
X1034022Y575961D01*
X1044370D01*
X1053466Y569883D01*
X1064196Y567748D01*
X1074926Y569883D01*
X1084022Y575961D01*
X1094370D01*
X1103466Y569883D01*
X1114196Y567748D01*
X1124926Y569883D01*
X1134022Y575961D01*
X1144370D01*
X1153466Y569883D01*
X1164196Y567748D01*
X1174926Y569883D01*
X1184022Y575961D01*
X1194370D01*
X1203466Y569883D01*
X1214196Y567748D01*
X1224926Y569883D01*
X1234022Y575961D01*
X1244370D01*
X1253466Y569883D01*
X1264196Y567748D01*
X1274926Y569883D01*
X1284023Y575961D01*
X1290101Y585057D01*
X1292235Y595787D01*
Y650787D01*
X1291947Y652236D01*
X1302747Y663037D01*
X1304196Y662748D01*
X1348659D01*
Y416542D01*
X1209378Y277261D01*
X1142680D01*
X1133901Y275514D01*
X1126459Y270541D01*
X1126458Y270541D01*
X1074392Y218475D01*
X1066177Y221877D01*
X1044297D01*
X1024083Y213504D01*
X1008611Y198032D01*
X1000238Y177817D01*
Y155937D01*
X1008611Y135722D01*
X1024083Y120251D01*
X1044297Y111877D01*
X1066177D01*
X1086392Y120251D01*
X1101864Y135722D01*
X1110237Y155937D01*
Y177817D01*
X1106835Y186032D01*
X1125793Y204990D01*
X1135611Y198032D01*
X1127238Y177817D01*
Y155937D01*
X1135611Y135722D01*
X1151083Y120251D01*
X1171297Y111877D01*
X1193177D01*
X1213392Y120251D01*
X1228864Y135722D01*
X1237237Y155937D01*
X1249238Y154942D01*
X1258372Y132890D01*
X1275250Y116012D01*
X1294238Y108147D01*
Y166878D01*
Y225608D01*
X1289344Y223581D01*
X1282150Y234347D01*
X1400133Y352329D01*
X1411866Y347469D01*
Y332505D01*
X1409651Y330290D01*
X1402800Y313751D01*
Y295849D01*
X1409651Y279310D01*
X1411866Y277095D01*
Y193900D01*
X1416621Y182419D01*
X1422200Y180109D01*
Y146800D01*
X1473199D01*
X1524200D01*
Y177664D01*
X1537874D01*
X1556626Y158913D01*
Y101441D01*
X1561381Y89961D01*
X1572861Y85205D01*
X1680560D01*
X1680598Y85221D01*
X1680636Y85206D01*
X1686314Y87589D01*
X1692040Y89961D01*
X1692056Y89999D01*
X1692094Y90015D01*
X1701032Y99038D01*
X1701048Y99077D01*
X1701086Y99093D01*
X1701646Y100470D01*
X1702862D01*
X1705734Y110541D01*
X1705720Y110572D01*
X1705733Y110618D01*
X1705719Y111987D01*
X1704733Y216054D01*
X1702328Y221708D01*
X1699978Y227381D01*
X1699902Y227412D01*
X1699869Y227489D01*
X1694177Y229784D01*
X1688498Y232136D01*
X1627221D01*
Y240568D01*
X1625060Y245786D01*
X1623297Y251153D01*
X1603977Y273623D01*
X1603396Y273917D01*
X1603147Y274518D01*
X1597928Y276680D01*
X1595770Y277771D01*
X1598797Y290471D01*
X1702861D01*
Y380471D01*
X1572861D01*
Y291974D01*
X1572861Y290471D01*
X1569233Y279274D01*
X1543898D01*
Y355961D01*
X1547847Y365494D01*
Y383396D01*
X1540996Y399935D01*
X1539776Y401155D01*
X1539142Y402684D01*
X1537614Y403317D01*
X1528337Y412594D01*
X1511798Y419445D01*
X1493896D01*
X1477356Y412594D01*
X1472202Y407439D01*
X1429540D01*
Y664753D01*
X1456201D01*
Y719753D01*
X1471201D01*
Y734753D01*
X1527651D01*
X1534901Y738382D01*
X1539159Y735193D01*
Y629710D01*
X1540906Y620931D01*
X1545879Y613489D01*
X1586348Y573019D01*
Y449222D01*
X1756348D01*
Y599221D01*
X1763831Y608822D01*
X1766748D01*
Y681522D01*
X1671348D01*
Y706922D01*
X1766748D01*
Y753781D01*
X1789345D01*
X1806348Y736779D01*
Y622322D01*
X1806348Y619222D01*
X1798864Y609622D01*
X1795948D01*
Y536922D01*
X1986748D01*
Y609622D01*
X1983831D01*
X1976348Y619222D01*
X1976348Y622322D01*
Y769221D01*
X1838791D01*
X1815069Y792943D01*
X1807627Y797916D01*
X1798848Y799662D01*
X1710952D01*
X1646906Y863709D01*
X1639464Y868682D01*
X1630685Y870428D01*
X1618937D01*
X1607124Y872570D01*
Y908570D01*
X1552125D01*
Y938570D01*
X1607124D01*
Y974569D01*
X1619799Y974632D01*
X1644355D01*
Y1010632D01*
X1589355D01*
Y1040632D01*
X1644355D01*
Y1076631D01*
X1644356D01*
X1645226Y1079034D01*
X1645225Y1079034D01*
X1645225Y1088971D01*
Y1115034D01*
X1590225D01*
Y1130034D01*
X1575225D01*
Y1181034D01*
X1551424D01*
X1551045Y1232021D01*
X1548649Y1237684D01*
X1546290Y1243381D01*
X1546229Y1243406D01*
X1546204Y1243466D01*
X1540507Y1245776D01*
X1534809Y1248136D01*
X1448563D01*
X1442882Y1245783D01*
X1437152Y1243450D01*
X1437131Y1243401D01*
X1437082Y1243381D01*
X1434727Y1237695D01*
X1432327Y1231998D01*
X1432209Y1212429D01*
X1428200Y1202751D01*
Y1184849D01*
X1431987Y1175707D01*
X1431349Y1070115D01*
X1331148D01*
X1328034Y1068826D01*
X1304196D01*
X1302747Y1068537D01*
X1291947Y1079338D01*
X1292235Y1080787D01*
Y1131358D01*
X1294810Y1135212D01*
X1297333Y1147893D01*
Y1258632D01*
X1297588D01*
X1298201Y1261717D01*
X1363281D01*
Y1278580D01*
X1376699D01*
Y1264876D01*
D02*
G37*
G36*
X610711Y1133335D02*
X589251Y1111875D01*
X628142Y1072984D01*
X606929Y1051771D01*
X568038Y1090662D01*
X542583Y1065207D01*
X570176Y1037613D01*
X565443Y1024386D01*
X564608Y1024303D01*
X555731Y1033180D01*
X539191Y1040031D01*
X521290D01*
X504750Y1033180D01*
X492091Y1020522D01*
X487600Y1009679D01*
X474900Y1012205D01*
Y1028899D01*
X434900D01*
Y977899D01*
Y926900D01*
X474900D01*
Y977857D01*
X487600Y980383D01*
X492091Y969541D01*
X504750Y956882D01*
X521290Y950031D01*
X539191D01*
X555731Y956882D01*
X564068Y965219D01*
X589577D01*
X594838Y952519D01*
X592981Y950663D01*
X586130Y934124D01*
Y930976D01*
X573430Y925715D01*
X568995Y930151D01*
X561553Y935123D01*
X552774Y936870D01*
X543466D01*
X534687Y935123D01*
X527245Y930151D01*
X522272Y922708D01*
X520526Y913929D01*
Y913549D01*
X520274Y912284D01*
X522021Y903505D01*
X523628Y901100D01*
X517343Y888400D01*
X482400D01*
Y848400D01*
X533399D01*
Y818400D01*
X482400D01*
Y779884D01*
X476096Y774338D01*
X464784Y777512D01*
X463672Y783106D01*
X457041Y793029D01*
X447118Y799660D01*
X435412Y801988D01*
X420412D01*
Y771401D01*
X390412D01*
Y801988D01*
X375902D01*
Y856400D01*
X373962Y866154D01*
X368436Y874424D01*
X360167Y879949D01*
X350412Y881890D01*
X340658Y879949D01*
X340216Y879654D01*
X330412Y875302D01*
X320609Y879654D01*
X320167Y879949D01*
X310412Y881890D01*
X306053Y881023D01*
X293353Y889180D01*
Y910564D01*
X297321Y914532D01*
X302294Y921975D01*
X302760Y924316D01*
X310343Y931899D01*
X364900D01*
Y926900D01*
X404900D01*
Y977899D01*
Y1028899D01*
X364900D01*
Y1023899D01*
X277900D01*
Y983433D01*
X272504Y980799D01*
X265200Y979539D01*
X254090Y990649D01*
X237551Y997500D01*
X219649D01*
X203110Y990649D01*
X195245Y982785D01*
X181737Y983520D01*
X180299Y984432D01*
X168523Y996209D01*
X151984Y1003059D01*
X134082D01*
X117542Y996209D01*
X104884Y983550D01*
X98033Y967011D01*
Y949109D01*
X104884Y932569D01*
X117542Y919911D01*
X134082Y913060D01*
X146965D01*
X158614Y901411D01*
X157975Y891798D01*
X150412Y881890D01*
X140658Y879949D01*
X132389Y874424D01*
X128436D01*
X120167Y879949D01*
X110413Y881890D01*
X100658Y879949D01*
X92389Y874424D01*
X80609Y879654D01*
X80167Y879949D01*
X70412Y881890D01*
X60658Y879949D01*
X56185Y876961D01*
X45200Y884785D01*
Y973100D01*
X16919D01*
X13668Y982317D01*
X13394Y985800D01*
X25347Y997753D01*
X32198Y1014292D01*
Y1032194D01*
X28468Y1041200D01*
X36774Y1053900D01*
X88300D01*
Y1089900D01*
X33300D01*
Y1119900D01*
X88300D01*
Y1145459D01*
X598586D01*
X610711Y1133335D01*
D02*
G37*
G36*
X1536633Y986925D02*
X1527675Y977922D01*
X1331148Y978409D01*
Y1053880D01*
X1447487D01*
X1448563Y1231900D01*
X1534809D01*
X1536633Y986925D01*
D02*
G37*
G36*
X81008Y429578D02*
X79197Y396179D01*
X51973Y335298D01*
X50800Y266700D01*
X-173126D01*
Y344311D01*
X-57909D01*
X36578Y438798D01*
X72274D01*
X81008Y429578D01*
D02*
G37*
G36*
X124917Y406400D02*
X125412Y403910D01*
Y369077D01*
X127472Y367606D01*
Y203847D01*
X79954Y156329D01*
X67254Y161590D01*
Y194464D01*
X16254D01*
Y224464D01*
X67254D01*
Y264464D01*
X67254Y264464D01*
X67217Y277164D01*
X68150Y331701D01*
X87467Y374901D01*
X95413Y377191D01*
Y395296D01*
X95414Y395300D01*
X97226Y428698D01*
X97147Y428921D01*
X97244Y429138D01*
X95907Y432628D01*
Y436400D01*
X124917D01*
Y406400D01*
D02*
G37*
G36*
X1527662Y263038D02*
X1591666D01*
X1610985Y240568D01*
Y215900D01*
X1688498D01*
X1689497Y110464D01*
X1680560Y101441D01*
X1572861D01*
Y165638D01*
X1544599Y193900D01*
X1428102D01*
Y384007D01*
X1429533Y391203D01*
X1527662D01*
Y263038D01*
D02*
G37*
G36*
X200874Y420239D02*
Y345226D01*
X205704Y340396D01*
Y327452D01*
X212555Y310913D01*
X225213Y298254D01*
X241300Y291590D01*
Y114300D01*
X471057D01*
X469336Y227591D01*
X478294Y236594D01*
X540032Y235971D01*
Y43287D01*
X236113D01*
X177800Y101600D01*
Y413758D01*
X189141Y425099D01*
X200874Y420239D01*
D02*
G37*
%LPC*%
G36*
X1676603Y1454984D02*
X1640603D01*
Y1414984D01*
X1676603D01*
Y1454984D01*
D02*
G37*
G36*
X1610603D02*
X1574603D01*
Y1414984D01*
X1610603D01*
Y1454984D01*
D02*
G37*
G36*
X1219894Y1411666D02*
X1183895D01*
Y1371666D01*
X1219894D01*
Y1411666D01*
D02*
G37*
G36*
X-98235Y1435669D02*
X-129935D01*
Y1406969D01*
X-98235D01*
Y1435669D01*
D02*
G37*
G36*
X-229494Y1398883D02*
Y1358883D01*
X-193494D01*
Y1398883D01*
X-229494D01*
D02*
G37*
G36*
X-347481Y1135272D02*
X-387481D01*
Y1099271D01*
X-347481D01*
Y1135272D01*
D02*
G37*
G36*
X-349273Y241448D02*
X-389273D01*
Y205448D01*
X-349273D01*
Y241448D01*
D02*
G37*
G36*
X-56519Y83414D02*
X-96518D01*
Y47414D01*
X-56519D01*
Y83414D01*
D02*
G37*
G36*
X1645225Y1181034D02*
X1605225D01*
Y1145034D01*
X1645225D01*
Y1181034D01*
D02*
G37*
G36*
X1522201Y704753D02*
X1486201D01*
Y664753D01*
X1522201D01*
Y704753D01*
D02*
G37*
G36*
X1249196Y552616D02*
X1216696D01*
Y515117D01*
X1249196D01*
Y552616D01*
D02*
G37*
G36*
X1186696D02*
X1154196D01*
Y515117D01*
X1186696D01*
Y552616D01*
D02*
G37*
G36*
X1986748Y511522D02*
X1904048D01*
Y438822D01*
X1986748D01*
Y511522D01*
D02*
G37*
G36*
X1878648D02*
X1795948D01*
Y438822D01*
X1878648D01*
Y511522D01*
D02*
G37*
G36*
X2155251Y476800D02*
X2137349D01*
X2120810Y469949D01*
X2108151Y457290D01*
X2101300Y440751D01*
Y422849D01*
X2108151Y406310D01*
X2120810Y393651D01*
X2137349Y386800D01*
X2155251D01*
X2171790Y393651D01*
X2184449Y406310D01*
X2191300Y422849D01*
Y440751D01*
X2184449Y457290D01*
X2171790Y469949D01*
X2155251Y476800D01*
D02*
G37*
G36*
X1070113Y374205D02*
X1034113D01*
Y334206D01*
X1070113D01*
Y374205D01*
D02*
G37*
G36*
X1249196Y485117D02*
X1201696D01*
X1154196D01*
Y447616D01*
X1159196D01*
Y405059D01*
X1148092Y393955D01*
X1143120Y386513D01*
X1141373Y377734D01*
Y375812D01*
X1136618Y373843D01*
X1123960Y361184D01*
X1117109Y344644D01*
Y326743D01*
X1123960Y310203D01*
X1136618Y297544D01*
X1153158Y290694D01*
X1171060D01*
X1187599Y297544D01*
X1200258Y310203D01*
X1207109Y326743D01*
Y344644D01*
X1202854Y354916D01*
X1210419Y367616D01*
X1244196D01*
Y447616D01*
X1249196D01*
Y485117D01*
D02*
G37*
G36*
X2128089Y295781D02*
X2092090D01*
Y255782D01*
X2128089D01*
Y295781D01*
D02*
G37*
G36*
X651349Y256387D02*
X611350D01*
Y220387D01*
X651349D01*
Y256387D01*
D02*
G37*
G36*
X791872Y253113D02*
X755872D01*
Y213113D01*
X791872D01*
Y253113D01*
D02*
G37*
G36*
X1324238Y225607D02*
Y181878D01*
X1367967D01*
X1360103Y200864D01*
X1343225Y217743D01*
X1324238Y225607D01*
D02*
G37*
G36*
X939177Y221877D02*
X917297D01*
X897083Y213504D01*
X881611Y198032D01*
X873238Y177817D01*
Y155937D01*
X881611Y135722D01*
X897083Y120251D01*
X917297Y111877D01*
X939177D01*
X959392Y120251D01*
X974864Y135722D01*
X983237Y155937D01*
Y177817D01*
X974864Y198032D01*
X959392Y213504D01*
X939177Y221877D01*
D02*
G37*
G36*
X1367968Y151878D02*
X1324238D01*
Y108147D01*
X1343225Y116012D01*
X1360103Y132890D01*
X1367968Y151878D01*
D02*
G37*
G36*
X1977861Y380471D02*
X1847861D01*
Y290471D01*
X1842861D01*
Y255471D01*
X1912862D01*
Y225471D01*
X1842861D01*
Y190471D01*
X1847861Y190471D01*
Y100471D01*
X1977861D01*
Y105838D01*
X2031090D01*
Y98782D01*
X2123089D01*
Y101662D01*
X2135790Y108046D01*
X2137349Y107400D01*
X2155251D01*
X2171790Y114251D01*
X2184449Y126910D01*
X2191300Y143449D01*
Y161351D01*
X2184449Y177890D01*
X2171790Y190549D01*
X2155251Y197400D01*
X2137349D01*
X2128089Y203587D01*
Y225782D01*
X2077090D01*
Y240782D01*
X2062090D01*
Y295781D01*
X2026090D01*
Y293246D01*
X2021382Y290196D01*
X2013390Y288380D01*
X1977861Y323908D01*
Y380471D01*
D02*
G37*
G36*
X1524200Y116800D02*
X1488199D01*
Y76800D01*
X1524200D01*
Y116800D01*
D02*
G37*
G36*
X1458200D02*
X1422200D01*
Y76800D01*
X1458200D01*
Y116800D01*
D02*
G37*
%LPD*%
D10*
X1317281Y1311717D02*
G03*
X1264196Y1258632I0J-53084D01*
G01*
Y1147893D02*
Y1258632D01*
X1317281Y1311717D02*
X1420357D01*
X1512198Y1310876D02*
X2140259D01*
X1626554Y1310932D02*
X1648499D01*
D11*
X210412Y631400D02*
D03*
D12*
X70412Y826400D02*
D03*
X150412Y826400D02*
D03*
X190413D02*
D03*
X230412D02*
D03*
X270412D02*
D03*
X310412D02*
D03*
X350412D02*
D03*
Y436400D02*
D03*
X310412D02*
D03*
X270412D02*
D03*
X230412Y436400D02*
D03*
X190413Y436400D02*
D03*
X150412Y436400D02*
D03*
X110413Y436400D02*
D03*
X70412Y436400D02*
D03*
X110413Y826400D02*
D03*
D13*
X405412Y771400D02*
D03*
X405413Y731400D02*
D03*
X405412Y691400D02*
D03*
X405413Y651400D02*
D03*
Y611400D02*
D03*
X405412Y571400D02*
D03*
X405413Y531400D02*
D03*
X405412Y491400D02*
D03*
X15412D02*
D03*
X15412Y531400D02*
D03*
Y571400D02*
D03*
Y611400D02*
D03*
Y651400D02*
D03*
X15412Y691400D02*
D03*
X15412Y731400D02*
D03*
X15412Y771400D02*
D03*
D14*
X1071262Y1361173D02*
D03*
Y1270173D02*
D03*
D15*
X327900Y977899D02*
D03*
X419900Y977899D02*
D03*
X-242273Y256448D02*
D03*
X-334273Y256448D02*
D03*
X-240481Y1084272D02*
D03*
X-332481D02*
D03*
X-4800Y927100D02*
D03*
X-96800D02*
D03*
X211373Y260612D02*
D03*
X303373Y260613D02*
D03*
X210482Y161976D02*
D03*
X302482Y161976D02*
D03*
X50481Y98414D02*
D03*
X-41519D02*
D03*
X504350Y205387D02*
D03*
X596350Y205387D02*
D03*
X-58700Y1104900D02*
D03*
X33300D02*
D03*
X1460124Y923569D02*
D03*
X1552124D02*
D03*
X1497355Y1025632D02*
D03*
X1589355D02*
D03*
X1498225Y1130034D02*
D03*
X1590225D02*
D03*
D16*
X632081Y834622D02*
D03*
Y742622D02*
D03*
X533400Y833400D02*
D03*
Y741400D02*
D03*
X-101730Y519589D02*
D03*
X-101731Y427590D02*
D03*
X16254Y301464D02*
D03*
X16254Y209464D02*
D03*
X740872Y106113D02*
D03*
Y198113D02*
D03*
X-85292Y301166D02*
D03*
X-85293Y209166D02*
D03*
X-244494Y1251883D02*
D03*
Y1343884D02*
D03*
X-355668Y1251529D02*
D03*
Y1343529D02*
D03*
X1019113Y481206D02*
D03*
Y389206D02*
D03*
X913363Y390265D02*
D03*
Y482265D02*
D03*
X1471201Y811753D02*
D03*
Y719753D02*
D03*
X758116Y1301741D02*
D03*
Y1393741D02*
D03*
X1168895Y1264667D02*
D03*
Y1356667D02*
D03*
X861478Y1394722D02*
D03*
Y1302722D02*
D03*
X971200Y1392398D02*
D03*
Y1300398D02*
D03*
X1317281Y1311717D02*
D03*
Y1403717D02*
D03*
X1625603Y1307984D02*
D03*
Y1399984D02*
D03*
X2077090Y148782D02*
D03*
Y240782D02*
D03*
X1473200Y131800D02*
D03*
Y223800D02*
D03*
D17*
X-326520Y985106D02*
D03*
X-241519D02*
D03*
X-325086Y356167D02*
D03*
X-240086Y356167D02*
D03*
X521535Y315683D02*
D03*
X436535D02*
D03*
X262300Y1320800D02*
D03*
X347300D02*
D03*
X262300Y1409700D02*
D03*
X347300D02*
D03*
X262300Y1231900D02*
D03*
X347300D02*
D03*
D18*
X589586Y101844D02*
D03*
X498585D02*
D03*
X1421198Y1310876D02*
D03*
X1512198D02*
D03*
D19*
X-85536Y1244269D02*
D03*
X64464Y1394269D02*
D03*
Y1244269D02*
D03*
X-85536Y1394269D02*
D03*
D20*
X14465Y1244269D02*
D03*
X-35535D02*
D03*
X14465Y1394269D02*
D03*
X-35535D02*
D03*
D21*
X64464Y1344269D02*
D03*
Y1294269D02*
D03*
X-85536D02*
D03*
Y1344269D02*
D03*
D22*
X2357259Y1310876D02*
D03*
X2140259D02*
D03*
D23*
X617536Y1062378D02*
D03*
X682590Y997324D02*
D03*
D24*
X627533Y1307957D02*
D03*
Y1392957D02*
D03*
X654242Y395334D02*
D03*
Y480334D02*
D03*
X743142Y395334D02*
D03*
Y480334D02*
D03*
X535438Y1295547D02*
D03*
Y1380547D02*
D03*
X1201696Y500116D02*
D03*
Y415116D02*
D03*
D25*
X1637861Y145471D02*
D03*
Y335471D02*
D03*
X1912861D02*
D03*
Y240471D02*
D03*
Y145471D02*
D03*
D26*
X1891348Y524222D02*
D03*
Y694222D02*
D03*
X1671348Y524222D02*
D03*
Y694222D02*
D03*
D27*
X1264196Y1108287D02*
D03*
X1214196D02*
D03*
X1164196D02*
D03*
X1114196D02*
D03*
X1064196D02*
D03*
X1014196D02*
D03*
X964196D02*
D03*
X914196D02*
D03*
Y623287D02*
D03*
X964196D02*
D03*
X1014196D02*
D03*
X1064196D02*
D03*
X1114196D02*
D03*
X1164196D02*
D03*
X1214196D02*
D03*
X1264196D02*
D03*
D28*
X846696Y1040787D02*
D03*
Y990787D02*
D03*
Y940787D02*
D03*
Y890787D02*
D03*
Y840787D02*
D03*
Y790787D02*
D03*
Y740787D02*
D03*
Y690787D02*
D03*
X1331696D02*
D03*
Y740787D02*
D03*
Y790787D02*
D03*
Y840787D02*
D03*
Y890787D02*
D03*
Y940787D02*
D03*
Y990787D02*
D03*
Y1040787D02*
D03*
D29*
X1089196Y865787D02*
D03*
D30*
X67329Y1347133D02*
X139012D01*
X150412Y194344D02*
Y436400D01*
X666544Y1436968D02*
Y1439989D01*
X627533Y1392957D02*
Y1397957D01*
X666544Y1436968D01*
X803428Y990894D02*
X846589D01*
X608088Y1168400D02*
X784449Y992040D01*
X846589Y990894D02*
X846696Y990787D01*
X784449Y992040D02*
X802282D01*
X803428Y990894D01*
X844783Y892700D02*
X846696Y890787D01*
X767867Y892700D02*
X844783D01*
X763051Y898623D02*
X763968Y899540D01*
X742297Y851721D02*
X753231Y840787D01*
X846696D01*
X763051Y897516D02*
X767867Y892700D01*
X763051Y897516D02*
Y898623D01*
X712801Y851721D02*
X742297D01*
X751845Y1110845D02*
Y1113791D01*
Y1110845D02*
X821902Y1040787D01*
X837732Y1120851D02*
X909577D01*
X652129Y340334D02*
X676322Y316141D01*
X695291D01*
X703901Y307530D01*
X652129Y340334D02*
Y393221D01*
X743142Y390334D02*
X790072Y343404D01*
X807432D02*
X816042Y334794D01*
X743142Y390334D02*
Y395334D01*
X790072Y343404D02*
X807432D01*
X405413Y651400D02*
X650095D01*
X669510Y631985D01*
X681687D01*
X735212Y706803D02*
X819196Y790787D01*
X735212Y595512D02*
Y706803D01*
X666247Y526547D02*
X735212Y595512D01*
X546993Y587715D02*
X606440D01*
X609836Y591111D01*
X631130Y925173D02*
X639350D01*
X712801Y851721D01*
X405412Y571400D02*
X500021D01*
X555250Y516172D01*
X566225D01*
X1064196Y1108287D02*
Y1160033D01*
X1026353Y1197876D02*
X1064196Y1160033D01*
X1114110Y1108373D02*
X1114196Y1108287D01*
X1114110Y1108373D02*
Y1187379D01*
X1114024Y1187465D02*
X1114110Y1187379D01*
X64464Y1344269D02*
X67329Y1347133D01*
X139012D02*
X141877Y1349997D01*
X95438Y1425243D02*
X176191D01*
X15956Y209166D02*
X16254Y209464D01*
X-4800Y773710D02*
X-2491Y771400D01*
X15412D01*
X-4800Y773710D02*
Y927100D01*
X-99792Y924108D02*
X-96800Y927100D01*
X-99792Y788389D02*
X-42803Y731400D01*
X-99792Y788389D02*
Y924108D01*
X230412Y368871D02*
Y436400D01*
X250704Y336403D02*
Y348580D01*
X230412Y368871D02*
X250704Y348580D01*
X271369Y389984D02*
X330534Y330819D01*
X311369Y399481D02*
X336951Y373900D01*
X271369Y389984D02*
Y435443D01*
X330534Y330819D02*
X397559D01*
X311369Y399481D02*
Y435443D01*
X336951Y373900D02*
X526300D01*
X310412Y436400D02*
X311369Y435443D01*
X420161Y436400D02*
X429862Y426699D01*
X350412Y436400D02*
X420161D01*
X652129Y393221D02*
X654242Y395334D01*
X397559Y330819D02*
X415645Y312733D01*
X54482Y98414D02*
X150412Y194344D01*
X-242273Y256448D02*
Y353980D01*
X-240086Y356167D01*
X-330486Y361567D02*
Y546142D01*
Y361567D02*
X-325086Y356167D01*
X-241519Y1083233D02*
X-240481Y1084272D01*
X-241519Y985106D02*
Y1083233D01*
X543466Y912536D02*
Y913929D01*
X543215Y912284D02*
X543466Y912536D01*
Y913929D02*
X552774D01*
X632081Y834622D01*
X270412Y436400D02*
X271369Y435443D01*
X526300Y373900D02*
X607734Y455334D01*
X634242D01*
X654242Y475334D01*
Y480334D01*
X666247Y492339D02*
Y526547D01*
X654242Y480334D02*
X666247Y492339D01*
X459200Y531400D02*
X520700Y469900D01*
X513372Y459871D02*
X520700Y467199D01*
X505917Y459871D02*
X513372D01*
X520700Y467199D02*
Y469900D01*
X523307Y611400D02*
X546993Y587715D01*
X819196Y790787D02*
X846696D01*
X743142Y485334D02*
X763142Y505334D01*
X765913D01*
X774700Y514121D01*
Y696291D02*
X819196Y740787D01*
X743142Y480334D02*
Y485334D01*
X774700Y514121D02*
Y696291D01*
X842665Y690787D02*
X846696D01*
X838045Y686168D02*
X842665Y690787D01*
X838045Y568505D02*
Y686168D01*
X819196Y740787D02*
X846696D01*
X405413Y531400D02*
X459200D01*
X405413Y611400D02*
X523307D01*
X909577Y1120851D02*
X914196Y1116231D01*
Y1108287D02*
Y1116231D01*
X821902Y1040787D02*
X846696D01*
X73514Y1168400D02*
X608088D01*
X270412Y826400D02*
Y920066D01*
X281100Y935099D02*
X323900Y977899D01*
X270412Y920066D02*
X281100Y930754D01*
Y935099D01*
X323900Y977899D02*
X327900D01*
X1181696Y390116D02*
X1203618Y412038D01*
X1164314Y377734D02*
X1176696Y390116D01*
X1203618Y412038D02*
Y417038D01*
X1176696Y390116D02*
X1181696D01*
X1164314Y337899D02*
Y377734D01*
X1162109Y335694D02*
X1164314Y337899D01*
X1055237Y166877D02*
X1142680Y254320D01*
X1371600Y407040D02*
Y673100D01*
X1218880Y254320D02*
X1371600Y407040D01*
X1142680Y254320D02*
X1218880D01*
X1182237Y166877D02*
X1406600Y391240D01*
Y693384D01*
X-42803Y731400D02*
X15412D01*
X-101731Y427590D02*
X-49418D01*
X-25898Y451110D02*
Y480113D01*
X-49418Y427590D02*
X-25898Y451110D01*
X-14611Y491400D02*
X15412D01*
X-25898Y480113D02*
X-14611Y491400D01*
X-101730Y519589D02*
X-89919Y531400D01*
X15412D01*
X-185282Y769386D02*
Y928869D01*
X-108253Y692357D02*
X14456D01*
X-185282Y769386D02*
X-108253Y692357D01*
X-241519Y985106D02*
X-185282Y928869D01*
X-188692Y569596D02*
X-107844Y650443D01*
X-235086Y356167D02*
X-188692Y402562D01*
Y569596D01*
X-107844Y650443D02*
X14456D01*
X15412Y651400D01*
X-240086Y356167D02*
X-235086D01*
X14456Y692357D02*
X15412Y691400D01*
X684658Y1208351D02*
X941633D01*
X652635Y1173351D02*
X927135D01*
X964196Y1136289D01*
X535438Y1290547D02*
X652635Y1173351D01*
X941633Y1208351D02*
X1014196Y1135787D01*
X631451Y1261558D02*
X684658Y1208351D01*
X22964Y1218950D02*
X73514Y1168400D01*
X171191Y1224914D02*
X255314D01*
X14465Y1244269D02*
X22964Y1235769D01*
Y1218950D02*
Y1235769D01*
X64464Y1394269D02*
X67464D01*
X75964Y1402769D01*
Y1405769D01*
X95438Y1425243D01*
X176191D02*
X188368D01*
X230769Y1294269D02*
X257300Y1320800D01*
X64464Y1294269D02*
X230769D01*
X257300Y1320800D02*
X262300D01*
X255314Y1224914D02*
X262300Y1231900D01*
X151836Y1244269D02*
X171191Y1224914D01*
X64464Y1244269D02*
X151836D01*
X188368Y1425243D02*
X203911Y1409700D01*
X262300D01*
X502196Y1413790D02*
X510438Y1405547D01*
X457200Y1422400D02*
X465810Y1413790D01*
X502196D01*
X535438Y1290547D02*
Y1295547D01*
X631451Y1261558D02*
Y1292327D01*
X515438Y1405547D02*
X535438Y1385547D01*
Y1380547D02*
Y1385547D01*
X510438Y1405547D02*
X515438D01*
X1511521Y869254D02*
X1533287Y847487D01*
X1701450Y776722D02*
X1798848D01*
X1533287Y847487D02*
X1630685D01*
X1701450Y776722D01*
X1798848D02*
X1832564Y743006D01*
X1932885Y336441D02*
X1999208Y270118D01*
Y146622D02*
Y270118D01*
X1912885Y336441D02*
X1932885D01*
X1562100Y629710D02*
Y750839D01*
X1515914Y797025D02*
X1562100Y750839D01*
Y629710D02*
X1608848Y582963D01*
Y576722D02*
X1661348Y524222D01*
X1671348D01*
X1608848Y576722D02*
Y582963D01*
X1832564Y743006D02*
X1881247D01*
X1508620Y869254D02*
X1511521D01*
X964196Y1108287D02*
Y1136289D01*
X1014196Y1108287D02*
Y1135787D01*
X1331696Y690787D02*
X1356490D01*
X1364196Y680504D02*
Y683081D01*
Y680504D02*
X1371600Y673100D01*
X1356490Y690787D02*
X1364196Y683081D01*
X1359196Y740787D02*
X1406600Y693384D01*
X1331696Y740787D02*
X1359196D01*
X1471201Y811753D02*
X1485929Y797025D01*
X1515914D01*
X1471201Y811753D02*
Y815754D01*
X1393816Y890787D02*
X1445349Y839253D01*
X1447701D02*
X1471201Y815754D01*
X1331696Y890787D02*
X1393816D01*
X1445349Y839253D02*
X1447701D01*
X1331696Y940787D02*
X1442907D01*
X1460124Y923569D01*
X1464125D01*
X1487624Y900070D01*
Y890249D02*
Y900070D01*
Y890249D02*
X1508620Y869254D01*
D31*
X715117Y994496D02*
X723371Y986241D01*
X723431D02*
X755132Y954540D01*
X786749D01*
X685418Y994496D02*
X715117D01*
X723371Y986241D02*
X723431D01*
X679761Y1000153D02*
X685418Y994496D01*
X786749Y954540D02*
X799545Y941744D01*
X845740D01*
X663951Y742622D02*
X720551Y799221D01*
X511299Y323387D02*
X517678Y317008D01*
X599695D01*
X601020Y318333D01*
X534563Y990709D02*
X640619D01*
X650062Y1000153D01*
X530240Y995031D02*
X534563Y990709D01*
X143033Y953040D02*
X190413Y905660D01*
X143033Y953040D02*
Y958060D01*
X190413Y826400D02*
Y905660D01*
X589586Y106113D02*
X740872D01*
X809972D02*
X814615Y101469D01*
X740872Y106113D02*
X809972D01*
X-330486Y981140D02*
X-326520Y985106D01*
X-330486Y800142D02*
Y981140D01*
X405413Y731400D02*
X458259D01*
X469481Y742622D02*
X530481D01*
X458259Y731400D02*
X469481Y742622D01*
X530482Y742622D02*
X632081D01*
X530481Y742622D02*
X530482Y742622D01*
X353650Y1416050D02*
X450850D01*
X347300Y1409700D02*
X353650Y1416050D01*
X450850D02*
X457200Y1422400D01*
X347300Y1320800D02*
X431800D01*
X437458Y1231900D02*
X438235Y1231123D01*
X347300Y1231900D02*
X437458D01*
X632081Y742622D02*
X663951D01*
X650062Y1000153D02*
X679761D01*
X845740Y941744D02*
X846696Y940787D01*
X228600Y952500D02*
X230412Y950688D01*
Y826400D02*
Y950688D01*
X-425690Y1188986D02*
X-417672D01*
X-359909Y1246749D01*
Y1250750D01*
X-58700Y1104900D02*
X-54700D01*
X-33700Y1054965D02*
Y1083900D01*
X-54700Y1104900D02*
X-33700Y1083900D01*
X-12802Y1023243D02*
Y1034067D01*
X-33700Y1054965D02*
X-12802Y1034067D01*
X-85536Y1244269D02*
X-82536D01*
X-76536Y1226554D02*
Y1238269D01*
X-76535Y1214414D02*
Y1226554D01*
X-58572Y1105028D02*
Y1196451D01*
X-82536Y1244269D02*
X-76536Y1238269D01*
Y1226554D02*
X-76535Y1226554D01*
Y1214414D02*
X-58572Y1196451D01*
X913363Y478264D02*
Y482265D01*
X892363Y457265D02*
X913363Y478264D01*
X843095Y421352D02*
X879008Y457265D01*
X892363D01*
X834093Y421352D02*
X843095D01*
X914196Y483098D02*
Y623287D01*
X964196Y540123D02*
Y623287D01*
X913363Y482265D02*
X914196Y483098D01*
X1019113Y481206D02*
X1090806D01*
X1092200Y482600D01*
X964196Y540123D02*
X1019113Y485206D01*
Y481206D02*
Y485206D01*
X-220300Y1278300D02*
X-163652D01*
X-241300Y1257300D02*
X-220300Y1278300D01*
X-163652D02*
X-147683Y1294269D01*
X-241300Y1253300D02*
Y1257300D01*
X-147683Y1294269D02*
X-85536D01*
X-243850Y1250750D02*
X-241300Y1253300D01*
X-359909Y1250750D02*
X-243850D01*
D32*
X2074930Y146622D02*
X2078899Y150591D01*
X2144491D02*
X2146300Y152400D01*
X2078899Y150591D02*
X2144491D01*
X1999208Y146622D02*
X2074930D01*
X1952639D02*
X1999208D01*
D33*
X-330486Y800142D02*
D03*
X-330486Y546142D02*
D03*
D34*
X1309237Y166877D02*
D03*
X1182237D02*
D03*
X1055237D02*
D03*
X928237D02*
D03*
D35*
X88900Y228600D02*
D03*
X666544Y1439989D02*
D03*
X254000Y1054100D02*
D03*
X431800Y850900D02*
D03*
X127000Y1092200D02*
D03*
X-419100Y1079500D02*
D03*
X838200Y215900D02*
D03*
X672975Y206320D02*
D03*
X393700Y177800D02*
D03*
X-152400Y76200D02*
D03*
X-342900Y165100D02*
D03*
X720551Y799221D02*
D03*
X763968Y899540D02*
D03*
X751845Y1113791D02*
D03*
X837732Y1120851D02*
D03*
X601020Y318333D02*
D03*
X703901Y307530D02*
D03*
X816042Y334794D02*
D03*
X681687Y631985D02*
D03*
X609836Y591111D02*
D03*
X631130Y925173D02*
D03*
X530240Y995031D02*
D03*
X566225Y516172D02*
D03*
X1026353Y1197876D02*
D03*
X1114024Y1187465D02*
D03*
X141877Y1349997D02*
D03*
X176191Y1425243D02*
D03*
X143033Y958060D02*
D03*
X-190500Y1435100D02*
D03*
X-308060Y1422235D02*
D03*
X332866Y74948D02*
D03*
X418027D02*
D03*
X-153247Y304828D02*
D03*
X-169057Y160387D02*
D03*
X250704Y336403D02*
D03*
X429862Y426699D02*
D03*
X814615Y101469D02*
D03*
X543215Y912284D02*
D03*
X431800Y1320800D02*
D03*
X438235Y1231123D02*
D03*
X419100Y1066800D02*
D03*
X505917Y459871D02*
D03*
X838045Y568505D02*
D03*
X228600Y952500D02*
D03*
X1162109Y335694D02*
D03*
X-425690Y1188986D02*
D03*
X-12802Y1023243D02*
D03*
X834093Y421352D02*
D03*
X1092200Y482600D02*
D03*
X712480Y1261344D02*
D03*
X180011Y1224914D02*
D03*
X457200Y1422400D02*
D03*
X1502847Y374445D02*
D03*
X2146300Y431800D02*
D03*
Y152400D02*
D03*
X1808832Y244309D02*
D03*
X1397000Y88900D02*
D03*
X1287147Y519700D02*
D03*
X1052930Y307865D02*
D03*
X941456Y310053D02*
D03*
X1612900Y787400D02*
D03*
X1735000Y830735D02*
D03*
X1799496Y405945D02*
D03*
X1473200Y622300D02*
D03*
X2026512Y566623D02*
D03*
X1447800Y304800D02*
D03*
X915433Y1423025D02*
D03*
X813833D02*
D03*
X1169433Y1435725D02*
D03*
X1417281Y1403761D02*
D03*
X1835000Y830779D02*
D03*
X1678221Y935056D02*
D03*
X1678177Y1035056D02*
D03*
X1678133Y1135056D02*
D03*
X1676401Y1224291D02*
D03*
X1678000Y1435056D02*
D03*
X1935000Y830823D02*
D03*
X2035000Y830868D02*
D03*
X2135000Y830912D02*
D03*
X2235000Y830956D02*
D03*
X2335000Y831000D02*
D03*
X2435000Y831044D02*
D03*
X1473200Y1193800D02*
D03*
D36*
X265412Y576400D02*
D03*
X155413Y576400D02*
D03*
X265412Y686400D02*
D03*
X155413Y686400D02*
D03*
X1199196Y975787D02*
D03*
Y865787D02*
D03*
Y755787D02*
D03*
X1089196Y975787D02*
D03*
Y865787D02*
D03*
Y755787D02*
D03*
X979196Y975787D02*
D03*
Y865787D02*
D03*
Y755787D02*
D03*
%TF.MD5,6b3f0d73ff35acbfc36a913afd412c82*%
M02*
