%TF.GenerationSoftware,Altium Limited,Altium Designer,24.5.2 (23)*%
G04 Layer_Physical_Order=3*
G04 Layer_Color=16440176*
%FSLAX45Y45*%
%MOMM*%
%TF.SameCoordinates,D9EDD973-4EFE-478D-9CC6-8A1B8994CF0D*%
%TF.FilePolarity,Positive*%
%TF.FileFunction,Copper,L3,Inr,Signal*%
%TF.Part,Single*%
G01*
G75*
%TA.AperFunction,ComponentPad*%
%ADD33C,1.77800*%
%ADD34C,0.80000*%
%TA.AperFunction,ViaPad*%
%ADD35C,0.60000*%
%ADD36C,0.50000*%
G36*
X250048Y1485972D02*
X259972Y1479341D01*
X278349Y1471729D01*
X290054Y1469401D01*
X300000D01*
X778609D01*
X783869Y1456701D01*
X775684Y1448515D01*
X768833Y1431976D01*
Y1414074D01*
X775684Y1397534D01*
X788342Y1384876D01*
X804882Y1378025D01*
X822784D01*
X839323Y1384876D01*
X851982Y1397534D01*
X858283Y1412746D01*
X864633Y1413440D01*
X870983Y1412746D01*
X877284Y1397534D01*
X889942Y1384876D01*
X906482Y1378025D01*
X924384D01*
X940923Y1384876D01*
X953582Y1397534D01*
X960433Y1414074D01*
Y1431976D01*
X953582Y1448515D01*
X945396Y1456701D01*
X950657Y1469401D01*
X1122876Y1469401D01*
X1129414Y1456701D01*
X1124433Y1444676D01*
Y1426774D01*
X1131284Y1410234D01*
X1143942Y1397576D01*
X1160482Y1390725D01*
X1178384D01*
X1194923Y1397576D01*
X1207582Y1410234D01*
X1214433Y1426774D01*
Y1444676D01*
X1209452Y1456701D01*
X1215989Y1469401D01*
X1632112D01*
X1638258Y1456701D01*
X1633000Y1444007D01*
Y1426105D01*
X1639851Y1409565D01*
X1652510Y1396907D01*
X1669049Y1390056D01*
X1686951D01*
X1701800Y1396207D01*
X1714500Y1391323D01*
Y1266425D01*
X1702767Y1261565D01*
X1701891Y1262440D01*
X1685352Y1269291D01*
X1667450D01*
X1650910Y1262440D01*
X1638252Y1249782D01*
X1631401Y1233242D01*
Y1215340D01*
X1638252Y1198801D01*
X1650910Y1186142D01*
X1652063Y1185665D01*
X1651563Y1172125D01*
X1639984Y1160546D01*
X1633133Y1144007D01*
Y1126105D01*
X1639984Y1109565D01*
X1652642Y1096907D01*
X1664997Y1091789D01*
X1665042Y1078322D01*
X1652686Y1073205D01*
X1640028Y1060546D01*
X1633177Y1044007D01*
Y1026105D01*
X1640028Y1009565D01*
X1652686Y996907D01*
X1665042Y991789D01*
X1665086Y978322D01*
X1652731Y973205D01*
X1640072Y960546D01*
X1633221Y944006D01*
Y926105D01*
X1640072Y909565D01*
X1652731Y896907D01*
X1669270Y890056D01*
X1687172D01*
X1701800Y896115D01*
X1714500Y891102D01*
Y870951D01*
X1709509Y868884D01*
X1696851Y856225D01*
X1690000Y839686D01*
Y821784D01*
X1696851Y805245D01*
X1709509Y792586D01*
X1726049Y785735D01*
X1743951D01*
X1760490Y792586D01*
X1773149Y805245D01*
X1778266Y817600D01*
X1791733Y817644D01*
X1796851Y805289D01*
X1809509Y792630D01*
X1826049Y785779D01*
X1843951D01*
X1860490Y792630D01*
X1873149Y805289D01*
X1878266Y817644D01*
X1891733Y817688D01*
X1896851Y805333D01*
X1909509Y792674D01*
X1926049Y785823D01*
X1943951D01*
X1960490Y792674D01*
X1973149Y805333D01*
X1978267Y817688D01*
X1991733Y817732D01*
X1996851Y805377D01*
X2009509Y792719D01*
X2026049Y785868D01*
X2043951D01*
X2060490Y792719D01*
X2073149Y805377D01*
X2078267Y817732D01*
X2091733Y817777D01*
X2096851Y805421D01*
X2109509Y792763D01*
X2126049Y785912D01*
X2143951D01*
X2160490Y792763D01*
X2173149Y805421D01*
X2178267Y817777D01*
X2191733Y817821D01*
X2196851Y805465D01*
X2209509Y792807D01*
X2226049Y785956D01*
X2243951D01*
X2260490Y792807D01*
X2273149Y805465D01*
X2278267Y817821D01*
X2291733Y817865D01*
X2296851Y805510D01*
X2309509Y792851D01*
X2326049Y786000D01*
X2343951D01*
X2360490Y792851D01*
X2373149Y805510D01*
X2378267Y817865D01*
X2391733Y817909D01*
X2396851Y805554D01*
X2409510Y792895D01*
X2426049Y786044D01*
X2443951D01*
X2456713Y791331D01*
X2469413Y785225D01*
X2469414Y498836D01*
X1993900D01*
X1982419Y494081D01*
X1977664Y482600D01*
Y266236D01*
X1853832D01*
X1849245Y264336D01*
X1846981Y269800D01*
X1834323Y282458D01*
X1817783Y289309D01*
X1799881D01*
X1783342Y282458D01*
X1770683Y269800D01*
X1768420Y264336D01*
X1763832Y266236D01*
X1092901D01*
X1087641Y278936D01*
X1091079Y282374D01*
X1097930Y298914D01*
Y316816D01*
X1091079Y333355D01*
X1078420Y346014D01*
X1061881Y352865D01*
X1043979D01*
X1027440Y346014D01*
X1014781Y333355D01*
X1007930Y316816D01*
Y298914D01*
X1014781Y282374D01*
X1018219Y278936D01*
X1012959Y266236D01*
X979239D01*
X973978Y278936D01*
X979605Y284563D01*
X986456Y301102D01*
Y319004D01*
X979605Y335544D01*
X966947Y348202D01*
X950407Y355053D01*
X932505D01*
X915966Y348202D01*
X903307Y335544D01*
X896456Y319004D01*
Y301102D01*
X903307Y284563D01*
X908934Y278936D01*
X903674Y266236D01*
X884333D01*
X881836Y265202D01*
X879140Y265383D01*
X876317Y262915D01*
X872852Y261481D01*
X860085Y255543D01*
X847151Y260900D01*
X829249D01*
X812710Y254049D01*
X800051Y241390D01*
X793200Y224851D01*
Y206949D01*
X800051Y190410D01*
X812710Y177751D01*
X829249Y170900D01*
X847151D01*
X860537Y176445D01*
X870053Y172144D01*
X873238Y169337D01*
Y163386D01*
X873172Y155897D01*
X862265Y149240D01*
X860432Y148875D01*
X856495Y146244D01*
X852119Y144432D01*
X851483Y142896D01*
X850100Y141972D01*
X849176Y137326D01*
X847364Y132951D01*
Y30600D01*
X565454D01*
X559229Y43300D01*
X562336Y50800D01*
Y241300D01*
X557581Y252781D01*
X440395Y369966D01*
X444335Y383987D01*
X455353Y388550D01*
X468011Y401209D01*
X472592Y412267D01*
X477296Y417943D01*
X487562Y418766D01*
X496966Y414871D01*
X514868D01*
X531408Y421722D01*
X544066Y434381D01*
X550917Y450920D01*
Y460058D01*
X556579Y469956D01*
X562651Y471172D01*
X575176D01*
X591716Y478023D01*
X604374Y490681D01*
X611225Y507221D01*
Y525123D01*
X607792Y533411D01*
X616278Y546111D01*
X618787D01*
X635326Y552962D01*
X647985Y565620D01*
X654673Y581767D01*
X654836Y582160D01*
X667536Y589139D01*
X672736Y586985D01*
X690638D01*
X707177Y593836D01*
X719836Y606495D01*
X726687Y623034D01*
Y640936D01*
X719836Y657475D01*
X707177Y670134D01*
X690638Y676985D01*
X672736D01*
X656197Y670134D01*
X643538Y657475D01*
X636850Y641329D01*
X636687Y640936D01*
X623987Y633957D01*
X618787Y636111D01*
X600885D01*
X584346Y629260D01*
X571687Y616601D01*
X564836Y600062D01*
Y582160D01*
X568269Y573872D01*
X559783Y561172D01*
X557274D01*
X540735Y554321D01*
X528076Y541662D01*
X521225Y525123D01*
Y515984D01*
X515564Y506087D01*
X509492Y504871D01*
X496966D01*
X480427Y498020D01*
X467768Y485361D01*
X463188Y474303D01*
X458484Y468627D01*
X448218Y467804D01*
X438813Y471699D01*
X420911D01*
X404372Y464848D01*
X391713Y452190D01*
X387150Y441172D01*
X373129Y437232D01*
X328981Y481381D01*
X317500Y486136D01*
X-63500D01*
X-74981Y481381D01*
X-221975Y334385D01*
X-226731Y322905D01*
Y200549D01*
X-225495Y197566D01*
Y194336D01*
X-223211Y192052D01*
X-221975Y189068D01*
X-219501Y188044D01*
X-218555Y187396D01*
X-216708Y185549D01*
X-214553Y184656D01*
X-209223Y181008D01*
X-214057Y169337D01*
Y151436D01*
X-207206Y134896D01*
X-194548Y122238D01*
X-189891Y120309D01*
X-186911Y105328D01*
X-190549Y101690D01*
X-197400Y85151D01*
Y67249D01*
X-190549Y50710D01*
X-183126Y43287D01*
X-188386Y30586D01*
X-250000D01*
X-271611Y30587D01*
X-314000Y39018D01*
X-353932Y55559D01*
X-389868Y79571D01*
X-420430Y110132D01*
X-444442Y146069D01*
X-460982Y186000D01*
X-469413Y228389D01*
Y250000D01*
X-469414Y1050190D01*
X-459480Y1053309D01*
X-456713Y1053474D01*
X-444590Y1041351D01*
X-428051Y1034500D01*
X-410149D01*
X-393610Y1041351D01*
X-380951Y1054010D01*
X-374100Y1070549D01*
Y1088451D01*
X-380951Y1104990D01*
X-393610Y1117649D01*
X-410149Y1124500D01*
X-428051D01*
X-444590Y1117649D01*
X-456713Y1105526D01*
X-459480Y1105691D01*
X-469414Y1108810D01*
Y1250000D01*
X-469413Y1271610D01*
X-460982Y1314000D01*
X-444441Y1353932D01*
X-420429Y1389868D01*
X-389868Y1420429D01*
X-364141Y1437619D01*
X-357327Y1433663D01*
X-353059Y1429749D01*
Y1413284D01*
X-346209Y1396744D01*
X-333550Y1384086D01*
X-317011Y1377235D01*
X-299109D01*
X-282569Y1384086D01*
X-269911Y1396744D01*
X-263060Y1413284D01*
Y1431186D01*
X-269911Y1447725D01*
X-277482Y1455297D01*
X-273301Y1469077D01*
X-271610Y1469413D01*
X-236420D01*
X-230255Y1456713D01*
X-235500Y1444051D01*
Y1426149D01*
X-228649Y1409610D01*
X-215990Y1396951D01*
X-199451Y1390100D01*
X-181549D01*
X-165010Y1396951D01*
X-152351Y1409610D01*
X-145500Y1426149D01*
Y1444051D01*
X-150745Y1456713D01*
X-144581Y1469414D01*
X49999Y1469414D01*
X61704Y1471742D01*
X71628Y1478373D01*
X78258Y1488296D01*
X80586Y1499999D01*
X189703D01*
X236021D01*
X250048Y1485972D01*
D02*
G37*
G36*
X2469414Y250001D02*
X2469413Y228390D01*
X2460981Y186000D01*
X2444441Y146068D01*
X2420429Y110132D01*
X2389867Y79570D01*
X2353931Y55558D01*
X2314001Y39019D01*
X2271610Y30587D01*
X2250000Y30587D01*
X1950001Y30587D01*
X1938296Y28258D01*
X1928373Y21628D01*
X1921742Y11704D01*
X1919414Y0D01*
X1763970D01*
X1749962Y14015D01*
X1740040Y20648D01*
X1721660Y28266D01*
X1709955Y30597D01*
X1700008Y30599D01*
X1700005Y30599D01*
X1700001Y30600D01*
X863600D01*
Y132951D01*
X876300Y135478D01*
X877372Y132890D01*
X894250Y116012D01*
X913238Y108147D01*
Y166878D01*
Y225608D01*
X895900Y218426D01*
X888833Y221130D01*
X883200Y224653D01*
Y224851D01*
X878043Y237300D01*
X884333Y250000D01*
X1763832D01*
Y235358D01*
X1770683Y218819D01*
X1783342Y206160D01*
X1799881Y199309D01*
X1817783D01*
X1834323Y206160D01*
X1846981Y218819D01*
X1853832Y235358D01*
Y250000D01*
X1993900D01*
Y482600D01*
X2469414D01*
Y250001D01*
D02*
G37*
G36*
X546100Y241300D02*
Y50800D01*
X-102784D01*
X-109840Y61360D01*
X-107400Y67249D01*
Y85151D01*
X-114251Y101690D01*
X-126910Y114349D01*
X-131566Y116278D01*
X-134546Y131259D01*
X-130908Y134896D01*
X-124057Y151436D01*
Y169337D01*
X-130908Y185877D01*
X-143567Y198536D01*
X-160106Y205386D01*
X-178008D01*
X-194548Y198536D01*
X-197795Y195288D01*
X-210495Y200549D01*
Y322905D01*
X-63500Y469900D01*
X317500D01*
X546100Y241300D01*
D02*
G37*
%LPC*%
G36*
X1426232Y1448761D02*
X1408330D01*
X1391790Y1441910D01*
X1379132Y1429251D01*
X1372281Y1412712D01*
Y1394810D01*
X1379132Y1378271D01*
X1391790Y1365612D01*
X1408330Y1358761D01*
X1426232D01*
X1442771Y1365612D01*
X1455430Y1378271D01*
X1462281Y1394810D01*
Y1412712D01*
X1455430Y1429251D01*
X1442771Y1441910D01*
X1426232Y1448761D01*
D02*
G37*
G36*
X185142Y1470243D02*
X167240D01*
X150701Y1463392D01*
X138042Y1450733D01*
X131192Y1434194D01*
Y1416292D01*
X134752Y1407697D01*
X133129Y1396410D01*
X128134Y1393012D01*
X116386Y1388146D01*
X103728Y1375488D01*
X96877Y1358948D01*
Y1341046D01*
X103728Y1324507D01*
X116386Y1311848D01*
X132926Y1304997D01*
X150827D01*
X167367Y1311848D01*
X180026Y1324507D01*
X186876Y1341046D01*
Y1358948D01*
X183316Y1367543D01*
X184939Y1378830D01*
X189934Y1382228D01*
X201682Y1387094D01*
X214340Y1399752D01*
X221191Y1416292D01*
Y1434194D01*
X214340Y1450733D01*
X201682Y1463392D01*
X185142Y1470243D01*
D02*
G37*
G36*
X188962Y1269914D02*
X171060D01*
X154521Y1263063D01*
X141862Y1250404D01*
X135011Y1233865D01*
Y1215963D01*
X141862Y1199424D01*
X154521Y1186765D01*
X171060Y1179914D01*
X188962D01*
X205501Y1186765D01*
X218160Y1199424D01*
X225011Y1215963D01*
Y1233865D01*
X218160Y1250404D01*
X205501Y1263063D01*
X188962Y1269914D01*
D02*
G37*
G36*
X846683Y1165851D02*
X828781D01*
X812241Y1159000D01*
X799583Y1146341D01*
X784986Y1144289D01*
X777335Y1151940D01*
X760796Y1158790D01*
X742894D01*
X726354Y1151940D01*
X713696Y1139281D01*
X706845Y1122741D01*
Y1104840D01*
X713696Y1088300D01*
X726354Y1075641D01*
X742894Y1068791D01*
X760796D01*
X777335Y1075641D01*
X789994Y1088300D01*
X804590Y1090353D01*
X812241Y1082702D01*
X828781Y1075851D01*
X846683D01*
X863222Y1082702D01*
X875881Y1095360D01*
X882732Y1111900D01*
Y1129802D01*
X875881Y1146341D01*
X863222Y1159000D01*
X846683Y1165851D01*
D02*
G37*
G36*
X1035304Y1242876D02*
X1017402D01*
X1000863Y1236025D01*
X988204Y1223367D01*
X981353Y1206827D01*
Y1188925D01*
X988204Y1172386D01*
X1000863Y1159727D01*
X1017402Y1152877D01*
X1035304D01*
X1051843Y1159727D01*
X1059775Y1167659D01*
X1074383Y1165579D01*
X1075875Y1161975D01*
X1088534Y1149316D01*
X1105073Y1142465D01*
X1122975D01*
X1139515Y1149316D01*
X1152173Y1161975D01*
X1159024Y1178514D01*
Y1196416D01*
X1152173Y1212956D01*
X1139515Y1225614D01*
X1122975Y1232465D01*
X1105073D01*
X1088534Y1225614D01*
X1080603Y1217683D01*
X1065995Y1219763D01*
X1064502Y1223367D01*
X1051843Y1236025D01*
X1035304Y1242876D01*
D02*
G37*
G36*
X135951Y1137200D02*
X118049D01*
X101510Y1130349D01*
X88851Y1117690D01*
X82000Y1101151D01*
Y1083249D01*
X88851Y1066710D01*
X101510Y1054051D01*
X118049Y1047200D01*
X135951D01*
X152490Y1054051D01*
X165149Y1066710D01*
X172000Y1083249D01*
Y1101151D01*
X165149Y1117690D01*
X152490Y1130349D01*
X135951Y1137200D01*
D02*
G37*
G36*
X428051Y1111800D02*
X410149D01*
X393610Y1104949D01*
X380951Y1092290D01*
X374100Y1075751D01*
Y1057849D01*
X380951Y1041310D01*
X393610Y1028651D01*
X410149Y1021800D01*
X428051D01*
X444590Y1028651D01*
X457249Y1041310D01*
X464100Y1057849D01*
Y1075751D01*
X457249Y1092290D01*
X444590Y1104949D01*
X428051Y1111800D01*
D02*
G37*
G36*
X262951Y1099100D02*
X245049D01*
X228510Y1092249D01*
X215851Y1079590D01*
X209000Y1063051D01*
Y1045149D01*
X215851Y1028610D01*
X228510Y1015951D01*
X245049Y1009100D01*
X262951D01*
X279490Y1015951D01*
X292149Y1028610D01*
X299000Y1045149D01*
Y1063051D01*
X292149Y1079590D01*
X279490Y1092249D01*
X262951Y1099100D01*
D02*
G37*
G36*
X640081Y970173D02*
X622179D01*
X605640Y963322D01*
X592981Y950663D01*
X590853Y945526D01*
X576083Y943055D01*
X568705Y950433D01*
X552166Y957284D01*
X534264D01*
X517724Y950433D01*
X505066Y937775D01*
X498215Y921235D01*
Y903333D01*
X505066Y886794D01*
X517724Y874135D01*
X534264Y867285D01*
X552166D01*
X568705Y874135D01*
X581364Y886794D01*
X583492Y891931D01*
X598262Y894402D01*
X605640Y887024D01*
X622179Y880173D01*
X640081D01*
X656621Y887024D01*
X669279Y899682D01*
X676130Y916222D01*
Y934124D01*
X669279Y950663D01*
X656621Y963322D01*
X640081Y970173D01*
D02*
G37*
G36*
X1207153Y1015787D02*
X1191240D01*
X1176538Y1009697D01*
X1165286Y998445D01*
X1159196Y983744D01*
Y967830D01*
X1165286Y953129D01*
X1176538Y941877D01*
X1191240Y935787D01*
X1207153D01*
X1221854Y941877D01*
X1233106Y953129D01*
X1239196Y967830D01*
Y983744D01*
X1233106Y998445D01*
X1221854Y1009697D01*
X1207153Y1015787D01*
D02*
G37*
G36*
X1097153D02*
X1081240D01*
X1066538Y1009697D01*
X1055286Y998445D01*
X1049197Y983744D01*
Y967830D01*
X1055286Y953129D01*
X1066538Y941877D01*
X1081240Y935787D01*
X1097153D01*
X1111855Y941877D01*
X1123107Y953129D01*
X1129196Y967830D01*
Y983744D01*
X1123107Y998445D01*
X1111855Y1009697D01*
X1097153Y1015787D01*
D02*
G37*
G36*
X987153D02*
X971240D01*
X956538Y1009697D01*
X945286Y998445D01*
X939196Y983744D01*
Y967830D01*
X945286Y953129D01*
X956538Y941877D01*
X971240Y935787D01*
X987153D01*
X1001854Y941877D01*
X1013107Y953129D01*
X1019196Y967830D01*
Y983744D01*
X1013107Y998445D01*
X1001854Y1009697D01*
X987153Y1015787D01*
D02*
G37*
G36*
X772919Y944540D02*
X755017D01*
X738477Y937689D01*
X725819Y925030D01*
X718968Y908491D01*
Y890589D01*
X725819Y874049D01*
X738477Y861391D01*
X755017Y854540D01*
X772919D01*
X789458Y861391D01*
X802117Y874049D01*
X808968Y890589D01*
Y908491D01*
X802117Y925030D01*
X789458Y937689D01*
X772919Y944540D01*
D02*
G37*
G36*
X1207153Y905787D02*
X1191240D01*
X1176538Y899697D01*
X1165286Y888445D01*
X1159196Y873744D01*
Y857831D01*
X1165286Y843129D01*
X1176538Y831877D01*
X1191240Y825787D01*
X1207153D01*
X1221854Y831877D01*
X1233106Y843129D01*
X1239196Y857831D01*
Y873744D01*
X1233106Y888445D01*
X1221854Y899697D01*
X1207153Y905787D01*
D02*
G37*
G36*
X1097153D02*
X1081240D01*
X1066538Y899697D01*
X1055286Y888445D01*
X1049197Y873744D01*
Y857831D01*
X1055286Y843129D01*
X1066538Y831877D01*
X1081240Y825787D01*
X1097153D01*
X1111855Y831877D01*
X1123107Y843129D01*
X1129196Y857831D01*
Y873744D01*
X1123107Y888445D01*
X1111855Y899697D01*
X1097153Y905787D01*
D02*
G37*
G36*
X987153D02*
X971240D01*
X956538Y899697D01*
X945286Y888445D01*
X939196Y873744D01*
Y857831D01*
X945286Y843129D01*
X956538Y831877D01*
X971240Y825787D01*
X987153D01*
X1001854Y831877D01*
X1013107Y843129D01*
X1019196Y857831D01*
Y873744D01*
X1013107Y888445D01*
X1001854Y899697D01*
X987153Y905787D01*
D02*
G37*
G36*
X440751Y895900D02*
X422849D01*
X406310Y889049D01*
X393651Y876390D01*
X386800Y859851D01*
Y841949D01*
X393651Y825410D01*
X406310Y812751D01*
X422849Y805900D01*
X440751D01*
X457290Y812751D01*
X469949Y825410D01*
X476800Y841949D01*
Y859851D01*
X469949Y876390D01*
X457290Y889049D01*
X440751Y895900D01*
D02*
G37*
G36*
X1621851Y832400D02*
X1603949D01*
X1587410Y825549D01*
X1574751Y812890D01*
X1567900Y796351D01*
Y778449D01*
X1574751Y761910D01*
X1587410Y749251D01*
X1603949Y742400D01*
X1621851D01*
X1638390Y749251D01*
X1651049Y761910D01*
X1657900Y778449D01*
Y796351D01*
X1651049Y812890D01*
X1638390Y825549D01*
X1621851Y832400D01*
D02*
G37*
G36*
X1207153Y795787D02*
X1191240D01*
X1176538Y789697D01*
X1165286Y778445D01*
X1159196Y763744D01*
Y747831D01*
X1165286Y733129D01*
X1176538Y721877D01*
X1191240Y715787D01*
X1207153D01*
X1221854Y721877D01*
X1233106Y733129D01*
X1239196Y747831D01*
Y763744D01*
X1233106Y778445D01*
X1221854Y789697D01*
X1207153Y795787D01*
D02*
G37*
G36*
X1097153D02*
X1081240D01*
X1066538Y789697D01*
X1055286Y778445D01*
X1049197Y763744D01*
Y747831D01*
X1055286Y733129D01*
X1066538Y721877D01*
X1081240Y715787D01*
X1097153D01*
X1111855Y721877D01*
X1123107Y733129D01*
X1129196Y747831D01*
Y763744D01*
X1123107Y778445D01*
X1111855Y789697D01*
X1097153Y795787D01*
D02*
G37*
G36*
X987153D02*
X971240D01*
X956538Y789697D01*
X945286Y778445D01*
X939196Y763744D01*
Y747831D01*
X945286Y733129D01*
X956538Y721877D01*
X971240Y715787D01*
X987153D01*
X1001854Y721877D01*
X1013107Y733129D01*
X1019196Y747831D01*
Y763744D01*
X1013107Y778445D01*
X1001854Y789697D01*
X987153Y795787D01*
D02*
G37*
G36*
X-316807Y904042D02*
X-344165D01*
X-370590Y896962D01*
X-394282Y883283D01*
X-413627Y863938D01*
X-427305Y840246D01*
X-434386Y813821D01*
Y786464D01*
X-427305Y760038D01*
X-413627Y736346D01*
X-394282Y717001D01*
X-370590Y703323D01*
X-344165Y696242D01*
X-316807D01*
X-290382Y703323D01*
X-266690Y717001D01*
X-247345Y736346D01*
X-233667Y760038D01*
X-226586Y786464D01*
Y813821D01*
X-233667Y840246D01*
X-247345Y863938D01*
X-266690Y883283D01*
X-290382Y896962D01*
X-316807Y904042D01*
D02*
G37*
G36*
X273369Y726400D02*
X257456D01*
X242754Y720310D01*
X231502Y709058D01*
X225412Y694356D01*
Y678443D01*
X231502Y663742D01*
X242754Y652490D01*
X257456Y646400D01*
X273369D01*
X288070Y652490D01*
X299322Y663742D01*
X305412Y678443D01*
Y694356D01*
X299322Y709058D01*
X288070Y720310D01*
X273369Y726400D01*
D02*
G37*
G36*
X163369Y726400D02*
X147456D01*
X132755Y720310D01*
X121502Y709058D01*
X115413Y694356D01*
Y678443D01*
X121502Y663742D01*
X132755Y652489D01*
X147456Y646400D01*
X163369D01*
X178071Y652489D01*
X189323Y663742D01*
X195413Y678443D01*
Y694356D01*
X189323Y709058D01*
X178071Y720310D01*
X163369Y726400D01*
D02*
G37*
G36*
X1482151Y667300D02*
X1464249D01*
X1447710Y660449D01*
X1435051Y647790D01*
X1428200Y631251D01*
Y613349D01*
X1435051Y596810D01*
X1447710Y584151D01*
X1464249Y577300D01*
X1482151D01*
X1498690Y584151D01*
X1511349Y596810D01*
X1518200Y613349D01*
Y631251D01*
X1511349Y647790D01*
X1498690Y660449D01*
X1482151Y667300D01*
D02*
G37*
G36*
X163369Y616400D02*
X147456D01*
X132755Y610311D01*
X121502Y599058D01*
X115413Y584357D01*
Y568444D01*
X121502Y553742D01*
X132755Y542490D01*
X147456Y536401D01*
X163369D01*
X178071Y542490D01*
X189323Y553742D01*
X195413Y568444D01*
Y584357D01*
X189323Y599058D01*
X178071Y610311D01*
X163369Y616400D01*
D02*
G37*
G36*
X273369Y616400D02*
X257456D01*
X242754Y610310D01*
X231502Y599058D01*
X225412Y584357D01*
Y568444D01*
X231502Y553742D01*
X242754Y542490D01*
X257456Y536400D01*
X273369D01*
X288070Y542490D01*
X299322Y553742D01*
X305412Y568444D01*
Y584357D01*
X299322Y599058D01*
X288070Y610310D01*
X273369Y616400D01*
D02*
G37*
G36*
X846996Y613505D02*
X829094D01*
X812555Y606654D01*
X799896Y593996D01*
X793045Y577456D01*
Y559554D01*
X799896Y543015D01*
X812555Y530356D01*
X829094Y523505D01*
X846996D01*
X863536Y530356D01*
X876194Y543015D01*
X883045Y559554D01*
Y577456D01*
X876194Y593996D01*
X863536Y606654D01*
X846996Y613505D01*
D02*
G37*
G36*
X2035463Y611623D02*
X2017561D01*
X2001022Y604772D01*
X1988363Y592113D01*
X1981512Y575574D01*
Y557672D01*
X1988363Y541132D01*
X2001022Y528474D01*
X2017561Y521623D01*
X2035463D01*
X2052003Y528474D01*
X2064661Y541132D01*
X2071512Y557672D01*
Y575574D01*
X2064661Y592113D01*
X2052003Y604772D01*
X2035463Y611623D01*
D02*
G37*
G36*
X1296098Y564700D02*
X1278196D01*
X1261657Y557849D01*
X1248998Y545190D01*
X1242147Y528651D01*
Y510749D01*
X1248998Y494209D01*
X1261657Y481551D01*
X1278196Y474700D01*
X1296098D01*
X1312638Y481551D01*
X1325296Y494209D01*
X1332147Y510749D01*
Y528651D01*
X1325296Y545190D01*
X1312638Y557849D01*
X1296098Y564700D01*
D02*
G37*
G36*
X-316807Y650042D02*
X-344164D01*
X-370590Y642962D01*
X-394282Y629283D01*
X-413627Y609939D01*
X-427305Y586246D01*
X-434386Y559821D01*
Y532464D01*
X-427305Y506039D01*
X-413627Y482346D01*
X-394282Y463002D01*
X-370590Y449323D01*
X-344164Y442242D01*
X-316807D01*
X-290382Y449323D01*
X-266690Y463002D01*
X-247345Y482346D01*
X-233666Y506039D01*
X-226586Y532464D01*
Y559821D01*
X-233666Y586246D01*
X-247345Y609939D01*
X-266690Y629283D01*
X-290382Y642962D01*
X-316807Y650042D01*
D02*
G37*
G36*
X1808447Y450945D02*
X1790545D01*
X1774006Y444094D01*
X1761347Y431435D01*
X1754496Y414896D01*
Y396994D01*
X1761347Y380454D01*
X1774006Y367796D01*
X1790545Y360945D01*
X1808447D01*
X1824987Y367796D01*
X1837645Y380454D01*
X1844496Y396994D01*
Y414896D01*
X1837645Y431435D01*
X1824987Y444094D01*
X1808447Y450945D01*
D02*
G37*
G36*
X1171060Y380693D02*
X1153158D01*
X1136618Y373843D01*
X1123960Y361184D01*
X1117109Y344644D01*
Y326743D01*
X1123960Y310203D01*
X1136618Y297544D01*
X1153158Y290694D01*
X1171060D01*
X1187599Y297544D01*
X1200258Y310203D01*
X1207109Y326743D01*
Y344644D01*
X1200258Y361184D01*
X1187599Y373843D01*
X1171060Y380693D01*
D02*
G37*
G36*
X681926Y251320D02*
X664024D01*
X647485Y244469D01*
X634826Y231810D01*
X627975Y215271D01*
Y197369D01*
X634826Y180829D01*
X647485Y168171D01*
X664024Y161320D01*
X681926D01*
X698466Y168171D01*
X711124Y180829D01*
X717975Y197369D01*
Y215271D01*
X711124Y231810D01*
X698466Y244469D01*
X681926Y251320D01*
D02*
G37*
G36*
X-333949Y210100D02*
X-351851D01*
X-368390Y203249D01*
X-381049Y190590D01*
X-387900Y174051D01*
Y156149D01*
X-381049Y139610D01*
X-368390Y126951D01*
X-351851Y120100D01*
X-333949D01*
X-317410Y126951D01*
X-304751Y139610D01*
X-297900Y156149D01*
Y174051D01*
X-304751Y190590D01*
X-317410Y203249D01*
X-333949Y210100D01*
D02*
G37*
G36*
X1320177Y221877D02*
X1298297D01*
X1278083Y213504D01*
X1262611Y198032D01*
X1254238Y177817D01*
Y155937D01*
X1262611Y135722D01*
X1278083Y120251D01*
X1298297Y111877D01*
X1320177D01*
X1340392Y120251D01*
X1355864Y135722D01*
X1364237Y155937D01*
Y177817D01*
X1355864Y198032D01*
X1340392Y213504D01*
X1320177Y221877D01*
D02*
G37*
G36*
X1193177D02*
X1171297D01*
X1151083Y213504D01*
X1135611Y198032D01*
X1127238Y177817D01*
Y155937D01*
X1135611Y135722D01*
X1151083Y120251D01*
X1171297Y111877D01*
X1193177D01*
X1213392Y120251D01*
X1228864Y135722D01*
X1237237Y155937D01*
Y177817D01*
X1228864Y198032D01*
X1213392Y213504D01*
X1193177Y221877D01*
D02*
G37*
G36*
X943238Y225607D02*
Y166878D01*
Y108147D01*
X962225Y116012D01*
X979103Y132890D01*
X988237Y154942D01*
X1000238Y155937D01*
X1008611Y135722D01*
X1024083Y120251D01*
X1044297Y111877D01*
X1066177D01*
X1086392Y120251D01*
X1101864Y135722D01*
X1110237Y155937D01*
Y177817D01*
X1101864Y198032D01*
X1086392Y213504D01*
X1066177Y221877D01*
X1044297D01*
X1024083Y213504D01*
X1008611Y198032D01*
X1000238Y177818D01*
X988237Y178812D01*
X979103Y200864D01*
X962225Y217743D01*
X943238Y225607D01*
D02*
G37*
G36*
X1405951Y133900D02*
X1388049D01*
X1371510Y127049D01*
X1358851Y114390D01*
X1352000Y97851D01*
Y79949D01*
X1358851Y63410D01*
X1371510Y50751D01*
X1388049Y43900D01*
X1405951D01*
X1422490Y50751D01*
X1435149Y63410D01*
X1442000Y79949D01*
Y97851D01*
X1435149Y114390D01*
X1422490Y127049D01*
X1405951Y133900D01*
D02*
G37*
G36*
X259655Y381403D02*
X241753D01*
X225213Y374552D01*
X212555Y361893D01*
X205704Y345354D01*
Y327452D01*
X212555Y310913D01*
X225213Y298254D01*
X241753Y291403D01*
X259655D01*
X276194Y298254D01*
X288853Y310913D01*
X295703Y327452D01*
Y345354D01*
X288853Y361893D01*
X276194Y374552D01*
X259655Y381403D01*
D02*
G37*
G36*
X97851Y273600D02*
X79949D01*
X63410Y266749D01*
X50751Y254090D01*
X43900Y237551D01*
Y219649D01*
X50751Y203110D01*
X63410Y190451D01*
X79949Y183600D01*
X97851D01*
X114390Y190451D01*
X127049Y203110D01*
X133900Y219649D01*
Y237551D01*
X127049Y254090D01*
X114390Y266749D01*
X97851Y273600D01*
D02*
G37*
G36*
X402651Y222800D02*
X384749D01*
X368210Y215949D01*
X355551Y203290D01*
X348700Y186751D01*
Y168849D01*
X355551Y152310D01*
X368210Y139651D01*
X384749Y132800D01*
X402651D01*
X419190Y139651D01*
X431849Y152310D01*
X438700Y168849D01*
Y186751D01*
X431849Y203290D01*
X419190Y215949D01*
X402651Y222800D01*
D02*
G37*
%LPD*%
D33*
X-330486Y800142D02*
D03*
X-330486Y546142D02*
D03*
D34*
X1309237Y166877D02*
D03*
X1182237D02*
D03*
X1055237D02*
D03*
X928237D02*
D03*
D35*
X88900Y228600D02*
D03*
X666544Y1439989D02*
D03*
X254000Y1054100D02*
D03*
X431800Y850900D02*
D03*
X127000Y1092200D02*
D03*
X-419100Y1079500D02*
D03*
X838200Y215900D02*
D03*
X672975Y206320D02*
D03*
X393700Y177800D02*
D03*
X-152400Y76200D02*
D03*
X-342900Y165100D02*
D03*
X720551Y799221D02*
D03*
X763968Y899540D02*
D03*
X751845Y1113791D02*
D03*
X837732Y1120851D02*
D03*
X601020Y318333D02*
D03*
X703901Y307530D02*
D03*
X816042Y334794D02*
D03*
X681687Y631985D02*
D03*
X609836Y591111D02*
D03*
X631130Y925173D02*
D03*
X530240Y995031D02*
D03*
X566225Y516172D02*
D03*
X1026353Y1197876D02*
D03*
X1114024Y1187465D02*
D03*
X141877Y1349997D02*
D03*
X176191Y1425243D02*
D03*
X143033Y958060D02*
D03*
X-190500Y1435100D02*
D03*
X-308060Y1422235D02*
D03*
X332866Y74948D02*
D03*
X418027D02*
D03*
X-153247Y304828D02*
D03*
X-169057Y160387D02*
D03*
X250704Y336403D02*
D03*
X429862Y426699D02*
D03*
X814615Y101469D02*
D03*
X543215Y912284D02*
D03*
X431800Y1320800D02*
D03*
X438235Y1231123D02*
D03*
X419100Y1066800D02*
D03*
X505917Y459871D02*
D03*
X838045Y568505D02*
D03*
X228600Y952500D02*
D03*
X1162109Y335694D02*
D03*
X-425690Y1188986D02*
D03*
X-12802Y1023243D02*
D03*
X834093Y421352D02*
D03*
X1092200Y482600D02*
D03*
X712480Y1261344D02*
D03*
X180011Y1224914D02*
D03*
X457200Y1422400D02*
D03*
X1502847Y374445D02*
D03*
X2146300Y431800D02*
D03*
Y152400D02*
D03*
X1808832Y244309D02*
D03*
X1397000Y88900D02*
D03*
X1287147Y519700D02*
D03*
X1052930Y307865D02*
D03*
X941456Y310053D02*
D03*
X1612900Y787400D02*
D03*
X1735000Y830735D02*
D03*
X1799496Y405945D02*
D03*
X1473200Y622300D02*
D03*
X2026512Y566623D02*
D03*
X1447800Y304800D02*
D03*
X915433Y1423025D02*
D03*
X813833D02*
D03*
X1169433Y1435725D02*
D03*
X1417281Y1403761D02*
D03*
X1835000Y830779D02*
D03*
X1678221Y935056D02*
D03*
X1678177Y1035056D02*
D03*
X1678133Y1135056D02*
D03*
X1676401Y1224291D02*
D03*
X1678000Y1435056D02*
D03*
X1935000Y830823D02*
D03*
X2035000Y830868D02*
D03*
X2135000Y830912D02*
D03*
X2235000Y830956D02*
D03*
X2335000Y831000D02*
D03*
X2435000Y831044D02*
D03*
X1473200Y1193800D02*
D03*
D36*
X265412Y576400D02*
D03*
X155413Y576400D02*
D03*
X265412Y686400D02*
D03*
X155413Y686400D02*
D03*
X1199196Y975787D02*
D03*
Y865787D02*
D03*
Y755787D02*
D03*
X1089196Y975787D02*
D03*
Y865787D02*
D03*
Y755787D02*
D03*
X979196Y975787D02*
D03*
Y865787D02*
D03*
Y755787D02*
D03*
%TF.MD5,9d2ca6de85aeed9295eda746bbc6f2d4*%
M02*
