%TF.GenerationSoftware,Altium Limited,Altium Designer,24.5.2 (23)*%
G04 Layer_Color=32896*
%FSLAX45Y45*%
%MOMM*%
%TF.SameCoordinates,D9EDD973-4EFE-478D-9CC6-8A1B8994CF0D*%
%TF.FilePolarity,Positive*%
%TF.FileFunction,Legend,Bot*%
%TF.Part,Single*%
G01*
G75*
%TA.AperFunction,NonConductor*%
%ADD42C,0.05000*%
G36*
X460094Y1212700D02*
X-355600D01*
Y1337974D01*
X460094D01*
Y1212700D01*
D02*
G37*
G36*
X460399Y1072700D02*
X-355600D01*
Y1199176D01*
X460399D01*
Y1072700D01*
D02*
G37*
G36*
X458065Y932700D02*
X-355600D01*
Y1057696D01*
X458065D01*
Y932700D01*
D02*
G37*
%LPC*%
G36*
X-137796Y1307974D02*
X-138721D01*
X-139368Y1307881D01*
X-140108Y1307789D01*
X-141032Y1307696D01*
X-142049Y1307511D01*
X-143066Y1307327D01*
X-145470Y1306679D01*
X-147874Y1305755D01*
X-149076Y1305200D01*
X-150278Y1304553D01*
X-151387Y1303721D01*
X-152404Y1302796D01*
X-152497Y1302704D01*
X-152682Y1302611D01*
X-152867Y1302241D01*
X-153236Y1301872D01*
X-153699Y1301409D01*
X-154161Y1300762D01*
X-154623Y1300115D01*
X-155178Y1299283D01*
X-156103Y1297526D01*
X-157027Y1295307D01*
X-157397Y1294198D01*
X-157582Y1292903D01*
X-157767Y1291609D01*
X-157859Y1290222D01*
Y1290037D01*
Y1289575D01*
X-157767Y1288835D01*
X-157674Y1287818D01*
X-157489Y1286709D01*
X-157120Y1285414D01*
X-156750Y1284028D01*
X-156195Y1282641D01*
X-156103Y1282456D01*
X-155918Y1281994D01*
X-155548Y1281254D01*
X-154993Y1280237D01*
X-154253Y1279127D01*
X-153329Y1277741D01*
X-152219Y1276354D01*
X-150925Y1274782D01*
X-150740Y1274597D01*
X-150278Y1274042D01*
X-149816Y1273580D01*
X-149353Y1273118D01*
X-148799Y1272563D01*
X-148059Y1271823D01*
X-147319Y1271084D01*
X-146395Y1270252D01*
X-145470Y1269327D01*
X-144361Y1268310D01*
X-143159Y1267293D01*
X-141864Y1266091D01*
X-140385Y1264889D01*
X-138906Y1263595D01*
X-138813Y1263502D01*
X-138628Y1263318D01*
X-138259Y1263040D01*
X-137796Y1262670D01*
X-137242Y1262116D01*
X-136594Y1261561D01*
X-135115Y1260359D01*
X-133543Y1258972D01*
X-132064Y1257585D01*
X-130770Y1256383D01*
X-130215Y1255921D01*
X-129753Y1255459D01*
X-129660Y1255366D01*
X-129383Y1255089D01*
X-129013Y1254719D01*
X-128551Y1254164D01*
X-128088Y1253517D01*
X-127534Y1252870D01*
X-126424Y1251298D01*
X-157952D01*
Y1243717D01*
X-115514D01*
Y1244734D01*
X-115607Y1245474D01*
X-115699Y1246306D01*
X-115884Y1247230D01*
X-116069Y1248155D01*
X-116439Y1249172D01*
Y1249264D01*
X-116531Y1249357D01*
X-116716Y1249911D01*
X-117086Y1250743D01*
X-117641Y1251853D01*
X-118381Y1253147D01*
X-119305Y1254627D01*
X-120322Y1256106D01*
X-121616Y1257678D01*
Y1257770D01*
X-121801Y1257863D01*
X-122264Y1258417D01*
X-123096Y1259249D01*
X-124298Y1260451D01*
X-125685Y1261838D01*
X-127441Y1263502D01*
X-129568Y1265352D01*
X-131879Y1267293D01*
X-131972Y1267386D01*
X-132341Y1267663D01*
X-132896Y1268125D01*
X-133543Y1268680D01*
X-134375Y1269420D01*
X-135392Y1270252D01*
X-136409Y1271176D01*
X-137611Y1272193D01*
X-139923Y1274412D01*
X-142234Y1276631D01*
X-143344Y1277741D01*
X-144361Y1278850D01*
X-145285Y1279867D01*
X-146025Y1280884D01*
Y1280977D01*
X-146210Y1281069D01*
X-146395Y1281346D01*
X-146580Y1281716D01*
X-147227Y1282733D01*
X-147966Y1283935D01*
X-148614Y1285414D01*
X-149261Y1286986D01*
X-149631Y1288743D01*
X-149816Y1290407D01*
Y1290500D01*
Y1290592D01*
X-149723Y1291147D01*
X-149631Y1292071D01*
X-149353Y1293088D01*
X-148983Y1294383D01*
X-148336Y1295677D01*
X-147504Y1296971D01*
X-146395Y1298266D01*
X-146210Y1298451D01*
X-145747Y1298821D01*
X-145100Y1299283D01*
X-144083Y1299930D01*
X-142789Y1300485D01*
X-141310Y1301040D01*
X-139553Y1301409D01*
X-137611Y1301502D01*
X-137057D01*
X-136687Y1301409D01*
X-135577Y1301317D01*
X-134283Y1301040D01*
X-132896Y1300670D01*
X-131324Y1300023D01*
X-129845Y1299190D01*
X-128458Y1298081D01*
X-128273Y1297896D01*
X-127903Y1297434D01*
X-127349Y1296694D01*
X-126794Y1295585D01*
X-126147Y1294290D01*
X-125592Y1292626D01*
X-125222Y1290777D01*
X-125037Y1288650D01*
X-116994Y1289483D01*
Y1289575D01*
X-117086Y1289852D01*
Y1290315D01*
X-117179Y1290962D01*
X-117363Y1291702D01*
X-117548Y1292534D01*
X-117826Y1293551D01*
X-118103Y1294568D01*
X-118843Y1296787D01*
X-119952Y1299006D01*
X-120599Y1300115D01*
X-121432Y1301224D01*
X-122264Y1302241D01*
X-123188Y1303166D01*
X-123281Y1303259D01*
X-123466Y1303351D01*
X-123743Y1303628D01*
X-124205Y1303906D01*
X-124760Y1304276D01*
X-125407Y1304645D01*
X-126147Y1305108D01*
X-127071Y1305570D01*
X-128088Y1306032D01*
X-129198Y1306494D01*
X-130400Y1306864D01*
X-131694Y1307234D01*
X-133081Y1307511D01*
X-134560Y1307789D01*
X-136132Y1307881D01*
X-137796Y1307974D01*
D02*
G37*
G36*
X214923Y1307696D02*
X204661D01*
X192087Y1288281D01*
Y1288188D01*
X191902Y1288003D01*
X191717Y1287726D01*
X191532Y1287356D01*
X191162Y1286894D01*
X190792Y1286339D01*
X189960Y1284952D01*
X188943Y1283288D01*
X187834Y1281439D01*
X186632Y1279497D01*
X185522Y1277463D01*
Y1277556D01*
X185430Y1277741D01*
X185245Y1278018D01*
X184968Y1278388D01*
X184690Y1278850D01*
X184320Y1279405D01*
X183488Y1280792D01*
X182471Y1282456D01*
X181269Y1284397D01*
X179883Y1286524D01*
X178403Y1288835D01*
X166107Y1307696D01*
X156214D01*
X181732Y1270806D01*
Y1243717D01*
X190238D01*
Y1270806D01*
X214923Y1307696D01*
D02*
G37*
G36*
X-44323Y1290130D02*
X-52644D01*
X-62630Y1262300D01*
Y1262208D01*
X-62722Y1262116D01*
X-62814Y1261838D01*
X-62907Y1261561D01*
X-63184Y1260636D01*
X-63554Y1259434D01*
X-64016Y1258048D01*
X-64571Y1256476D01*
X-65033Y1254719D01*
X-65588Y1252962D01*
X-65681Y1253147D01*
X-65773Y1253610D01*
X-66050Y1254349D01*
X-66328Y1255459D01*
X-66790Y1256661D01*
X-67252Y1258232D01*
X-67900Y1259897D01*
X-68547Y1261746D01*
X-78809Y1290130D01*
X-86945D01*
X-69286Y1243717D01*
X-61797D01*
X-44323Y1290130D01*
D02*
G37*
G36*
X-18436Y1291147D02*
X-19360D01*
X-20007Y1291054D01*
X-20747Y1290962D01*
X-21672Y1290777D01*
X-22689Y1290592D01*
X-23890Y1290315D01*
X-25000Y1290037D01*
X-26294Y1289575D01*
X-27496Y1289113D01*
X-28791Y1288466D01*
X-30085Y1287726D01*
X-31379Y1286894D01*
X-32581Y1285877D01*
X-33691Y1284767D01*
X-33783Y1284675D01*
X-33968Y1284490D01*
X-34246Y1284120D01*
X-34615Y1283565D01*
X-35078Y1282918D01*
X-35540Y1282179D01*
X-36095Y1281254D01*
X-36649Y1280145D01*
X-37204Y1278943D01*
X-37759Y1277648D01*
X-38221Y1276169D01*
X-38683Y1274597D01*
X-39053Y1272840D01*
X-39331Y1270991D01*
X-39516Y1269050D01*
X-39608Y1266923D01*
Y1265814D01*
X-39516Y1264889D01*
X-4845D01*
Y1264797D01*
Y1264519D01*
X-4937Y1264150D01*
Y1263595D01*
X-5029Y1262948D01*
X-5214Y1262208D01*
X-5492Y1260544D01*
X-6046Y1258695D01*
X-6786Y1256661D01*
X-7803Y1254812D01*
X-9098Y1253147D01*
X-9190D01*
X-9282Y1252962D01*
X-9837Y1252500D01*
X-10669Y1251853D01*
X-11779Y1251206D01*
X-13258Y1250466D01*
X-14922Y1249819D01*
X-16771Y1249357D01*
X-17788Y1249264D01*
X-18898Y1249172D01*
X-19638D01*
X-20470Y1249264D01*
X-21487Y1249449D01*
X-22596Y1249726D01*
X-23890Y1250096D01*
X-25092Y1250651D01*
X-26294Y1251391D01*
X-26387Y1251483D01*
X-26849Y1251853D01*
X-27404Y1252408D01*
X-28051Y1253147D01*
X-28791Y1254164D01*
X-29623Y1255459D01*
X-30455Y1256938D01*
X-31195Y1258695D01*
X-39331Y1257678D01*
Y1257585D01*
X-39238Y1257400D01*
X-39146Y1257031D01*
X-38961Y1256476D01*
X-38683Y1255921D01*
X-38406Y1255181D01*
X-37666Y1253610D01*
X-36742Y1251853D01*
X-35447Y1250004D01*
X-33968Y1248247D01*
X-32119Y1246583D01*
X-32027D01*
X-31842Y1246398D01*
X-31564Y1246213D01*
X-31195Y1245936D01*
X-30640Y1245658D01*
X-30085Y1245381D01*
X-29345Y1245011D01*
X-28513Y1244641D01*
X-27589Y1244272D01*
X-26664Y1243902D01*
X-24353Y1243347D01*
X-21764Y1242885D01*
X-18898Y1242700D01*
X-17881D01*
X-17234Y1242792D01*
X-16402Y1242885D01*
X-15385Y1243070D01*
X-14275Y1243255D01*
X-13073Y1243439D01*
X-10484Y1244179D01*
X-9098Y1244734D01*
X-7803Y1245289D01*
X-6416Y1246028D01*
X-5122Y1246860D01*
X-3920Y1247785D01*
X-2718Y1248894D01*
X-2626Y1248987D01*
X-2441Y1249172D01*
X-2163Y1249542D01*
X-1793Y1250096D01*
X-1331Y1250743D01*
X-869Y1251483D01*
X-314Y1252408D01*
X241Y1253425D01*
X795Y1254627D01*
X1350Y1255921D01*
X1812Y1257400D01*
X2275Y1258972D01*
X2644Y1260636D01*
X2922Y1262485D01*
X3107Y1264427D01*
X3199Y1266461D01*
Y1267570D01*
X3107Y1268403D01*
X3014Y1269420D01*
X2922Y1270529D01*
X2737Y1271823D01*
X2459Y1273118D01*
X1720Y1276076D01*
X1258Y1277556D01*
X703Y1279127D01*
X-37Y1280607D01*
X-869Y1281994D01*
X-1793Y1283380D01*
X-2811Y1284675D01*
X-2903Y1284767D01*
X-3088Y1284952D01*
X-3458Y1285230D01*
X-3920Y1285692D01*
X-4475Y1286154D01*
X-5214Y1286709D01*
X-6046Y1287356D01*
X-7063Y1287911D01*
X-8081Y1288558D01*
X-9282Y1289113D01*
X-10577Y1289667D01*
X-11964Y1290130D01*
X-13443Y1290592D01*
X-15015Y1290869D01*
X-16679Y1291054D01*
X-18436Y1291147D01*
D02*
G37*
G36*
X262446Y1307696D02*
X219176D01*
Y1300115D01*
X253940D01*
Y1280329D01*
X223892D01*
Y1272748D01*
X253940D01*
Y1243717D01*
X262446D01*
Y1307696D01*
D02*
G37*
G36*
X148540D02*
X122282D01*
X120896Y1307604D01*
X119324Y1307511D01*
X117660Y1307419D01*
X116088Y1307234D01*
X114701Y1307049D01*
X114516D01*
X113869Y1306864D01*
X113037Y1306679D01*
X111927Y1306402D01*
X110725Y1305940D01*
X109431Y1305385D01*
X108044Y1304738D01*
X106842Y1303998D01*
X106657Y1303906D01*
X106288Y1303628D01*
X105733Y1303074D01*
X104993Y1302426D01*
X104161Y1301594D01*
X103329Y1300485D01*
X102404Y1299283D01*
X101665Y1297896D01*
X101572Y1297711D01*
X101387Y1297249D01*
X101018Y1296417D01*
X100648Y1295307D01*
X100370Y1294013D01*
X100001Y1292534D01*
X99816Y1290869D01*
X99723Y1289113D01*
Y1288373D01*
X99816Y1287726D01*
X99908Y1287079D01*
X100001Y1286247D01*
X100185Y1285322D01*
X100370Y1284305D01*
X101018Y1282179D01*
X101387Y1281069D01*
X101942Y1279867D01*
X102589Y1278665D01*
X103237Y1277556D01*
X104069Y1276446D01*
X104993Y1275337D01*
X105086Y1275244D01*
X105271Y1275059D01*
X105548Y1274782D01*
X106010Y1274505D01*
X106565Y1274042D01*
X107305Y1273580D01*
X108229Y1273025D01*
X109246Y1272563D01*
X110448Y1272008D01*
X111835Y1271454D01*
X113314Y1270991D01*
X115071Y1270622D01*
X116920Y1270252D01*
X118954Y1269974D01*
X121265Y1269789D01*
X123669Y1269697D01*
X140034D01*
Y1243717D01*
X148540D01*
Y1307696D01*
D02*
G37*
G36*
X63943D02*
X34264D01*
X33525Y1307604D01*
X32693D01*
X30751Y1307511D01*
X28717Y1307234D01*
X26498Y1306957D01*
X24464Y1306494D01*
X23447Y1306217D01*
X22615Y1305940D01*
X22522D01*
X22430Y1305847D01*
X21875Y1305570D01*
X21043Y1305200D01*
X20026Y1304553D01*
X18917Y1303721D01*
X17715Y1302611D01*
X16605Y1301317D01*
X15496Y1299838D01*
Y1299745D01*
X15403Y1299653D01*
X15033Y1299098D01*
X14664Y1298173D01*
X14109Y1296971D01*
X13647Y1295585D01*
X13184Y1293920D01*
X12907Y1292164D01*
X12815Y1290222D01*
Y1290130D01*
Y1289945D01*
Y1289575D01*
X12907Y1289113D01*
Y1288466D01*
X12999Y1287818D01*
X13369Y1286247D01*
X13924Y1284397D01*
X14664Y1282456D01*
X15773Y1280514D01*
X16513Y1279590D01*
X17252Y1278665D01*
X17345Y1278573D01*
X17437Y1278480D01*
X17715Y1278203D01*
X18085Y1277926D01*
X18547Y1277556D01*
X19102Y1277186D01*
X19841Y1276724D01*
X20581Y1276169D01*
X21505Y1275707D01*
X22522Y1275244D01*
X23632Y1274690D01*
X24834Y1274227D01*
X26221Y1273857D01*
X27608Y1273395D01*
X29179Y1273118D01*
X30843Y1272840D01*
X30659Y1272748D01*
X30289Y1272563D01*
X29734Y1272193D01*
X28994Y1271823D01*
X27330Y1270806D01*
X26498Y1270159D01*
X25758Y1269605D01*
X25573Y1269420D01*
X25111Y1268957D01*
X24372Y1268218D01*
X23447Y1267293D01*
X22430Y1265999D01*
X21228Y1264612D01*
X20026Y1262948D01*
X18732Y1261099D01*
X7729Y1243717D01*
X18269D01*
X26683Y1257031D01*
Y1257123D01*
X26868Y1257308D01*
X27053Y1257585D01*
X27330Y1257955D01*
X27977Y1258972D01*
X28809Y1260266D01*
X29826Y1261653D01*
X30843Y1263133D01*
X31860Y1264519D01*
X32785Y1265814D01*
X32878Y1265906D01*
X33155Y1266276D01*
X33617Y1266831D01*
X34264Y1267478D01*
X35651Y1268865D01*
X36391Y1269512D01*
X37130Y1270067D01*
X37223Y1270159D01*
X37408Y1270252D01*
X37778Y1270437D01*
X38332Y1270714D01*
X38887Y1270991D01*
X39534Y1271269D01*
X41014Y1271731D01*
X41106D01*
X41291Y1271823D01*
X41661D01*
X42123Y1271916D01*
X42770Y1272008D01*
X43510D01*
X44527Y1272101D01*
X55437D01*
Y1243717D01*
X63943D01*
Y1307696D01*
D02*
G37*
G36*
X-96191Y1252685D02*
X-105159D01*
Y1243717D01*
X-96191D01*
Y1252685D01*
D02*
G37*
%LPD*%
G36*
X-17603Y1284582D02*
X-16586Y1284490D01*
X-15385Y1284213D01*
X-13905Y1283750D01*
X-12333Y1283103D01*
X-10854Y1282179D01*
X-9375Y1280977D01*
X-9190Y1280792D01*
X-8820Y1280329D01*
X-8173Y1279497D01*
X-7526Y1278388D01*
X-6786Y1277093D01*
X-6139Y1275429D01*
X-5584Y1273488D01*
X-5307Y1271361D01*
X-31287D01*
Y1271454D01*
Y1271639D01*
X-31195Y1271916D01*
Y1272286D01*
X-31010Y1273395D01*
X-30732Y1274597D01*
X-30270Y1276076D01*
X-29808Y1277463D01*
X-29068Y1278850D01*
X-28236Y1280052D01*
Y1280145D01*
X-28051Y1280237D01*
X-27589Y1280792D01*
X-26757Y1281531D01*
X-25647Y1282363D01*
X-24260Y1283196D01*
X-22596Y1283935D01*
X-20655Y1284490D01*
X-19638Y1284582D01*
X-18528Y1284675D01*
X-17973D01*
X-17603Y1284582D01*
D02*
G37*
G36*
X140034Y1277278D02*
X122837D01*
X122190Y1277371D01*
X121543D01*
X120803Y1277463D01*
X119046Y1277648D01*
X117105Y1278018D01*
X115163Y1278573D01*
X113407Y1279312D01*
X112575Y1279775D01*
X111927Y1280329D01*
X111742Y1280514D01*
X111373Y1280884D01*
X110818Y1281624D01*
X110171Y1282548D01*
X109524Y1283750D01*
X108969Y1285230D01*
X108599Y1286894D01*
X108414Y1288835D01*
Y1288928D01*
Y1289020D01*
Y1289483D01*
X108507Y1290315D01*
X108691Y1291239D01*
X108876Y1292256D01*
X109246Y1293458D01*
X109801Y1294568D01*
X110448Y1295677D01*
X110541Y1295770D01*
X110818Y1296139D01*
X111280Y1296602D01*
X111835Y1297249D01*
X112667Y1297896D01*
X113592Y1298451D01*
X114609Y1299006D01*
X115811Y1299468D01*
X115903D01*
X116273Y1299560D01*
X116828Y1299653D01*
X117567Y1299838D01*
X118677Y1299930D01*
X120064Y1300023D01*
X121728Y1300115D01*
X140034D01*
Y1277278D01*
D02*
G37*
G36*
X55437Y1279405D02*
X36391D01*
X35281Y1279497D01*
X33987Y1279590D01*
X32508Y1279682D01*
X31028Y1279867D01*
X29549Y1280145D01*
X28255Y1280514D01*
X28070Y1280607D01*
X27700Y1280792D01*
X27145Y1281069D01*
X26406Y1281439D01*
X25573Y1281994D01*
X24741Y1282641D01*
X23909Y1283473D01*
X23262Y1284397D01*
X23170Y1284490D01*
X22985Y1284860D01*
X22707Y1285414D01*
X22338Y1286154D01*
X22060Y1286986D01*
X21783Y1287911D01*
X21598Y1289020D01*
X21505Y1290130D01*
Y1290222D01*
Y1290315D01*
X21598Y1290869D01*
X21690Y1291702D01*
X21875Y1292811D01*
X22338Y1293920D01*
X22892Y1295215D01*
X23724Y1296417D01*
X24834Y1297619D01*
X25019Y1297711D01*
X25481Y1298081D01*
X26221Y1298543D01*
X27423Y1299098D01*
X28809Y1299653D01*
X30659Y1300115D01*
X32785Y1300485D01*
X35281Y1300577D01*
X55437D01*
Y1279405D01*
D02*
G37*
%LPC*%
G36*
X-221270Y1151517D02*
X-222287D01*
X-223304Y1151424D01*
X-224691Y1151332D01*
X-226263Y1151147D01*
X-227834Y1150869D01*
X-229406Y1150500D01*
X-230885Y1150037D01*
X-231070Y1149945D01*
X-231533Y1149760D01*
X-232180Y1149483D01*
X-233012Y1149113D01*
X-233937Y1148558D01*
X-234861Y1148003D01*
X-235693Y1147264D01*
X-236433Y1146524D01*
X-236525Y1146432D01*
X-236710Y1146154D01*
X-236988Y1145692D01*
X-237357Y1145137D01*
X-237820Y1144305D01*
X-238190Y1143473D01*
X-238559Y1142456D01*
X-238837Y1141254D01*
Y1141162D01*
X-238929Y1140884D01*
X-239022Y1140329D01*
X-239114Y1139590D01*
Y1138573D01*
X-239207Y1137371D01*
X-239299Y1135799D01*
Y1134042D01*
Y1123502D01*
Y1123410D01*
Y1123040D01*
Y1122485D01*
Y1121746D01*
Y1120914D01*
Y1119897D01*
X-239391Y1117678D01*
Y1115366D01*
X-239484Y1113055D01*
X-239576Y1112038D01*
Y1111113D01*
X-239669Y1110281D01*
X-239761Y1109634D01*
Y1109542D01*
X-239854Y1109172D01*
X-239946Y1108617D01*
X-240224Y1107877D01*
X-240408Y1107045D01*
X-240778Y1106121D01*
X-241241Y1105104D01*
X-241703Y1104087D01*
X-233474D01*
X-233382Y1104179D01*
X-233289Y1104549D01*
X-233104Y1105011D01*
X-232827Y1105751D01*
X-232550Y1106583D01*
X-232365Y1107600D01*
X-232180Y1108709D01*
X-231995Y1109911D01*
X-231903D01*
X-231810Y1109727D01*
X-231255Y1109264D01*
X-230423Y1108617D01*
X-229314Y1107785D01*
X-227927Y1106953D01*
X-226540Y1106028D01*
X-225061Y1105196D01*
X-223489Y1104549D01*
X-223304Y1104457D01*
X-222749Y1104364D01*
X-221917Y1104087D01*
X-220900Y1103809D01*
X-219606Y1103532D01*
X-218127Y1103347D01*
X-216462Y1103162D01*
X-214798Y1103070D01*
X-214058D01*
X-213504Y1103162D01*
X-212857D01*
X-212117Y1103255D01*
X-210453Y1103532D01*
X-208604Y1103994D01*
X-206570Y1104641D01*
X-204720Y1105566D01*
X-203056Y1106768D01*
X-202871Y1106953D01*
X-202409Y1107415D01*
X-201762Y1108247D01*
X-201022Y1109357D01*
X-200283Y1110744D01*
X-199635Y1112315D01*
X-199173Y1114257D01*
X-199081Y1115181D01*
X-198988Y1116291D01*
Y1116846D01*
X-199081Y1117493D01*
X-199173Y1118325D01*
X-199358Y1119342D01*
X-199635Y1120359D01*
X-200005Y1121468D01*
X-200467Y1122485D01*
X-200560Y1122578D01*
X-200745Y1122948D01*
X-201115Y1123502D01*
X-201577Y1124150D01*
X-202132Y1124889D01*
X-202871Y1125629D01*
X-203611Y1126369D01*
X-204536Y1127016D01*
X-204628Y1127108D01*
X-204998Y1127293D01*
X-205460Y1127663D01*
X-206200Y1128033D01*
X-207032Y1128403D01*
X-208049Y1128865D01*
X-209066Y1129235D01*
X-210268Y1129605D01*
X-210360D01*
X-210730Y1129697D01*
X-211285Y1129882D01*
X-212024Y1129974D01*
X-212949Y1130159D01*
X-214151Y1130344D01*
X-215538Y1130622D01*
X-217202Y1130806D01*
X-217294D01*
X-217664Y1130899D01*
X-218127D01*
X-218774Y1130991D01*
X-219513Y1131084D01*
X-220438Y1131269D01*
X-221455Y1131361D01*
X-222564Y1131546D01*
X-224783Y1132008D01*
X-227187Y1132471D01*
X-229314Y1133025D01*
X-230331Y1133303D01*
X-231255Y1133580D01*
Y1133673D01*
Y1133858D01*
X-231348Y1134412D01*
Y1135059D01*
Y1135429D01*
Y1135614D01*
Y1135707D01*
Y1135799D01*
Y1136354D01*
X-231255Y1137278D01*
X-231070Y1138295D01*
X-230793Y1139405D01*
X-230331Y1140514D01*
X-229776Y1141531D01*
X-229036Y1142363D01*
X-228944Y1142456D01*
X-228482Y1142826D01*
X-227742Y1143196D01*
X-226817Y1143750D01*
X-225523Y1144213D01*
X-224044Y1144675D01*
X-222195Y1144952D01*
X-220068Y1145045D01*
X-219144D01*
X-218219Y1144952D01*
X-216925Y1144767D01*
X-215630Y1144582D01*
X-214243Y1144213D01*
X-212949Y1143750D01*
X-211840Y1143103D01*
X-211747Y1143011D01*
X-211377Y1142733D01*
X-210915Y1142271D01*
X-210360Y1141531D01*
X-209806Y1140607D01*
X-209158Y1139405D01*
X-208604Y1137926D01*
X-208049Y1136261D01*
X-200375Y1137278D01*
Y1137371D01*
X-200467Y1137463D01*
Y1137741D01*
X-200560Y1138110D01*
X-200837Y1138943D01*
X-201207Y1140145D01*
X-201669Y1141346D01*
X-202224Y1142641D01*
X-202964Y1143935D01*
X-203796Y1145137D01*
X-203888Y1145230D01*
X-204258Y1145599D01*
X-204813Y1146154D01*
X-205553Y1146894D01*
X-206570Y1147633D01*
X-207771Y1148373D01*
X-209158Y1149205D01*
X-210730Y1149852D01*
X-210823D01*
X-210915Y1149945D01*
X-211192Y1150037D01*
X-211562Y1150130D01*
X-212487Y1150407D01*
X-213781Y1150685D01*
X-215260Y1150962D01*
X-217110Y1151239D01*
X-219051Y1151424D01*
X-221270Y1151517D01*
D02*
G37*
G36*
X185259Y1169176D02*
X183317D01*
X182855Y1169083D01*
X182300D01*
X181653Y1168991D01*
X180174Y1168713D01*
X178417Y1168159D01*
X176661Y1167419D01*
X174904Y1166494D01*
X174072Y1165847D01*
X173240Y1165108D01*
X173147D01*
X173055Y1164923D01*
X172592Y1164368D01*
X171853Y1163536D01*
X171113Y1162334D01*
X170374Y1160947D01*
X169634Y1159283D01*
X169172Y1157434D01*
X168987Y1156417D01*
Y1155400D01*
Y1155307D01*
Y1155030D01*
X169079Y1154568D01*
X169172Y1153920D01*
X169357Y1153088D01*
X169634Y1152164D01*
X170004Y1151147D01*
X170558Y1150037D01*
X171206Y1148835D01*
X171945Y1147633D01*
X172962Y1146339D01*
X174164Y1144952D01*
X175551Y1143658D01*
X177215Y1142363D01*
X179157Y1141069D01*
X181283Y1139775D01*
X169726Y1125259D01*
X169634Y1125444D01*
X169357Y1125906D01*
X168987Y1126738D01*
X168524Y1127848D01*
X168062Y1129142D01*
X167507Y1130714D01*
X167045Y1132378D01*
X166583Y1134227D01*
X158447Y1132471D01*
Y1132378D01*
X158539Y1132101D01*
X158632Y1131639D01*
X158817Y1131084D01*
X159001Y1130344D01*
X159279Y1129512D01*
X159649Y1128588D01*
X159926Y1127571D01*
X160758Y1125444D01*
X161683Y1123133D01*
X162792Y1120821D01*
X164087Y1118695D01*
X163994Y1118602D01*
X163902Y1118417D01*
X163624Y1118140D01*
X163347Y1117770D01*
X162422Y1116661D01*
X161220Y1115274D01*
X159741Y1113702D01*
X158077Y1112130D01*
X156135Y1110466D01*
X154101Y1108894D01*
X159371Y1102700D01*
X159464D01*
X159556Y1102885D01*
X159834Y1102977D01*
X160203Y1103255D01*
X161128Y1103994D01*
X162422Y1104919D01*
X163902Y1106213D01*
X165566Y1107692D01*
X167415Y1109542D01*
X169264Y1111668D01*
Y1111576D01*
X169449Y1111483D01*
X169911Y1110928D01*
X170743Y1110189D01*
X171760Y1109264D01*
X173055Y1108155D01*
X174442Y1107138D01*
X176106Y1106121D01*
X177770Y1105196D01*
X177862D01*
X177955Y1105104D01*
X178232Y1105011D01*
X178602Y1104826D01*
X179434Y1104549D01*
X180729Y1104179D01*
X182115Y1103717D01*
X183780Y1103439D01*
X185629Y1103162D01*
X187570Y1103070D01*
X188495D01*
X189235Y1103162D01*
X190067Y1103255D01*
X190991Y1103439D01*
X192101Y1103624D01*
X193210Y1103902D01*
X194412Y1104272D01*
X195706Y1104641D01*
X197001Y1105196D01*
X198295Y1105843D01*
X199590Y1106583D01*
X200884Y1107508D01*
X202086Y1108525D01*
X203195Y1109634D01*
X203288Y1109727D01*
X203380Y1109911D01*
X203658Y1110189D01*
X203935Y1110559D01*
X204305Y1111113D01*
X204675Y1111668D01*
X205507Y1113240D01*
X206339Y1114996D01*
X207079Y1117031D01*
X207633Y1119342D01*
X207726Y1120544D01*
X207818Y1121746D01*
Y1122301D01*
X207726Y1122763D01*
Y1123225D01*
X207633Y1123872D01*
X207356Y1125259D01*
X206894Y1126923D01*
X206246Y1128772D01*
X205322Y1130529D01*
X204028Y1132378D01*
X203935Y1132471D01*
X203843Y1132563D01*
X203658Y1132841D01*
X203288Y1133210D01*
X202456Y1134135D01*
X201161Y1135244D01*
X199590Y1136539D01*
X197648Y1137926D01*
X195337Y1139405D01*
X192655Y1140792D01*
X192748Y1140884D01*
X192840Y1140977D01*
X193025Y1141254D01*
X193395Y1141624D01*
X194135Y1142548D01*
X194967Y1143658D01*
X195984Y1144952D01*
X196908Y1146339D01*
X197833Y1147633D01*
X198480Y1148835D01*
X198573Y1149020D01*
X198665Y1149390D01*
X198942Y1149945D01*
X199127Y1150777D01*
X199405Y1151702D01*
X199682Y1152719D01*
X199775Y1153736D01*
X199867Y1154845D01*
Y1154937D01*
Y1155122D01*
Y1155400D01*
X199775Y1155770D01*
X199590Y1156879D01*
X199312Y1158266D01*
X198758Y1159838D01*
X197925Y1161502D01*
X197463Y1162334D01*
X196816Y1163166D01*
X196169Y1163998D01*
X195337Y1164830D01*
X195244Y1164923D01*
X195152Y1165015D01*
X194874Y1165200D01*
X194505Y1165477D01*
X194042Y1165847D01*
X193580Y1166217D01*
X192193Y1167049D01*
X190529Y1167789D01*
X188587Y1168529D01*
X186368Y1168991D01*
X185259Y1169176D01*
D02*
G37*
G36*
X271151D02*
X268192D01*
X267637Y1169083D01*
X266898D01*
X265141Y1168898D01*
X263199Y1168621D01*
X261165Y1168159D01*
X258946Y1167604D01*
X256820Y1166864D01*
X256727D01*
X256543Y1166772D01*
X256265Y1166679D01*
X255895Y1166494D01*
X254878Y1165940D01*
X253584Y1165293D01*
X252197Y1164368D01*
X250718Y1163259D01*
X249331Y1162057D01*
X248037Y1160577D01*
X247852Y1160392D01*
X247482Y1159838D01*
X246927Y1159006D01*
X246187Y1157804D01*
X245448Y1156324D01*
X244616Y1154475D01*
X243784Y1152441D01*
X243136Y1150130D01*
X250810Y1148096D01*
Y1148188D01*
X250903Y1148281D01*
X250995Y1148558D01*
X251088Y1148928D01*
X251365Y1149760D01*
X251735Y1150869D01*
X252290Y1152164D01*
X252937Y1153366D01*
X253584Y1154660D01*
X254416Y1155770D01*
X254509Y1155862D01*
X254786Y1156232D01*
X255341Y1156694D01*
X255988Y1157341D01*
X256820Y1158081D01*
X257929Y1158821D01*
X259131Y1159560D01*
X260518Y1160207D01*
X260703Y1160300D01*
X261165Y1160485D01*
X261997Y1160762D01*
X263107Y1161132D01*
X264401Y1161409D01*
X265881Y1161687D01*
X267545Y1161872D01*
X269301Y1161964D01*
X270318D01*
X270781Y1161872D01*
X271336D01*
X272722Y1161779D01*
X274294Y1161502D01*
X276051Y1161224D01*
X277715Y1160762D01*
X279379Y1160115D01*
X279564Y1160023D01*
X280119Y1159838D01*
X280858Y1159375D01*
X281783Y1158913D01*
X282892Y1158173D01*
X284094Y1157434D01*
X285204Y1156509D01*
X286221Y1155492D01*
X286313Y1155400D01*
X286683Y1155030D01*
X287145Y1154383D01*
X287700Y1153643D01*
X288347Y1152719D01*
X288995Y1151609D01*
X289642Y1150407D01*
X290289Y1149113D01*
Y1149020D01*
X290381Y1148835D01*
X290474Y1148558D01*
X290659Y1148096D01*
X290844Y1147541D01*
X291029Y1146894D01*
X291306Y1146154D01*
X291491Y1145322D01*
X291953Y1143380D01*
X292323Y1141162D01*
X292600Y1138850D01*
X292693Y1136261D01*
Y1136169D01*
Y1135892D01*
Y1135429D01*
X292600Y1134875D01*
Y1134135D01*
X292508Y1133210D01*
X292415Y1132286D01*
X292323Y1131269D01*
X291953Y1128957D01*
X291491Y1126553D01*
X290751Y1124150D01*
X289827Y1121838D01*
Y1121746D01*
X289642Y1121561D01*
X289549Y1121284D01*
X289272Y1120914D01*
X288625Y1119897D01*
X287608Y1118602D01*
X286406Y1117215D01*
X284927Y1115829D01*
X283170Y1114534D01*
X281228Y1113332D01*
X281136D01*
X280951Y1113240D01*
X280674Y1113055D01*
X280211Y1112870D01*
X279749Y1112685D01*
X279102Y1112500D01*
X277623Y1111945D01*
X275773Y1111483D01*
X273739Y1111021D01*
X271520Y1110651D01*
X269209Y1110559D01*
X268284D01*
X267730Y1110651D01*
X267175D01*
X265788Y1110836D01*
X264124Y1111021D01*
X262367Y1111391D01*
X260426Y1111945D01*
X258484Y1112593D01*
X258392D01*
X258207Y1112685D01*
X258022Y1112778D01*
X257652Y1112962D01*
X256635Y1113425D01*
X255526Y1113979D01*
X254231Y1114627D01*
X252844Y1115366D01*
X251550Y1116198D01*
X250440Y1117123D01*
Y1129142D01*
X269301D01*
Y1136724D01*
X242119D01*
Y1112962D01*
X242212Y1112870D01*
X242397Y1112778D01*
X242767Y1112500D01*
X243229Y1112130D01*
X243784Y1111761D01*
X244431Y1111298D01*
X245263Y1110744D01*
X246095Y1110189D01*
X248037Y1108987D01*
X250256Y1107692D01*
X252567Y1106491D01*
X255063Y1105474D01*
X255156D01*
X255341Y1105381D01*
X255710Y1105289D01*
X256173Y1105104D01*
X256820Y1104919D01*
X257560Y1104641D01*
X258392Y1104457D01*
X259224Y1104272D01*
X261258Y1103809D01*
X263569Y1103347D01*
X266066Y1103070D01*
X268654Y1102977D01*
X269579D01*
X270226Y1103070D01*
X271058D01*
X272075Y1103162D01*
X273185Y1103347D01*
X274387Y1103439D01*
X277068Y1103994D01*
X279934Y1104641D01*
X282892Y1105658D01*
X284372Y1106213D01*
X285851Y1106953D01*
X285944Y1107045D01*
X286221Y1107138D01*
X286591Y1107415D01*
X287145Y1107692D01*
X287793Y1108155D01*
X288440Y1108617D01*
X290197Y1109911D01*
X292046Y1111576D01*
X293987Y1113610D01*
X295836Y1115921D01*
X297501Y1118602D01*
Y1118695D01*
X297685Y1118972D01*
X297870Y1119342D01*
X298148Y1119989D01*
X298425Y1120636D01*
X298702Y1121561D01*
X299072Y1122485D01*
X299442Y1123595D01*
X299812Y1124797D01*
X300182Y1126184D01*
X300459Y1127571D01*
X300737Y1129050D01*
X301199Y1132286D01*
X301384Y1135707D01*
Y1136631D01*
X301291Y1137278D01*
Y1138110D01*
X301199Y1139128D01*
X301014Y1140145D01*
X300921Y1141346D01*
X300644Y1142641D01*
X300459Y1144028D01*
X299719Y1146986D01*
X298795Y1150037D01*
X297501Y1153088D01*
X297408Y1153181D01*
X297316Y1153458D01*
X297131Y1153828D01*
X296761Y1154383D01*
X296391Y1155122D01*
X295929Y1155862D01*
X294634Y1157619D01*
X293063Y1159653D01*
X291121Y1161594D01*
X288902Y1163536D01*
X287608Y1164368D01*
X286313Y1165200D01*
X286221Y1165293D01*
X285944Y1165385D01*
X285574Y1165570D01*
X285019Y1165847D01*
X284279Y1166125D01*
X283447Y1166494D01*
X282523Y1166864D01*
X281413Y1167234D01*
X280211Y1167604D01*
X278917Y1167881D01*
X277530Y1168251D01*
X276051Y1168529D01*
X272815Y1168991D01*
X271151Y1169176D01*
D02*
G37*
G36*
X336055D02*
X335130D01*
X334483Y1169083D01*
X333651Y1168991D01*
X332634Y1168898D01*
X331617Y1168806D01*
X330415Y1168529D01*
X327919Y1167974D01*
X325145Y1167142D01*
X323758Y1166587D01*
X322464Y1165940D01*
X321169Y1165108D01*
X319875Y1164276D01*
X319782Y1164183D01*
X319598Y1164091D01*
X319228Y1163813D01*
X318765Y1163351D01*
X318303Y1162889D01*
X317656Y1162242D01*
X317009Y1161502D01*
X316269Y1160762D01*
X315529Y1159838D01*
X314790Y1158728D01*
X313958Y1157619D01*
X313218Y1156417D01*
X312571Y1155030D01*
X311831Y1153643D01*
X311276Y1152164D01*
X310722Y1150500D01*
X319043Y1148558D01*
Y1148650D01*
X319135Y1148835D01*
X319320Y1149205D01*
X319505Y1149667D01*
X319690Y1150222D01*
X319967Y1150962D01*
X320707Y1152441D01*
X321632Y1154105D01*
X322741Y1155770D01*
X324128Y1157341D01*
X325607Y1158728D01*
X325792Y1158913D01*
X326347Y1159283D01*
X327271Y1159745D01*
X328473Y1160392D01*
X330045Y1160947D01*
X331802Y1161502D01*
X333928Y1161872D01*
X336240Y1161964D01*
X336979D01*
X337442Y1161872D01*
X338089D01*
X338828Y1161779D01*
X340585Y1161502D01*
X342527Y1161132D01*
X344561Y1160485D01*
X346687Y1159560D01*
X348629Y1158358D01*
X348721D01*
X348814Y1158173D01*
X349461Y1157711D01*
X350293Y1156972D01*
X351310Y1155862D01*
X352512Y1154475D01*
X353621Y1152903D01*
X354638Y1150962D01*
X355563Y1148835D01*
Y1148743D01*
X355655Y1148558D01*
X355748Y1148281D01*
X355840Y1147818D01*
X356025Y1147264D01*
X356210Y1146616D01*
X356487Y1145045D01*
X356857Y1143196D01*
X357227Y1141162D01*
X357412Y1138943D01*
X357504Y1136539D01*
Y1136446D01*
Y1136169D01*
Y1135707D01*
Y1135152D01*
X357412Y1134505D01*
Y1133673D01*
X357320Y1132748D01*
X357227Y1131731D01*
X356950Y1129512D01*
X356487Y1127108D01*
X355933Y1124704D01*
X355193Y1122301D01*
Y1122208D01*
X355101Y1122023D01*
X354916Y1121746D01*
X354731Y1121284D01*
X354176Y1120174D01*
X353344Y1118880D01*
X352327Y1117400D01*
X351033Y1115829D01*
X349553Y1114442D01*
X347797Y1113147D01*
X347704D01*
X347519Y1113055D01*
X347242Y1112870D01*
X346872Y1112685D01*
X346410Y1112500D01*
X345855Y1112223D01*
X344561Y1111668D01*
X342896Y1111113D01*
X341047Y1110651D01*
X339013Y1110281D01*
X336887Y1110189D01*
X336240D01*
X335685Y1110281D01*
X335038D01*
X334390Y1110374D01*
X332726Y1110744D01*
X330785Y1111206D01*
X328843Y1111945D01*
X326809Y1112962D01*
X325792Y1113517D01*
X324868Y1114257D01*
X324775Y1114349D01*
X324683Y1114442D01*
X324405Y1114719D01*
X324035Y1114996D01*
X323666Y1115459D01*
X323203Y1116014D01*
X322649Y1116568D01*
X322186Y1117308D01*
X321632Y1118140D01*
X320984Y1119065D01*
X320430Y1119989D01*
X319875Y1121099D01*
X319413Y1122301D01*
X318950Y1123595D01*
X318488Y1124982D01*
X318118Y1126461D01*
X309612Y1124335D01*
Y1124242D01*
X309705Y1123872D01*
X309890Y1123318D01*
X310167Y1122578D01*
X310444Y1121746D01*
X310814Y1120729D01*
X311276Y1119619D01*
X311831Y1118417D01*
X313126Y1115829D01*
X314790Y1113240D01*
X315807Y1111945D01*
X316824Y1110651D01*
X317933Y1109542D01*
X319228Y1108432D01*
X319320Y1108340D01*
X319505Y1108155D01*
X319967Y1107970D01*
X320430Y1107600D01*
X321169Y1107138D01*
X321909Y1106675D01*
X322926Y1106213D01*
X323943Y1105751D01*
X325145Y1105196D01*
X326439Y1104734D01*
X327826Y1104272D01*
X329305Y1103809D01*
X330877Y1103439D01*
X332541Y1103255D01*
X334298Y1103070D01*
X336147Y1102977D01*
X337164D01*
X337904Y1103070D01*
X338736D01*
X339753Y1103162D01*
X340862Y1103347D01*
X342157Y1103532D01*
X344838Y1103994D01*
X347612Y1104734D01*
X350385Y1105751D01*
X351680Y1106398D01*
X352974Y1107138D01*
X353067Y1107230D01*
X353252Y1107323D01*
X353621Y1107600D01*
X353991Y1107970D01*
X354546Y1108340D01*
X355193Y1108894D01*
X355933Y1109542D01*
X356672Y1110281D01*
X357412Y1111113D01*
X358244Y1111945D01*
X359908Y1114072D01*
X361480Y1116568D01*
X362867Y1119342D01*
Y1119434D01*
X363052Y1119712D01*
X363144Y1120174D01*
X363422Y1120729D01*
X363607Y1121468D01*
X363884Y1122393D01*
X364254Y1123410D01*
X364531Y1124519D01*
X364809Y1125721D01*
X365178Y1127108D01*
X365641Y1129974D01*
X366010Y1133210D01*
X366195Y1136539D01*
Y1137556D01*
X366103Y1138203D01*
Y1139128D01*
X366010Y1140052D01*
X365918Y1141254D01*
X365733Y1142456D01*
X365271Y1145137D01*
X364624Y1148096D01*
X363699Y1151054D01*
X362405Y1153920D01*
X362312Y1154013D01*
X362220Y1154290D01*
X362035Y1154660D01*
X361665Y1155122D01*
X361295Y1155770D01*
X360833Y1156509D01*
X359631Y1158173D01*
X358059Y1160023D01*
X356210Y1161872D01*
X354084Y1163721D01*
X351587Y1165293D01*
X351495Y1165385D01*
X351217Y1165477D01*
X350848Y1165662D01*
X350385Y1165940D01*
X349646Y1166217D01*
X348906Y1166494D01*
X347982Y1166864D01*
X346965Y1167234D01*
X345855Y1167604D01*
X344653Y1167974D01*
X342064Y1168529D01*
X339106Y1168991D01*
X336055Y1169176D01*
D02*
G37*
G36*
X32984D02*
X32059D01*
X31412Y1169083D01*
X30580Y1168991D01*
X29563Y1168898D01*
X28546Y1168806D01*
X27344Y1168529D01*
X24848Y1167974D01*
X22074Y1167142D01*
X20687Y1166587D01*
X19393Y1165940D01*
X18099Y1165108D01*
X16804Y1164276D01*
X16712Y1164183D01*
X16527Y1164091D01*
X16157Y1163813D01*
X15695Y1163351D01*
X15232Y1162889D01*
X14585Y1162242D01*
X13938Y1161502D01*
X13198Y1160762D01*
X12459Y1159838D01*
X11719Y1158728D01*
X10887Y1157619D01*
X10147Y1156417D01*
X9500Y1155030D01*
X8760Y1153643D01*
X8206Y1152164D01*
X7651Y1150500D01*
X15972Y1148558D01*
Y1148650D01*
X16064Y1148835D01*
X16249Y1149205D01*
X16434Y1149667D01*
X16619Y1150222D01*
X16897Y1150962D01*
X17636Y1152441D01*
X18561Y1154105D01*
X19670Y1155770D01*
X21057Y1157341D01*
X22536Y1158728D01*
X22721Y1158913D01*
X23276Y1159283D01*
X24201Y1159745D01*
X25403Y1160392D01*
X26974Y1160947D01*
X28731Y1161502D01*
X30857Y1161872D01*
X33169Y1161964D01*
X33908D01*
X34371Y1161872D01*
X35018D01*
X35758Y1161779D01*
X37514Y1161502D01*
X39456Y1161132D01*
X41490Y1160485D01*
X43616Y1159560D01*
X45558Y1158358D01*
X45650D01*
X45743Y1158173D01*
X46390Y1157711D01*
X47222Y1156972D01*
X48239Y1155862D01*
X49441Y1154475D01*
X50551Y1152903D01*
X51568Y1150962D01*
X52492Y1148835D01*
Y1148743D01*
X52585Y1148558D01*
X52677Y1148281D01*
X52770Y1147818D01*
X52954Y1147264D01*
X53139Y1146616D01*
X53417Y1145045D01*
X53787Y1143196D01*
X54156Y1141162D01*
X54341Y1138943D01*
X54434Y1136539D01*
Y1136446D01*
Y1136169D01*
Y1135707D01*
Y1135152D01*
X54341Y1134505D01*
Y1133673D01*
X54249Y1132748D01*
X54156Y1131731D01*
X53879Y1129512D01*
X53417Y1127108D01*
X52862Y1124704D01*
X52122Y1122301D01*
Y1122208D01*
X52030Y1122023D01*
X51845Y1121746D01*
X51660Y1121284D01*
X51105Y1120174D01*
X50273Y1118880D01*
X49256Y1117400D01*
X47962Y1115829D01*
X46483Y1114442D01*
X44726Y1113147D01*
X44633D01*
X44448Y1113055D01*
X44171Y1112870D01*
X43801Y1112685D01*
X43339Y1112500D01*
X42784Y1112223D01*
X41490Y1111668D01*
X39826Y1111113D01*
X37977Y1110651D01*
X35943Y1110281D01*
X33816Y1110189D01*
X33169D01*
X32614Y1110281D01*
X31967D01*
X31320Y1110374D01*
X29656Y1110744D01*
X27714Y1111206D01*
X25772Y1111945D01*
X23738Y1112962D01*
X22721Y1113517D01*
X21797Y1114257D01*
X21704Y1114349D01*
X21612Y1114442D01*
X21334Y1114719D01*
X20965Y1114996D01*
X20595Y1115459D01*
X20133Y1116014D01*
X19578Y1116568D01*
X19116Y1117308D01*
X18561Y1118140D01*
X17914Y1119065D01*
X17359Y1119989D01*
X16804Y1121099D01*
X16342Y1122301D01*
X15880Y1123595D01*
X15417Y1124982D01*
X15047Y1126461D01*
X6542Y1124335D01*
Y1124242D01*
X6634Y1123872D01*
X6819Y1123318D01*
X7096Y1122578D01*
X7374Y1121746D01*
X7743Y1120729D01*
X8206Y1119619D01*
X8760Y1118417D01*
X10055Y1115829D01*
X11719Y1113240D01*
X12736Y1111945D01*
X13753Y1110651D01*
X14863Y1109542D01*
X16157Y1108432D01*
X16249Y1108340D01*
X16434Y1108155D01*
X16897Y1107970D01*
X17359Y1107600D01*
X18099Y1107138D01*
X18838Y1106675D01*
X19855Y1106213D01*
X20872Y1105751D01*
X22074Y1105196D01*
X23369Y1104734D01*
X24755Y1104272D01*
X26235Y1103809D01*
X27806Y1103439D01*
X29471Y1103255D01*
X31227Y1103070D01*
X33076Y1102977D01*
X34093D01*
X34833Y1103070D01*
X35665D01*
X36682Y1103162D01*
X37792Y1103347D01*
X39086Y1103532D01*
X41767Y1103994D01*
X44541Y1104734D01*
X47315Y1105751D01*
X48609Y1106398D01*
X49903Y1107138D01*
X49996Y1107230D01*
X50181Y1107323D01*
X50551Y1107600D01*
X50920Y1107970D01*
X51475Y1108340D01*
X52122Y1108894D01*
X52862Y1109542D01*
X53602Y1110281D01*
X54341Y1111113D01*
X55173Y1111945D01*
X56838Y1114072D01*
X58409Y1116568D01*
X59796Y1119342D01*
Y1119434D01*
X59981Y1119712D01*
X60074Y1120174D01*
X60351Y1120729D01*
X60536Y1121468D01*
X60813Y1122393D01*
X61183Y1123410D01*
X61460Y1124519D01*
X61738Y1125721D01*
X62108Y1127108D01*
X62570Y1129974D01*
X62940Y1133210D01*
X63125Y1136539D01*
Y1137556D01*
X63032Y1138203D01*
Y1139128D01*
X62940Y1140052D01*
X62847Y1141254D01*
X62662Y1142456D01*
X62200Y1145137D01*
X61553Y1148096D01*
X60628Y1151054D01*
X59334Y1153920D01*
X59241Y1154013D01*
X59149Y1154290D01*
X58964Y1154660D01*
X58594Y1155122D01*
X58224Y1155770D01*
X57762Y1156509D01*
X56560Y1158173D01*
X54988Y1160023D01*
X53139Y1161872D01*
X51013Y1163721D01*
X48517Y1165293D01*
X48424Y1165385D01*
X48147Y1165477D01*
X47777Y1165662D01*
X47315Y1165940D01*
X46575Y1166217D01*
X45835Y1166494D01*
X44911Y1166864D01*
X43894Y1167234D01*
X42784Y1167604D01*
X41582Y1167974D01*
X38994Y1168529D01*
X36035Y1168991D01*
X32984Y1169176D01*
D02*
G37*
G36*
X-31550D02*
X-32475D01*
X-33122Y1169083D01*
X-33954Y1168991D01*
X-34971Y1168898D01*
X-35988Y1168806D01*
X-37190Y1168529D01*
X-39686Y1167974D01*
X-42460Y1167142D01*
X-43847Y1166587D01*
X-45141Y1165940D01*
X-46436Y1165108D01*
X-47730Y1164276D01*
X-47823Y1164183D01*
X-48008Y1164091D01*
X-48377Y1163813D01*
X-48840Y1163351D01*
X-49302Y1162889D01*
X-49949Y1162242D01*
X-50596Y1161502D01*
X-51336Y1160762D01*
X-52076Y1159838D01*
X-52815Y1158728D01*
X-53647Y1157619D01*
X-54387Y1156417D01*
X-55034Y1155030D01*
X-55774Y1153643D01*
X-56329Y1152164D01*
X-56883Y1150500D01*
X-48562Y1148558D01*
Y1148650D01*
X-48470Y1148835D01*
X-48285Y1149205D01*
X-48100Y1149667D01*
X-47915Y1150222D01*
X-47638Y1150962D01*
X-46898Y1152441D01*
X-45973Y1154105D01*
X-44864Y1155770D01*
X-43477Y1157341D01*
X-41998Y1158728D01*
X-41813Y1158913D01*
X-41258Y1159283D01*
X-40334Y1159745D01*
X-39132Y1160392D01*
X-37560Y1160947D01*
X-35803Y1161502D01*
X-33677Y1161872D01*
X-31365Y1161964D01*
X-30626D01*
X-30164Y1161872D01*
X-29516D01*
X-28777Y1161779D01*
X-27020Y1161502D01*
X-25078Y1161132D01*
X-23044Y1160485D01*
X-20918Y1159560D01*
X-18976Y1158358D01*
X-18884D01*
X-18791Y1158173D01*
X-18144Y1157711D01*
X-17312Y1156972D01*
X-16295Y1155862D01*
X-15093Y1154475D01*
X-13984Y1152903D01*
X-12967Y1150962D01*
X-12042Y1148835D01*
Y1148743D01*
X-11950Y1148558D01*
X-11857Y1148281D01*
X-11765Y1147818D01*
X-11580Y1147264D01*
X-11395Y1146616D01*
X-11118Y1145045D01*
X-10748Y1143196D01*
X-10378Y1141162D01*
X-10193Y1138943D01*
X-10101Y1136539D01*
Y1136446D01*
Y1136169D01*
Y1135707D01*
Y1135152D01*
X-10193Y1134505D01*
Y1133673D01*
X-10285Y1132748D01*
X-10378Y1131731D01*
X-10655Y1129512D01*
X-11118Y1127108D01*
X-11672Y1124704D01*
X-12412Y1122301D01*
Y1122208D01*
X-12504Y1122023D01*
X-12689Y1121746D01*
X-12874Y1121284D01*
X-13429Y1120174D01*
X-14261Y1118880D01*
X-15278Y1117400D01*
X-16572Y1115829D01*
X-18052Y1114442D01*
X-19808Y1113147D01*
X-19901D01*
X-20086Y1113055D01*
X-20363Y1112870D01*
X-20733Y1112685D01*
X-21195Y1112500D01*
X-21750Y1112223D01*
X-23044Y1111668D01*
X-24709Y1111113D01*
X-26558Y1110651D01*
X-28592Y1110281D01*
X-30718Y1110189D01*
X-31365D01*
X-31920Y1110281D01*
X-32567D01*
X-33215Y1110374D01*
X-34879Y1110744D01*
X-36820Y1111206D01*
X-38762Y1111945D01*
X-40796Y1112962D01*
X-41813Y1113517D01*
X-42738Y1114257D01*
X-42830Y1114349D01*
X-42922Y1114442D01*
X-43200Y1114719D01*
X-43570Y1114996D01*
X-43939Y1115459D01*
X-44402Y1116014D01*
X-44956Y1116568D01*
X-45419Y1117308D01*
X-45973Y1118140D01*
X-46621Y1119065D01*
X-47175Y1119989D01*
X-47730Y1121099D01*
X-48192Y1122301D01*
X-48655Y1123595D01*
X-49117Y1124982D01*
X-49487Y1126461D01*
X-57993Y1124335D01*
Y1124242D01*
X-57900Y1123872D01*
X-57715Y1123318D01*
X-57438Y1122578D01*
X-57161Y1121746D01*
X-56791Y1120729D01*
X-56329Y1119619D01*
X-55774Y1118417D01*
X-54479Y1115829D01*
X-52815Y1113240D01*
X-51798Y1111945D01*
X-50781Y1110651D01*
X-49672Y1109542D01*
X-48377Y1108432D01*
X-48285Y1108340D01*
X-48100Y1108155D01*
X-47638Y1107970D01*
X-47175Y1107600D01*
X-46436Y1107138D01*
X-45696Y1106675D01*
X-44679Y1106213D01*
X-43662Y1105751D01*
X-42460Y1105196D01*
X-41166Y1104734D01*
X-39779Y1104272D01*
X-38300Y1103809D01*
X-36728Y1103439D01*
X-35064Y1103255D01*
X-33307Y1103070D01*
X-31458Y1102977D01*
X-30441D01*
X-29701Y1103070D01*
X-28869D01*
X-27852Y1103162D01*
X-26743Y1103347D01*
X-25448Y1103532D01*
X-22767Y1103994D01*
X-19993Y1104734D01*
X-17220Y1105751D01*
X-15925Y1106398D01*
X-14631Y1107138D01*
X-14538Y1107230D01*
X-14354Y1107323D01*
X-13984Y1107600D01*
X-13614Y1107970D01*
X-13059Y1108340D01*
X-12412Y1108894D01*
X-11672Y1109542D01*
X-10933Y1110281D01*
X-10193Y1111113D01*
X-9361Y1111945D01*
X-7697Y1114072D01*
X-6125Y1116568D01*
X-4738Y1119342D01*
Y1119434D01*
X-4553Y1119712D01*
X-4461Y1120174D01*
X-4183Y1120729D01*
X-3998Y1121468D01*
X-3721Y1122393D01*
X-3351Y1123410D01*
X-3074Y1124519D01*
X-2797Y1125721D01*
X-2427Y1127108D01*
X-1964Y1129974D01*
X-1595Y1133210D01*
X-1410Y1136539D01*
Y1137556D01*
X-1502Y1138203D01*
Y1139128D01*
X-1595Y1140052D01*
X-1687Y1141254D01*
X-1872Y1142456D01*
X-2334Y1145137D01*
X-2981Y1148096D01*
X-3906Y1151054D01*
X-5200Y1153920D01*
X-5293Y1154013D01*
X-5385Y1154290D01*
X-5570Y1154660D01*
X-5940Y1155122D01*
X-6310Y1155770D01*
X-6772Y1156509D01*
X-7974Y1158173D01*
X-9546Y1160023D01*
X-11395Y1161872D01*
X-13521Y1163721D01*
X-16018Y1165293D01*
X-16110Y1165385D01*
X-16388Y1165477D01*
X-16757Y1165662D01*
X-17220Y1165940D01*
X-17959Y1166217D01*
X-18699Y1166494D01*
X-19624Y1166864D01*
X-20641Y1167234D01*
X-21750Y1167604D01*
X-22952Y1167974D01*
X-25541Y1168529D01*
X-28499Y1168991D01*
X-31550Y1169176D01*
D02*
G37*
G36*
X423241Y1168066D02*
X376920D01*
Y1160485D01*
X414735D01*
Y1140977D01*
X379324D01*
Y1133395D01*
X414735D01*
Y1111668D01*
X375441D01*
Y1104087D01*
X423241D01*
Y1168066D01*
D02*
G37*
G36*
X102881D02*
X93635D01*
X67470Y1104087D01*
X77085D01*
X84574Y1123502D01*
X111387D01*
X118321Y1104087D01*
X127289D01*
X102881Y1168066D01*
D02*
G37*
G36*
X-92941D02*
X-118089D01*
X-118736Y1167974D01*
X-119476D01*
X-121140Y1167789D01*
X-122989Y1167604D01*
X-124931Y1167234D01*
X-126872Y1166772D01*
X-128629Y1166125D01*
X-128722D01*
X-128814Y1166032D01*
X-129369Y1165755D01*
X-130201Y1165293D01*
X-131125Y1164645D01*
X-132235Y1163813D01*
X-133437Y1162796D01*
X-134546Y1161502D01*
X-135563Y1160115D01*
X-135656Y1159930D01*
X-135933Y1159375D01*
X-136395Y1158636D01*
X-136858Y1157526D01*
X-137320Y1156232D01*
X-137782Y1154845D01*
X-138060Y1153273D01*
X-138152Y1151702D01*
Y1151517D01*
Y1151054D01*
X-138060Y1150222D01*
X-137875Y1149205D01*
X-137597Y1148003D01*
X-137135Y1146709D01*
X-136580Y1145415D01*
X-135841Y1144028D01*
X-135748Y1143843D01*
X-135471Y1143473D01*
X-134916Y1142733D01*
X-134177Y1141994D01*
X-133252Y1141069D01*
X-132142Y1140052D01*
X-130756Y1139128D01*
X-129184Y1138203D01*
X-129276D01*
X-129461Y1138110D01*
X-129739Y1138018D01*
X-130108Y1137833D01*
X-131218Y1137463D01*
X-132512Y1136816D01*
X-133899Y1135984D01*
X-135471Y1134967D01*
X-136858Y1133765D01*
X-138152Y1132286D01*
X-138245Y1132101D01*
X-138614Y1131546D01*
X-139169Y1130714D01*
X-139724Y1129605D01*
X-140279Y1128125D01*
X-140833Y1126553D01*
X-141203Y1124704D01*
X-141296Y1122670D01*
Y1121931D01*
X-141203Y1121006D01*
X-141018Y1119897D01*
X-140833Y1118602D01*
X-140464Y1117215D01*
X-140001Y1115736D01*
X-139354Y1114257D01*
X-139262Y1114072D01*
X-138984Y1113610D01*
X-138614Y1112962D01*
X-138060Y1112038D01*
X-137320Y1111113D01*
X-136580Y1110096D01*
X-135656Y1109079D01*
X-134639Y1108247D01*
X-134546Y1108155D01*
X-134177Y1107877D01*
X-133529Y1107508D01*
X-132697Y1107138D01*
X-131680Y1106583D01*
X-130478Y1106028D01*
X-129184Y1105566D01*
X-127612Y1105104D01*
X-127427D01*
X-126872Y1104919D01*
X-125948Y1104826D01*
X-124746Y1104641D01*
X-123267Y1104457D01*
X-121510Y1104272D01*
X-119568Y1104179D01*
X-117350Y1104087D01*
X-92941D01*
Y1168066D01*
D02*
G37*
G36*
X-268423Y1151517D02*
X-269070D01*
X-269902Y1151424D01*
X-270919Y1151239D01*
X-272121Y1150869D01*
X-273415Y1150407D01*
X-274895Y1149760D01*
X-276466Y1148928D01*
X-273600Y1141716D01*
X-273508Y1141809D01*
X-273138Y1141994D01*
X-272583Y1142271D01*
X-271844Y1142548D01*
X-271011Y1142826D01*
X-269994Y1143103D01*
X-268977Y1143288D01*
X-267960Y1143380D01*
X-267498D01*
X-267036Y1143288D01*
X-266389Y1143196D01*
X-265741Y1143011D01*
X-264909Y1142733D01*
X-264077Y1142363D01*
X-263338Y1141809D01*
X-263245Y1141716D01*
X-262968Y1141531D01*
X-262690Y1141162D01*
X-262228Y1140699D01*
X-261766Y1140052D01*
X-261304Y1139312D01*
X-260841Y1138480D01*
X-260471Y1137463D01*
X-260379Y1137278D01*
X-260286Y1136724D01*
X-260102Y1135892D01*
X-259824Y1134782D01*
X-259547Y1133395D01*
X-259362Y1131823D01*
X-259269Y1130159D01*
X-259177Y1128310D01*
Y1104087D01*
X-251318D01*
Y1150500D01*
X-258437D01*
Y1143473D01*
X-258530Y1143565D01*
X-258900Y1144213D01*
X-259362Y1145045D01*
X-260102Y1146062D01*
X-260841Y1147079D01*
X-261673Y1148188D01*
X-262505Y1149113D01*
X-263338Y1149852D01*
X-263430Y1149945D01*
X-263707Y1150130D01*
X-264262Y1150407D01*
X-264817Y1150685D01*
X-265556Y1150962D01*
X-266481Y1151239D01*
X-267406Y1151424D01*
X-268423Y1151517D01*
D02*
G37*
G36*
X-170697D02*
X-171621D01*
X-172268Y1151424D01*
X-173100Y1151332D01*
X-174025Y1151147D01*
X-175042Y1150962D01*
X-176244Y1150777D01*
X-178740Y1149945D01*
X-180035Y1149483D01*
X-181329Y1148835D01*
X-182623Y1148188D01*
X-183918Y1147264D01*
X-185120Y1146339D01*
X-186322Y1145230D01*
X-186414Y1145137D01*
X-186599Y1144952D01*
X-186876Y1144582D01*
X-187246Y1144120D01*
X-187709Y1143473D01*
X-188263Y1142641D01*
X-188818Y1141716D01*
X-189373Y1140699D01*
X-189927Y1139590D01*
X-190482Y1138203D01*
X-191037Y1136816D01*
X-191499Y1135244D01*
X-191869Y1133580D01*
X-192146Y1131823D01*
X-192331Y1129974D01*
X-192424Y1127940D01*
Y1126461D01*
X-192331Y1125721D01*
X-192239Y1124797D01*
Y1123872D01*
X-192054Y1122855D01*
X-191777Y1120544D01*
X-191222Y1118232D01*
X-190575Y1115921D01*
X-189650Y1113795D01*
Y1113702D01*
X-189558Y1113610D01*
X-189373Y1113332D01*
X-189188Y1112962D01*
X-188541Y1112038D01*
X-187709Y1110928D01*
X-186599Y1109634D01*
X-185212Y1108340D01*
X-183640Y1107045D01*
X-181791Y1105843D01*
X-181699D01*
X-181606Y1105751D01*
X-181329Y1105566D01*
X-180867Y1105381D01*
X-180405Y1105196D01*
X-179850Y1105011D01*
X-178463Y1104457D01*
X-176891Y1103994D01*
X-174950Y1103532D01*
X-172916Y1103162D01*
X-170697Y1103070D01*
X-169772D01*
X-169032Y1103162D01*
X-168200Y1103255D01*
X-167276Y1103439D01*
X-166166Y1103624D01*
X-165057Y1103809D01*
X-162561Y1104549D01*
X-161174Y1105104D01*
X-159879Y1105658D01*
X-158585Y1106398D01*
X-157291Y1107230D01*
X-156089Y1108155D01*
X-154887Y1109264D01*
X-154794Y1109357D01*
X-154609Y1109542D01*
X-154332Y1109911D01*
X-153962Y1110466D01*
X-153500Y1111113D01*
X-153038Y1111853D01*
X-152483Y1112778D01*
X-151928Y1113887D01*
X-151373Y1115089D01*
X-150819Y1116476D01*
X-150356Y1117955D01*
X-149894Y1119527D01*
X-149524Y1121284D01*
X-149247Y1123133D01*
X-149062Y1125167D01*
X-148969Y1127293D01*
Y1127848D01*
X-149062Y1128495D01*
Y1129420D01*
X-149154Y1130437D01*
X-149339Y1131731D01*
X-149524Y1133025D01*
X-149894Y1134505D01*
X-150264Y1135984D01*
X-150726Y1137556D01*
X-151281Y1139220D01*
X-152021Y1140792D01*
X-152760Y1142271D01*
X-153777Y1143750D01*
X-154794Y1145137D01*
X-156089Y1146339D01*
X-156181Y1146432D01*
X-156366Y1146524D01*
X-156736Y1146801D01*
X-157198Y1147171D01*
X-157753Y1147541D01*
X-158492Y1148003D01*
X-159232Y1148466D01*
X-160157Y1148928D01*
X-161174Y1149390D01*
X-162283Y1149852D01*
X-164779Y1150685D01*
X-167646Y1151332D01*
X-169125Y1151424D01*
X-170697Y1151517D01*
D02*
G37*
G36*
X-310583Y1168066D02*
X-318441D01*
Y1104087D01*
X-311137D01*
Y1109911D01*
X-311045Y1109819D01*
X-310952Y1109634D01*
X-310675Y1109264D01*
X-310305Y1108802D01*
X-309843Y1108340D01*
X-309288Y1107785D01*
X-308641Y1107138D01*
X-307809Y1106491D01*
X-306977Y1105843D01*
X-306052Y1105196D01*
X-304943Y1104641D01*
X-303741Y1104179D01*
X-302539Y1103717D01*
X-301152Y1103347D01*
X-299673Y1103162D01*
X-298101Y1103070D01*
X-297546D01*
X-297176Y1103162D01*
X-296067Y1103255D01*
X-294773Y1103439D01*
X-293201Y1103809D01*
X-291444Y1104364D01*
X-289688Y1105104D01*
X-287931Y1106121D01*
X-287838D01*
X-287746Y1106306D01*
X-287191Y1106675D01*
X-286359Y1107415D01*
X-285342Y1108340D01*
X-284140Y1109542D01*
X-282938Y1111021D01*
X-281736Y1112685D01*
X-280719Y1114627D01*
Y1114719D01*
X-280627Y1114904D01*
X-280534Y1115181D01*
X-280349Y1115551D01*
X-280165Y1116106D01*
X-279887Y1116753D01*
X-279702Y1117400D01*
X-279517Y1118232D01*
X-279055Y1120082D01*
X-278593Y1122208D01*
X-278315Y1124612D01*
X-278223Y1127201D01*
Y1128403D01*
X-278315Y1128957D01*
Y1129697D01*
X-278500Y1131361D01*
X-278778Y1133303D01*
X-279240Y1135429D01*
X-279795Y1137648D01*
X-280534Y1139775D01*
Y1139867D01*
X-280627Y1140052D01*
X-280812Y1140329D01*
X-280997Y1140699D01*
X-281551Y1141716D01*
X-282291Y1143011D01*
X-283216Y1144398D01*
X-284418Y1145784D01*
X-285804Y1147264D01*
X-287469Y1148466D01*
X-287561D01*
X-287653Y1148558D01*
X-287931Y1148743D01*
X-288301Y1148928D01*
X-289225Y1149390D01*
X-290520Y1150037D01*
X-291999Y1150592D01*
X-293756Y1151054D01*
X-295697Y1151424D01*
X-297731Y1151517D01*
X-298471D01*
X-299210Y1151424D01*
X-300227Y1151332D01*
X-301429Y1151054D01*
X-302724Y1150777D01*
X-304018Y1150315D01*
X-305220Y1149667D01*
X-305405Y1149575D01*
X-305775Y1149390D01*
X-306330Y1148928D01*
X-307069Y1148466D01*
X-307994Y1147818D01*
X-308826Y1146986D01*
X-309750Y1146154D01*
X-310583Y1145137D01*
Y1168066D01*
D02*
G37*
%LPD*%
G36*
X-231163Y1127293D02*
X-230885Y1127201D01*
X-230516Y1127108D01*
X-230053Y1126923D01*
X-229499Y1126738D01*
X-228851Y1126553D01*
X-228112Y1126369D01*
X-227280Y1126091D01*
X-226263Y1125906D01*
X-225246Y1125629D01*
X-224044Y1125352D01*
X-222749Y1125074D01*
X-221455Y1124797D01*
X-219976Y1124612D01*
X-218404Y1124335D01*
X-218219D01*
X-217664Y1124242D01*
X-216740Y1124057D01*
X-215723Y1123872D01*
X-214613Y1123687D01*
X-213504Y1123410D01*
X-212487Y1123133D01*
X-211562Y1122763D01*
X-211470D01*
X-211192Y1122578D01*
X-210823Y1122393D01*
X-210453Y1122116D01*
X-209343Y1121376D01*
X-208419Y1120266D01*
Y1120174D01*
X-208234Y1119989D01*
X-208141Y1119619D01*
X-207956Y1119157D01*
X-207771Y1118602D01*
X-207587Y1118048D01*
X-207494Y1117308D01*
X-207402Y1116568D01*
Y1116476D01*
Y1116014D01*
X-207494Y1115459D01*
X-207679Y1114719D01*
X-207956Y1113887D01*
X-208419Y1113055D01*
X-208973Y1112130D01*
X-209713Y1111298D01*
X-209806Y1111206D01*
X-210175Y1111021D01*
X-210730Y1110651D01*
X-211470Y1110281D01*
X-212487Y1109911D01*
X-213689Y1109542D01*
X-215076Y1109357D01*
X-216740Y1109264D01*
X-217479D01*
X-218404Y1109357D01*
X-219421Y1109542D01*
X-220715Y1109727D01*
X-222010Y1110096D01*
X-223397Y1110559D01*
X-224783Y1111206D01*
X-224968Y1111298D01*
X-225338Y1111576D01*
X-225985Y1112038D01*
X-226725Y1112685D01*
X-227557Y1113425D01*
X-228482Y1114349D01*
X-229221Y1115459D01*
X-229961Y1116661D01*
X-230053Y1116753D01*
X-230146Y1117123D01*
X-230331Y1117770D01*
X-230608Y1118602D01*
X-230885Y1119712D01*
X-231070Y1121006D01*
X-231163Y1122578D01*
X-231255Y1124427D01*
X-231348Y1127386D01*
X-231255D01*
X-231163Y1127293D01*
D02*
G37*
G36*
X185536Y1162611D02*
X186276Y1162426D01*
X187108Y1162149D01*
X187940Y1161779D01*
X188865Y1161317D01*
X189697Y1160577D01*
X189789Y1160485D01*
X190067Y1160207D01*
X190344Y1159745D01*
X190714Y1159190D01*
X191176Y1158451D01*
X191454Y1157619D01*
X191731Y1156694D01*
X191823Y1155585D01*
Y1155492D01*
Y1155307D01*
Y1155030D01*
X191731Y1154660D01*
X191546Y1153643D01*
X191084Y1152441D01*
Y1152349D01*
X190899Y1152164D01*
X190806Y1151794D01*
X190529Y1151424D01*
X189789Y1150222D01*
X188772Y1148928D01*
X185351Y1144860D01*
X185259D01*
X185167Y1144952D01*
X184889Y1145137D01*
X184519Y1145415D01*
X183595Y1145969D01*
X182578Y1146709D01*
X181468Y1147449D01*
X180359Y1148373D01*
X179342Y1149298D01*
X178602Y1150130D01*
X178510Y1150222D01*
X178325Y1150500D01*
X178140Y1151054D01*
X177770Y1151609D01*
X177493Y1152349D01*
X177308Y1153273D01*
X177123Y1154198D01*
X177030Y1155215D01*
Y1155400D01*
Y1155770D01*
X177123Y1156417D01*
X177308Y1157156D01*
X177585Y1157989D01*
X177955Y1158913D01*
X178417Y1159745D01*
X179157Y1160577D01*
X179249Y1160670D01*
X179527Y1160947D01*
X179989Y1161224D01*
X180636Y1161687D01*
X181376Y1162057D01*
X182300Y1162334D01*
X183317Y1162611D01*
X184427Y1162704D01*
X184982D01*
X185536Y1162611D01*
D02*
G37*
G36*
X188865Y1135522D02*
X189142Y1135337D01*
X189604Y1135059D01*
X190714Y1134320D01*
X192008Y1133395D01*
X193395Y1132286D01*
X194782Y1131084D01*
X196076Y1129882D01*
X196631Y1129235D01*
X197093Y1128588D01*
X197186Y1128403D01*
X197463Y1128033D01*
X197833Y1127386D01*
X198203Y1126553D01*
X198573Y1125629D01*
X198942Y1124519D01*
X199220Y1123410D01*
X199312Y1122208D01*
Y1122023D01*
X199220Y1121561D01*
X199127Y1120729D01*
X198942Y1119712D01*
X198573Y1118510D01*
X198018Y1117215D01*
X197278Y1115736D01*
X196261Y1114164D01*
X196076Y1113979D01*
X195706Y1113517D01*
X194967Y1112870D01*
X194042Y1112130D01*
X192840Y1111298D01*
X191269Y1110651D01*
X189604Y1110189D01*
X188587Y1110096D01*
X187570Y1110004D01*
X186923D01*
X186276Y1110096D01*
X185259Y1110281D01*
X184242Y1110559D01*
X182948Y1110928D01*
X181653Y1111391D01*
X180266Y1112130D01*
X180081Y1112223D01*
X179619Y1112500D01*
X178972Y1113055D01*
X178047Y1113702D01*
X177123Y1114442D01*
X176106Y1115459D01*
X175181Y1116568D01*
X174257Y1117770D01*
X188587Y1135707D01*
X188680D01*
X188865Y1135522D01*
D02*
G37*
G36*
X98443Y1161317D02*
X98535Y1161132D01*
Y1160762D01*
X98720Y1160392D01*
X98813Y1159745D01*
X98998Y1159098D01*
X99367Y1157526D01*
X99830Y1155677D01*
X100477Y1153643D01*
X101124Y1151424D01*
X101956Y1149113D01*
X108890Y1130437D01*
X87256D01*
X93912Y1148003D01*
Y1148096D01*
X94005Y1148373D01*
X94190Y1148835D01*
X94375Y1149390D01*
X94652Y1150037D01*
X94929Y1150869D01*
X95207Y1151794D01*
X95577Y1152719D01*
X96316Y1154845D01*
X97056Y1157064D01*
X97796Y1159283D01*
X98443Y1161409D01*
Y1161317D01*
D02*
G37*
G36*
X-101447Y1141254D02*
X-117165D01*
X-118367Y1141346D01*
X-119661Y1141439D01*
X-120955Y1141531D01*
X-122250Y1141716D01*
X-123267Y1141901D01*
X-123452Y1141994D01*
X-123821Y1142086D01*
X-124376Y1142363D01*
X-125116Y1142733D01*
X-125855Y1143103D01*
X-126688Y1143658D01*
X-127520Y1144398D01*
X-128167Y1145137D01*
X-128259Y1145230D01*
X-128444Y1145507D01*
X-128722Y1146062D01*
X-128999Y1146709D01*
X-129276Y1147449D01*
X-129554Y1148373D01*
X-129739Y1149483D01*
X-129831Y1150685D01*
Y1150869D01*
Y1151239D01*
X-129739Y1151794D01*
X-129646Y1152534D01*
X-129461Y1153458D01*
X-129184Y1154383D01*
X-128814Y1155307D01*
X-128259Y1156232D01*
X-128167Y1156324D01*
X-127982Y1156602D01*
X-127612Y1157064D01*
X-127150Y1157526D01*
X-126503Y1158081D01*
X-125763Y1158636D01*
X-124838Y1159190D01*
X-123821Y1159560D01*
X-123729D01*
X-123267Y1159745D01*
X-122620Y1159838D01*
X-121602Y1160023D01*
X-120216Y1160207D01*
X-118644Y1160300D01*
X-116610Y1160485D01*
X-101447D01*
Y1141254D01*
D02*
G37*
G36*
Y1111668D02*
X-119661D01*
X-121602Y1111761D01*
X-122435Y1111853D01*
X-123174Y1111945D01*
X-123267D01*
X-123637Y1112038D01*
X-124191Y1112130D01*
X-124838Y1112315D01*
X-126410Y1112870D01*
X-127982Y1113610D01*
X-128074Y1113702D01*
X-128352Y1113887D01*
X-128722Y1114164D01*
X-129184Y1114534D01*
X-129646Y1115089D01*
X-130293Y1115644D01*
X-130756Y1116383D01*
X-131310Y1117215D01*
X-131403Y1117308D01*
X-131495Y1117585D01*
X-131680Y1118140D01*
X-131958Y1118787D01*
X-132235Y1119527D01*
X-132420Y1120451D01*
X-132512Y1121561D01*
X-132605Y1122670D01*
Y1122855D01*
Y1123225D01*
X-132512Y1123965D01*
X-132327Y1124797D01*
X-132142Y1125721D01*
X-131773Y1126738D01*
X-131310Y1127755D01*
X-130663Y1128772D01*
X-130571Y1128865D01*
X-130293Y1129235D01*
X-129924Y1129697D01*
X-129369Y1130252D01*
X-128629Y1130899D01*
X-127705Y1131546D01*
X-126688Y1132101D01*
X-125486Y1132563D01*
X-125301Y1132656D01*
X-124931Y1132748D01*
X-124099Y1132933D01*
X-123082Y1133118D01*
X-121787Y1133303D01*
X-120216Y1133488D01*
X-118274Y1133673D01*
X-101447D01*
Y1111668D01*
D02*
G37*
G36*
X-169680Y1144952D02*
X-168663Y1144860D01*
X-167276Y1144490D01*
X-165704Y1143935D01*
X-164040Y1143196D01*
X-162468Y1142086D01*
X-161636Y1141346D01*
X-160896Y1140607D01*
Y1140514D01*
X-160711Y1140422D01*
X-160526Y1140145D01*
X-160249Y1139775D01*
X-159972Y1139312D01*
X-159694Y1138758D01*
X-159325Y1138018D01*
X-158955Y1137278D01*
X-158585Y1136354D01*
X-158215Y1135429D01*
X-157938Y1134320D01*
X-157660Y1133118D01*
X-157383Y1131823D01*
X-157198Y1130437D01*
X-157106Y1128865D01*
X-157013Y1127293D01*
Y1127201D01*
Y1126923D01*
Y1126461D01*
X-157106Y1125814D01*
Y1125074D01*
X-157198Y1124242D01*
X-157475Y1122301D01*
X-157938Y1120082D01*
X-158677Y1117863D01*
X-159602Y1115736D01*
X-160249Y1114812D01*
X-160896Y1113887D01*
X-160989D01*
X-161081Y1113702D01*
X-161636Y1113240D01*
X-162468Y1112500D01*
X-163578Y1111761D01*
X-164964Y1110928D01*
X-166629Y1110189D01*
X-168570Y1109727D01*
X-169587Y1109634D01*
X-170697Y1109542D01*
X-171251D01*
X-171714Y1109634D01*
X-172731Y1109819D01*
X-174118Y1110096D01*
X-175597Y1110651D01*
X-177261Y1111391D01*
X-178833Y1112500D01*
X-179665Y1113240D01*
X-180405Y1113979D01*
X-180497Y1114072D01*
X-180589Y1114164D01*
X-180774Y1114442D01*
X-181052Y1114812D01*
X-181329Y1115274D01*
X-181699Y1115829D01*
X-182069Y1116568D01*
X-182439Y1117308D01*
X-182808Y1118232D01*
X-183086Y1119249D01*
X-183456Y1120359D01*
X-183733Y1121561D01*
X-184010Y1122948D01*
X-184195Y1124335D01*
X-184380Y1125906D01*
Y1127571D01*
Y1127663D01*
Y1127940D01*
Y1128403D01*
X-184288Y1128957D01*
Y1129697D01*
X-184195Y1130529D01*
X-183918Y1132471D01*
X-183456Y1134505D01*
X-182716Y1136724D01*
X-181699Y1138758D01*
X-181144Y1139775D01*
X-180405Y1140607D01*
Y1140699D01*
X-180220Y1140792D01*
X-179665Y1141346D01*
X-178833Y1141994D01*
X-177723Y1142826D01*
X-176336Y1143658D01*
X-174672Y1144398D01*
X-172823Y1144860D01*
X-171806Y1144952D01*
X-170697Y1145045D01*
X-170142D01*
X-169680Y1144952D01*
D02*
G37*
G36*
X-297731D02*
X-296714Y1144860D01*
X-295512Y1144490D01*
X-294125Y1144028D01*
X-292646Y1143196D01*
X-291167Y1142179D01*
X-290427Y1141439D01*
X-289780Y1140699D01*
Y1140607D01*
X-289595Y1140514D01*
X-289503Y1140237D01*
X-289225Y1139867D01*
X-288948Y1139405D01*
X-288670Y1138850D01*
X-288393Y1138203D01*
X-288023Y1137463D01*
X-287653Y1136539D01*
X-287376Y1135522D01*
X-287099Y1134412D01*
X-286821Y1133210D01*
X-286636Y1131916D01*
X-286452Y1130437D01*
X-286267Y1128865D01*
Y1127201D01*
Y1127108D01*
Y1126831D01*
Y1126369D01*
X-286359Y1125721D01*
Y1124982D01*
X-286452Y1124150D01*
X-286729Y1122208D01*
X-287191Y1120082D01*
X-287838Y1117863D01*
X-288763Y1115736D01*
X-289318Y1114812D01*
X-289965Y1113887D01*
X-290057D01*
X-290150Y1113702D01*
X-290612Y1113240D01*
X-291444Y1112500D01*
X-292461Y1111761D01*
X-293756Y1110928D01*
X-295327Y1110189D01*
X-296992Y1109727D01*
X-297916Y1109634D01*
X-298841Y1109542D01*
X-299303D01*
X-299673Y1109634D01*
X-300690Y1109727D01*
X-301892Y1110096D01*
X-303279Y1110559D01*
X-304758Y1111298D01*
X-306237Y1112315D01*
X-306977Y1112962D01*
X-307624Y1113702D01*
Y1113795D01*
X-307809Y1113887D01*
X-307994Y1114164D01*
X-308179Y1114534D01*
X-308456Y1114996D01*
X-308826Y1115459D01*
X-309103Y1116198D01*
X-309473Y1116938D01*
X-309843Y1117770D01*
X-310120Y1118695D01*
X-310490Y1119804D01*
X-310767Y1120914D01*
X-310952Y1122208D01*
X-311137Y1123502D01*
X-311322Y1124982D01*
Y1126553D01*
Y1126646D01*
Y1127016D01*
Y1127478D01*
X-311230Y1128125D01*
Y1128865D01*
X-311137Y1129789D01*
X-311045Y1130806D01*
X-310860Y1131916D01*
X-310398Y1134135D01*
X-309750Y1136446D01*
X-308826Y1138665D01*
X-308271Y1139590D01*
X-307624Y1140514D01*
Y1140607D01*
X-307439Y1140699D01*
X-306977Y1141254D01*
X-306145Y1141994D01*
X-305128Y1142826D01*
X-303833Y1143658D01*
X-302262Y1144305D01*
X-300505Y1144860D01*
X-299580Y1144952D01*
X-298563Y1145045D01*
X-298101D01*
X-297731Y1144952D01*
D02*
G37*
%LPC*%
G36*
X78368Y1011147D02*
X77351D01*
X76334Y1011054D01*
X74947Y1010962D01*
X73376Y1010777D01*
X71804Y1010500D01*
X70232Y1010130D01*
X68753Y1009668D01*
X68568Y1009575D01*
X68106Y1009390D01*
X67458Y1009113D01*
X66626Y1008743D01*
X65702Y1008188D01*
X64777Y1007633D01*
X63945Y1006894D01*
X63205Y1006154D01*
X63113Y1006062D01*
X62928Y1005784D01*
X62651Y1005322D01*
X62281Y1004767D01*
X61819Y1003935D01*
X61449Y1003103D01*
X61079Y1002086D01*
X60802Y1000884D01*
Y1000792D01*
X60709Y1000514D01*
X60617Y999960D01*
X60524Y999220D01*
Y998203D01*
X60432Y997001D01*
X60339Y995429D01*
Y993673D01*
Y983133D01*
Y983040D01*
Y982670D01*
Y982116D01*
Y981376D01*
Y980544D01*
Y979527D01*
X60247Y977308D01*
Y974997D01*
X60154Y972685D01*
X60062Y971668D01*
Y970744D01*
X59969Y969911D01*
X59877Y969264D01*
Y969172D01*
X59784Y968802D01*
X59692Y968247D01*
X59415Y967508D01*
X59230Y966675D01*
X58860Y965751D01*
X58398Y964734D01*
X57935Y963717D01*
X66164D01*
X66256Y963809D01*
X66349Y964179D01*
X66534Y964641D01*
X66811Y965381D01*
X67089Y966213D01*
X67273Y967230D01*
X67458Y968340D01*
X67643Y969542D01*
X67736D01*
X67828Y969357D01*
X68383Y968894D01*
X69215Y968247D01*
X70324Y967415D01*
X71711Y966583D01*
X73098Y965658D01*
X74577Y964826D01*
X76149Y964179D01*
X76334Y964087D01*
X76889Y963994D01*
X77721Y963717D01*
X78738Y963440D01*
X80032Y963162D01*
X81512Y962977D01*
X83176Y962792D01*
X84840Y962700D01*
X85580D01*
X86134Y962792D01*
X86782D01*
X87521Y962885D01*
X89185Y963162D01*
X91035Y963624D01*
X93069Y964272D01*
X94918Y965196D01*
X96582Y966398D01*
X96767Y966583D01*
X97229Y967045D01*
X97876Y967877D01*
X98616Y968987D01*
X99356Y970374D01*
X100003Y971945D01*
X100465Y973887D01*
X100558Y974812D01*
X100650Y975921D01*
Y976476D01*
X100558Y977123D01*
X100465Y977955D01*
X100280Y978972D01*
X100003Y979989D01*
X99633Y981099D01*
X99171Y982116D01*
X99078Y982208D01*
X98893Y982578D01*
X98524Y983133D01*
X98061Y983780D01*
X97507Y984519D01*
X96767Y985259D01*
X96027Y985999D01*
X95103Y986646D01*
X95010Y986738D01*
X94640Y986923D01*
X94178Y987293D01*
X93438Y987663D01*
X92606Y988033D01*
X91589Y988495D01*
X90572Y988865D01*
X89370Y989235D01*
X89278D01*
X88908Y989327D01*
X88353Y989512D01*
X87614Y989605D01*
X86689Y989789D01*
X85487Y989974D01*
X84100Y990252D01*
X82436Y990437D01*
X82344D01*
X81974Y990529D01*
X81512D01*
X80864Y990622D01*
X80125Y990714D01*
X79200Y990899D01*
X78183Y990991D01*
X77074Y991176D01*
X74855Y991639D01*
X72451Y992101D01*
X70324Y992656D01*
X69307Y992933D01*
X68383Y993210D01*
Y993303D01*
Y993488D01*
X68290Y994042D01*
Y994690D01*
Y995059D01*
Y995244D01*
Y995337D01*
Y995429D01*
Y995984D01*
X68383Y996909D01*
X68568Y997926D01*
X68845Y999035D01*
X69307Y1000145D01*
X69862Y1001162D01*
X70602Y1001994D01*
X70694Y1002086D01*
X71157Y1002456D01*
X71896Y1002826D01*
X72821Y1003381D01*
X74115Y1003843D01*
X75594Y1004305D01*
X77444Y1004582D01*
X79570Y1004675D01*
X80495D01*
X81419Y1004582D01*
X82714Y1004398D01*
X84008Y1004213D01*
X85395Y1003843D01*
X86689Y1003381D01*
X87799Y1002733D01*
X87891Y1002641D01*
X88261Y1002364D01*
X88723Y1001901D01*
X89278Y1001162D01*
X89833Y1000237D01*
X90480Y999035D01*
X91035Y997556D01*
X91589Y995892D01*
X99263Y996909D01*
Y997001D01*
X99171Y997094D01*
Y997371D01*
X99078Y997741D01*
X98801Y998573D01*
X98431Y999775D01*
X97969Y1000977D01*
X97414Y1002271D01*
X96674Y1003565D01*
X95842Y1004767D01*
X95750Y1004860D01*
X95380Y1005230D01*
X94825Y1005784D01*
X94086Y1006524D01*
X93069Y1007264D01*
X91867Y1008003D01*
X90480Y1008835D01*
X88908Y1009483D01*
X88816D01*
X88723Y1009575D01*
X88446Y1009668D01*
X88076Y1009760D01*
X87151Y1010037D01*
X85857Y1010315D01*
X84378Y1010592D01*
X82529Y1010869D01*
X80587Y1011054D01*
X78368Y1011147D01*
D02*
G37*
G36*
X-1144D02*
X-2161D01*
X-3178Y1011054D01*
X-4565Y1010962D01*
X-6137Y1010777D01*
X-7708Y1010500D01*
X-9280Y1010130D01*
X-10759Y1009668D01*
X-10944Y1009575D01*
X-11407Y1009390D01*
X-12054Y1009113D01*
X-12886Y1008743D01*
X-13810Y1008188D01*
X-14735Y1007633D01*
X-15567Y1006894D01*
X-16307Y1006154D01*
X-16399Y1006062D01*
X-16584Y1005784D01*
X-16862Y1005322D01*
X-17231Y1004767D01*
X-17694Y1003935D01*
X-18063Y1003103D01*
X-18433Y1002086D01*
X-18711Y1000884D01*
Y1000792D01*
X-18803Y1000514D01*
X-18896Y999960D01*
X-18988Y999220D01*
Y998203D01*
X-19080Y997001D01*
X-19173Y995429D01*
Y993673D01*
Y983133D01*
Y983040D01*
Y982670D01*
Y982116D01*
Y981376D01*
Y980544D01*
Y979527D01*
X-19265Y977308D01*
Y974997D01*
X-19358Y972685D01*
X-19450Y971668D01*
Y970744D01*
X-19543Y969911D01*
X-19635Y969264D01*
Y969172D01*
X-19728Y968802D01*
X-19820Y968247D01*
X-20097Y967508D01*
X-20282Y966675D01*
X-20652Y965751D01*
X-21115Y964734D01*
X-21577Y963717D01*
X-13348D01*
X-13256Y963809D01*
X-13163Y964179D01*
X-12978Y964641D01*
X-12701Y965381D01*
X-12424Y966213D01*
X-12239Y967230D01*
X-12054Y968340D01*
X-11869Y969542D01*
X-11776D01*
X-11684Y969357D01*
X-11129Y968894D01*
X-10297Y968247D01*
X-9188Y967415D01*
X-7801Y966583D01*
X-6414Y965658D01*
X-4935Y964826D01*
X-3363Y964179D01*
X-3178Y964087D01*
X-2623Y963994D01*
X-1791Y963717D01*
X-774Y963440D01*
X520Y963162D01*
X1999Y962977D01*
X3664Y962792D01*
X5328Y962700D01*
X6068D01*
X6622Y962792D01*
X7269D01*
X8009Y962885D01*
X9673Y963162D01*
X11522Y963624D01*
X13556Y964272D01*
X15406Y965196D01*
X17070Y966398D01*
X17255Y966583D01*
X17717Y967045D01*
X18364Y967877D01*
X19104Y968987D01*
X19843Y970374D01*
X20491Y971945D01*
X20953Y973887D01*
X21045Y974812D01*
X21138Y975921D01*
Y976476D01*
X21045Y977123D01*
X20953Y977955D01*
X20768Y978972D01*
X20491Y979989D01*
X20121Y981099D01*
X19659Y982116D01*
X19566Y982208D01*
X19381Y982578D01*
X19011Y983133D01*
X18549Y983780D01*
X17994Y984519D01*
X17255Y985259D01*
X16515Y985999D01*
X15591Y986646D01*
X15498Y986738D01*
X15128Y986923D01*
X14666Y987293D01*
X13926Y987663D01*
X13094Y988033D01*
X12077Y988495D01*
X11060Y988865D01*
X9858Y989235D01*
X9766D01*
X9396Y989327D01*
X8841Y989512D01*
X8102Y989605D01*
X7177Y989789D01*
X5975Y989974D01*
X4588Y990252D01*
X2924Y990437D01*
X2832D01*
X2462Y990529D01*
X1999D01*
X1352Y990622D01*
X613Y990714D01*
X-312Y990899D01*
X-1329Y990991D01*
X-2438Y991176D01*
X-4657Y991639D01*
X-7061Y992101D01*
X-9188Y992656D01*
X-10205Y992933D01*
X-11129Y993210D01*
Y993303D01*
Y993488D01*
X-11222Y994042D01*
Y994690D01*
Y995059D01*
Y995244D01*
Y995337D01*
Y995429D01*
Y995984D01*
X-11129Y996909D01*
X-10944Y997926D01*
X-10667Y999035D01*
X-10205Y1000145D01*
X-9650Y1001162D01*
X-8910Y1001994D01*
X-8818Y1002086D01*
X-8356Y1002456D01*
X-7616Y1002826D01*
X-6691Y1003381D01*
X-5397Y1003843D01*
X-3918Y1004305D01*
X-2069Y1004582D01*
X58Y1004675D01*
X982D01*
X1907Y1004582D01*
X3201Y1004398D01*
X4496Y1004213D01*
X5883Y1003843D01*
X7177Y1003381D01*
X8286Y1002733D01*
X8379Y1002641D01*
X8749Y1002364D01*
X9211Y1001901D01*
X9766Y1001162D01*
X10321Y1000237D01*
X10968Y999035D01*
X11522Y997556D01*
X12077Y995892D01*
X19751Y996909D01*
Y997001D01*
X19659Y997094D01*
Y997371D01*
X19566Y997741D01*
X19289Y998573D01*
X18919Y999775D01*
X18457Y1000977D01*
X17902Y1002271D01*
X17162Y1003565D01*
X16330Y1004767D01*
X16238Y1004860D01*
X15868Y1005230D01*
X15313Y1005784D01*
X14574Y1006524D01*
X13556Y1007264D01*
X12355Y1008003D01*
X10968Y1008835D01*
X9396Y1009483D01*
X9304D01*
X9211Y1009575D01*
X8934Y1009668D01*
X8564Y1009760D01*
X7639Y1010037D01*
X6345Y1010315D01*
X4866Y1010592D01*
X3017Y1010869D01*
X1075Y1011054D01*
X-1144Y1011147D01*
D02*
G37*
G36*
X-31285Y1027696D02*
X-39143D01*
Y991176D01*
X-57727Y1010130D01*
X-67990D01*
X-50146Y992841D01*
X-69746Y963717D01*
X-60038D01*
X-44598Y987386D01*
X-39143Y982116D01*
Y963717D01*
X-31285D01*
Y1027696D01*
D02*
G37*
G36*
X-120875Y1010130D02*
X-129196D01*
X-139181Y982301D01*
Y982208D01*
X-139273Y982116D01*
X-139366Y981838D01*
X-139458Y981561D01*
X-139736Y980636D01*
X-140105Y979434D01*
X-140568Y978048D01*
X-141122Y976476D01*
X-141585Y974719D01*
X-142139Y972962D01*
X-142232Y973147D01*
X-142324Y973610D01*
X-142602Y974349D01*
X-142879Y975459D01*
X-143341Y976661D01*
X-143804Y978232D01*
X-144451Y979897D01*
X-145098Y981746D01*
X-155361Y1010130D01*
X-163497D01*
X-145838Y963717D01*
X-138349D01*
X-120875Y1010130D01*
D02*
G37*
G36*
X265961Y1027696D02*
X239704D01*
X238317Y1027604D01*
X236745Y1027512D01*
X235081Y1027419D01*
X233509Y1027234D01*
X232122Y1027049D01*
X231938D01*
X231290Y1026864D01*
X230458Y1026679D01*
X229349Y1026402D01*
X228147Y1025940D01*
X226852Y1025385D01*
X225466Y1024738D01*
X224264Y1023998D01*
X224079Y1023906D01*
X223709Y1023628D01*
X223154Y1023074D01*
X222415Y1022426D01*
X221582Y1021594D01*
X220750Y1020485D01*
X219826Y1019283D01*
X219086Y1017896D01*
X218994Y1017711D01*
X218809Y1017249D01*
X218439Y1016417D01*
X218069Y1015307D01*
X217792Y1014013D01*
X217422Y1012534D01*
X217237Y1010869D01*
X217145Y1009113D01*
Y1008373D01*
X217237Y1007726D01*
X217330Y1007079D01*
X217422Y1006247D01*
X217607Y1005322D01*
X217792Y1004305D01*
X218439Y1002179D01*
X218809Y1001069D01*
X219364Y999867D01*
X220011Y998665D01*
X220658Y997556D01*
X221490Y996446D01*
X222415Y995337D01*
X222507Y995244D01*
X222692Y995059D01*
X222969Y994782D01*
X223432Y994505D01*
X223986Y994042D01*
X224726Y993580D01*
X225651Y993025D01*
X226668Y992563D01*
X227869Y992008D01*
X229256Y991454D01*
X230736Y990991D01*
X232492Y990622D01*
X234341Y990252D01*
X236375Y989974D01*
X238687Y989789D01*
X241091Y989697D01*
X257455D01*
Y963717D01*
X265961D01*
Y1027696D01*
D02*
G37*
G36*
X205125Y972685D02*
X196157D01*
Y963717D01*
X205125D01*
Y972685D01*
D02*
G37*
G36*
X156956Y1027696D02*
X131808D01*
X131161Y1027604D01*
X130421D01*
X128757Y1027419D01*
X126908Y1027234D01*
X124966Y1026864D01*
X123024Y1026402D01*
X121268Y1025755D01*
X121175D01*
X121083Y1025662D01*
X120528Y1025385D01*
X119696Y1024923D01*
X118771Y1024276D01*
X117662Y1023443D01*
X116460Y1022426D01*
X115351Y1021132D01*
X114334Y1019745D01*
X114241Y1019560D01*
X113964Y1019006D01*
X113501Y1018266D01*
X113039Y1017156D01*
X112577Y1015862D01*
X112115Y1014475D01*
X111837Y1012903D01*
X111745Y1011332D01*
Y1011147D01*
Y1010685D01*
X111837Y1009852D01*
X112022Y1008835D01*
X112299Y1007633D01*
X112762Y1006339D01*
X113317Y1005045D01*
X114056Y1003658D01*
X114149Y1003473D01*
X114426Y1003103D01*
X114981Y1002364D01*
X115720Y1001624D01*
X116645Y1000699D01*
X117754Y999682D01*
X119141Y998758D01*
X120713Y997833D01*
X120621D01*
X120436Y997741D01*
X120158Y997648D01*
X119788Y997463D01*
X118679Y997094D01*
X117385Y996446D01*
X115998Y995614D01*
X114426Y994597D01*
X113039Y993395D01*
X111745Y991916D01*
X111652Y991731D01*
X111282Y991176D01*
X110728Y990344D01*
X110173Y989235D01*
X109618Y987755D01*
X109064Y986184D01*
X108694Y984335D01*
X108601Y982301D01*
Y981561D01*
X108694Y980636D01*
X108879Y979527D01*
X109064Y978232D01*
X109433Y976846D01*
X109896Y975366D01*
X110543Y973887D01*
X110635Y973702D01*
X110913Y973240D01*
X111282Y972593D01*
X111837Y971668D01*
X112577Y970744D01*
X113317Y969727D01*
X114241Y968710D01*
X115258Y967877D01*
X115351Y967785D01*
X115720Y967508D01*
X116368Y967138D01*
X117200Y966768D01*
X118217Y966213D01*
X119419Y965658D01*
X120713Y965196D01*
X122285Y964734D01*
X122470D01*
X123024Y964549D01*
X123949Y964457D01*
X125151Y964272D01*
X126630Y964087D01*
X128387Y963902D01*
X130328Y963809D01*
X132547Y963717D01*
X156956D01*
Y1027696D01*
D02*
G37*
G36*
X31216Y1011147D02*
X30568D01*
X29736Y1011054D01*
X28719Y1010869D01*
X27517Y1010500D01*
X26223Y1010037D01*
X24744Y1009390D01*
X23172Y1008558D01*
X26038Y1001346D01*
X26131Y1001439D01*
X26500Y1001624D01*
X27055Y1001901D01*
X27795Y1002179D01*
X28627Y1002456D01*
X29644Y1002733D01*
X30661Y1002918D01*
X31678Y1003011D01*
X32140D01*
X32602Y1002918D01*
X33250Y1002826D01*
X33897Y1002641D01*
X34729Y1002364D01*
X35561Y1001994D01*
X36301Y1001439D01*
X36393Y1001346D01*
X36670Y1001162D01*
X36948Y1000792D01*
X37410Y1000329D01*
X37872Y999682D01*
X38335Y998943D01*
X38797Y998111D01*
X39167Y997094D01*
X39259Y996909D01*
X39352Y996354D01*
X39537Y995522D01*
X39814Y994412D01*
X40091Y993025D01*
X40276Y991454D01*
X40369Y989789D01*
X40461Y987940D01*
Y963717D01*
X48320D01*
Y1010130D01*
X41201D01*
Y1003103D01*
X41108Y1003196D01*
X40739Y1003843D01*
X40276Y1004675D01*
X39537Y1005692D01*
X38797Y1006709D01*
X37965Y1007818D01*
X37133Y1008743D01*
X36301Y1009483D01*
X36208Y1009575D01*
X35931Y1009760D01*
X35376Y1010037D01*
X34821Y1010315D01*
X34082Y1010592D01*
X33157Y1010869D01*
X32233Y1011054D01*
X31216Y1011147D01*
D02*
G37*
G36*
X-94802D02*
X-95727D01*
X-96374Y1011054D01*
X-97206Y1010962D01*
X-98130Y1010777D01*
X-99147Y1010592D01*
X-100349Y1010407D01*
X-102846Y1009575D01*
X-104140Y1009113D01*
X-105434Y1008466D01*
X-106729Y1007818D01*
X-108023Y1006894D01*
X-109225Y1005969D01*
X-110427Y1004860D01*
X-110519Y1004767D01*
X-110704Y1004582D01*
X-110982Y1004213D01*
X-111352Y1003750D01*
X-111814Y1003103D01*
X-112369Y1002271D01*
X-112923Y1001346D01*
X-113478Y1000329D01*
X-114033Y999220D01*
X-114588Y997833D01*
X-115142Y996446D01*
X-115605Y994875D01*
X-115974Y993210D01*
X-116252Y991454D01*
X-116437Y989605D01*
X-116529Y987571D01*
Y986091D01*
X-116437Y985352D01*
X-116344Y984427D01*
Y983502D01*
X-116159Y982485D01*
X-115882Y980174D01*
X-115327Y977863D01*
X-114680Y975551D01*
X-113755Y973425D01*
Y973332D01*
X-113663Y973240D01*
X-113478Y972962D01*
X-113293Y972593D01*
X-112646Y971668D01*
X-111814Y970559D01*
X-110704Y969264D01*
X-109318Y967970D01*
X-107746Y966675D01*
X-105897Y965474D01*
X-105804D01*
X-105712Y965381D01*
X-105434Y965196D01*
X-104972Y965011D01*
X-104510Y964826D01*
X-103955Y964641D01*
X-102568Y964087D01*
X-100996Y963624D01*
X-99055Y963162D01*
X-97021Y962792D01*
X-94802Y962700D01*
X-93877D01*
X-93138Y962792D01*
X-92306Y962885D01*
X-91381Y963070D01*
X-90272Y963255D01*
X-89162Y963440D01*
X-86666Y964179D01*
X-85279Y964734D01*
X-83985Y965289D01*
X-82690Y966028D01*
X-81396Y966860D01*
X-80194Y967785D01*
X-78992Y968894D01*
X-78900Y968987D01*
X-78715Y969172D01*
X-78437Y969542D01*
X-78067Y970096D01*
X-77605Y970744D01*
X-77143Y971483D01*
X-76588Y972408D01*
X-76033Y973517D01*
X-75479Y974719D01*
X-74924Y976106D01*
X-74462Y977585D01*
X-73999Y979157D01*
X-73630Y980914D01*
X-73352Y982763D01*
X-73167Y984797D01*
X-73075Y986923D01*
Y987478D01*
X-73167Y988125D01*
Y989050D01*
X-73260Y990067D01*
X-73445Y991361D01*
X-73630Y992656D01*
X-73999Y994135D01*
X-74369Y995614D01*
X-74831Y997186D01*
X-75386Y998850D01*
X-76126Y1000422D01*
X-76865Y1001901D01*
X-77882Y1003381D01*
X-78900Y1004767D01*
X-80194Y1005969D01*
X-80286Y1006062D01*
X-80471Y1006154D01*
X-80841Y1006432D01*
X-81303Y1006801D01*
X-81858Y1007171D01*
X-82598Y1007633D01*
X-83337Y1008096D01*
X-84262Y1008558D01*
X-85279Y1009020D01*
X-86388Y1009483D01*
X-88885Y1010315D01*
X-91751Y1010962D01*
X-93230Y1011054D01*
X-94802Y1011147D01*
D02*
G37*
%LPD*%
G36*
X68475Y986923D02*
X68753Y986831D01*
X69123Y986738D01*
X69585Y986554D01*
X70140Y986369D01*
X70787Y986184D01*
X71526Y985999D01*
X72359Y985721D01*
X73376Y985537D01*
X74393Y985259D01*
X75594Y984982D01*
X76889Y984704D01*
X78183Y984427D01*
X79663Y984242D01*
X81234Y983965D01*
X81419D01*
X81974Y983872D01*
X82898Y983687D01*
X83916Y983502D01*
X85025Y983318D01*
X86134Y983040D01*
X87151Y982763D01*
X88076Y982393D01*
X88168D01*
X88446Y982208D01*
X88816Y982023D01*
X89185Y981746D01*
X90295Y981006D01*
X91220Y979897D01*
Y979804D01*
X91404Y979619D01*
X91497Y979250D01*
X91682Y978787D01*
X91867Y978232D01*
X92052Y977678D01*
X92144Y976938D01*
X92237Y976198D01*
Y976106D01*
Y975644D01*
X92144Y975089D01*
X91959Y974349D01*
X91682Y973517D01*
X91220Y972685D01*
X90665Y971761D01*
X89925Y970928D01*
X89833Y970836D01*
X89463Y970651D01*
X88908Y970281D01*
X88168Y969911D01*
X87151Y969542D01*
X85950Y969172D01*
X84563Y968987D01*
X82898Y968894D01*
X82159D01*
X81234Y968987D01*
X80217Y969172D01*
X78923Y969357D01*
X77628Y969727D01*
X76242Y970189D01*
X74855Y970836D01*
X74670Y970928D01*
X74300Y971206D01*
X73653Y971668D01*
X72913Y972315D01*
X72081Y973055D01*
X71157Y973980D01*
X70417Y975089D01*
X69677Y976291D01*
X69585Y976383D01*
X69492Y976753D01*
X69307Y977400D01*
X69030Y978232D01*
X68753Y979342D01*
X68568Y980636D01*
X68475Y982208D01*
X68383Y984057D01*
X68290Y987016D01*
X68383D01*
X68475Y986923D01*
D02*
G37*
G36*
X-11037D02*
X-10759Y986831D01*
X-10390Y986738D01*
X-9927Y986554D01*
X-9373Y986369D01*
X-8725Y986184D01*
X-7986Y985999D01*
X-7154Y985721D01*
X-6137Y985537D01*
X-5120Y985259D01*
X-3918Y984982D01*
X-2623Y984704D01*
X-1329Y984427D01*
X150Y984242D01*
X1722Y983965D01*
X1907D01*
X2462Y983872D01*
X3386Y983687D01*
X4403Y983502D01*
X5513Y983318D01*
X6622Y983040D01*
X7639Y982763D01*
X8564Y982393D01*
X8656D01*
X8934Y982208D01*
X9304Y982023D01*
X9673Y981746D01*
X10783Y981006D01*
X11707Y979897D01*
Y979804D01*
X11892Y979619D01*
X11985Y979250D01*
X12170Y978787D01*
X12355Y978232D01*
X12539Y977678D01*
X12632Y976938D01*
X12724Y976198D01*
Y976106D01*
Y975644D01*
X12632Y975089D01*
X12447Y974349D01*
X12170Y973517D01*
X11707Y972685D01*
X11153Y971761D01*
X10413Y970928D01*
X10321Y970836D01*
X9951Y970651D01*
X9396Y970281D01*
X8656Y969911D01*
X7639Y969542D01*
X6437Y969172D01*
X5051Y968987D01*
X3386Y968894D01*
X2647D01*
X1722Y968987D01*
X705Y969172D01*
X-589Y969357D01*
X-1884Y969727D01*
X-3271Y970189D01*
X-4657Y970836D01*
X-4842Y970928D01*
X-5212Y971206D01*
X-5859Y971668D01*
X-6599Y972315D01*
X-7431Y973055D01*
X-8356Y973980D01*
X-9095Y975089D01*
X-9835Y976291D01*
X-9927Y976383D01*
X-10020Y976753D01*
X-10205Y977400D01*
X-10482Y978232D01*
X-10759Y979342D01*
X-10944Y980636D01*
X-11037Y982208D01*
X-11129Y984057D01*
X-11222Y987016D01*
X-11129D01*
X-11037Y986923D01*
D02*
G37*
G36*
X257455Y997278D02*
X240259D01*
X239611Y997371D01*
X238964D01*
X238225Y997463D01*
X236468Y997648D01*
X234526Y998018D01*
X232585Y998573D01*
X230828Y999312D01*
X229996Y999775D01*
X229349Y1000329D01*
X229164Y1000514D01*
X228794Y1000884D01*
X228239Y1001624D01*
X227592Y1002548D01*
X226945Y1003750D01*
X226390Y1005230D01*
X226020Y1006894D01*
X225835Y1008835D01*
Y1008928D01*
Y1009020D01*
Y1009483D01*
X225928Y1010315D01*
X226113Y1011239D01*
X226298Y1012256D01*
X226668Y1013458D01*
X227222Y1014568D01*
X227869Y1015677D01*
X227962Y1015770D01*
X228239Y1016139D01*
X228702Y1016602D01*
X229256Y1017249D01*
X230088Y1017896D01*
X231013Y1018451D01*
X232030Y1019006D01*
X233232Y1019468D01*
X233324D01*
X233694Y1019560D01*
X234249Y1019653D01*
X234989Y1019838D01*
X236098Y1019930D01*
X237485Y1020023D01*
X239149Y1020115D01*
X257455D01*
Y997278D01*
D02*
G37*
G36*
X148450Y1000884D02*
X132732D01*
X131530Y1000977D01*
X130236Y1001069D01*
X128942Y1001162D01*
X127647Y1001346D01*
X126630Y1001531D01*
X126445Y1001624D01*
X126075Y1001716D01*
X125521Y1001994D01*
X124781Y1002364D01*
X124041Y1002733D01*
X123209Y1003288D01*
X122377Y1004028D01*
X121730Y1004767D01*
X121638Y1004860D01*
X121453Y1005137D01*
X121175Y1005692D01*
X120898Y1006339D01*
X120621Y1007079D01*
X120343Y1008003D01*
X120158Y1009113D01*
X120066Y1010315D01*
Y1010500D01*
Y1010869D01*
X120158Y1011424D01*
X120251Y1012164D01*
X120436Y1013088D01*
X120713Y1014013D01*
X121083Y1014938D01*
X121638Y1015862D01*
X121730Y1015955D01*
X121915Y1016232D01*
X122285Y1016694D01*
X122747Y1017156D01*
X123394Y1017711D01*
X124134Y1018266D01*
X125058Y1018821D01*
X126075Y1019190D01*
X126168D01*
X126630Y1019375D01*
X127277Y1019468D01*
X128294Y1019653D01*
X129681Y1019838D01*
X131253Y1019930D01*
X133287Y1020115D01*
X148450D01*
Y1000884D01*
D02*
G37*
G36*
Y971298D02*
X130236D01*
X128294Y971391D01*
X127462Y971483D01*
X126723Y971576D01*
X126630D01*
X126260Y971668D01*
X125706Y971761D01*
X125058Y971945D01*
X123487Y972500D01*
X121915Y973240D01*
X121822Y973332D01*
X121545Y973517D01*
X121175Y973795D01*
X120713Y974164D01*
X120251Y974719D01*
X119604Y975274D01*
X119141Y976014D01*
X118587Y976846D01*
X118494Y976938D01*
X118402Y977215D01*
X118217Y977770D01*
X117939Y978417D01*
X117662Y979157D01*
X117477Y980082D01*
X117385Y981191D01*
X117292Y982301D01*
Y982485D01*
Y982855D01*
X117385Y983595D01*
X117569Y984427D01*
X117754Y985352D01*
X118124Y986369D01*
X118587Y987386D01*
X119234Y988403D01*
X119326Y988495D01*
X119604Y988865D01*
X119973Y989327D01*
X120528Y989882D01*
X121268Y990529D01*
X122192Y991176D01*
X123209Y991731D01*
X124411Y992193D01*
X124596Y992286D01*
X124966Y992378D01*
X125798Y992563D01*
X126815Y992748D01*
X128109Y992933D01*
X129681Y993118D01*
X131623Y993303D01*
X148450D01*
Y971298D01*
D02*
G37*
G36*
X-93785Y1004582D02*
X-92768Y1004490D01*
X-91381Y1004120D01*
X-89809Y1003565D01*
X-88145Y1002826D01*
X-86573Y1001716D01*
X-85741Y1000977D01*
X-85002Y1000237D01*
Y1000145D01*
X-84817Y1000052D01*
X-84632Y999775D01*
X-84354Y999405D01*
X-84077Y998943D01*
X-83800Y998388D01*
X-83430Y997648D01*
X-83060Y996909D01*
X-82690Y995984D01*
X-82320Y995059D01*
X-82043Y993950D01*
X-81766Y992748D01*
X-81488Y991454D01*
X-81303Y990067D01*
X-81211Y988495D01*
X-81118Y986923D01*
Y986831D01*
Y986554D01*
Y986091D01*
X-81211Y985444D01*
Y984704D01*
X-81303Y983872D01*
X-81581Y981931D01*
X-82043Y979712D01*
X-82783Y977493D01*
X-83707Y975366D01*
X-84354Y974442D01*
X-85002Y973517D01*
X-85094D01*
X-85187Y973332D01*
X-85741Y972870D01*
X-86573Y972130D01*
X-87683Y971391D01*
X-89070Y970559D01*
X-90734Y969819D01*
X-92675Y969357D01*
X-93692Y969264D01*
X-94802Y969172D01*
X-95357D01*
X-95819Y969264D01*
X-96836Y969449D01*
X-98223Y969727D01*
X-99702Y970281D01*
X-101366Y971021D01*
X-102938Y972130D01*
X-103770Y972870D01*
X-104510Y973610D01*
X-104602Y973702D01*
X-104695Y973795D01*
X-104880Y974072D01*
X-105157Y974442D01*
X-105434Y974904D01*
X-105804Y975459D01*
X-106174Y976198D01*
X-106544Y976938D01*
X-106914Y977863D01*
X-107191Y978880D01*
X-107561Y979989D01*
X-107838Y981191D01*
X-108116Y982578D01*
X-108301Y983965D01*
X-108485Y985537D01*
Y987201D01*
Y987293D01*
Y987571D01*
Y988033D01*
X-108393Y988588D01*
Y989327D01*
X-108301Y990159D01*
X-108023Y992101D01*
X-107561Y994135D01*
X-106821Y996354D01*
X-105804Y998388D01*
X-105249Y999405D01*
X-104510Y1000237D01*
Y1000329D01*
X-104325Y1000422D01*
X-103770Y1000977D01*
X-102938Y1001624D01*
X-101829Y1002456D01*
X-100442Y1003288D01*
X-98778Y1004028D01*
X-96928Y1004490D01*
X-95911Y1004582D01*
X-94802Y1004675D01*
X-94247D01*
X-93785Y1004582D01*
D02*
G37*
D42*
X861879Y271580D02*
X1371880D01*
X861879Y61579D02*
X1371880D01*
X861879D02*
Y271580D01*
X1371880Y61579D02*
Y271580D01*
%TF.MD5,6d3a27265b893849293361480770958f*%
M02*
