%TF.GenerationSoftware,Altium Limited,Altium Designer,24.5.2 (23)*%
G04 Layer_Physical_Order=2*
G04 Layer_Color=36540*
%FSLAX45Y45*%
%MOMM*%
%TF.SameCoordinates,D9EDD973-4EFE-478D-9CC6-8A1B8994CF0D*%
%TF.FilePolarity,Positive*%
%TF.FileFunction,Copper,L2,Inr,Signal*%
%TF.Part,Single*%
G01*
G75*
%TA.AperFunction,ComponentPad*%
%ADD33C,1.77800*%
%ADD34C,0.80000*%
%TA.AperFunction,ViaPad*%
%ADD35C,0.60000*%
%ADD36C,0.50000*%
G36*
X250048Y1485972D02*
X259972Y1479341D01*
X278349Y1471729D01*
X290054Y1469401D01*
X422601D01*
X427861Y1456701D01*
X419051Y1447890D01*
X412200Y1431351D01*
Y1413449D01*
X419051Y1396910D01*
X431710Y1384251D01*
X448249Y1377400D01*
X466151D01*
X482690Y1384251D01*
X495349Y1396910D01*
X502200Y1413449D01*
Y1431351D01*
X495349Y1447890D01*
X486539Y1456701D01*
X491799Y1469401D01*
X616273D01*
X624759Y1456701D01*
X621544Y1448940D01*
Y1431038D01*
X628395Y1414498D01*
X641053Y1401840D01*
X657593Y1394989D01*
X675495D01*
X692034Y1401840D01*
X704693Y1414498D01*
X711544Y1431038D01*
Y1448940D01*
X708329Y1456701D01*
X716815Y1469401D01*
X1700000Y1469401D01*
X1700004Y1469402D01*
X1700007Y1469401D01*
X1701800Y1469401D01*
X1714500Y1458586D01*
Y863600D01*
X2469413D01*
X2469414Y250001D01*
X2469413Y228390D01*
X2460981Y186000D01*
X2444441Y146068D01*
X2420429Y110132D01*
X2389867Y79570D01*
X2353931Y55558D01*
X2314001Y39019D01*
X2271610Y30587D01*
X2250000Y30587D01*
X1950001Y30587D01*
X1938296Y28258D01*
X1928373Y21628D01*
X1921742Y11704D01*
X1919414Y0D01*
X1763970D01*
X1749962Y14015D01*
X1740040Y20648D01*
X1721660Y28266D01*
X1709955Y30597D01*
X1700008Y30599D01*
X1700005Y30599D01*
X1700001Y30600D01*
X455279D01*
X450019Y43300D01*
X456176Y49457D01*
X463027Y65997D01*
Y83899D01*
X456176Y100438D01*
X443518Y113097D01*
X426978Y119948D01*
X409076D01*
X392537Y113097D01*
X383331Y103891D01*
X375447Y101681D01*
X367562Y103891D01*
X358356Y113097D01*
X341817Y119948D01*
X323915D01*
X307375Y113097D01*
X294717Y100438D01*
X287866Y83899D01*
Y65997D01*
X294717Y49457D01*
X300874Y43300D01*
X295614Y30600D01*
X290054D01*
X278349Y28271D01*
X259972Y20659D01*
X250048Y14029D01*
X236020Y0D01*
X80586D01*
X78258Y11704D01*
X71627Y21628D01*
X61704Y28258D01*
X49999Y30587D01*
X-250000Y30586D01*
X-271611Y30587D01*
X-314000Y39018D01*
X-353932Y55559D01*
X-389868Y79571D01*
X-420430Y110132D01*
X-444442Y146069D01*
X-460982Y186000D01*
X-469413Y228389D01*
Y250000D01*
X-469414Y1151110D01*
X-456713Y1156371D01*
X-451180Y1150837D01*
X-434640Y1143986D01*
X-416739D01*
X-400199Y1150837D01*
X-387540Y1163496D01*
X-380690Y1180035D01*
Y1197937D01*
X-387540Y1214477D01*
X-400199Y1227135D01*
X-416739Y1233986D01*
X-434640D01*
X-451180Y1227135D01*
X-456714Y1221602D01*
X-469414Y1226862D01*
X-469413Y1271610D01*
X-460982Y1314000D01*
X-444441Y1353932D01*
X-420429Y1389868D01*
X-389868Y1420429D01*
X-353931Y1444442D01*
X-314000Y1460981D01*
X-271610Y1469413D01*
X-250000D01*
X49999Y1469414D01*
X61704Y1471742D01*
X71628Y1478373D01*
X78258Y1488296D01*
X80586Y1499999D01*
X189703D01*
X236021D01*
X250048Y1485972D01*
D02*
G37*
%LPC*%
G36*
X185142Y1470243D02*
X167240D01*
X150701Y1463392D01*
X138042Y1450733D01*
X131192Y1434194D01*
Y1416292D01*
X138042Y1399752D01*
X150701Y1387094D01*
X167240Y1380243D01*
X185142D01*
X201682Y1387094D01*
X214340Y1399752D01*
X221191Y1416292D01*
Y1434194D01*
X214340Y1450733D01*
X201682Y1463392D01*
X185142Y1470243D01*
D02*
G37*
G36*
X721431Y1306344D02*
X703529D01*
X686989Y1299493D01*
X674331Y1286835D01*
X667480Y1270295D01*
Y1252393D01*
X674331Y1235854D01*
X686989Y1223195D01*
X703529Y1216345D01*
X721431D01*
X737970Y1223195D01*
X750629Y1235854D01*
X757480Y1252393D01*
Y1270295D01*
X750629Y1286835D01*
X737970Y1299493D01*
X721431Y1306344D01*
D02*
G37*
G36*
X440751Y1365800D02*
X422849D01*
X406310Y1358949D01*
X393651Y1346290D01*
X386800Y1329751D01*
Y1311849D01*
X393651Y1295310D01*
X406310Y1282651D01*
X409083Y1281502D01*
X410418Y1277042D01*
X410599Y1267128D01*
X400086Y1256614D01*
X393235Y1240074D01*
Y1222172D01*
X400086Y1205633D01*
X412744Y1192974D01*
X429284Y1186123D01*
X447186D01*
X463725Y1192974D01*
X476384Y1205633D01*
X483234Y1222172D01*
Y1240074D01*
X476384Y1256614D01*
X463725Y1269272D01*
X460952Y1270421D01*
X459617Y1274881D01*
X459435Y1284796D01*
X469949Y1295310D01*
X476800Y1311849D01*
Y1329751D01*
X469949Y1346290D01*
X457290Y1358949D01*
X440751Y1365800D01*
D02*
G37*
G36*
X188962Y1269914D02*
X171060D01*
X154521Y1263063D01*
X141862Y1250404D01*
X135011Y1233865D01*
Y1215963D01*
X141862Y1199424D01*
X154521Y1186765D01*
X171060Y1179914D01*
X188962D01*
X205501Y1186765D01*
X218160Y1199424D01*
X225011Y1215963D01*
Y1233865D01*
X218160Y1250404D01*
X205501Y1263063D01*
X188962Y1269914D01*
D02*
G37*
G36*
X1482151Y1238800D02*
X1464249D01*
X1447710Y1231949D01*
X1435051Y1219290D01*
X1428200Y1202751D01*
Y1184849D01*
X1435051Y1168310D01*
X1447710Y1155651D01*
X1464249Y1148800D01*
X1482151D01*
X1498690Y1155651D01*
X1511349Y1168310D01*
X1518200Y1184849D01*
Y1202751D01*
X1511349Y1219290D01*
X1498690Y1231949D01*
X1482151Y1238800D01*
D02*
G37*
G36*
X846683Y1165851D02*
X828781D01*
X812241Y1159000D01*
X799583Y1146341D01*
X784986Y1144289D01*
X777335Y1151940D01*
X760796Y1158790D01*
X742894D01*
X726354Y1151940D01*
X713696Y1139281D01*
X706845Y1122741D01*
Y1104840D01*
X713696Y1088300D01*
X726354Y1075641D01*
X742894Y1068791D01*
X760796D01*
X777335Y1075641D01*
X789994Y1088300D01*
X804590Y1090353D01*
X812241Y1082702D01*
X828781Y1075851D01*
X846683D01*
X863222Y1082702D01*
X875881Y1095360D01*
X882732Y1111900D01*
Y1129802D01*
X875881Y1146341D01*
X863222Y1159000D01*
X846683Y1165851D01*
D02*
G37*
G36*
X1035304Y1242876D02*
X1017402D01*
X1000863Y1236025D01*
X988204Y1223367D01*
X981353Y1206827D01*
Y1188925D01*
X988204Y1172386D01*
X1000863Y1159727D01*
X1017402Y1152877D01*
X1035304D01*
X1051843Y1159727D01*
X1059775Y1167659D01*
X1074383Y1165579D01*
X1075875Y1161975D01*
X1088534Y1149316D01*
X1105073Y1142465D01*
X1122975D01*
X1139515Y1149316D01*
X1152173Y1161975D01*
X1159024Y1178514D01*
Y1196416D01*
X1152173Y1212956D01*
X1139515Y1225614D01*
X1122975Y1232465D01*
X1105073D01*
X1088534Y1225614D01*
X1080603Y1217683D01*
X1065995Y1219763D01*
X1064502Y1223367D01*
X1051843Y1236025D01*
X1035304Y1242876D01*
D02*
G37*
G36*
X-3851Y1068243D02*
X-21753D01*
X-38292Y1061392D01*
X-50951Y1048733D01*
X-57802Y1032194D01*
Y1014292D01*
X-50951Y997753D01*
X-38292Y985094D01*
X-21753Y978243D01*
X-3851D01*
X12689Y985094D01*
X25347Y997753D01*
X32198Y1014292D01*
Y1032194D01*
X25347Y1048733D01*
X12689Y1061392D01*
X-3851Y1068243D01*
D02*
G37*
G36*
X539191Y1040031D02*
X521290D01*
X504750Y1033180D01*
X492091Y1020522D01*
X485241Y1003982D01*
Y986080D01*
X492091Y969541D01*
X504750Y956882D01*
X521290Y950031D01*
X539191D01*
X555731Y956882D01*
X568390Y969541D01*
X575240Y986080D01*
Y1003982D01*
X568390Y1020522D01*
X555731Y1033180D01*
X539191Y1040031D01*
D02*
G37*
G36*
X151984Y1003059D02*
X134082D01*
X117542Y996209D01*
X104884Y983550D01*
X98033Y967011D01*
Y949109D01*
X104884Y932569D01*
X117542Y919911D01*
X134082Y913060D01*
X151984D01*
X168523Y919911D01*
X176388Y927775D01*
X189895Y927040D01*
X191333Y926127D01*
X203110Y914351D01*
X219649Y907500D01*
X237551D01*
X254090Y914351D01*
X266749Y927010D01*
X273600Y943549D01*
Y961451D01*
X266749Y977990D01*
X254090Y990649D01*
X237551Y997500D01*
X219649D01*
X203110Y990649D01*
X195245Y982785D01*
X181737Y983520D01*
X180299Y984432D01*
X168523Y996209D01*
X151984Y1003059D01*
D02*
G37*
G36*
X640081Y970173D02*
X622179D01*
X605640Y963322D01*
X592981Y950663D01*
X586130Y934124D01*
Y916222D01*
X592981Y899682D01*
X605640Y887024D01*
X622179Y880173D01*
X640081D01*
X656621Y887024D01*
X669279Y899682D01*
X676130Y916222D01*
Y934124D01*
X669279Y950663D01*
X656621Y963322D01*
X640081Y970173D01*
D02*
G37*
G36*
X772919Y944540D02*
X755017D01*
X738477Y937689D01*
X725819Y925030D01*
X718968Y908491D01*
Y890589D01*
X725819Y874049D01*
X738477Y861391D01*
X755017Y854540D01*
X772919D01*
X789458Y861391D01*
X802117Y874049D01*
X808968Y890589D01*
Y908491D01*
X802117Y925030D01*
X789458Y937689D01*
X772919Y944540D01*
D02*
G37*
G36*
X729501Y844221D02*
X711600D01*
X695060Y837370D01*
X682401Y824712D01*
X675551Y808172D01*
Y790270D01*
X682401Y773731D01*
X695060Y761072D01*
X711600Y754221D01*
X729501D01*
X746041Y761072D01*
X758700Y773731D01*
X765550Y790270D01*
Y808172D01*
X758700Y824712D01*
X746041Y837370D01*
X729501Y844221D01*
D02*
G37*
G36*
X-316807Y904042D02*
X-344165D01*
X-370590Y896962D01*
X-394282Y883283D01*
X-413627Y863938D01*
X-427305Y840246D01*
X-434386Y813821D01*
Y786464D01*
X-427305Y760038D01*
X-413627Y736346D01*
X-394282Y717001D01*
X-370590Y703323D01*
X-344165Y696242D01*
X-316807D01*
X-290382Y703323D01*
X-266690Y717001D01*
X-247345Y736346D01*
X-233667Y760038D01*
X-226586Y786464D01*
Y813821D01*
X-233667Y840246D01*
X-247345Y863938D01*
X-266690Y883283D01*
X-290382Y896962D01*
X-316807Y904042D01*
D02*
G37*
G36*
X690638Y676985D02*
X672736D01*
X656197Y670134D01*
X643538Y657475D01*
X636850Y641329D01*
X636687Y640936D01*
X623987Y633957D01*
X618787Y636111D01*
X600885D01*
X584346Y629260D01*
X571687Y616601D01*
X564836Y600062D01*
Y582160D01*
X568269Y573872D01*
X559783Y561172D01*
X557274D01*
X540735Y554321D01*
X528076Y541662D01*
X521225Y525123D01*
Y515984D01*
X515564Y506087D01*
X509492Y504871D01*
X496966D01*
X480427Y498020D01*
X467768Y485361D01*
X460918Y468822D01*
Y450920D01*
X467768Y434381D01*
X480427Y421722D01*
X496966Y414871D01*
X514868D01*
X531408Y421722D01*
X544066Y434381D01*
X550917Y450920D01*
Y460058D01*
X556579Y469956D01*
X562651Y471172D01*
X575176D01*
X591716Y478023D01*
X604374Y490681D01*
X611225Y507221D01*
Y525123D01*
X607792Y533411D01*
X616278Y546111D01*
X618787D01*
X635326Y552962D01*
X647985Y565620D01*
X654673Y581767D01*
X654836Y582160D01*
X667536Y589139D01*
X672736Y586985D01*
X690638D01*
X707177Y593836D01*
X719836Y606495D01*
X726687Y623034D01*
Y640936D01*
X719836Y657475D01*
X707177Y670134D01*
X690638Y676985D01*
D02*
G37*
G36*
X846996Y613505D02*
X829094D01*
X812555Y606654D01*
X799896Y593996D01*
X793045Y577456D01*
Y559554D01*
X799896Y543015D01*
X812555Y530356D01*
X829094Y523505D01*
X846996D01*
X863536Y530356D01*
X876194Y543015D01*
X883045Y559554D01*
Y577456D01*
X876194Y593996D01*
X863536Y606654D01*
X846996Y613505D01*
D02*
G37*
G36*
X-316807Y650042D02*
X-344164D01*
X-370590Y642962D01*
X-394282Y629283D01*
X-413627Y609939D01*
X-427305Y586246D01*
X-434386Y559821D01*
Y532464D01*
X-427305Y506039D01*
X-413627Y482346D01*
X-394282Y463002D01*
X-370590Y449323D01*
X-344164Y442242D01*
X-316807D01*
X-290382Y449323D01*
X-266690Y463002D01*
X-247345Y482346D01*
X-233666Y506039D01*
X-226586Y532464D01*
Y559821D01*
X-233666Y586246D01*
X-247345Y609939D01*
X-266690Y629283D01*
X-290382Y642962D01*
X-316807Y650042D01*
D02*
G37*
G36*
X1101151Y527600D02*
X1083249D01*
X1066710Y520749D01*
X1054051Y508090D01*
X1047200Y491551D01*
Y473649D01*
X1054051Y457110D01*
X1066710Y444451D01*
X1083249Y437600D01*
X1101151D01*
X1117690Y444451D01*
X1130349Y457110D01*
X1137200Y473649D01*
Y491551D01*
X1130349Y508090D01*
X1117690Y520749D01*
X1101151Y527600D01*
D02*
G37*
G36*
X2155251Y476800D02*
X2137349D01*
X2120810Y469949D01*
X2108151Y457290D01*
X2101300Y440751D01*
Y422849D01*
X2108151Y406310D01*
X2120810Y393651D01*
X2137349Y386800D01*
X2155251D01*
X2171790Y393651D01*
X2184449Y406310D01*
X2191300Y422849D01*
Y440751D01*
X2184449Y457290D01*
X2171790Y469949D01*
X2155251Y476800D01*
D02*
G37*
G36*
X1171060Y380693D02*
X1153158D01*
X1136618Y373843D01*
X1123960Y361184D01*
X1117109Y344644D01*
Y326743D01*
X1123960Y310203D01*
X1136618Y297544D01*
X1153158Y290694D01*
X1171060D01*
X1187599Y297544D01*
X1200258Y310203D01*
X1207109Y326743D01*
Y344644D01*
X1200258Y361184D01*
X1187599Y373843D01*
X1171060Y380693D01*
D02*
G37*
G36*
X843044Y466352D02*
X825142D01*
X808602Y459501D01*
X795944Y446842D01*
X789093Y430303D01*
Y412401D01*
X795944Y395861D01*
X800850Y390955D01*
X797870Y375974D01*
X790551Y372943D01*
X777893Y360284D01*
X771042Y343745D01*
Y325843D01*
X777893Y309303D01*
X790551Y296645D01*
X807091Y289794D01*
X824993D01*
X841532Y296645D01*
X854191Y309303D01*
X861042Y325843D01*
Y343745D01*
X854191Y360284D01*
X849285Y365191D01*
X852264Y380171D01*
X859583Y383203D01*
X872242Y395861D01*
X879092Y412401D01*
Y430303D01*
X872242Y446842D01*
X859583Y459501D01*
X843044Y466352D01*
D02*
G37*
G36*
X609971Y363333D02*
X592069D01*
X575530Y356482D01*
X562871Y343823D01*
X556020Y327284D01*
Y309382D01*
X562871Y292842D01*
X575530Y280184D01*
X592069Y273333D01*
X609971D01*
X626511Y280184D01*
X639169Y292842D01*
X646020Y309382D01*
Y327284D01*
X639169Y343823D01*
X626511Y356482D01*
X609971Y363333D01*
D02*
G37*
G36*
X712852Y352530D02*
X694950D01*
X678411Y345680D01*
X665752Y333021D01*
X658901Y316481D01*
Y298580D01*
X665752Y282040D01*
X678411Y269381D01*
X694950Y262531D01*
X712852D01*
X729392Y269381D01*
X742050Y282040D01*
X748901Y298580D01*
Y316481D01*
X742050Y333021D01*
X729392Y345680D01*
X712852Y352530D01*
D02*
G37*
G36*
X-144296Y349828D02*
X-162198D01*
X-178737Y342977D01*
X-191396Y330318D01*
X-198247Y313779D01*
Y295877D01*
X-191396Y279338D01*
X-178737Y266679D01*
X-162198Y259828D01*
X-144296D01*
X-127756Y266679D01*
X-115098Y279338D01*
X-108247Y295877D01*
Y313779D01*
X-115098Y330318D01*
X-127756Y342977D01*
X-144296Y349828D01*
D02*
G37*
G36*
X1511798Y419445D02*
X1493896D01*
X1477356Y412594D01*
X1464698Y399935D01*
X1457847Y383396D01*
Y365494D01*
X1459487Y361533D01*
X1459384Y361093D01*
X1450601Y349800D01*
X1438849D01*
X1422310Y342949D01*
X1409651Y330290D01*
X1402800Y313751D01*
Y295849D01*
X1409651Y279310D01*
X1422310Y266651D01*
X1438849Y259800D01*
X1456751D01*
X1473290Y266651D01*
X1485949Y279310D01*
X1492800Y295849D01*
Y313751D01*
X1491159Y317712D01*
X1491262Y318152D01*
X1500046Y329445D01*
X1511798D01*
X1528337Y336296D01*
X1540996Y348954D01*
X1547847Y365494D01*
Y383396D01*
X1540996Y399935D01*
X1528337Y412594D01*
X1511798Y419445D01*
D02*
G37*
G36*
X1324238Y225607D02*
Y181878D01*
X1367967D01*
X1360103Y200864D01*
X1343225Y217743D01*
X1324238Y225607D01*
D02*
G37*
G36*
X1294238Y225608D02*
X1275250Y217743D01*
X1258372Y200864D01*
X1249238Y178812D01*
X1237237Y177818D01*
X1228864Y198032D01*
X1213392Y213504D01*
X1193177Y221877D01*
X1171297D01*
X1151083Y213504D01*
X1135611Y198032D01*
X1127238Y177817D01*
Y155937D01*
X1135611Y135722D01*
X1151083Y120251D01*
X1171297Y111877D01*
X1193177D01*
X1213392Y120251D01*
X1228864Y135722D01*
X1237237Y155937D01*
X1249238Y154942D01*
X1258372Y132890D01*
X1275250Y116012D01*
X1294238Y108147D01*
Y166878D01*
Y225608D01*
D02*
G37*
G36*
X1066177Y221877D02*
X1044297D01*
X1024083Y213504D01*
X1008611Y198032D01*
X1000238Y177817D01*
Y155937D01*
X1008611Y135722D01*
X1024083Y120251D01*
X1044297Y111877D01*
X1066177D01*
X1086392Y120251D01*
X1101864Y135722D01*
X1110237Y155937D01*
Y177817D01*
X1101864Y198032D01*
X1086392Y213504D01*
X1066177Y221877D01*
D02*
G37*
G36*
X939177D02*
X917297D01*
X897083Y213504D01*
X881611Y198032D01*
X873238Y177817D01*
Y155937D01*
X881611Y135722D01*
X897083Y120251D01*
X917297Y111877D01*
X939177D01*
X959392Y120251D01*
X974864Y135722D01*
X983237Y155937D01*
Y177817D01*
X974864Y198032D01*
X959392Y213504D01*
X939177Y221877D01*
D02*
G37*
G36*
X1367968Y151878D02*
X1324238D01*
Y108147D01*
X1343225Y116012D01*
X1360103Y132890D01*
X1367968Y151878D01*
D02*
G37*
G36*
X2155251Y197400D02*
X2137349D01*
X2120810Y190549D01*
X2108151Y177890D01*
X2101300Y161351D01*
Y143449D01*
X2108151Y126910D01*
X2120810Y114251D01*
X2137349Y107400D01*
X2155251D01*
X2171790Y114251D01*
X2184449Y126910D01*
X2191300Y143449D01*
Y161351D01*
X2184449Y177890D01*
X2171790Y190549D01*
X2155251Y197400D01*
D02*
G37*
G36*
X823566Y146469D02*
X805664D01*
X789125Y139618D01*
X776466Y126960D01*
X769615Y110420D01*
Y92518D01*
X776466Y75979D01*
X789125Y63320D01*
X805664Y56470D01*
X823566D01*
X840106Y63320D01*
X852764Y75979D01*
X859615Y92518D01*
Y110420D01*
X852764Y126960D01*
X840106Y139618D01*
X823566Y146469D01*
D02*
G37*
%LPD*%
D33*
X-330486Y800142D02*
D03*
X-330486Y546142D02*
D03*
D34*
X1309237Y166877D02*
D03*
X1182237D02*
D03*
X1055237D02*
D03*
X928237D02*
D03*
D35*
X88900Y228600D02*
D03*
X666544Y1439989D02*
D03*
X254000Y1054100D02*
D03*
X431800Y850900D02*
D03*
X127000Y1092200D02*
D03*
X-419100Y1079500D02*
D03*
X838200Y215900D02*
D03*
X672975Y206320D02*
D03*
X393700Y177800D02*
D03*
X-152400Y76200D02*
D03*
X-342900Y165100D02*
D03*
X720551Y799221D02*
D03*
X763968Y899540D02*
D03*
X751845Y1113791D02*
D03*
X837732Y1120851D02*
D03*
X601020Y318333D02*
D03*
X703901Y307530D02*
D03*
X816042Y334794D02*
D03*
X681687Y631985D02*
D03*
X609836Y591111D02*
D03*
X631130Y925173D02*
D03*
X530240Y995031D02*
D03*
X566225Y516172D02*
D03*
X1026353Y1197876D02*
D03*
X1114024Y1187465D02*
D03*
X141877Y1349997D02*
D03*
X176191Y1425243D02*
D03*
X143033Y958060D02*
D03*
X-190500Y1435100D02*
D03*
X-308060Y1422235D02*
D03*
X332866Y74948D02*
D03*
X418027D02*
D03*
X-153247Y304828D02*
D03*
X-169057Y160387D02*
D03*
X250704Y336403D02*
D03*
X429862Y426699D02*
D03*
X814615Y101469D02*
D03*
X543215Y912284D02*
D03*
X431800Y1320800D02*
D03*
X438235Y1231123D02*
D03*
X419100Y1066800D02*
D03*
X505917Y459871D02*
D03*
X838045Y568505D02*
D03*
X228600Y952500D02*
D03*
X1162109Y335694D02*
D03*
X-425690Y1188986D02*
D03*
X-12802Y1023243D02*
D03*
X834093Y421352D02*
D03*
X1092200Y482600D02*
D03*
X712480Y1261344D02*
D03*
X180011Y1224914D02*
D03*
X457200Y1422400D02*
D03*
X1502847Y374445D02*
D03*
X2146300Y431800D02*
D03*
Y152400D02*
D03*
X1808832Y244309D02*
D03*
X1397000Y88900D02*
D03*
X1287147Y519700D02*
D03*
X1052930Y307865D02*
D03*
X941456Y310053D02*
D03*
X1612900Y787400D02*
D03*
X1735000Y830735D02*
D03*
X1799496Y405945D02*
D03*
X1473200Y622300D02*
D03*
X2026512Y566623D02*
D03*
X1447800Y304800D02*
D03*
X915433Y1423025D02*
D03*
X813833D02*
D03*
X1169433Y1435725D02*
D03*
X1417281Y1403761D02*
D03*
X1835000Y830779D02*
D03*
X1678221Y935056D02*
D03*
X1678177Y1035056D02*
D03*
X1678133Y1135056D02*
D03*
X1676401Y1224291D02*
D03*
X1678000Y1435056D02*
D03*
X1935000Y830823D02*
D03*
X2035000Y830868D02*
D03*
X2135000Y830912D02*
D03*
X2235000Y830956D02*
D03*
X2335000Y831000D02*
D03*
X2435000Y831044D02*
D03*
X1473200Y1193800D02*
D03*
D36*
X265412Y576400D02*
D03*
X155413Y576400D02*
D03*
X265412Y686400D02*
D03*
X155413Y686400D02*
D03*
X1199196Y975787D02*
D03*
Y865787D02*
D03*
Y755787D02*
D03*
X1089196Y975787D02*
D03*
Y865787D02*
D03*
Y755787D02*
D03*
X979196Y975787D02*
D03*
Y865787D02*
D03*
Y755787D02*
D03*
%TF.MD5,66ce3b38a582a323c6645e4db03c0f71*%
M02*
