%TF.GenerationSoftware,Altium Limited,Altium Designer,24.5.2 (23)*%
G04 Layer_Physical_Order=2*
G04 Layer_Color=36540*
%FSLAX45Y45*%
%MOMM*%
%TF.SameCoordinates,A44132E1-8554-4EB8-AD62-5007B9A5CA4B*%
%TF.FilePolarity,Positive*%
%TF.FileFunction,Copper,L2,Inr,Signal*%
%TF.Part,Single*%
G01*
G75*
%TA.AperFunction,ComponentPad*%
%ADD25C,0.80000*%
%TA.AperFunction,ViaPad*%
%ADD26C,0.60000*%
%ADD27C,0.50000*%
G36*
X1000444Y1485984D02*
X1010367Y1479353D01*
X1028746Y1471741D01*
X1040451Y1469412D01*
X1714500D01*
Y863600D01*
X2469413D01*
X2469414Y250000D01*
X2469413Y228390D01*
X2460981Y186000D01*
X2444441Y146068D01*
X2420429Y110132D01*
X2389867Y79570D01*
X2353931Y55558D01*
X2314000Y39018D01*
X2271610Y30587D01*
X2250000D01*
X2200404Y30587D01*
X2188698Y28259D01*
X2178775Y21629D01*
X2172144Y11705D01*
X2169816Y0D01*
X2013573D01*
X1999556Y14016D01*
X1989633Y20647D01*
X1971254Y28260D01*
X1959549Y30588D01*
X1040452D01*
X1028746Y28260D01*
X1010367Y20647D01*
X1000444Y14016D01*
X986428Y0D01*
X830988D01*
X828660Y11704D01*
X822029Y21628D01*
X812106Y28258D01*
X800400Y30586D01*
X750000D01*
X728389Y30587D01*
X686000Y39018D01*
X647803Y54840D01*
X645348Y58081D01*
X649331Y65405D01*
X652782Y69300D01*
X669351D01*
X685890Y76151D01*
X698549Y88810D01*
X705400Y105349D01*
Y123251D01*
X698549Y139790D01*
X685890Y152449D01*
X669351Y159300D01*
X651449D01*
X634910Y152449D01*
X622251Y139790D01*
X615400Y123251D01*
Y105349D01*
X622251Y88810D01*
X628467Y82594D01*
X620371Y72729D01*
X610132Y79571D01*
X579570Y110132D01*
X555558Y146069D01*
X539018Y186000D01*
X530587Y228389D01*
Y250000D01*
X530586Y823932D01*
X543287Y831703D01*
X553206Y827595D01*
X571108D01*
X587647Y834446D01*
X600306Y847104D01*
X604934Y858279D01*
X616176Y863034D01*
X619511Y862808D01*
X634096Y856767D01*
X651998D01*
X668537Y863618D01*
X681196Y876276D01*
X688047Y892816D01*
Y910718D01*
X681196Y927257D01*
X677608Y930845D01*
X675303Y943636D01*
X678356Y946690D01*
X687961Y956295D01*
X694812Y972834D01*
Y990736D01*
X687961Y1007276D01*
X675302Y1019934D01*
X658763Y1026785D01*
X640861D01*
X625769Y1020534D01*
X624321Y1019934D01*
X611280Y1024853D01*
X609649Y1028790D01*
X596990Y1041449D01*
X580451Y1048300D01*
X562549D01*
X546010Y1041449D01*
X543287Y1038726D01*
X530586Y1043986D01*
Y1250000D01*
X530587Y1271610D01*
X539018Y1314000D01*
X555559Y1353932D01*
X579571Y1389868D01*
X590000Y1400297D01*
X602700Y1395037D01*
Y1388049D01*
X609551Y1371510D01*
X622210Y1358851D01*
X638749Y1352000D01*
X656651D01*
X673190Y1358851D01*
X685849Y1371510D01*
X692700Y1388049D01*
Y1405951D01*
X685849Y1422490D01*
X673190Y1435149D01*
X665006Y1438539D01*
Y1452286D01*
X686000Y1460981D01*
X728390Y1469413D01*
X799597D01*
X811302Y1471742D01*
X821225Y1478372D01*
X827856Y1488296D01*
X830184Y1500000D01*
X986428D01*
X1000444Y1485984D01*
D02*
G37*
%LPC*%
G36*
X721431Y1306344D02*
X703529D01*
X686989Y1299493D01*
X674331Y1286835D01*
X667480Y1270295D01*
Y1252393D01*
X674331Y1235854D01*
X686989Y1223195D01*
X703529Y1216345D01*
X721431D01*
X737970Y1223195D01*
X750629Y1235854D01*
X757480Y1252393D01*
Y1270295D01*
X750629Y1286835D01*
X737970Y1299493D01*
X721431Y1306344D01*
D02*
G37*
G36*
X1482151Y1238800D02*
X1464249D01*
X1447710Y1231949D01*
X1435051Y1219290D01*
X1428200Y1202751D01*
Y1184849D01*
X1435051Y1168310D01*
X1447710Y1155651D01*
X1464249Y1148800D01*
X1482151D01*
X1498690Y1155651D01*
X1511349Y1168310D01*
X1518200Y1184849D01*
Y1202751D01*
X1511349Y1219290D01*
X1498690Y1231949D01*
X1482151Y1238800D01*
D02*
G37*
G36*
X847151Y1149900D02*
X829249D01*
X812710Y1143049D01*
X800051Y1130390D01*
X793200Y1113851D01*
Y1095949D01*
X800051Y1079410D01*
X812710Y1066751D01*
X829249Y1059900D01*
X847151D01*
X863690Y1066751D01*
X876349Y1079410D01*
X883200Y1095949D01*
Y1113851D01*
X876349Y1130390D01*
X863690Y1143049D01*
X847151Y1149900D01*
D02*
G37*
G36*
X770117Y937790D02*
X752215D01*
X735676Y930939D01*
X723017Y918281D01*
X716166Y901741D01*
Y883839D01*
X723017Y867300D01*
X734173Y856144D01*
X734295Y847816D01*
X733111Y841957D01*
X732892Y841866D01*
X720234Y829208D01*
X713383Y812668D01*
Y794767D01*
X720234Y778227D01*
X732892Y765568D01*
X749432Y758718D01*
X767333D01*
X783873Y765568D01*
X796532Y778227D01*
X803382Y794767D01*
Y812668D01*
X796532Y829208D01*
X785375Y840364D01*
X785253Y848691D01*
X786438Y854550D01*
X786657Y854641D01*
X799315Y867300D01*
X806166Y883839D01*
Y901741D01*
X799315Y918281D01*
X786657Y930939D01*
X770117Y937790D01*
D02*
G37*
G36*
X1041998Y578095D02*
X1024096D01*
X1007556Y571244D01*
X994898Y558585D01*
X988047Y542046D01*
Y524144D01*
X994898Y507604D01*
X1007556Y494946D01*
X1024096Y488095D01*
X1041998D01*
X1058537Y494946D01*
X1071196Y507604D01*
X1078047Y524144D01*
Y542046D01*
X1071196Y558585D01*
X1058537Y571244D01*
X1041998Y578095D01*
D02*
G37*
G36*
X745718Y527433D02*
X727816D01*
X711276Y520582D01*
X698618Y507923D01*
X691767Y491384D01*
Y473482D01*
X698618Y456942D01*
X711276Y444284D01*
X727816Y437433D01*
X745718D01*
X762257Y444284D01*
X774916Y456942D01*
X781767Y473482D01*
Y491384D01*
X774916Y507923D01*
X762257Y520582D01*
X745718Y527433D01*
D02*
G37*
G36*
X2093791Y512893D02*
X2075889D01*
X2059350Y506042D01*
X2046691Y493383D01*
X2039840Y476844D01*
Y458942D01*
X2046691Y442402D01*
X2059350Y429744D01*
X2075889Y422893D01*
X2093791D01*
X2110331Y429744D01*
X2122989Y442402D01*
X2129840Y458942D01*
Y476844D01*
X2122989Y493383D01*
X2110331Y506042D01*
X2093791Y512893D01*
D02*
G37*
G36*
X960026Y467002D02*
X942124D01*
X925585Y460151D01*
X912926Y447492D01*
X906075Y430953D01*
Y413051D01*
X912926Y396511D01*
X925585Y383853D01*
X942124Y377002D01*
X960026D01*
X976566Y383853D01*
X989224Y396511D01*
X996075Y413051D01*
Y430953D01*
X989224Y447492D01*
X976566Y460151D01*
X960026Y467002D01*
D02*
G37*
G36*
X657891Y463331D02*
X639989D01*
X623449Y456480D01*
X610791Y443821D01*
X603940Y427282D01*
Y409380D01*
X610791Y392840D01*
X623449Y380182D01*
X639989Y373331D01*
X657891D01*
X674430Y380182D01*
X687089Y392840D01*
X693940Y409380D01*
Y427282D01*
X687089Y443821D01*
X674430Y456480D01*
X657891Y463331D01*
D02*
G37*
G36*
X787527Y430798D02*
X769625D01*
X753085Y423948D01*
X740427Y411289D01*
X733576Y394750D01*
Y376848D01*
X740427Y360308D01*
X753085Y347650D01*
X769625Y340799D01*
X787527D01*
X804066Y347650D01*
X816725Y360308D01*
X823576Y376848D01*
Y394750D01*
X816725Y411289D01*
X804066Y423948D01*
X787527Y430798D01*
D02*
G37*
G36*
X1186129Y369917D02*
X1168228D01*
X1151688Y363066D01*
X1139029Y350407D01*
X1132179Y333868D01*
Y315966D01*
X1139029Y299426D01*
X1151688Y286768D01*
X1168228Y279917D01*
X1186129D01*
X1202669Y286768D01*
X1215328Y299426D01*
X1222178Y315966D01*
Y333868D01*
X1215328Y350407D01*
X1202669Y363066D01*
X1186129Y369917D01*
D02*
G37*
G36*
X1527676Y443053D02*
X1509774D01*
X1493234Y436202D01*
X1480576Y423543D01*
X1473725Y407004D01*
Y389102D01*
X1480576Y372563D01*
X1493234Y359904D01*
X1509774Y353053D01*
X1511703D01*
X1511761Y352967D01*
X1515597Y340353D01*
X1505669Y330426D01*
X1498818Y313886D01*
Y295984D01*
X1505669Y279445D01*
X1518328Y266786D01*
X1534867Y259935D01*
X1552769D01*
X1569309Y266786D01*
X1581967Y279445D01*
X1588818Y295984D01*
Y311567D01*
X1589417Y314459D01*
X1598665Y323300D01*
X1609151D01*
X1625690Y330151D01*
X1638349Y342810D01*
X1645200Y359349D01*
Y377251D01*
X1638349Y393790D01*
X1625690Y406449D01*
X1609151Y413300D01*
X1591249D01*
X1576370Y407137D01*
X1573061Y407102D01*
X1561844Y411544D01*
X1556874Y423543D01*
X1544215Y436202D01*
X1527676Y443053D01*
D02*
G37*
G36*
X2295708Y337265D02*
X2277806D01*
X2261266Y330414D01*
X2248608Y317755D01*
X2241757Y301216D01*
Y283314D01*
X2248608Y266774D01*
X2261266Y254116D01*
X2277806Y247265D01*
X2295708D01*
X2312247Y254116D01*
X2324906Y266774D01*
X2331757Y283314D01*
Y301216D01*
X2324906Y317755D01*
X2312247Y330414D01*
X2295708Y337265D01*
D02*
G37*
G36*
X663607Y267331D02*
X645705D01*
X629165Y260480D01*
X616507Y247822D01*
X609656Y231282D01*
Y213380D01*
X616507Y196841D01*
X629165Y184182D01*
X645705Y177331D01*
X663607D01*
X680146Y184182D01*
X692805Y196841D01*
X699656Y213380D01*
Y231282D01*
X692805Y247822D01*
X680146Y260480D01*
X663607Y267331D01*
D02*
G37*
G36*
X1432734Y214536D02*
Y170806D01*
X1476464D01*
X1468600Y189793D01*
X1451722Y206671D01*
X1432734Y214536D01*
D02*
G37*
G36*
X1402734D02*
X1383747Y206671D01*
X1366869Y189793D01*
X1357734Y167741D01*
X1345734Y166746D01*
X1337361Y186961D01*
X1321889Y202432D01*
X1301674Y210806D01*
X1279794D01*
X1259579Y202432D01*
X1244108Y186961D01*
X1235734Y166746D01*
Y144866D01*
X1244108Y124651D01*
X1259579Y109179D01*
X1279794Y100806D01*
X1301674D01*
X1321889Y109179D01*
X1337361Y124651D01*
X1345734Y144865D01*
X1357734Y143871D01*
X1366869Y121818D01*
X1383747Y104940D01*
X1402734Y97075D01*
Y155806D01*
Y214536D01*
D02*
G37*
G36*
X921056Y224367D02*
X903154D01*
X886615Y217516D01*
X873956Y204858D01*
X867105Y188318D01*
Y170416D01*
X873956Y153877D01*
X886615Y141218D01*
X903154Y134367D01*
X921056D01*
X937596Y141218D01*
X950254Y153877D01*
X957105Y170416D01*
Y188318D01*
X950254Y204858D01*
X937596Y217516D01*
X921056Y224367D01*
D02*
G37*
G36*
X1174674Y210806D02*
X1152794D01*
X1132579Y202432D01*
X1117108Y186961D01*
X1108734Y166746D01*
Y144866D01*
X1117108Y124651D01*
X1132579Y109179D01*
X1152794Y100806D01*
X1174674D01*
X1194889Y109179D01*
X1210361Y124651D01*
X1218734Y144866D01*
Y166746D01*
X1210361Y186961D01*
X1194889Y202432D01*
X1174674Y210806D01*
D02*
G37*
G36*
X1047674D02*
X1025794D01*
X1005579Y202432D01*
X990108Y186961D01*
X981734Y166746D01*
Y144866D01*
X990108Y124651D01*
X1005579Y109179D01*
X1025794Y100806D01*
X1047674D01*
X1067889Y109179D01*
X1083361Y124651D01*
X1091734Y144866D01*
Y166746D01*
X1083361Y186961D01*
X1067889Y202432D01*
X1047674Y210806D01*
D02*
G37*
G36*
X1476464Y140806D02*
X1432734D01*
Y97075D01*
X1451722Y104940D01*
X1468600Y121818D01*
X1476464Y140806D01*
D02*
G37*
%LPD*%
D25*
X1417734Y155806D02*
D03*
X1290734D02*
D03*
X1163734D02*
D03*
X1036734D02*
D03*
D26*
X1067269Y455053D02*
D03*
X1033047Y533095D02*
D03*
X1279031Y361980D02*
D03*
X859777Y310628D02*
D03*
X564500Y598541D02*
D03*
X736767Y482433D02*
D03*
X778576Y385799D02*
D03*
X864074Y393321D02*
D03*
X648940Y418331D02*
D03*
X912105Y179367D02*
D03*
X654656Y222331D02*
D03*
X660400Y114300D02*
D03*
X758383Y803717D02*
D03*
X929618Y98035D02*
D03*
X1177178Y324917D02*
D03*
X951075Y422002D02*
D03*
X1465997Y648201D02*
D03*
X649812Y981785D02*
D03*
X562157Y872595D02*
D03*
X1518725Y398053D02*
D03*
X647700Y1397000D02*
D03*
X694800Y1118287D02*
D03*
X643047Y901767D02*
D03*
X2286757Y292265D02*
D03*
X2084840Y467893D02*
D03*
X571500Y1003300D02*
D03*
X1600200Y368300D02*
D03*
X1904851Y244445D02*
D03*
X1510413Y71558D02*
D03*
X1612900Y787400D02*
D03*
X1735000Y830735D02*
D03*
X1895515Y406080D02*
D03*
X2026512Y566623D02*
D03*
X761166Y892790D02*
D03*
X1543818Y304935D02*
D03*
X915433Y1423025D02*
D03*
X813833D02*
D03*
X1067833Y1435725D02*
D03*
X1169433D02*
D03*
X1417281Y1403761D02*
D03*
X1835000Y830779D02*
D03*
X1678221Y935056D02*
D03*
X1678177Y1035056D02*
D03*
X1678133Y1135056D02*
D03*
X1676401Y1224291D02*
D03*
X1678000Y1435056D02*
D03*
X1935000Y830823D02*
D03*
X2035000Y830868D02*
D03*
X2135000Y830912D02*
D03*
X2235000Y830956D02*
D03*
X2335000Y831000D02*
D03*
X2435000Y831044D02*
D03*
X712480Y1261344D02*
D03*
X1473200Y1193800D02*
D03*
X838200Y1104900D02*
D03*
D27*
X1199196Y975787D02*
D03*
Y865787D02*
D03*
Y755787D02*
D03*
X1089196Y975787D02*
D03*
Y865787D02*
D03*
Y755787D02*
D03*
X979196Y975787D02*
D03*
Y865787D02*
D03*
Y755787D02*
D03*
%TF.MD5,7e33dabde1d0f39994c55dc3b7bc1356*%
M02*
