%TF.GenerationSoftware,Altium Limited,Altium Designer,24.5.2 (23)*%
G04 Layer_Physical_Order=4*
G04 Layer_Color=16711680*
%FSLAX45Y45*%
%MOMM*%
%TF.SameCoordinates,A44132E1-8554-4EB8-AD62-5007B9A5CA4B*%
%TF.FilePolarity,Positive*%
%TF.FileFunction,Copper,L4,Bot,Signal*%
%TF.Part,Single*%
G01*
G75*
%TA.AperFunction,SMDPad,CuDef*%
%ADD14R,0.62000X0.70000*%
%ADD15R,0.70000X0.62000*%
%TA.AperFunction,Conductor*%
%ADD23C,0.15000*%
%ADD24C,0.50000*%
%TA.AperFunction,ComponentPad*%
%ADD25C,0.80000*%
%TA.AperFunction,ViaPad*%
%ADD26C,0.60000*%
%ADD27C,0.50000*%
%TA.AperFunction,SMDPad,CuDef*%
%ADD28R,0.55000X0.40000*%
%AMCUSTOMSHAPE29*
4,1,5,-0.32500,-0.85000,-0.62500,-0.55000,-0.62500,0.85000,0.62500,0.85000,0.62500,-0.85000,-0.32500,-0.85000,0.0*%
%ADD29CUSTOMSHAPE29*%

%ADD30R,1.00000X0.55000*%
%ADD31R,1.30000X1.26000*%
G36*
X1000444Y1485984D02*
X1010367Y1479353D01*
X1028746Y1471741D01*
X1040451Y1469412D01*
X1714500D01*
Y863600D01*
X2469413D01*
X2469414Y250000D01*
X2469413Y228390D01*
X2460981Y186000D01*
X2444441Y146068D01*
X2420429Y110132D01*
X2389867Y79570D01*
X2374515Y69312D01*
X2363315Y75299D01*
Y111477D01*
X2278315D01*
X2193315D01*
Y43477D01*
X2254370D01*
X2259999Y30777D01*
X2259827Y30587D01*
X2200404Y30587D01*
X2188698Y28259D01*
X2178775Y21629D01*
X2172144Y11705D01*
X2169816Y0D01*
X2013573D01*
X1999556Y14016D01*
X1989633Y20647D01*
X1971254Y28260D01*
X1959549Y30588D01*
X1040452D01*
X1028746Y28260D01*
X1010367Y20647D01*
X1000444Y14016D01*
X986428Y0D01*
X830988D01*
X828660Y11704D01*
X822029Y21628D01*
X812106Y28258D01*
X800400Y30586D01*
X750000D01*
X728389Y30587D01*
X686000Y39018D01*
X647803Y54840D01*
X645348Y58081D01*
X649331Y65405D01*
X652782Y69300D01*
X669351D01*
X685890Y76151D01*
X698549Y88810D01*
X705400Y105349D01*
Y123251D01*
X698549Y139790D01*
X685890Y152449D01*
X669351Y159300D01*
X651664D01*
X647811Y163081D01*
X645358Y165631D01*
X651714Y177331D01*
X663607D01*
X680146Y184182D01*
X692805Y196841D01*
X699656Y213380D01*
Y231282D01*
X692805Y247822D01*
X680146Y260480D01*
X663607Y267331D01*
X645705D01*
X629165Y260480D01*
X622567Y253882D01*
X614278D01*
X605448Y262712D01*
Y378278D01*
X616838Y383384D01*
X625999Y376740D01*
Y353724D01*
X627746Y344945D01*
X632718Y337502D01*
X728314Y241907D01*
X735756Y236934D01*
X744535Y235187D01*
X896090D01*
X898616Y222487D01*
X886615Y217516D01*
X873956Y204858D01*
X867105Y188318D01*
Y170416D01*
X873956Y153877D01*
X886615Y141218D01*
X903154Y134367D01*
X921056D01*
X937596Y141218D01*
X950254Y153877D01*
X957105Y170416D01*
Y188318D01*
X950254Y204858D01*
X937596Y217516D01*
X925594Y222487D01*
X928120Y235187D01*
X1273812D01*
X1282591Y236934D01*
X1290033Y241907D01*
X1414622Y366495D01*
X1419594Y373937D01*
X1421341Y382716D01*
Y384100D01*
X1440900D01*
Y454100D01*
X1440900D01*
Y463461D01*
X1442447Y476160D01*
X1465300D01*
Y443000D01*
X1485880D01*
X1487332Y430300D01*
X1480576Y423543D01*
X1473725Y407004D01*
Y389102D01*
X1480576Y372563D01*
X1493234Y359904D01*
X1509774Y353053D01*
X1511703D01*
X1511761Y352967D01*
X1515597Y340353D01*
X1505669Y330426D01*
X1498818Y313886D01*
Y295984D01*
X1505669Y279445D01*
X1518328Y266786D01*
X1534867Y259935D01*
X1552769D01*
X1569309Y266786D01*
X1581967Y279445D01*
X1588818Y295984D01*
Y311567D01*
X1589417Y314459D01*
X1598665Y323300D01*
X1609151D01*
X1625690Y330151D01*
X1638349Y342810D01*
X1645200Y359349D01*
Y377251D01*
X1638349Y393790D01*
X1625690Y406449D01*
X1609151Y413300D01*
X1591249D01*
X1576370Y407137D01*
X1573061Y407102D01*
X1561844Y411544D01*
X1556874Y423543D01*
X1550117Y430300D01*
X1555378Y443000D01*
X1557299D01*
Y530000D01*
X1562299D01*
Y570000D01*
X1511300D01*
X1460300D01*
Y534017D01*
X1451496Y527231D01*
X1445803Y538881D01*
X1445900Y539101D01*
X1445900D01*
X1445900Y539101D01*
Y564100D01*
X1398400D01*
Y579100D01*
X1383400D01*
Y619100D01*
X1350900D01*
Y608596D01*
X1345900Y604492D01*
X1298400D01*
Y499100D01*
Y393708D01*
X1345900D01*
X1353557Y386352D01*
X1355068Y371827D01*
X1264309Y281069D01*
X1214930D01*
X1209670Y293769D01*
X1215328Y299426D01*
X1222178Y315966D01*
Y333868D01*
X1215328Y350407D01*
X1202669Y363066D01*
X1186129Y369917D01*
X1168228D01*
X1151688Y363066D01*
X1139029Y350407D01*
X1137973Y347857D01*
X1119994D01*
X1115134Y359591D01*
X1139643Y384100D01*
X1210900D01*
Y408668D01*
X1222633Y413529D01*
X1236480Y399681D01*
X1236481Y399681D01*
X1243096Y395260D01*
X1250900Y393708D01*
X1268400D01*
Y499100D01*
Y604492D01*
X1220900D01*
X1210900Y614100D01*
Y614100D01*
X1125900D01*
Y602041D01*
X1084359D01*
X805110Y881289D01*
X806166Y883839D01*
Y901741D01*
X799315Y918281D01*
X786657Y930939D01*
X770117Y937790D01*
X752215D01*
X744307Y934514D01*
X731607Y943000D01*
Y965864D01*
X826699Y1060956D01*
X829249Y1059900D01*
X847151D01*
X863690Y1066751D01*
X876349Y1079410D01*
X883200Y1095949D01*
Y1113851D01*
X876349Y1130390D01*
X863690Y1143049D01*
X847151Y1149900D01*
X829249D01*
X812710Y1143049D01*
X800051Y1130390D01*
X793200Y1113851D01*
Y1095949D01*
X794256Y1093399D01*
X701951Y1001094D01*
X689495Y1003572D01*
X687961Y1007276D01*
X675302Y1019934D01*
X658763Y1026785D01*
X640861D01*
X625769Y1020534D01*
X624321Y1019934D01*
X611280Y1024853D01*
X609649Y1028790D01*
X596990Y1041449D01*
X580451Y1048300D01*
X562549D01*
X546010Y1041449D01*
X543287Y1038726D01*
X530586Y1043986D01*
Y1250000D01*
X530587Y1271610D01*
X539018Y1314000D01*
X555559Y1353932D01*
X579571Y1389868D01*
X590000Y1400297D01*
X602700Y1395037D01*
Y1388049D01*
X609551Y1371510D01*
X622210Y1358851D01*
X638749Y1352000D01*
X656651D01*
X673190Y1358851D01*
X685849Y1371510D01*
X692700Y1388049D01*
Y1405951D01*
X685849Y1422490D01*
X673190Y1435149D01*
X665006Y1438539D01*
Y1452286D01*
X686000Y1460981D01*
X728390Y1469413D01*
X799597D01*
X811302Y1471742D01*
X821225Y1478372D01*
X827856Y1488296D01*
X830184Y1500000D01*
X986428D01*
X1000444Y1485984D01*
D02*
G37*
G36*
X619511Y862808D02*
X630165Y858395D01*
X634096Y856766D01*
X639931Y847344D01*
Y599575D01*
X542320Y501965D01*
X530587Y506825D01*
X530586Y823932D01*
X543287Y831703D01*
X553206Y827595D01*
X571108D01*
X587647Y834446D01*
X600306Y847104D01*
X604934Y858279D01*
X616176Y863034D01*
X619511Y862808D01*
D02*
G37*
G36*
X1030719Y590795D02*
X1025458Y578095D01*
X1024096D01*
X1007556Y571244D01*
X994898Y558585D01*
X988047Y542046D01*
Y524144D01*
X994898Y507604D01*
X1007556Y494946D01*
X1024096Y488095D01*
X1041998D01*
X1058537Y494946D01*
X1071196Y507604D01*
X1078047Y524144D01*
Y542046D01*
X1077461Y543459D01*
X1085947Y556160D01*
X1116796D01*
X1124286Y546720D01*
X1120900Y539100D01*
X1120900D01*
X1120900Y539099D01*
Y514100D01*
X1168400D01*
Y484100D01*
X1120900D01*
Y459100D01*
X1120900D01*
X1125900Y454100D01*
Y429538D01*
X1121862Y428734D01*
X1114419Y423761D01*
X1114419Y423761D01*
X1066858Y376200D01*
X1012300D01*
Y381200D01*
X991874D01*
X986613Y393900D01*
X989224Y396511D01*
X996075Y413051D01*
Y430953D01*
X989224Y447492D01*
X976566Y460151D01*
X960026Y467002D01*
X942124D01*
X925585Y460151D01*
X912926Y447492D01*
X906075Y430953D01*
Y413051D01*
X912926Y396511D01*
X915538Y393900D01*
X910277Y381200D01*
X902300D01*
Y345200D01*
X957300D01*
Y315200D01*
X902300D01*
Y281069D01*
X754038D01*
X671880Y363226D01*
Y379126D01*
X674430Y380182D01*
X687089Y392840D01*
X693940Y409380D01*
Y427282D01*
X687089Y443821D01*
X674430Y456480D01*
X680017Y467486D01*
X680361Y467831D01*
X695342Y464851D01*
X698618Y456942D01*
X711276Y444284D01*
X727816Y437433D01*
X745718D01*
X762257Y444284D01*
X774916Y456942D01*
X781767Y473482D01*
Y491384D01*
X774916Y507923D01*
X762257Y520582D01*
X754349Y523858D01*
X751369Y538838D01*
X774604Y562073D01*
X779577Y569516D01*
X781323Y578295D01*
Y764512D01*
X783873Y765568D01*
X796532Y778227D01*
X803382Y794767D01*
Y800170D01*
X816082Y805431D01*
X1030719Y590795D01*
D02*
G37*
%LPC*%
G36*
X721431Y1306344D02*
X703529D01*
X686989Y1299493D01*
X674331Y1286835D01*
X667480Y1270295D01*
Y1252393D01*
X674331Y1235854D01*
X686989Y1223195D01*
X703529Y1216345D01*
X721431D01*
X737970Y1223195D01*
X750629Y1235854D01*
X757480Y1252393D01*
Y1270295D01*
X750629Y1286835D01*
X737970Y1299493D01*
X721431Y1306344D01*
D02*
G37*
G36*
X1482151Y1238800D02*
X1464249D01*
X1447710Y1231949D01*
X1435051Y1219290D01*
X1428200Y1202751D01*
Y1184849D01*
X1435051Y1168310D01*
X1447710Y1155651D01*
X1464249Y1148800D01*
X1482151D01*
X1498690Y1155651D01*
X1511349Y1168310D01*
X1518200Y1184849D01*
Y1202751D01*
X1511349Y1219290D01*
X1498690Y1231949D01*
X1482151Y1238800D01*
D02*
G37*
G36*
X2363315Y784477D02*
X2293315D01*
Y716477D01*
X2363315D01*
Y784477D01*
D02*
G37*
G36*
X2263315D02*
X2193315D01*
Y716477D01*
X2263315D01*
Y784477D01*
D02*
G37*
G36*
X2363315Y686477D02*
X2293315D01*
Y618477D01*
X2363315D01*
Y686477D01*
D02*
G37*
G36*
X2263315D02*
X2193315D01*
Y618477D01*
X2263315D01*
Y686477D01*
D02*
G37*
G36*
X1562299Y640000D02*
X1526300D01*
Y600000D01*
X1562299D01*
Y640000D01*
D02*
G37*
G36*
X1496300D02*
X1460300D01*
Y600000D01*
X1496300D01*
Y640000D01*
D02*
G37*
G36*
X1445900Y619100D02*
X1413400D01*
Y594100D01*
X1445900D01*
Y619100D01*
D02*
G37*
G36*
X2093791Y512893D02*
X2075889D01*
X2061091Y506763D01*
X2014094D01*
X2014092Y506764D01*
X2012652Y506477D01*
X1914315D01*
Y424177D01*
X1914314Y422106D01*
X1909314Y411477D01*
X1909315Y410848D01*
Y378977D01*
X1979315D01*
X2049314D01*
Y410848D01*
X2049315Y411477D01*
X2048835Y412496D01*
X2056896Y425196D01*
X2070329D01*
X2075889Y422893D01*
X2093791D01*
X2110331Y429744D01*
X2122989Y442402D01*
X2129840Y458942D01*
Y476844D01*
X2122989Y493383D01*
X2110331Y506042D01*
X2093791Y512893D01*
D02*
G37*
G36*
X2049314Y348977D02*
X1994315D01*
Y316477D01*
X2049314D01*
Y348977D01*
D02*
G37*
G36*
X1964315D02*
X1909315D01*
Y316477D01*
X1964315D01*
Y348977D01*
D02*
G37*
G36*
X2295708Y337265D02*
X2277806D01*
X2261266Y330414D01*
X2248608Y317755D01*
X2241757Y301216D01*
Y283314D01*
X2248608Y266774D01*
X2261266Y254116D01*
X2277806Y247265D01*
X2295708D01*
X2312247Y254116D01*
X2324906Y266774D01*
X2331757Y283314D01*
Y301216D01*
X2324906Y317755D01*
X2312247Y330414D01*
X2295708Y337265D01*
D02*
G37*
G36*
X1432734Y214536D02*
Y170806D01*
X1476464D01*
X1468600Y189793D01*
X1451722Y206671D01*
X1432734Y214536D01*
D02*
G37*
G36*
X1402734D02*
X1383747Y206671D01*
X1366869Y189793D01*
X1357734Y167741D01*
X1345734Y166746D01*
X1337361Y186961D01*
X1321889Y202432D01*
X1301674Y210806D01*
X1279794D01*
X1259579Y202432D01*
X1244108Y186961D01*
X1235734Y166746D01*
Y144866D01*
X1244108Y124651D01*
X1259579Y109179D01*
X1279794Y100806D01*
X1301674D01*
X1321889Y109179D01*
X1337361Y124651D01*
X1345734Y144865D01*
X1357734Y143871D01*
X1366869Y121818D01*
X1383747Y104940D01*
X1402734Y97075D01*
Y155806D01*
Y214536D01*
D02*
G37*
G36*
X2363315Y209477D02*
X2293315D01*
Y141477D01*
X2363315D01*
Y209477D01*
D02*
G37*
G36*
X2263315D02*
X2193315D01*
Y141477D01*
X2263315D01*
Y209477D01*
D02*
G37*
G36*
X1174674Y210806D02*
X1152794D01*
X1132579Y202432D01*
X1117108Y186961D01*
X1108734Y166746D01*
Y144866D01*
X1117108Y124651D01*
X1132579Y109179D01*
X1152794Y100806D01*
X1174674D01*
X1194889Y109179D01*
X1210361Y124651D01*
X1218734Y144866D01*
Y166746D01*
X1210361Y186961D01*
X1194889Y202432D01*
X1174674Y210806D01*
D02*
G37*
G36*
X1047674D02*
X1025794D01*
X1005579Y202432D01*
X990108Y186961D01*
X981734Y166746D01*
Y144866D01*
X990108Y124651D01*
X1005579Y109179D01*
X1025794Y100806D01*
X1047674D01*
X1067889Y109179D01*
X1083361Y124651D01*
X1091734Y144866D01*
Y166746D01*
X1083361Y186961D01*
X1067889Y202432D01*
X1047674Y210806D01*
D02*
G37*
G36*
X1476464Y140806D02*
X1432734D01*
Y97075D01*
X1451722Y104940D01*
X1468600Y121818D01*
X1476464Y140806D01*
D02*
G37*
G36*
X787527Y430798D02*
X769625D01*
X753085Y423948D01*
X740427Y411289D01*
X733576Y394750D01*
Y376848D01*
X740427Y360308D01*
X753085Y347650D01*
X769625Y340799D01*
X787527D01*
X804066Y347650D01*
X816725Y360308D01*
X823576Y376848D01*
Y394750D01*
X816725Y411289D01*
X804066Y423948D01*
X787527Y430798D01*
D02*
G37*
%LPD*%
D14*
X1511299Y493000D02*
D03*
Y585000D02*
D03*
D15*
X1049300Y330200D02*
D03*
X957300D02*
D03*
D23*
X1273812Y258128D02*
X1398400Y382716D01*
Y419100D01*
X744535Y258128D02*
X1273812D01*
X648940Y353724D02*
X744535Y258128D01*
X648940Y353724D02*
Y418331D01*
Y468852D01*
X546100Y473302D02*
X662871Y590073D01*
Y847345D01*
X546100Y228600D02*
Y473302D01*
X582508Y388933D02*
Y455163D01*
X701322Y573978D02*
Y832946D01*
X582508Y455163D02*
X701322Y573978D01*
X758383Y578295D02*
Y803717D01*
X648940Y468852D02*
X758383Y578295D01*
X546100Y228600D02*
X660400Y114300D01*
X582508Y388933D02*
X582508Y388932D01*
X646046Y230941D02*
X654656Y222331D01*
X604776Y230941D02*
X646046D01*
X582508Y253209D02*
X604776Y230941D01*
X582508Y253209D02*
Y388932D01*
X662871Y847345D02*
X708666Y893139D01*
X701322Y832946D02*
X761166Y892790D01*
X1062983Y338734D02*
X1076800Y324917D01*
X1062983Y338734D02*
Y339882D01*
X1076800Y324917D02*
X1177178D01*
X1074856Y579100D02*
X1168400D01*
X761166Y892790D02*
X1074856Y579100D01*
X1062983Y339882D02*
X1076800Y353700D01*
X1076800D01*
X1130641Y407540D02*
X1156840D01*
X1076800Y353700D02*
X1130641Y407540D01*
X1156840D02*
X1168400Y419100D01*
X708666Y975366D02*
X838200Y1104900D01*
X708666Y893139D02*
Y975366D01*
X1511299Y405478D02*
X1518725Y398053D01*
X1511299Y405478D02*
Y493000D01*
X1398400Y499100D02*
X1505199D01*
X1511299Y493000D01*
D24*
X2014092Y465980D02*
X2082927D01*
X2012090Y463977D02*
X2014092Y465980D01*
X2082927D02*
X2084840Y467893D01*
D25*
X1417734Y155806D02*
D03*
X1290734D02*
D03*
X1163734D02*
D03*
X1036734D02*
D03*
D26*
X1067269Y455053D02*
D03*
X1033047Y533095D02*
D03*
X1279031Y361980D02*
D03*
X859777Y310628D02*
D03*
X564500Y598541D02*
D03*
X736767Y482433D02*
D03*
X778576Y385799D02*
D03*
X864074Y393321D02*
D03*
X648940Y418331D02*
D03*
X912105Y179367D02*
D03*
X654656Y222331D02*
D03*
X660400Y114300D02*
D03*
X758383Y803717D02*
D03*
X929618Y98035D02*
D03*
X1177178Y324917D02*
D03*
X951075Y422002D02*
D03*
X1465997Y648201D02*
D03*
X649812Y981785D02*
D03*
X562157Y872595D02*
D03*
X1518725Y398053D02*
D03*
X647700Y1397000D02*
D03*
X694800Y1118287D02*
D03*
X643047Y901767D02*
D03*
X2286757Y292265D02*
D03*
X2084840Y467893D02*
D03*
X571500Y1003300D02*
D03*
X1600200Y368300D02*
D03*
X1904851Y244445D02*
D03*
X1510413Y71558D02*
D03*
X1612900Y787400D02*
D03*
X1735000Y830735D02*
D03*
X1895515Y406080D02*
D03*
X2026512Y566623D02*
D03*
X761166Y892790D02*
D03*
X1543818Y304935D02*
D03*
X915433Y1423025D02*
D03*
X813833D02*
D03*
X1067833Y1435725D02*
D03*
X1169433D02*
D03*
X1417281Y1403761D02*
D03*
X1835000Y830779D02*
D03*
X1678221Y935056D02*
D03*
X1678177Y1035056D02*
D03*
X1678133Y1135056D02*
D03*
X1676401Y1224291D02*
D03*
X1678000Y1435056D02*
D03*
X1935000Y830823D02*
D03*
X2035000Y830868D02*
D03*
X2135000Y830912D02*
D03*
X2235000Y830956D02*
D03*
X2335000Y831000D02*
D03*
X2435000Y831044D02*
D03*
X712480Y1261344D02*
D03*
X1473200Y1193800D02*
D03*
X838200Y1104900D02*
D03*
D27*
X1199196Y975787D02*
D03*
Y865787D02*
D03*
Y755787D02*
D03*
X1089196Y975787D02*
D03*
Y865787D02*
D03*
Y755787D02*
D03*
X979196Y975787D02*
D03*
Y865787D02*
D03*
Y755787D02*
D03*
D28*
X1168400Y419100D02*
D03*
X1398400D02*
D03*
X1168400Y499100D02*
D03*
X1398400D02*
D03*
X1168400Y579100D02*
D03*
X1398400D02*
D03*
D29*
X1283400Y499100D02*
D03*
D30*
X1979315Y463977D02*
D03*
Y363977D02*
D03*
D31*
X2278315Y701477D02*
D03*
Y126477D02*
D03*
%TF.MD5,eb094198639399337c03357b593f76dd*%
M02*
