%TF.GenerationSoftware,Altium Limited,Altium Designer,24.5.2 (23)*%
G04 Layer_Physical_Order=3*
G04 Layer_Color=16440176*
%FSLAX45Y45*%
%MOMM*%
%TF.SameCoordinates,A44132E1-8554-4EB8-AD62-5007B9A5CA4B*%
%TF.FilePolarity,Positive*%
%TF.FileFunction,Copper,L3,Inr,Signal*%
%TF.Part,Single*%
G01*
G75*
%TA.AperFunction,ComponentPad*%
%ADD25C,0.80000*%
%TA.AperFunction,ViaPad*%
%ADD26C,0.60000*%
%ADD27C,0.50000*%
G36*
X1000444Y1485984D02*
X1010367Y1479353D01*
X1024152Y1473644D01*
X1027737Y1465588D01*
X1028699Y1461875D01*
X1028685Y1458804D01*
X1022833Y1444676D01*
Y1426774D01*
X1029684Y1410234D01*
X1042342Y1397576D01*
X1058882Y1390725D01*
X1076784D01*
X1093323Y1397576D01*
X1105982Y1410234D01*
X1112283Y1425446D01*
X1118633Y1426140D01*
X1124983Y1425446D01*
X1131284Y1410234D01*
X1143942Y1397576D01*
X1160482Y1390725D01*
X1178384D01*
X1194923Y1397576D01*
X1207582Y1410234D01*
X1214433Y1426774D01*
Y1444676D01*
X1209447Y1456712D01*
X1215978Y1469412D01*
X1632123D01*
X1638263Y1456712D01*
X1633000Y1444007D01*
Y1426105D01*
X1639851Y1409565D01*
X1652510Y1396907D01*
X1669049Y1390056D01*
X1686951D01*
X1701800Y1396207D01*
X1714500Y1391323D01*
Y1266425D01*
X1702767Y1261565D01*
X1701891Y1262440D01*
X1685352Y1269291D01*
X1667450D01*
X1650910Y1262440D01*
X1638252Y1249782D01*
X1631401Y1233242D01*
Y1215340D01*
X1638252Y1198801D01*
X1650910Y1186142D01*
X1652063Y1185665D01*
X1651563Y1172125D01*
X1639984Y1160546D01*
X1633133Y1144007D01*
Y1126105D01*
X1639984Y1109565D01*
X1652642Y1096907D01*
X1664997Y1091789D01*
X1665042Y1078322D01*
X1652686Y1073205D01*
X1640028Y1060546D01*
X1633177Y1044007D01*
Y1026105D01*
X1640028Y1009565D01*
X1652686Y996907D01*
X1665042Y991789D01*
X1665086Y978322D01*
X1652731Y973205D01*
X1640072Y960546D01*
X1633221Y944006D01*
Y926105D01*
X1640072Y909565D01*
X1652731Y896907D01*
X1669270Y890056D01*
X1687172D01*
X1701800Y896115D01*
X1714500Y891102D01*
Y870951D01*
X1709509Y868884D01*
X1696851Y856225D01*
X1690000Y839686D01*
Y821784D01*
X1696851Y805245D01*
X1709509Y792586D01*
X1726049Y785735D01*
X1743951D01*
X1760490Y792586D01*
X1773149Y805245D01*
X1778266Y817600D01*
X1791733Y817644D01*
X1796851Y805289D01*
X1809509Y792630D01*
X1826049Y785779D01*
X1843951D01*
X1860490Y792630D01*
X1873149Y805289D01*
X1878266Y817644D01*
X1891733Y817688D01*
X1896851Y805333D01*
X1909509Y792674D01*
X1926049Y785823D01*
X1943951D01*
X1960490Y792674D01*
X1973149Y805333D01*
X1978267Y817688D01*
X1991733Y817732D01*
X1996851Y805377D01*
X2009509Y792719D01*
X2026049Y785868D01*
X2043951D01*
X2060490Y792719D01*
X2073149Y805377D01*
X2078267Y817732D01*
X2091733Y817777D01*
X2096851Y805421D01*
X2109509Y792763D01*
X2126049Y785912D01*
X2143951D01*
X2160490Y792763D01*
X2173149Y805421D01*
X2178267Y817777D01*
X2191733Y817821D01*
X2196851Y805465D01*
X2209509Y792807D01*
X2226049Y785956D01*
X2243951D01*
X2260490Y792807D01*
X2273149Y805465D01*
X2278267Y817821D01*
X2291733Y817865D01*
X2296851Y805510D01*
X2309509Y792851D01*
X2326049Y786000D01*
X2343951D01*
X2360490Y792851D01*
X2373149Y805510D01*
X2378267Y817865D01*
X2391733Y817909D01*
X2396851Y805554D01*
X2409510Y792895D01*
X2426049Y786044D01*
X2443951D01*
X2456713Y791331D01*
X2469413Y785225D01*
X2469414Y498836D01*
X2117537D01*
X2110331Y506042D01*
X2093791Y512893D01*
X2075889D01*
X2059350Y506042D01*
X2052144Y498836D01*
X1993900D01*
X1982419Y494081D01*
X1977664Y482600D01*
Y266236D01*
X1949851D01*
X1945311Y264356D01*
X1943000Y269935D01*
X1930341Y282594D01*
X1913802Y289444D01*
X1895900D01*
X1879360Y282594D01*
X1866702Y269935D01*
X1864390Y264356D01*
X1859851Y266236D01*
X1003300D01*
X991819Y261481D01*
X987064Y250000D01*
Y218330D01*
X987700Y216794D01*
X987376Y215163D01*
X990007Y211225D01*
X991819Y206849D01*
X991973Y206786D01*
X994664Y200929D01*
X995508Y192361D01*
X990108Y186961D01*
X981734Y166746D01*
Y144866D01*
X990108Y124651D01*
X995508Y119251D01*
X994664Y110683D01*
X991973Y104825D01*
X991819Y104762D01*
X990007Y100386D01*
X987375Y96449D01*
X987319Y96437D01*
X974618Y106782D01*
Y106986D01*
X967767Y123525D01*
X955109Y136184D01*
X938569Y143035D01*
X920667D01*
X904128Y136184D01*
X891469Y123525D01*
X884618Y106986D01*
Y89084D01*
X891469Y72544D01*
X904128Y59886D01*
X920667Y53035D01*
X938569D01*
X955109Y59886D01*
X967767Y72544D01*
X971789Y82253D01*
X974619Y89083D01*
X987064Y88469D01*
X987064Y80820D01*
Y31199D01*
X988880Y26816D01*
X988927Y26577D01*
X988760Y25214D01*
X989352Y24456D01*
X989810Y22165D01*
X990916Y20513D01*
X992850Y12389D01*
X992943Y10002D01*
X983215Y0D01*
X830988D01*
X828660Y11704D01*
X822029Y21628D01*
X812106Y28258D01*
X800400Y30586D01*
X750000D01*
X728389Y30587D01*
X686000Y39018D01*
X647803Y54840D01*
X645348Y58081D01*
X649331Y65405D01*
X652782Y69300D01*
X669351D01*
X685890Y76151D01*
X698549Y88810D01*
X705400Y105349D01*
Y123251D01*
X698549Y139790D01*
X685890Y152449D01*
X669351Y159300D01*
X651449D01*
X634910Y152449D01*
X622251Y139790D01*
X615400Y123251D01*
Y105349D01*
X622251Y88810D01*
X628467Y82594D01*
X620371Y72729D01*
X610132Y79571D01*
X579570Y110132D01*
X555558Y146069D01*
X539018Y186000D01*
X533400Y214246D01*
Y549408D01*
X546100Y557455D01*
X555549Y553541D01*
X573451D01*
X589990Y560392D01*
X602649Y573050D01*
X609500Y589590D01*
Y607492D01*
X602649Y624031D01*
X589990Y636690D01*
X573451Y643541D01*
X555549D01*
X546100Y639627D01*
X533400Y647674D01*
Y1285754D01*
X539018Y1314000D01*
X555559Y1353932D01*
X579571Y1389868D01*
X610132Y1420429D01*
X646069Y1444442D01*
X686000Y1460981D01*
X728390Y1469413D01*
X778621D01*
X783882Y1456713D01*
X775684Y1448515D01*
X768833Y1431976D01*
Y1414074D01*
X775684Y1397534D01*
X788342Y1384876D01*
X804882Y1378025D01*
X822784D01*
X839323Y1384876D01*
X851982Y1397534D01*
X858283Y1412746D01*
X864633Y1413440D01*
X870983Y1412746D01*
X877284Y1397534D01*
X889942Y1384876D01*
X906482Y1378025D01*
X924384D01*
X940923Y1384876D01*
X953582Y1397534D01*
X960433Y1414074D01*
Y1431976D01*
X953582Y1448515D01*
X940923Y1461174D01*
X924384Y1468025D01*
X906482D01*
X889942Y1461174D01*
X877284Y1448515D01*
X870983Y1433303D01*
X864633Y1432610D01*
X858283Y1433303D01*
X851982Y1448515D01*
X839323Y1461174D01*
X826374Y1466538D01*
X824149Y1471652D01*
X822792Y1477161D01*
X822794Y1480720D01*
X827856Y1488296D01*
X830184Y1500000D01*
X986428D01*
X1000444Y1485984D01*
D02*
G37*
G36*
X2469414Y250000D02*
X2469413Y228390D01*
X2460981Y186000D01*
X2444441Y146068D01*
X2420429Y110132D01*
X2389867Y79570D01*
X2353931Y55558D01*
X2314000Y39018D01*
X2271610Y30587D01*
X2250000D01*
X2200404Y30587D01*
X2188698Y28259D01*
X2178775Y21629D01*
X2172144Y11705D01*
X2169816Y0D01*
X2013573D01*
X1999556Y14016D01*
X1989633Y20647D01*
X1971254Y28260D01*
X1959549Y30588D01*
X1551043D01*
X1545783Y43288D01*
X1548562Y46068D01*
X1555413Y62607D01*
Y80509D01*
X1548562Y97049D01*
X1535904Y109707D01*
X1519364Y116558D01*
X1501462D01*
X1484923Y109707D01*
X1472264Y97049D01*
X1465413Y80509D01*
Y62607D01*
X1472264Y46068D01*
X1475044Y43288D01*
X1469783Y30588D01*
X1040452D01*
X1028746Y28260D01*
X1016000Y22980D01*
X1004407Y29546D01*
X1003300Y31199D01*
Y93281D01*
X1013860Y100337D01*
X1021734Y97075D01*
Y155806D01*
Y214536D01*
X1013860Y211274D01*
X1003300Y218330D01*
Y250000D01*
X1859851D01*
Y235494D01*
X1866702Y218954D01*
X1879360Y206295D01*
X1895900Y199445D01*
X1913802D01*
X1930341Y206295D01*
X1943000Y218954D01*
X1949851Y235494D01*
Y250000D01*
X1993900D01*
Y482600D01*
X2469414D01*
Y250000D01*
D02*
G37*
%LPC*%
G36*
X1426232Y1448761D02*
X1408330D01*
X1391790Y1441910D01*
X1379132Y1429251D01*
X1372281Y1412712D01*
Y1394810D01*
X1379132Y1378271D01*
X1391790Y1365612D01*
X1408330Y1358761D01*
X1426232D01*
X1442771Y1365612D01*
X1455430Y1378271D01*
X1462281Y1394810D01*
Y1412712D01*
X1455430Y1429251D01*
X1442771Y1441910D01*
X1426232Y1448761D01*
D02*
G37*
G36*
X703751Y1163287D02*
X685849D01*
X669310Y1156436D01*
X656651Y1143777D01*
X649800Y1127238D01*
Y1109336D01*
X656651Y1092797D01*
X669310Y1080138D01*
X685849Y1073287D01*
X703751D01*
X720290Y1080138D01*
X732949Y1092797D01*
X739800Y1109336D01*
Y1127238D01*
X732949Y1143777D01*
X720290Y1156436D01*
X703751Y1163287D01*
D02*
G37*
G36*
X847151Y1149900D02*
X829249D01*
X812710Y1143049D01*
X800051Y1130390D01*
X793200Y1113851D01*
Y1095949D01*
X800051Y1079410D01*
X812710Y1066751D01*
X829249Y1059900D01*
X847151D01*
X863690Y1066751D01*
X876349Y1079410D01*
X883200Y1095949D01*
Y1113851D01*
X876349Y1130390D01*
X863690Y1143049D01*
X847151Y1149900D01*
D02*
G37*
G36*
X1207153Y1015787D02*
X1191240D01*
X1176538Y1009697D01*
X1165286Y998445D01*
X1159196Y983744D01*
Y967830D01*
X1165286Y953129D01*
X1176538Y941877D01*
X1191240Y935787D01*
X1207153D01*
X1221854Y941877D01*
X1233106Y953129D01*
X1239196Y967830D01*
Y983744D01*
X1233106Y998445D01*
X1221854Y1009697D01*
X1207153Y1015787D01*
D02*
G37*
G36*
X1097153D02*
X1081240D01*
X1066538Y1009697D01*
X1055286Y998445D01*
X1049197Y983744D01*
Y967830D01*
X1055286Y953129D01*
X1066538Y941877D01*
X1081240Y935787D01*
X1097153D01*
X1111855Y941877D01*
X1123107Y953129D01*
X1129196Y967830D01*
Y983744D01*
X1123107Y998445D01*
X1111855Y1009697D01*
X1097153Y1015787D01*
D02*
G37*
G36*
X987153D02*
X971240D01*
X956538Y1009697D01*
X945286Y998445D01*
X939196Y983744D01*
Y967830D01*
X945286Y953129D01*
X956538Y941877D01*
X971240Y935787D01*
X987153D01*
X1001854Y941877D01*
X1013107Y953129D01*
X1019196Y967830D01*
Y983744D01*
X1013107Y998445D01*
X1001854Y1009697D01*
X987153Y1015787D01*
D02*
G37*
G36*
X1207153Y905787D02*
X1191240D01*
X1176538Y899697D01*
X1165286Y888445D01*
X1159196Y873744D01*
Y857831D01*
X1165286Y843129D01*
X1176538Y831877D01*
X1191240Y825787D01*
X1207153D01*
X1221854Y831877D01*
X1233106Y843129D01*
X1239196Y857831D01*
Y873744D01*
X1233106Y888445D01*
X1221854Y899697D01*
X1207153Y905787D01*
D02*
G37*
G36*
X1097153D02*
X1081240D01*
X1066538Y899697D01*
X1055286Y888445D01*
X1049197Y873744D01*
Y857831D01*
X1055286Y843129D01*
X1066538Y831877D01*
X1081240Y825787D01*
X1097153D01*
X1111855Y831877D01*
X1123107Y843129D01*
X1129196Y857831D01*
Y873744D01*
X1123107Y888445D01*
X1111855Y899697D01*
X1097153Y905787D01*
D02*
G37*
G36*
X987153D02*
X971240D01*
X956538Y899697D01*
X945286Y888445D01*
X939196Y873744D01*
Y857831D01*
X945286Y843129D01*
X956538Y831877D01*
X971240Y825787D01*
X987153D01*
X1001854Y831877D01*
X1013107Y843129D01*
X1019196Y857831D01*
Y873744D01*
X1013107Y888445D01*
X1001854Y899697D01*
X987153Y905787D01*
D02*
G37*
G36*
X770117Y937790D02*
X752215D01*
X735676Y930939D01*
X723017Y918281D01*
X716166Y901741D01*
Y883839D01*
X723017Y867300D01*
X734173Y856144D01*
X734295Y847816D01*
X733111Y841957D01*
X732892Y841866D01*
X720234Y829208D01*
X713383Y812668D01*
Y794767D01*
X720234Y778227D01*
X732892Y765568D01*
X749432Y758718D01*
X767333D01*
X783873Y765568D01*
X796532Y778227D01*
X803382Y794767D01*
Y812668D01*
X796532Y829208D01*
X785375Y840364D01*
X785253Y848691D01*
X786438Y854550D01*
X786657Y854641D01*
X799315Y867300D01*
X806166Y883839D01*
Y901741D01*
X799315Y918281D01*
X786657Y930939D01*
X770117Y937790D01*
D02*
G37*
G36*
X1621851Y832400D02*
X1603949D01*
X1587410Y825549D01*
X1574751Y812890D01*
X1567900Y796351D01*
Y778449D01*
X1574751Y761910D01*
X1587410Y749251D01*
X1603949Y742400D01*
X1621851D01*
X1638390Y749251D01*
X1651049Y761910D01*
X1657900Y778449D01*
Y796351D01*
X1651049Y812890D01*
X1638390Y825549D01*
X1621851Y832400D01*
D02*
G37*
G36*
X1207153Y795787D02*
X1191240D01*
X1176538Y789697D01*
X1165286Y778445D01*
X1159196Y763744D01*
Y747831D01*
X1165286Y733129D01*
X1176538Y721877D01*
X1191240Y715787D01*
X1207153D01*
X1221854Y721877D01*
X1233106Y733129D01*
X1239196Y747831D01*
Y763744D01*
X1233106Y778445D01*
X1221854Y789697D01*
X1207153Y795787D01*
D02*
G37*
G36*
X1097153D02*
X1081240D01*
X1066538Y789697D01*
X1055286Y778445D01*
X1049197Y763744D01*
Y747831D01*
X1055286Y733129D01*
X1066538Y721877D01*
X1081240Y715787D01*
X1097153D01*
X1111855Y721877D01*
X1123107Y733129D01*
X1129196Y747831D01*
Y763744D01*
X1123107Y778445D01*
X1111855Y789697D01*
X1097153Y795787D01*
D02*
G37*
G36*
X987153D02*
X971240D01*
X956538Y789697D01*
X945286Y778445D01*
X939196Y763744D01*
Y747831D01*
X945286Y733129D01*
X956538Y721877D01*
X971240Y715787D01*
X987153D01*
X1001854Y721877D01*
X1013107Y733129D01*
X1019196Y747831D01*
Y763744D01*
X1013107Y778445D01*
X1001854Y789697D01*
X987153Y795787D01*
D02*
G37*
G36*
X1474948Y693201D02*
X1457046D01*
X1440507Y686350D01*
X1427848Y673692D01*
X1420997Y657152D01*
Y639250D01*
X1427848Y622711D01*
X1440507Y610052D01*
X1457046Y603201D01*
X1474948D01*
X1491488Y610052D01*
X1504146Y622711D01*
X1510997Y639250D01*
Y657152D01*
X1504146Y673692D01*
X1491488Y686350D01*
X1474948Y693201D01*
D02*
G37*
G36*
X2035463Y611623D02*
X2017561D01*
X2001022Y604772D01*
X1988363Y592113D01*
X1981512Y575574D01*
Y557672D01*
X1988363Y541132D01*
X2001022Y528474D01*
X2017561Y521623D01*
X2035463D01*
X2052003Y528474D01*
X2064661Y541132D01*
X2071512Y557672D01*
Y575574D01*
X2064661Y592113D01*
X2052003Y604772D01*
X2035463Y611623D01*
D02*
G37*
G36*
X1076220Y500053D02*
X1058318D01*
X1041779Y493202D01*
X1029120Y480543D01*
X1022269Y464004D01*
Y446102D01*
X1029120Y429562D01*
X1041779Y416904D01*
X1058318Y410053D01*
X1076220D01*
X1092760Y416904D01*
X1105418Y429562D01*
X1112269Y446102D01*
Y464004D01*
X1105418Y480543D01*
X1092760Y493202D01*
X1076220Y500053D01*
D02*
G37*
G36*
X657891Y463331D02*
X639989D01*
X623449Y456480D01*
X610791Y443821D01*
X603940Y427282D01*
Y409380D01*
X610791Y392840D01*
X623449Y380182D01*
X639989Y373331D01*
X657891D01*
X674430Y380182D01*
X687089Y392840D01*
X693940Y409380D01*
Y427282D01*
X687089Y443821D01*
X674430Y456480D01*
X657891Y463331D01*
D02*
G37*
G36*
X1904466Y451080D02*
X1886564D01*
X1870024Y444229D01*
X1857366Y431570D01*
X1850515Y415031D01*
Y397129D01*
X1857366Y380590D01*
X1870024Y367931D01*
X1886564Y361080D01*
X1904466D01*
X1921005Y367931D01*
X1933664Y380590D01*
X1940515Y397129D01*
Y415031D01*
X1933664Y431570D01*
X1921005Y444229D01*
X1904466Y451080D01*
D02*
G37*
G36*
X1287982Y406980D02*
X1270081D01*
X1253541Y400130D01*
X1240882Y387471D01*
X1234032Y370931D01*
Y353030D01*
X1240882Y336490D01*
X1253541Y323831D01*
X1270081Y316981D01*
X1287982D01*
X1304522Y323831D01*
X1317180Y336490D01*
X1324031Y353030D01*
Y370931D01*
X1317180Y387471D01*
X1304522Y400130D01*
X1287982Y406980D01*
D02*
G37*
G36*
X1186129Y369917D02*
X1168228D01*
X1151688Y363066D01*
X1139029Y350407D01*
X1132179Y333868D01*
Y315966D01*
X1139029Y299426D01*
X1151688Y286768D01*
X1168228Y279917D01*
X1186129D01*
X1202669Y286768D01*
X1215328Y299426D01*
X1222178Y315966D01*
Y333868D01*
X1215328Y350407D01*
X1202669Y363066D01*
X1186129Y369917D01*
D02*
G37*
G36*
X873025Y438320D02*
X855123D01*
X838584Y431470D01*
X825925Y418811D01*
X819074Y402271D01*
Y384370D01*
X825925Y367830D01*
X832127Y361629D01*
X834169Y349479D01*
X831336Y345826D01*
X821628Y336118D01*
X814777Y319579D01*
Y301677D01*
X821628Y285138D01*
X834287Y272479D01*
X850826Y265628D01*
X868728D01*
X885267Y272479D01*
X897926Y285138D01*
X904777Y301677D01*
Y319579D01*
X897926Y336118D01*
X891725Y342320D01*
X889683Y354470D01*
X892516Y358122D01*
X902223Y367830D01*
X909074Y384370D01*
Y402271D01*
X902223Y418811D01*
X889565Y431470D01*
X873025Y438320D01*
D02*
G37*
G36*
X663607Y267331D02*
X645705D01*
X629165Y260480D01*
X616507Y247822D01*
X609656Y231282D01*
Y213380D01*
X616507Y196841D01*
X629165Y184182D01*
X645705Y177331D01*
X663607D01*
X680146Y184182D01*
X692805Y196841D01*
X699656Y213380D01*
Y231282D01*
X692805Y247822D01*
X680146Y260480D01*
X663607Y267331D01*
D02*
G37*
G36*
X1428674Y210806D02*
X1406794D01*
X1386579Y202432D01*
X1371108Y186961D01*
X1362734Y166746D01*
Y144866D01*
X1371108Y124651D01*
X1386579Y109179D01*
X1406794Y100806D01*
X1428674D01*
X1448889Y109179D01*
X1464361Y124651D01*
X1472734Y144866D01*
Y166746D01*
X1464361Y186961D01*
X1448889Y202432D01*
X1428674Y210806D01*
D02*
G37*
G36*
X1301674D02*
X1279794D01*
X1259579Y202432D01*
X1244108Y186961D01*
X1235734Y166746D01*
Y144866D01*
X1244108Y124651D01*
X1259579Y109179D01*
X1279794Y100806D01*
X1301674D01*
X1321889Y109179D01*
X1337361Y124651D01*
X1345734Y144866D01*
Y166746D01*
X1337361Y186961D01*
X1321889Y202432D01*
X1301674Y210806D01*
D02*
G37*
G36*
X1051734Y214536D02*
Y155806D01*
Y97075D01*
X1070722Y104940D01*
X1087600Y121818D01*
X1096734Y143871D01*
X1108734Y144865D01*
X1117108Y124651D01*
X1132579Y109179D01*
X1152794Y100806D01*
X1174674D01*
X1194889Y109179D01*
X1210361Y124651D01*
X1218734Y144866D01*
Y166746D01*
X1210361Y186961D01*
X1194889Y202432D01*
X1174674Y210806D01*
X1152794D01*
X1132579Y202432D01*
X1117108Y186961D01*
X1108734Y166746D01*
X1096734Y167741D01*
X1087600Y189793D01*
X1070722Y206671D01*
X1051734Y214536D01*
D02*
G37*
%LPD*%
D25*
X1417734Y155806D02*
D03*
X1290734D02*
D03*
X1163734D02*
D03*
X1036734D02*
D03*
D26*
X1067269Y455053D02*
D03*
X1033047Y533095D02*
D03*
X1279031Y361980D02*
D03*
X859777Y310628D02*
D03*
X564500Y598541D02*
D03*
X736767Y482433D02*
D03*
X778576Y385799D02*
D03*
X864074Y393321D02*
D03*
X648940Y418331D02*
D03*
X912105Y179367D02*
D03*
X654656Y222331D02*
D03*
X660400Y114300D02*
D03*
X758383Y803717D02*
D03*
X929618Y98035D02*
D03*
X1177178Y324917D02*
D03*
X951075Y422002D02*
D03*
X1465997Y648201D02*
D03*
X649812Y981785D02*
D03*
X562157Y872595D02*
D03*
X1518725Y398053D02*
D03*
X647700Y1397000D02*
D03*
X694800Y1118287D02*
D03*
X643047Y901767D02*
D03*
X2286757Y292265D02*
D03*
X2084840Y467893D02*
D03*
X571500Y1003300D02*
D03*
X1600200Y368300D02*
D03*
X1904851Y244445D02*
D03*
X1510413Y71558D02*
D03*
X1612900Y787400D02*
D03*
X1735000Y830735D02*
D03*
X1895515Y406080D02*
D03*
X2026512Y566623D02*
D03*
X761166Y892790D02*
D03*
X1543818Y304935D02*
D03*
X915433Y1423025D02*
D03*
X813833D02*
D03*
X1067833Y1435725D02*
D03*
X1169433D02*
D03*
X1417281Y1403761D02*
D03*
X1835000Y830779D02*
D03*
X1678221Y935056D02*
D03*
X1678177Y1035056D02*
D03*
X1678133Y1135056D02*
D03*
X1676401Y1224291D02*
D03*
X1678000Y1435056D02*
D03*
X1935000Y830823D02*
D03*
X2035000Y830868D02*
D03*
X2135000Y830912D02*
D03*
X2235000Y830956D02*
D03*
X2335000Y831000D02*
D03*
X2435000Y831044D02*
D03*
X712480Y1261344D02*
D03*
X1473200Y1193800D02*
D03*
X838200Y1104900D02*
D03*
D27*
X1199196Y975787D02*
D03*
Y865787D02*
D03*
Y755787D02*
D03*
X1089196Y975787D02*
D03*
Y865787D02*
D03*
Y755787D02*
D03*
X979196Y975787D02*
D03*
Y865787D02*
D03*
Y755787D02*
D03*
%TF.MD5,bc597a8e694430bb490ab40525465032*%
M02*
