%TF.GenerationSoftware,Altium Limited,Altium Designer,24.5.2 (23)*%
G04 Layer_Physical_Order=1*
G04 Layer_Color=255*
%FSLAX45Y45*%
%MOMM*%
%TF.SameCoordinates,A44132E1-8554-4EB8-AD62-5007B9A5CA4B*%
%TF.FilePolarity,Positive*%
%TF.FileFunction,Copper,L1,Top,Signal*%
%TF.Part,Single*%
G01*
G75*
%TA.AperFunction,Conductor*%
%ADD10C,0.35000*%
%TA.AperFunction,SMDPad,CuDef*%
%ADD11R,0.55000X0.65000*%
%ADD12R,0.65000X0.55000*%
%ADD13R,0.74000X1.47000*%
%ADD14R,0.62000X0.70000*%
%ADD15R,0.70000X0.62000*%
%ADD16R,0.62000X0.59000*%
%ADD17R,0.59000X0.62000*%
%ADD18R,1.00000X0.60000*%
%ADD19R,1.40000X1.20000*%
%ADD20O,0.25000X0.80000*%
%ADD21O,0.80000X0.25000*%
%ADD22R,3.70000X3.70000*%
%TA.AperFunction,Conductor*%
%ADD23C,0.15000*%
%ADD24C,0.50000*%
%TA.AperFunction,ComponentPad*%
%ADD25C,0.80000*%
%TA.AperFunction,ViaPad*%
%ADD26C,0.60000*%
%ADD27C,0.50000*%
G36*
X979747Y1509974D02*
X986378Y1500050D01*
X1000444Y1485984D01*
X1010367Y1479353D01*
X1028746Y1471741D01*
X1040451Y1469412D01*
X1261442D01*
X1266281Y1458716D01*
Y1418717D01*
X1368281D01*
Y1458716D01*
X1373120Y1469412D01*
X1714500D01*
Y1344012D01*
X1688901D01*
X1676603Y1344984D01*
Y1384984D01*
X1574603D01*
Y1356588D01*
X1561903Y1350327D01*
X1556698Y1354324D01*
Y1356876D01*
X1467699D01*
Y1356876D01*
X1465698D01*
Y1356876D01*
X1377602D01*
X1376699Y1356876D01*
X1368281Y1366089D01*
Y1388717D01*
X1266281D01*
Y1348717D01*
X1271281D01*
Y1331211D01*
X1256242Y1319671D01*
X1242523Y1301794D01*
X1233899Y1280974D01*
X1230958Y1258632D01*
X1231060D01*
Y1245353D01*
X1218360Y1238564D01*
X1216960Y1239500D01*
Y1283177D01*
X1220590Y1292872D01*
X1220590D01*
Y1332872D01*
X1169590D01*
Y1347872D01*
X1154590D01*
Y1402872D01*
X1118590D01*
Y1395144D01*
X1115650Y1393179D01*
X1022200D01*
Y1447398D01*
X986200D01*
Y1392398D01*
X956200D01*
Y1447398D01*
X920201D01*
X920200Y1447398D01*
X912478Y1449722D01*
Y1449722D01*
X908462Y1449722D01*
X876478D01*
Y1394722D01*
X846478D01*
Y1449722D01*
X810478D01*
Y1449722D01*
X809115Y1448741D01*
X773116D01*
Y1393741D01*
X758116D01*
Y1378741D01*
X707116D01*
Y1364940D01*
X694416Y1363643D01*
X693089Y1364862D01*
X687610Y1375761D01*
X692700Y1388049D01*
Y1405951D01*
X685849Y1422490D01*
X673190Y1435149D01*
X665006Y1438539D01*
Y1452286D01*
X686000Y1460981D01*
X728390Y1469413D01*
X799597D01*
X811302Y1471742D01*
X821225Y1478372D01*
X827856Y1488296D01*
X830184Y1500001D01*
Y1511033D01*
X979308D01*
X979747Y1509974D01*
D02*
G37*
G36*
X1118633Y1373960D02*
Y1310487D01*
X1117398Y1298299D01*
X1025398D01*
Y1278990D01*
X1006322Y1259914D01*
X802623D01*
Y1231160D01*
X682681D01*
Y1346825D01*
X712116D01*
Y1343741D01*
X803184D01*
X804115Y1343741D01*
Y1343741D01*
X815479Y1344721D01*
Y1344722D01*
X907478D01*
Y1346825D01*
X925200D01*
Y1342398D01*
X1017200D01*
Y1376943D01*
X1115650D01*
X1118633Y1373960D01*
D02*
G37*
G36*
X1200724Y1222375D02*
X1226137Y1196962D01*
Y1104900D01*
X1151602D01*
X1152456Y1160886D01*
Y1219200D01*
X1041400D01*
Y1278425D01*
X1041634Y1278990D01*
Y1282063D01*
X1117398D01*
X1120089Y1283178D01*
X1200724D01*
Y1222375D01*
D02*
G37*
G36*
X1376699Y1264876D02*
X1465698D01*
Y1264875D01*
X1467699D01*
Y1264876D01*
X1556698D01*
Y1277739D01*
X1579603D01*
Y1257984D01*
X1671603D01*
Y1277739D01*
X1714500D01*
Y863600D01*
X2469413D01*
X2469414Y250000D01*
X2469413Y228390D01*
X2460981Y186000D01*
X2444441Y146068D01*
X2420429Y110132D01*
X2389867Y79570D01*
X2353931Y55558D01*
X2314000Y39018D01*
X2271610Y30587D01*
X2250000D01*
X2200404Y30587D01*
X2188698Y28259D01*
X2178775Y21629D01*
X2172144Y11705D01*
X2172011Y11033D01*
X2002540D01*
X1999556Y14016D01*
X1989633Y20647D01*
X1971254Y28260D01*
X1959549Y30588D01*
X1040452D01*
X1028746Y28260D01*
X1010367Y20647D01*
X1000444Y14016D01*
X997461Y11033D01*
X828793D01*
X828660Y11704D01*
X822029Y21628D01*
X812106Y28258D01*
X800400Y30586D01*
X750000D01*
X728389Y30587D01*
X686000Y39018D01*
X647803Y54840D01*
X645348Y58081D01*
X649331Y65405D01*
X652782Y69300D01*
X669351D01*
X681069Y74154D01*
X682908Y72925D01*
X691687Y71179D01*
X716760D01*
Y51619D01*
X796760D01*
Y46619D01*
X834260D01*
Y94119D01*
Y141619D01*
X796760D01*
Y136619D01*
X716760D01*
Y129012D01*
X704060Y126486D01*
X698549Y139790D01*
X685890Y152449D01*
X669351Y159300D01*
X651449D01*
X634910Y152449D01*
X622251Y139790D01*
X615400Y123251D01*
Y105349D01*
X622251Y88810D01*
X628467Y82594D01*
X620371Y72729D01*
X610132Y79571D01*
X579570Y110132D01*
X555558Y146069D01*
X539018Y186000D01*
X533400Y214246D01*
Y649757D01*
X539709Y659844D01*
X576470D01*
X587429Y655640D01*
Y619640D01*
X642429D01*
Y604640D01*
X657429D01*
Y553640D01*
X697428D01*
Y558640D01*
X713659D01*
Y521569D01*
X711276Y520582D01*
X698618Y507923D01*
X691767Y491384D01*
Y473482D01*
X698618Y456942D01*
X711276Y444284D01*
X727816Y437433D01*
X745718D01*
X762257Y444284D01*
X772953Y454980D01*
X782234Y452951D01*
X785653Y451086D01*
X785653Y443498D01*
X785652Y441294D01*
X780414Y430966D01*
X780415D01*
X780414Y430965D01*
X769625Y430799D01*
X768558Y430357D01*
X753085Y423948D01*
X740427Y411289D01*
X733576Y394750D01*
Y385996D01*
X718863Y371283D01*
X683492D01*
X678231Y383983D01*
X687089Y392840D01*
X693940Y409380D01*
Y427282D01*
X687089Y443821D01*
X674430Y456480D01*
X657891Y463331D01*
X639989D01*
X623449Y456480D01*
X610791Y443821D01*
X603940Y427282D01*
Y409380D01*
X606887Y402264D01*
X599627Y395005D01*
X594655Y387562D01*
X592908Y378783D01*
Y371283D01*
X571306D01*
Y286283D01*
X751306D01*
Y335747D01*
X761863Y344014D01*
X769625Y340799D01*
X787527D01*
X804066Y347650D01*
X816725Y360308D01*
X823576Y376848D01*
Y394750D01*
X816725Y411289D01*
X804066Y423948D01*
X792850Y428594D01*
X795376Y441293D01*
X798353Y441294D01*
X825653D01*
Y492294D01*
X855653D01*
Y441294D01*
X895652D01*
X895653Y441293D01*
Y441294D01*
X896681Y440952D01*
X906075Y430952D01*
Y413051D01*
X912926Y396511D01*
X925585Y383853D01*
X942124Y377002D01*
X960026D01*
X976566Y383853D01*
X989224Y396511D01*
X996075Y413051D01*
Y430953D01*
X989224Y447492D01*
X982653Y454064D01*
Y496429D01*
X994636Y505710D01*
X996950Y505552D01*
X1007556Y494946D01*
X1024096Y488095D01*
X1041998D01*
X1058537Y494946D01*
X1071196Y507604D01*
X1072252Y510154D01*
X1114856D01*
Y450352D01*
Y365352D01*
X1134415D01*
Y356916D01*
X1136162Y348137D01*
X1137352Y346356D01*
X1132179Y333868D01*
Y315966D01*
X1139029Y299426D01*
X1151688Y286768D01*
X1168228Y279917D01*
X1186129D01*
X1202669Y286768D01*
X1215328Y299426D01*
X1222178Y315966D01*
Y333868D01*
X1215328Y350407D01*
X1202669Y363066D01*
X1201979Y363352D01*
X1199856Y365353D01*
Y450352D01*
Y545352D01*
X1147299D01*
X1143335Y549316D01*
X1135893Y554289D01*
X1127114Y556035D01*
X1120408D01*
X1119158Y568735D01*
X1124926Y569883D01*
X1130616Y573685D01*
X1139196Y575105D01*
X1147776Y573685D01*
X1153466Y569883D01*
X1164196Y567748D01*
X1174926Y569883D01*
X1184022Y575961D01*
X1194370D01*
X1203466Y569883D01*
X1214196Y567748D01*
X1224926Y569883D01*
X1234022Y575961D01*
X1244370D01*
X1253466Y569883D01*
X1264196Y567748D01*
X1274926Y569883D01*
X1284023Y575961D01*
X1290101Y585057D01*
X1292235Y595787D01*
Y650787D01*
X1291947Y652236D01*
X1302747Y663037D01*
X1304196Y662748D01*
X1348659D01*
Y373174D01*
X1182889Y207403D01*
X1174674Y210806D01*
X1152794D01*
X1132579Y202432D01*
X1117108Y186961D01*
X1108734Y166746D01*
Y144866D01*
X1117108Y124651D01*
X1132579Y109179D01*
X1152794Y100806D01*
X1174674D01*
X1194889Y109179D01*
X1210361Y124651D01*
X1218734Y144866D01*
Y166746D01*
X1215332Y174960D01*
X1234290Y193919D01*
X1244108Y186960D01*
X1235734Y166746D01*
Y144866D01*
X1244108Y124651D01*
X1259579Y109179D01*
X1279794Y100806D01*
X1301674D01*
X1321889Y109179D01*
X1337361Y124651D01*
X1345734Y144865D01*
X1357734Y143871D01*
X1366869Y121818D01*
X1383747Y104940D01*
X1402734Y97075D01*
Y155806D01*
Y214536D01*
X1397841Y212509D01*
X1390647Y223276D01*
X1422821Y255450D01*
X1427794Y262892D01*
X1429540Y271671D01*
Y664753D01*
X1456201D01*
Y719753D01*
X1471201D01*
Y734753D01*
X1527651D01*
X1534901Y738382D01*
X1539159Y735193D01*
Y629710D01*
X1540906Y620931D01*
X1545879Y613489D01*
X1586348Y573019D01*
Y449222D01*
X1756348D01*
Y599221D01*
X1763831Y608822D01*
X1766748D01*
Y681522D01*
X1671348D01*
Y706922D01*
X1766748D01*
Y753781D01*
X1789345D01*
X1806348Y736779D01*
Y622322D01*
X1806348Y619222D01*
X1798864Y609622D01*
X1795948D01*
Y536922D01*
X1986748D01*
Y609622D01*
X1983831D01*
X1976348Y619222D01*
X1976348Y622322D01*
Y769221D01*
X1838791D01*
X1815069Y792943D01*
X1807627Y797916D01*
X1798848Y799662D01*
X1710952D01*
X1646906Y863709D01*
X1639464Y868682D01*
X1630685Y870428D01*
X1618937D01*
X1607124Y872570D01*
Y908570D01*
X1552125D01*
Y938570D01*
X1607124D01*
Y974569D01*
X1619799Y974632D01*
X1644355D01*
Y1010632D01*
X1589355D01*
Y1040632D01*
X1644355D01*
Y1076631D01*
X1644356D01*
X1645226Y1079034D01*
X1645225Y1079034D01*
X1645225Y1088971D01*
Y1115034D01*
X1590225D01*
Y1130034D01*
X1575225D01*
Y1181034D01*
X1551424D01*
X1551045Y1232021D01*
X1548649Y1237684D01*
X1546290Y1243381D01*
X1546229Y1243406D01*
X1546204Y1243466D01*
X1540507Y1245776D01*
X1534809Y1248136D01*
X1448563D01*
X1442882Y1245783D01*
X1437152Y1243450D01*
X1437131Y1243401D01*
X1437082Y1243381D01*
X1434727Y1237695D01*
X1432327Y1231998D01*
X1432209Y1212429D01*
X1428200Y1202751D01*
Y1184849D01*
X1431987Y1175707D01*
X1431349Y1070115D01*
X1331148D01*
X1328034Y1068826D01*
X1304196D01*
X1302747Y1068537D01*
X1291947Y1079338D01*
X1292235Y1080787D01*
Y1131358D01*
X1294810Y1135212D01*
X1297333Y1147893D01*
Y1258632D01*
X1297588D01*
X1298201Y1261717D01*
X1363281D01*
Y1278580D01*
X1376699D01*
Y1264876D01*
D02*
G37*
G36*
X1536633Y986925D02*
X1527675Y977922D01*
X1331148Y978409D01*
Y1053880D01*
X1447487D01*
X1448563Y1231900D01*
X1534809D01*
X1536633Y986925D01*
D02*
G37*
%LPC*%
G36*
X1676603Y1454984D02*
X1640603D01*
Y1414984D01*
X1676603D01*
Y1454984D01*
D02*
G37*
G36*
X1610603D02*
X1574603D01*
Y1414984D01*
X1610603D01*
Y1454984D01*
D02*
G37*
G36*
X743116Y1448741D02*
X707116D01*
Y1408741D01*
X743116D01*
Y1448741D01*
D02*
G37*
G36*
X1220590Y1402872D02*
X1184590D01*
Y1362872D01*
X1220590D01*
Y1402872D01*
D02*
G37*
G36*
X1645225Y1181034D02*
X1605225D01*
Y1145034D01*
X1645225D01*
Y1181034D01*
D02*
G37*
G36*
X1522201Y704753D02*
X1486201D01*
Y664753D01*
X1522201D01*
Y704753D01*
D02*
G37*
G36*
X627429Y589640D02*
X587429D01*
Y553640D01*
X627429D01*
Y589640D01*
D02*
G37*
G36*
X1986748Y511522D02*
X1904048D01*
Y438822D01*
X1986748D01*
Y511522D01*
D02*
G37*
G36*
X1878648D02*
X1795948D01*
Y438822D01*
X1878648D01*
Y511522D01*
D02*
G37*
G36*
X2093791Y512893D02*
X2075889D01*
X2059350Y506042D01*
X2046691Y493383D01*
X2039840Y476844D01*
Y458942D01*
X2046691Y442402D01*
X2059350Y429744D01*
X2075889Y422893D01*
X2093791D01*
X2110331Y429744D01*
X2122989Y442402D01*
X2129840Y458942D01*
Y476844D01*
X2122989Y493383D01*
X2110331Y506042D01*
X2093791Y512893D01*
D02*
G37*
G36*
X1432734Y214536D02*
Y170806D01*
X1476464D01*
X1468600Y189793D01*
X1451722Y206671D01*
X1432734Y214536D01*
D02*
G37*
G36*
X663607Y267331D02*
X645705D01*
X629165Y260480D01*
X616507Y247822D01*
X609656Y231282D01*
Y213380D01*
X616507Y196841D01*
X629165Y184182D01*
X645705Y177331D01*
X663607D01*
X674950Y182030D01*
X687650Y179908D01*
Y179908D01*
X687650Y179909D01*
X867105D01*
Y170416D01*
X873956Y153877D01*
X874481Y153352D01*
X869620Y141619D01*
X864260D01*
Y109119D01*
X901760D01*
Y133436D01*
X903154Y134367D01*
X921056D01*
X937596Y141218D01*
X950254Y153877D01*
X957105Y170416D01*
Y188318D01*
X950254Y204858D01*
X937596Y217516D01*
X921056Y224367D01*
X903154D01*
X900604Y223311D01*
X885285Y238630D01*
X877843Y243603D01*
X869064Y245349D01*
X867650D01*
Y264908D01*
X687650D01*
X687650Y264909D01*
Y264909D01*
X674950Y262633D01*
X663607Y267331D01*
D02*
G37*
G36*
X1047674Y210806D02*
X1025794D01*
X1005579Y202432D01*
X990108Y186961D01*
X981734Y166746D01*
Y144866D01*
X990108Y124651D01*
X1005579Y109179D01*
X1025794Y100806D01*
X1047674D01*
X1067889Y109179D01*
X1083361Y124651D01*
X1091734Y144866D01*
Y166746D01*
X1083361Y186961D01*
X1067889Y202432D01*
X1047674Y210806D01*
D02*
G37*
G36*
X2073880Y380606D02*
X1943880D01*
Y290606D01*
X1938880D01*
Y255606D01*
X2008880D01*
Y225606D01*
X1938880D01*
Y190606D01*
X1943880Y190606D01*
Y100606D01*
X2073880D01*
Y105974D01*
X2127108D01*
Y98917D01*
X2219108D01*
Y119214D01*
X2229284Y121238D01*
X2242515Y130078D01*
X2313681Y201245D01*
X2313682Y201246D01*
X2322523Y214477D01*
X2325628Y230084D01*
X2325627Y230085D01*
Y268516D01*
X2331757Y283314D01*
Y301216D01*
X2324906Y317755D01*
X2312247Y330414D01*
X2295708Y337265D01*
X2277806D01*
X2261266Y330414D01*
X2248608Y317755D01*
X2241757Y301216D01*
Y283314D01*
X2244060Y277753D01*
Y247133D01*
X2235264Y239891D01*
X2224108Y244666D01*
Y295917D01*
X2188108D01*
Y240917D01*
X2158108D01*
Y295917D01*
X2122108D01*
Y293381D01*
X2117400Y290331D01*
X2109408Y288515D01*
X2073880Y324043D01*
Y380606D01*
D02*
G37*
G36*
X1476464Y140806D02*
X1432734D01*
Y97075D01*
X1451722Y104940D01*
X1468600Y121818D01*
X1476464Y140806D01*
D02*
G37*
G36*
X1527676Y443053D02*
X1509774D01*
X1493234Y436202D01*
X1480576Y423543D01*
X1473725Y407004D01*
Y389102D01*
X1480576Y372563D01*
X1493234Y359904D01*
X1507884Y353836D01*
Y332640D01*
X1505669Y330426D01*
X1498818Y313886D01*
Y295984D01*
X1505669Y279445D01*
X1507884Y277230D01*
Y194035D01*
X1512640Y182555D01*
X1518218Y180244D01*
Y146935D01*
X1569218D01*
X1620218D01*
Y177799D01*
X1633893D01*
X1652644Y159048D01*
Y101576D01*
X1657399Y90096D01*
X1668880Y85340D01*
X1776578D01*
X1776616Y85356D01*
X1776655Y85341D01*
X1782332Y87724D01*
X1788058Y90096D01*
X1788074Y90134D01*
X1788113Y90150D01*
X1797051Y99173D01*
X1797066Y99212D01*
X1797105Y99228D01*
X1797664Y100606D01*
X1798880D01*
X1801752Y110676D01*
X1801739Y110707D01*
X1801752Y110753D01*
X1801738Y112122D01*
X1800751Y216189D01*
X1798346Y221843D01*
X1795997Y227516D01*
X1795920Y227547D01*
X1795887Y227624D01*
X1790195Y229919D01*
X1784516Y232271D01*
X1723240D01*
Y240703D01*
X1721078Y245921D01*
X1719315Y251288D01*
X1699996Y273758D01*
X1699414Y274052D01*
X1699165Y274654D01*
X1693947Y276815D01*
X1691788Y277906D01*
X1694815Y290606D01*
X1798880D01*
Y380606D01*
X1668880D01*
Y292109D01*
X1668880Y290606D01*
X1665251Y279409D01*
X1639916D01*
Y346593D01*
X1645200Y359349D01*
Y377251D01*
X1639916Y390007D01*
Y391339D01*
X1635161Y402819D01*
X1623680Y407574D01*
X1622973D01*
X1609151Y413300D01*
X1591249D01*
X1577427Y407574D01*
X1563488D01*
X1556874Y423543D01*
X1544215Y436202D01*
X1527676Y443053D01*
D02*
G37*
G36*
X1620218Y116935D02*
X1584218D01*
Y76935D01*
X1620218D01*
Y116935D01*
D02*
G37*
G36*
X1554218D02*
X1518218D01*
Y76935D01*
X1554218D01*
Y116935D01*
D02*
G37*
G36*
X901760Y79119D02*
X864260D01*
Y46619D01*
X901760D01*
Y79119D01*
D02*
G37*
%LPD*%
G36*
X1623680Y263173D02*
X1687685D01*
X1707004Y240703D01*
Y216035D01*
X1784516D01*
X1785516Y110599D01*
X1776578Y101576D01*
X1668880D01*
Y165773D01*
X1640618Y194035D01*
X1524120D01*
Y391339D01*
X1623680D01*
Y263173D01*
D02*
G37*
D10*
X1317281Y1311717D02*
G03*
X1264196Y1258632I0J-53084D01*
G01*
X1317281Y1311717D02*
X1420357D01*
X1264196Y1147893D02*
Y1258632D01*
X1512198Y1310876D02*
X2140259D01*
X1626554Y1310932D02*
X1648499D01*
D11*
X1157356Y412852D02*
D03*
Y497852D02*
D03*
X623159Y1249970D02*
D03*
Y1334970D02*
D03*
X680143Y831106D02*
D03*
Y746106D02*
D03*
X582209Y792344D02*
D03*
Y707344D02*
D03*
X622300Y1147400D02*
D03*
Y1062400D02*
D03*
D12*
X618806Y328783D02*
D03*
X703806D02*
D03*
X735150Y222408D02*
D03*
X820150D02*
D03*
X849260Y94119D02*
D03*
X764260D02*
D03*
D13*
X2357259Y1310876D02*
D03*
X2140259D02*
D03*
D14*
X734573Y1074119D02*
D03*
Y982118D02*
D03*
X1471201Y811753D02*
D03*
Y719753D02*
D03*
X758116Y1301741D02*
D03*
Y1393741D02*
D03*
X1169590Y1255872D02*
D03*
Y1347872D02*
D03*
X861478Y1394722D02*
D03*
Y1302722D02*
D03*
X971200Y1392398D02*
D03*
Y1300398D02*
D03*
X1317281Y1311717D02*
D03*
Y1403717D02*
D03*
X1625603Y1307984D02*
D03*
Y1399984D02*
D03*
X2173108Y148917D02*
D03*
Y240917D02*
D03*
X1569218Y131935D02*
D03*
Y223935D02*
D03*
D15*
X932653Y492294D02*
D03*
X840653D02*
D03*
X642428Y604640D02*
D03*
X734429D02*
D03*
X1460124Y923569D02*
D03*
X1552124D02*
D03*
X1497355Y1025632D02*
D03*
X1589355D02*
D03*
X1498225Y1130034D02*
D03*
X1590225D02*
D03*
D16*
X1071398Y1253799D02*
D03*
Y1344799D02*
D03*
D17*
X1421198Y1310876D02*
D03*
X1512198D02*
D03*
D18*
X1733880Y145606D02*
D03*
Y335606D02*
D03*
X2008880D02*
D03*
Y240606D02*
D03*
Y145606D02*
D03*
D19*
X1891348Y524222D02*
D03*
Y694222D02*
D03*
X1671348Y524222D02*
D03*
Y694222D02*
D03*
D20*
X1264196Y1108287D02*
D03*
X1214196D02*
D03*
X1164196D02*
D03*
X1114196D02*
D03*
X1064196D02*
D03*
X1014196D02*
D03*
X964196D02*
D03*
X914196D02*
D03*
Y623287D02*
D03*
X964196D02*
D03*
X1014196D02*
D03*
X1064196D02*
D03*
X1114196D02*
D03*
X1164196D02*
D03*
X1214196D02*
D03*
X1264196D02*
D03*
D21*
X846696Y1040787D02*
D03*
Y990787D02*
D03*
Y940787D02*
D03*
Y890787D02*
D03*
Y840787D02*
D03*
Y790787D02*
D03*
Y740787D02*
D03*
Y690787D02*
D03*
X1331696D02*
D03*
Y740787D02*
D03*
Y790787D02*
D03*
Y840787D02*
D03*
Y890787D02*
D03*
Y940787D02*
D03*
Y990787D02*
D03*
Y1040787D02*
D03*
D22*
X1089196Y865787D02*
D03*
D23*
X1033047Y533095D02*
X1127114D01*
X1157356Y502852D01*
Y497852D02*
Y502852D01*
X634689Y596900D02*
X642428Y604640D01*
X736600Y482600D02*
Y602468D01*
Y482600D02*
X736767Y482433D01*
X734429Y604640D02*
X736600Y602468D01*
X757211Y377188D02*
X769966D01*
X703806Y328783D02*
X708806D01*
X757211Y377188D01*
X769966D02*
X778576Y385799D01*
X648940Y411874D02*
Y418331D01*
X615849Y320826D02*
Y378783D01*
X648940Y411874D01*
X869064Y222408D02*
X912105Y179367D01*
X820150Y222408D02*
X869064D01*
X654656Y222331D02*
X735072D01*
X735150Y222408D01*
X691687Y94119D02*
X764260D01*
X660400Y114300D02*
X671506D01*
X691687Y94119D01*
X758383Y803717D02*
X766993Y812328D01*
X1157356Y356916D02*
Y412852D01*
X1177178Y324917D02*
Y337094D01*
X1157356Y356916D02*
X1177178Y337094D01*
X932653Y492294D02*
X951075Y473871D01*
Y422002D02*
Y473871D01*
X1371600Y363672D02*
Y673100D01*
X1163734Y155806D02*
X1371600Y363672D01*
X1406600Y271671D02*
Y693384D01*
X1290734Y155806D02*
X1406600Y271671D01*
X964196Y623287D02*
X965060Y622424D01*
Y520700D02*
Y622424D01*
X936653Y492294D02*
X965060Y520700D01*
X734429Y604640D02*
X909577D01*
X914196Y609259D01*
Y623287D01*
X760753Y682344D02*
X819196Y740787D01*
X602209Y682344D02*
X760753D01*
X582209Y702344D02*
Y707344D01*
Y702344D02*
X602209Y682344D01*
X734240Y981785D02*
X734573Y982118D01*
X649812Y981785D02*
X734240D01*
X562157Y872595D02*
X582209Y852542D01*
X643159Y1354970D02*
Y1392459D01*
X647700Y1397000D01*
X623159Y1334970D02*
X643159Y1354970D01*
X734573Y1074119D02*
Y1078119D01*
X694800Y1117892D02*
X734573Y1078119D01*
X694800Y1117892D02*
Y1118287D01*
X623159Y1244970D02*
X643159Y1224970D01*
X644638D02*
X661388Y1208220D01*
X623159Y1244970D02*
Y1249970D01*
X643159Y1224970D02*
X644638D01*
X661388Y1208220D02*
X941764D01*
X660143Y851106D02*
X680143Y831106D01*
X643047Y889590D02*
X660143Y872493D01*
Y851106D02*
Y872493D01*
X643047Y889590D02*
Y901767D01*
X582209Y792344D02*
Y852542D01*
X819196Y740787D02*
X846696D01*
X775017Y746106D02*
X819698Y790787D01*
X680143Y746106D02*
X775017D01*
X819698Y790787D02*
X846696D01*
X571500Y1006600D02*
X622300Y1057400D01*
X571500Y1003300D02*
Y1006600D01*
X622300Y1057400D02*
Y1062400D01*
Y1150787D02*
X642300Y1170787D01*
X622300Y1147400D02*
Y1150787D01*
X642300Y1170787D02*
X929699D01*
X964196Y1108287D02*
Y1136289D01*
X929699Y1170787D02*
X964196Y1136289D01*
X1511521Y869254D02*
X1533287Y847487D01*
X1701450Y776722D02*
X1798848D01*
X1533287Y847487D02*
X1630685D01*
X1701450Y776722D01*
X1798848D02*
X1832564Y743006D01*
X845695Y891789D02*
X846696Y890787D01*
X762168Y891789D02*
X845695D01*
X761166Y892790D02*
X762168Y891789D01*
X2028904Y336576D02*
X2095227Y270253D01*
Y146757D02*
Y270253D01*
X2008904Y336576D02*
X2028904D01*
X766993Y812328D02*
X790737D01*
X819196Y840787D02*
X846696D01*
X790737Y812328D02*
X819196Y840787D01*
X1562100Y629710D02*
Y750839D01*
X1515914Y797025D02*
X1562100Y750839D01*
Y629710D02*
X1608848Y582963D01*
Y576722D02*
X1661348Y524222D01*
X1671348D01*
X1608848Y576722D02*
Y582963D01*
X1832564Y743006D02*
X1881247D01*
X1508620Y869254D02*
X1511521D01*
X941764Y1208220D02*
X1014196Y1135787D01*
Y1108287D02*
Y1135787D01*
X838200Y1104900D02*
X846696Y1096404D01*
Y1040787D02*
Y1096404D01*
X734573Y978118D02*
X758073Y954618D01*
X802659D02*
X816490Y940787D01*
X846696D01*
X758073Y954618D02*
X802659D01*
X1331696Y690787D02*
X1356490D01*
X1364196Y680504D02*
Y683081D01*
Y680504D02*
X1371600Y673100D01*
X1356490Y690787D02*
X1364196Y683081D01*
X1359196Y740787D02*
X1406600Y693384D01*
X1331696Y740787D02*
X1359196D01*
X1471201Y811753D02*
X1485929Y797025D01*
X1515914D01*
X1471201Y811753D02*
Y815754D01*
X1393816Y890787D02*
X1445349Y839253D01*
X1447701D02*
X1471201Y815754D01*
X1331696Y890787D02*
X1393816D01*
X1445349Y839253D02*
X1447701D01*
X1331696Y940787D02*
X1442907D01*
X1460124Y923569D01*
X1464125D01*
X1487624Y900070D01*
Y890249D02*
Y900070D01*
Y890249D02*
X1508620Y869254D01*
D24*
X2174917Y154726D02*
X2179108Y158917D01*
X2213677D02*
X2284844Y230084D01*
Y290351D02*
X2286757Y292265D01*
X2174917Y150726D02*
Y154726D01*
X2179108Y158917D02*
X2213677D01*
X2284844Y230084D02*
Y290351D01*
X2170948Y146757D02*
X2174917Y150726D01*
X2095227Y146757D02*
X2170948D01*
X2048658D02*
X2095227D01*
D25*
X1417734Y155806D02*
D03*
X1290734D02*
D03*
X1163734D02*
D03*
X1036734D02*
D03*
D26*
X1067269Y455053D02*
D03*
X1033047Y533095D02*
D03*
X1279031Y361980D02*
D03*
X859777Y310628D02*
D03*
X564500Y598541D02*
D03*
X736767Y482433D02*
D03*
X778576Y385799D02*
D03*
X864074Y393321D02*
D03*
X648940Y418331D02*
D03*
X912105Y179367D02*
D03*
X654656Y222331D02*
D03*
X660400Y114300D02*
D03*
X758383Y803717D02*
D03*
X929618Y98035D02*
D03*
X1177178Y324917D02*
D03*
X951075Y422002D02*
D03*
X1465997Y648201D02*
D03*
X649812Y981785D02*
D03*
X562157Y872595D02*
D03*
X1518725Y398053D02*
D03*
X647700Y1397000D02*
D03*
X694800Y1118287D02*
D03*
X643047Y901767D02*
D03*
X2286757Y292265D02*
D03*
X2084840Y467893D02*
D03*
X571500Y1003300D02*
D03*
X1600200Y368300D02*
D03*
X1904851Y244445D02*
D03*
X1510413Y71558D02*
D03*
X1612900Y787400D02*
D03*
X1735000Y830735D02*
D03*
X1895515Y406080D02*
D03*
X2026512Y566623D02*
D03*
X761166Y892790D02*
D03*
X1543818Y304935D02*
D03*
X915433Y1423025D02*
D03*
X813833D02*
D03*
X1067833Y1435725D02*
D03*
X1169433D02*
D03*
X1417281Y1403761D02*
D03*
X1835000Y830779D02*
D03*
X1678221Y935056D02*
D03*
X1678177Y1035056D02*
D03*
X1678133Y1135056D02*
D03*
X1676401Y1224291D02*
D03*
X1678000Y1435056D02*
D03*
X1935000Y830823D02*
D03*
X2035000Y830868D02*
D03*
X2135000Y830912D02*
D03*
X2235000Y830956D02*
D03*
X2335000Y831000D02*
D03*
X2435000Y831044D02*
D03*
X712480Y1261344D02*
D03*
X1473200Y1193800D02*
D03*
X838200Y1104900D02*
D03*
D27*
X1199196Y975787D02*
D03*
Y865787D02*
D03*
Y755787D02*
D03*
X1089196Y975787D02*
D03*
Y865787D02*
D03*
Y755787D02*
D03*
X979196Y975787D02*
D03*
Y865787D02*
D03*
Y755787D02*
D03*
%TF.MD5,6a3d70ad3b633e5f328e1df3c01bba4b*%
M02*
