%TF.GenerationSoftware,Altium Limited,Altium Designer,24.5.2 (23)*%
G04 Layer_Color=16711935*
%FSLAX45Y45*%
%MOMM*%
%TF.SameCoordinates,A44132E1-8554-4EB8-AD62-5007B9A5CA4B*%
%TF.FilePolarity,Negative*%
%TF.FileFunction,Soldermask,Bot*%
%TF.Part,Single*%
G01*
G75*
%TA.AperFunction,SMDPad,CuDef*%
%ADD40R,0.72000X0.80000*%
%ADD41R,0.80000X0.72000*%
%TA.AperFunction,ComponentPad*%
%ADD49C,0.90000*%
%TA.AperFunction,SMDPad,CuDef*%
%ADD50R,0.65000X0.50000*%
%ADD51R,1.10000X0.65000*%
%ADD52R,1.40000X1.36000*%
G36*
X1346880Y589028D02*
X1347823Y588742D01*
X1348691Y588277D01*
X1349453Y587653D01*
X1350077Y586891D01*
X1350542Y586023D01*
X1350828Y585080D01*
X1350924Y584100D01*
Y414100D01*
X1350828Y413120D01*
X1350542Y412177D01*
X1350077Y411309D01*
X1349453Y410547D01*
X1348691Y409923D01*
X1347823Y409458D01*
X1346880Y409172D01*
X1345900Y409076D01*
X1250903D01*
X1250900Y409076D01*
X1250410Y409124D01*
X1249920Y409172D01*
X1249197Y409392D01*
X1248977Y409458D01*
X1248109Y409922D01*
X1247347Y410547D01*
X1217349Y440546D01*
X1217347Y440548D01*
X1216723Y441309D01*
X1216258Y442178D01*
X1215972Y443120D01*
X1215876Y444100D01*
Y584100D01*
X1215972Y585080D01*
X1216258Y586023D01*
X1216723Y586891D01*
X1217347Y587653D01*
X1218109Y588277D01*
X1218977Y588742D01*
X1219920Y589028D01*
X1220900Y589124D01*
X1345900D01*
X1346880Y589028D01*
D02*
G37*
D40*
X1511299Y493000D02*
D03*
Y585000D02*
D03*
D41*
X1049300Y330200D02*
D03*
X957300D02*
D03*
D49*
X1417734Y155806D02*
D03*
X1290734D02*
D03*
X1163734D02*
D03*
X1036734D02*
D03*
D50*
X1168400Y419100D02*
D03*
X1398400D02*
D03*
X1168400Y499100D02*
D03*
X1398400D02*
D03*
X1168400Y579100D02*
D03*
X1398400D02*
D03*
D51*
X1979315Y463977D02*
D03*
Y363977D02*
D03*
D52*
X2278315Y701477D02*
D03*
Y126477D02*
D03*
%TF.MD5,aa02b4a0077517c6f773844365977db8*%
M02*
